<?xml version="1.0" encoding="utf-8"?>
<!-- Generator: Adobe Illustrator 18.1.1, SVG Export Plug-In . SVG Version: 6.00 Build 0)  -->
<svg version="1.1" id="Layer_2" xmlns="http://www.w3.org/2000/svg" xmlns:xlink="http://www.w3.org/1999/xlink" x="0px" y="0px"
	 viewBox="-120 121.2 100 100" enable-background="new -120 121.2 100 100" xml:space="preserve">
<path fill="#0F0F5B" d="M-103.7,180.7c-0.4,4.2-1.1,8.5-0.7,12.7c0.3,3.2,1.1,6.3,2.3,9.2c2.3,5.4,6.4,10.8,12.1,12.9
	c3.8,1.4,7.7,0.8,11.6,0.5c4.1-0.3,8.2-0.2,12.3-0.3c5.7-0.1,12-0.6,16.8-4c2.5-1.8,4.1-4,5.7-6.5c0.1-0.1,0.2-0.2,0.2-0.3
	c0.1,0,0.2,0,0.2-0.1c1.6-1.7,4.4,0,6.3-0.9c2-0.9,2.7-3.2,3.4-5.1c0-0.1,0-0.1,0-0.2c1.5-0.5,2.7-1.7,3.2-3.3
	c0.5-1.7,0.3-3.4-0.1-5.1c-0.5-2.1-0.8-4.1-0.9-6.3c0-4.2-0.1-8.2-0.8-12.3c-0.8-4.3-1.8-8.4-3-12.6c-1.1-3.8-2.2-7.8-3.7-11.4
	c-1.2-3-3.1-5.8-5.8-7.5c-3.1-2-6.7-2.9-10.4-3.4c-0.1,0-0.1,0-0.2,0c0.3-1.7,0.6-3.3-0.1-4.9c-0.7-1.5-1.8-2.9-2.6-4.4
	c-0.9-1.7-2.9-3.8-5-2.3c-1.7,1.2-1.8,4.7-4,5.2c-1.6,0.3-3.4,0.1-4.6,1.4c-0.9,0.9-1,2.4-1.2,3.6c-5.4,1.2-10.5,3.9-14.8,7.3
	c-4.8,3.8-8.9,8.4-11.6,13.9c-0.1,0.1-0.1,0.2-0.1,0.2c-0.4,0.7-0.7,1.5-1,2.3c-1.3,3.3-2.1,6.8-2.6,10.3c-0.1,0.5-0.1,1-0.2,1.6
	c0,0.1,0,0.1,0,0.2C-103.4,174.3-103.4,177.5-103.7,180.7z M-103.1,197c1.4,0.7,2.8,1.2,4.2,1.8c1.5,0.7,3,1.2,4.6,1.6
	c1.8,0.4,3.5,0.9,5.2,1.5c1.4,0.5,2.7,1.1,4.1,1.3c0,0.3,0.1,0.5,0.1,0.8c-1.2-0.6-2.5-0.8-3.7-1.2c-1.6-0.5-3.2-1.2-4.8-1.8
	c-1.7-0.7-3.5-1.3-5.2-2c-1.4-0.6-2.8-1.4-4.3-1.8c-0.1,0-0.1,0-0.1,0C-103.1,197.2-103.1,197.1-103.1,197z M-103,197.4
	c0.6,0.8,1.6,1.1,2.5,1.5c1.4,0.6,2.8,1.2,4.3,1.8c1.7,0.6,3.3,1.3,5.1,1.9c1.7,0.6,3.4,1.1,5,1.9c0.4,0.2,0.9,0.4,1.3,0.7
	c-0.3-0.2-0.8-0.2-1.2-0.4c-0.7-0.3-1.4-0.6-2.1-0.8c-1.7-0.6-3.4-1.1-5-1.6c-1.7-0.6-3.4-1.3-5.1-1.9c-1.4-0.5-3.1-0.8-4.3-1.7
	h-0.1C-102.8,198.3-102.9,197.9-103,197.4z M-86.8,149.3c-0.1,0-0.3,0.1-0.4,0.1c-0.6,0.2-1.3,0.4-1.9,0.7c0.7-0.4,1.4-0.7,2.1-1
	C-86.9,149.2-86.9,149.3-86.8,149.3z M-86.2,148.9c0.1,0,0.2-0.1,0.4-0.1c0,0,0,0,0,0.1s0,0.2,0,0.3c-0.1,0-0.2,0.1-0.3,0.1
	C-86.2,149.1-86.2,149-86.2,148.9z M-85,148.7c0-0.1,0-0.1,0-0.2h0.1l0,0l0,0C-85,148.5-85,148.6-85,148.7
	C-84.9,148.7-84.9,148.7-85,148.7c0,0.1,0,0.1-0.1,0.1C-85.1,148.8-85.1,148.7-85,148.7z M-84.1,148.6c0-0.1,0-0.2,0-0.3
	c0.2,0,0.4-0.1,0.5-0.1c0,0.1,0,0.2,0,0.3C-83.8,148.5-84,148.6-84.1,148.6L-84.1,148.6z M-82.8,148.1c0.2,0,0.4,0,0.5-0.1
	c0,0.1,0,0.2,0,0.3c-0.2,0-0.3,0-0.5,0.1C-82.8,148.3-82.8,148.2-82.8,148.1z M-81.2,147.9c0,0.1,0,0.2,0,0.3c-0.1,0-0.2,0-0.3,0
	c0-0.1,0-0.1,0-0.1V148C-81.4,147.9-81.3,147.9-81.2,147.9z M-80.1,148L-80.1,148L-80.1,148L-80.1,148c-0.1,0.1-0.1,0.2-0.1,0.2
	c-0.1,0-0.1,0-0.2,0c0,0,0,0,0-0.1c0,0.1,0,0,0,0l0,0c0,0,0-0.1,0,0l0,0l0,0l0,0C-80.3,148-80.2,148-80.1,148z M-78.9,148.1
	c0,0.1,0,0.1,0,0.2c-0.1,0-0.2,0-0.4,0c0,0,0,0-0.1,0c0,0,0,0,0-0.1v-0.1l0,0C-79.1,148-79,148.1-78.9,148.1z M-77.8,148.3
	L-77.8,148.3c-0.1,0.1-0.2,0.1-0.3,0.1l0,0v-0.1C-78,148.2-77.9,148.2-77.8,148.3z M-76.1,154.1c0,0.3-0.3,1.9-0.9,1.1
	c-0.7-0.9-0.4-2.4-0.2-3.4c0.1-0.7,0.3-1.4,0.4-2c0.1,0.7,0.3,1.4,0.4,2.2C-76.3,152.6-76.1,153.4-76.1,154.1z M-78.7,152.3
	c-0.3,0.8-1.1,3.1-2.2,3c-0.7-0.1-1.3-0.9-1.1-1.5c0.2-0.7,0.7-1.4,1.3-1.9c0.8-0.8,1.8-1.6,2.9-2.1
	C-78.1,150.6-78.4,151.4-78.7,152.3z M-77.9,147.3c0-0.1,0.2-0.1,0.4-0.1s0.5,0.1,0.7,0.3C-77.2,147.4-77.6,147.4-77.9,147.3z
	 M-74.6,149.1c-0.5-0.1-1-0.3-1.4-0.4l0,0C-75.6,148.8-75.1,148.9-74.6,149.1z M-67.1,169.7c0,0.1,0.1,0.2,0.1,0.2
	c-0.1,0-0.3-0.1-0.4-0.1c0,0,0,0,0-0.1c0-0.1,0-0.1,0-0.2C-67.4,169.5-67.2,169.5-67.1,169.7z M-103.1,182.7c2.2,1.8,5.1,3,7.7,4.1
	c1.5,0.7,2.9,1.4,4.4,2c1.4,0.6,2.6,1.4,3.9,2.1c0.3,0.2,0.6,0.4,1,0.5c-0.4-0.2-0.9-0.3-1.3-0.5c-0.7-0.3-1.4-0.7-2.1-1.1
	c-1.5-0.8-3-1.4-4.5-2c-3-1.3-6.2-2.5-9.1-4.1h-0.1C-103.2,183.4-103.2,183.1-103.1,182.7z M-103.3,184L-103.3,184
	c2.9,1.6,6,2.7,9.1,4.1c1.5,0.7,3,1.3,4.5,2c1.2,0.6,2.3,1.2,3.6,1.7c0,0.1,0,0.3,0,0.4c-2.8-1.2-5.5-2.6-8.3-3.6
	c-3-1.1-6-2.2-9-3.2l0,0C-103.4,184.9-103.3,184.4-103.3,184z M-103.6,186.8c2.9,1.2,5.7,2.4,8.6,3.6c1.5,0.7,3.1,1.3,4.6,2.1
	c0.7,0.4,1.4,0.8,2.1,1.1c0.1,0.1,0.3,0.2,0.5,0.2c-0.7-0.3-1.4-0.6-2.1-0.9c-1.3-0.6-2.7-1-4.1-1.4c-3.2-1-6.4-2.4-9.6-3.4l0,0
	C-103.6,187.7-103.6,187.3-103.6,186.8z M-98.5,195.1c3.1,1.1,6.3,1.9,9.1,3.5c0.7,0.4,1.5,0.9,2.3,1.2c0.5,0.2,1,0.3,1.5,0.6
	c-0.3-0.2-0.7-0.2-1-0.4c-1.9-0.6-3.7-1.5-5.6-2.1c-0.9-0.3-1.9-0.6-2.8-0.9c-2.9-1.1-5.8-2.2-8.6-3.3c0-0.2,0-0.5-0.1-0.7
	C-102,194-100.3,194.6-98.5,195.1z M-102.6,193.4L-102.6,193.4C-102.6,193.4-102.6,193.4-102.6,193.4z M-103,193.2
	c0.1,0,0.2,0.1,0.2,0.1S-102.9,193.3-103,193.2z M-103.6,194c0.1,0,0.1,0.1,0.2,0.1c0,0.1,0.1,0.2,0.4,0.2c2.5,1.1,5.1,2.1,7.7,2.9
	c1.8,0.7,3.6,1.4,5.4,2.1c0.8,0.3,1.6,0.7,2.5,1c0.5,0.2,1,0.3,1.4,0.6c0.2,0.1,1,0.5,0,0.2c-1.9-0.5-3.8-1.2-5.7-1.9
	c-4.1-1.3-8-2.6-11.8-4.6C-103.6,194.4-103.6,194.2-103.6,194z M-87.6,201.7c0.8,0.4,1.6,0.8,2.4,1.4c-0.5-0.3-1.6-0.4-2.2-0.6
	c-0.7-0.3-1.4-0.6-2.1-0.8c-1.6-0.6-3.2-1-4.8-1.4c-1.7-0.4-3.3-1-5-1.8c-1.3-0.6-2.7-1-4-1.7c-0.1-0.4-0.1-0.7-0.2-1.1
	c0.1,0.1,0.2,0.1,0.4,0.2c0,0.1,0.1,0.2,0.4,0.2c2.6,1.2,5.3,2.2,8,3.1C-92.2,199.9-89.9,200.9-87.6,201.7z M-86.2,202.3
	c0.4,0.1,0.8,0.3,1.2,0.4c0,0.1,0,0.2,0,0.3C-85.4,202.7-85.8,202.5-86.2,202.3z M-84,210.4c-0.7-0.6-1.6-0.8-2.4-1
	c-1.8-0.5-3.5-1.1-5.2-1.7c-1.8-0.7-3.6-1.2-5.4-1.7c-0.9-0.3-2.7-0.4-3.1-1.4c-0.1-0.2-0.2-0.4-0.4-0.6c0.2,0.1,0.3,0.1,0.5,0.2
	c0.5,0.3,1,0.5,1.4,0.7c0.7,0.4,1.3,0.7,2,1c1.5,0.6,3.1,1,4.6,1.5c1.6,0.5,3.2,1,4.7,1.5c1,0.4,2.1,0.8,3.2,0.7l0,0
	C-84.1,209.9-84.1,210.1-84,210.4z M-85.4,209c0.3,0.1,1.7,0.7,0.3,0.4c-1.2-0.3-2.3-0.8-3.5-1.1c-1.5-0.4-2.9-0.9-4.4-1.4
	c-1.6-0.5-3.2-1-4.6-1.7c0.2,0.1,0.4,0.1,0.6,0.2c1.4,0.5,2.9,0.8,4.4,1.2c1.6,0.5,3.1,1,4.6,1.5C-87.1,208.3-86.2,208.6-85.4,209z
	 M-99,204.3c2.5,0.8,5.1,1.6,7.7,2.3c0.7,0.2,1.5,0.4,2.2,0.7c-1-0.3-2-0.6-3-0.9c-1.5-0.4-2.9-0.7-4.4-1.2
	C-97.4,205-98.2,204.7-99,204.3z M-86.1,208.5c0.6,0.2,1.2,0.4,1.8,0.4c0,0.2,0.1,0.3,0.1,0.5C-84.8,209.1-85.4,208.7-86.1,208.5z
	 M-84.3,208.6c-3.3-1.4-6.7-2.5-10.1-3.7c0.3,0.1,0.6,0.1,0.9,0.2c1.6,0.4,3.2,0.8,4.8,1.3c1.5,0.5,2.9,1,4.3,1.5
	C-84.4,208.2-84.3,208.4-84.3,208.6z M-84.4,207.6c-2.7-1.4-5.5-2.1-8.3-3.2c-1.7-0.6-3.6-1.2-5.2-2c-1.2-0.6-2.7-1.2-3.8-1.9l0,0
	c0.1,0.1,0.2,0.2,0.4,0.2c0.3,0.1,0.6,0.3,0.9,0.4c0.8,0.3,1.6,0.6,2.4,0.9c1.6,0.6,3.2,1.1,4.8,1.6c1.6,0.5,3.2,1,4.8,1.6
	c1.3,0.5,2.6,1,4,1.4C-84.5,206.9-84.5,207.3-84.4,207.6z M-84.6,206.3c-2.8-1.4-5.8-2.4-8.7-3.4c-1.8-0.7-3.7-1.3-5.5-2.1
	c-1-0.4-2.1-0.8-3.1-1.3c1.1,0.5,2.4,0.8,3.5,1.2c1.5,0.6,3.1,1.2,4.6,1.7c1.8,0.6,3.7,1.2,5.5,1.8c1.2,0.4,2.3,1,3.5,1.2
	C-84.7,205.7-84.6,206-84.6,206.3z M-84.8,205c-1.3-0.7-2.6-1.3-4-1.8c-1.6-0.5-3.2-1-4.7-1.7c-1.8-0.7-3.7-1.3-5.4-2.1
	c-1-0.5-2.2-0.8-3.2-1.4c-0.3-0.2-1.4-0.9-0.2-0.3c0.2,0.1,0.6,0.4,0.8,0.4c0.7,0.3,1.5,0.6,2.2,0.9c1.6,0.6,3.1,1.2,4.7,1.8
	c1.8,0.7,3.6,1.4,5.4,2c1.4,0.5,2.9,0.8,4.2,1.4C-84.8,204.5-84.8,204.8-84.8,205z M-87.7,168.6c0,0.1,0,0.3,0,0.4
	c-0.3-0.1-0.6-0.2-1-0.3C-88.4,168.6-88,168.6-87.7,168.6z M-86,193.2c-0.7-0.5-1.5-0.9-2.3-1.3c-1.4-0.6-2.8-1.2-4.2-1.9
	c-3-1.4-6.1-2.5-9.1-3.9c-0.1,0-0.2-0.1-0.2-0.1c0.6,0.2,1.1,0.4,1.7,0.6c1.6,0.6,3.2,1.1,4.7,1.7c3.2,1.2,6.2,2.6,9.3,4
	C-86.1,192.7-86,193-86,193.2z M-86.1,191.4c-2.2-1.6-4.9-2.6-7.4-3.8c-2.9-1.4-6.3-2.6-8.9-4.5c-0.9-0.6,0.7,0.3,0.9,0.4
	c0.4,0.2,0.8,0.4,1.3,0.6c0.7,0.4,1.4,0.8,2.1,1.1c1.5,0.7,3,1.3,4.4,2c1.5,0.7,2.9,1.3,4.4,1.9c1.1,0.5,2.1,1.2,3.2,1.7
	C-86.2,191-86.2,191.2-86.1,191.4z M-88.4,189.3c0.5,0.3,1.1,0.5,1.6,0.9c1,0.7-0.9-0.5-1.1-0.7C-88.2,189.5-88.3,189.4-88.4,189.3z
	 M-93.9,186.2c-1.6-0.8-3.2-1.6-4.7-2.5c-1.2-0.7-2.7-1.3-3.7-2.3l0,0c0,0,0.1,0,0.1,0.1c0.4,0.2,0.7,0.5,1.1,0.7
	c0.7,0.4,1.4,0.8,2.1,1.1c1.6,0.7,3.3,1.4,4.9,2.2c2.6,1.2,5.1,2.8,7.8,4c0,0.2,0,0.3,0,0.5c0,0.1,0,0.3,0,0.4
	c-1-0.7-2.2-1.3-3.3-1.8C-91,187.9-92.4,187-93.9,186.2z M-102.8,180.8C-102.9,180.8-102.9,180.8-102.8,180.8
	c-0.1-0.2-0.1-0.4,0-0.6c2.9,1.8,5.9,3.4,9,4.8c1.5,0.7,2.9,1.5,4.3,2.4c0.3,0.2,0.6,0.4,1,0.6c-2-1.1-4-2.2-6.1-3.2
	c-1.5-0.7-3-1.3-4.5-2C-100.5,182.3-101.6,181.5-102.8,180.8z M-102.5,175.9c1,0.8,2.2,1.3,3.4,1.8c1.4,0.7,2.8,1.4,4.2,2.1
	c2.7,1.4,5.4,2.9,7.8,4.7c1,0.7-0.2-0.1-0.4-0.2c-0.3-0.2-0.5-0.3-0.8-0.5c-0.7-0.4-1.3-0.8-2-1.2c-1.4-0.7-2.9-1.5-4.3-2.1
	c-2.7-1.2-5.3-2.6-8.1-3.6c0-0.7,0.1-1.4,0.1-2.1c0.1,0.1,0.2,0.1,0.3,0.1c0,0.1,0.1,0.2,0.4,0.2c0.1,0.1,0.3,0.2,0.5,0.2
	c0.3,0.1,0.6,0.3,0.9,0.4c0.8,0.4,1.5,0.7,2.3,1.1c1.4,0.6,2.8,1.3,4.1,2c2.4,1.3,5,2.6,7.2,4.1c-0.6-0.4-1.5-0.6-2.1-1
	c-0.5-0.3-0.9-0.6-1.4-0.9c-1.3-0.7-2.7-1.4-4.1-2c-2.6-1.2-5.5-2.2-8-3.5C-102.5,175.7-102.6,175.8-102.5,175.9z M-86.7,182.1
	c-2.5-1.6-4.9-3.3-7.6-4.5c-2.2-1-4.6-1.9-6.6-3.2c0.1,0,0.1,0.1,0.2,0.1c0.7,0.3,1.5,0.7,2.2,1c1.4,0.6,2.7,1.3,4.1,2
	c2.5,1.3,5.1,2.6,7.7,3.6C-86.8,181.5-86.7,181.8-86.7,182.1z M-86.9,179.7c-1.1-0.6-2.2-1.3-3.4-1.8c-1.4-0.6-2.9-1.3-4.3-1.9
	c-2.6-1.2-5.1-2.4-7.6-3.8h-0.1c0-0.1,0-0.2,0-0.3c0.1-0.1,0.1-0.1,0.2-0.2c2.5,1.2,5,2.6,7.6,3.8c2.6,1.1,5.1,2.3,7.5,3.8l0,0
	C-86.9,179.4-86.9,179.6-86.9,179.7z M-95.4,176.3c2.5,1.2,5.1,2.4,7.5,4c0.6,0.4,2,1.1,0.1,0.2c-0.8-0.3-1.6-0.7-2.4-1.1
	c-1.4-0.7-2.8-1.4-4.2-2.1c-2.6-1.3-5.4-2.4-7.9-3.8h-0.1c0-0.4,0.1-0.7,0.1-1.1C-100.4,174.1-97.7,175.2-95.4,176.3z M-88,181.5
	c-0.1,0-0.2-0.1-0.3-0.1c-0.6-0.3-1.1-0.6-1.7-0.9c-1.3-0.7-2.7-1.4-4.1-2c-2.2-1-4.4-1.9-6.6-2.9c-0.6-0.3-1.2-0.6-1.9-1
	c0-0.3,0.1-0.6,0.1-1l0,0c2.3,1.7,5,2.8,7.6,4C-92.4,178.7-90.2,180.1-88,181.5z M-86.5,184.9c0,0.3,0,0.5,0,0.8
	c-2.5-1.5-4.8-3.1-7.5-4.4c-2.8-1.3-5.6-2.5-8.2-4.2c1.2,0.8,3,1.4,4.4,2.1c1.3,0.6,2.7,1.2,4,1.8C-91.3,182.2-89,183.8-86.5,184.9z
	 M-86.4,186.8c-0.7-0.6-1.6-0.9-2.3-1.4c-1.3-0.9-2.6-1.8-4-2.5c-1.3-0.7-2.6-1.3-3.9-1.9c0.9,0.4,1.8,0.8,2.7,1.3
	c1.5,0.7,2.9,1.5,4.3,2.2c1.1,0.6,2,1.3,3.2,1.6C-86.4,186.3-86.4,186.5-86.4,186.8z M-86.3,188.1c-0.8-0.6-1.7-1.1-2.6-1.6
	c-1.4-0.8-2.8-1.7-4.3-2.4c-2.4-1.1-4.8-2.3-7.2-3.5c0.6,0.3,1.3,0.6,1.9,0.9c1.5,0.7,3.1,1.4,4.6,2.1c2.5,1.2,4.9,2.7,7.5,3.7
	C-86.4,187.5-86.4,187.8-86.3,188.1z M-86.4,188.3c-0.4-0.4-1.4-0.6-1.9-0.9c-0.6-0.3-1.1-0.7-1.7-1c-1.3-0.7-2.7-1.4-4-2.1
	c-2.7-1.3-5.4-2.5-8-3.9c-0.1-0.2-0.2-0.2-0.3-0.2c-0.2-0.1-0.3-0.2-0.5-0.3l0,0c0.1-0.6,0.1-1.2,0.1-1.8c0-0.3,0-0.7,0.1-1
	c2.6,1.6,5.4,2.8,8.1,4.2c2.8,1.3,5.2,3,7.8,4.5c-2.2-1.3-5.1-2.8-7.6-4c-2.7-1.3-5.4-2.6-8.2-3.9c-0.1-0.1-0.2,0.1-0.1,0.2
	c2.7,1.6,5.6,2.8,8.4,4.2c2.5,1.2,4.8,2.8,7.2,4.3c0.1,0,0.4,0.2,0.6,0.4v0.1c-0.4-0.2-0.9-0.4-1.3-0.6c-0.7-0.4-1.4-0.8-2.1-1.1
	c-1.3-0.7-2.7-1.3-4-2c-2.9-1.3-5.8-2.8-8.8-4.1c-0.1-0.1-0.2,0.1-0.1,0.2c2.8,1.6,5.6,3,8.5,4.4c1.5,0.7,3,1.5,4.4,2.3
	C-88.7,186.8-87.3,187.4-86.4,188.3z M-87.7,169.7c-0.3-0.2-0.6-0.5-0.8-0.8c0.1,0.2,0.5,0.3,0.8,0.3
	C-87.7,169.4-87.7,169.5-87.7,169.7z M-87.7,170.8c-0.7-0.7-1.5-1.1-2.3-1.8c0.6,0.5,1.5,0.8,2.3,1.1
	C-87.7,170.3-87.7,170.6-87.7,170.8z M-87.6,171.9c-1.2-0.9-2.5-1.7-3.7-2.6c0.9,0.6,2.4,1.5,3.7,2
	C-87.7,171.5-87.7,171.7-87.6,171.9z M-87.5,173.4c-1.9-1.3-3.8-3-5.6-3.9c1.9,0.9,3.6,2.3,5.6,2.9
	C-87.6,172.8-87.6,173.1-87.5,173.4z M-93.6,169.3c1.1,0.8,2.3,1.5,3.4,2.3c-1.3-0.9-2.7-1.7-4.2-2.3
	C-94.2,169.3-93.9,169.3-93.6,169.3C-93.7,169.3-93.6,169.3-93.6,169.3z M-87.5,173.7c0,0.2,0.1,0.5,0.1,0.7
	c-1.2-0.8-2.3-1.7-3.5-2.5s-2.6-1.5-3.7-2.5c0.4,0.4,1.5,0.7,2,1c0.7,0.4,1.3,0.8,2,1.2c0.9,0.6,1.8,1.2,2.7,1.8
	C-87.7,173.7-87.6,173.7-87.5,173.7L-87.5,173.7z M-88.5,173.9c-1.3-0.8-2.5-1.7-3.8-2.4c-1.3-0.7-2.6-1.2-3.8-2
	c0.4,0,0.8-0.1,1.1-0.1c1.2,1.1,2.6,1.9,4,2.8C-90.2,172.7-89.4,173.3-88.5,173.9L-88.5,173.9z M-91.8,172.8
	c0.9,0.6,1.8,1.2,2.7,1.8c0.2,0.1,1.4,0.9,1.7,1.1c0,0,0,0,0,0.1c-0.1,0-0.2-0.1-0.3-0.1c-1.9-0.9-3.5-2.2-5.3-3.2
	c-0.9-0.5-2-0.8-2.9-1.4c-0.6-0.4-1.2-0.9-1.9-1.2c0.4-0.1,0.8-0.1,1.3-0.2C-95,170.8-93.3,171.6-91.8,172.8z M-87.2,176.6
	c-3.4-2.3-7-4.5-10.4-6.6c1.8,1.1,3.7,1.9,5.4,3c1.6,1,3.2,2.1,5,2.9C-87.2,176.2-87.2,176.4-87.2,176.6z M-88,176.3
	c-2-1-3.9-2.2-5.8-3.3c-1.8-0.9-3.8-1.7-5.5-2.9c0.4-0.1,0.9-0.3,1.3-0.4c0,0,0,0,0,0.1c1.9,1.4,4.1,2.6,6.1,3.8
	c1,0.6,1.9,1.3,2.9,2c0.6,0.4,1.1,0.8,1.7,1.1C-87.1,176.9-87.9,176.4-88,176.3z M-93.3,169.2c0.4,0,0.9-0.1,1.3-0.2
	c0.7,0.5,1.3,1,2,1.4c0.7,0.5,1.6,1.4,2.4,1.7l0,0C-89.6,171.5-91.4,170.1-93.3,169.2z M-91.6,169L-91.6,169
	c0.4-0.1,0.7-0.1,1.1-0.2l0,0c0.6,0.5,1.2,0.9,1.8,1.3c-0.2-0.2,1.8,1.3,0.7,0.7c-0.3-0.1-0.5-0.2-0.7-0.4
	C-89.7,170-90.6,169.4-91.6,169z M-89,168.7L-89,168.7c0.2,0.4,0.5,0.6,0.7,0.9c0.1,0.1,0.3,0.2,0.5,0.3l0,0c-0.1,0-0.2-0.1-0.4-0.2
	c-0.7-0.3-1.3-0.6-2-0.9C-89.7,168.7-89.3,168.7-89,168.7z M-87.3,175.5c-1.3-1-2.7-1.7-3.9-2.6c-0.8-0.6-1.6-1.1-2.4-1.6
	c-0.4-0.3-0.8-0.5-1.2-0.8c0,0-0.1,0-0.1-0.1c1.1,0.6,2.3,1.1,3.4,1.8c1.4,0.9,2.8,1.8,4.2,2.6C-87.4,175-87.3,175.2-87.3,175.5z
	 M-87,177.9c-2-1.3-4.2-2.2-6.3-3.3c-2.5-1.2-4.9-2.5-7.4-3.7c-0.1-0.1-0.2,0.1-0.1,0.2c2.5,1.2,4.9,2.5,7.4,3.7
	c2.2,1.1,4.4,2,6.5,3.3c0,0.3,0.1,0.5,0.1,0.8c-2.3-1.5-4.9-2.6-7.4-3.7c-2.6-1.1-5-2.5-7.5-3.7c0.1-0.1,0.2-0.2,0.3-0.2
	c4.7,2.6,9.7,4.6,14.3,7.2c0.1,0.1,0.2-0.1,0.1-0.2c-4.6-2.6-9.6-4.6-14.2-7.2c0.4-0.3,0.8-0.5,1.3-0.7c0.4,0.3,0.8,0.6,1.2,0.9
	c0.5,0.4,1.1,0.6,1.7,0.9c1,0.5,2.1,1.1,3.1,1.7c2.2,1.3,4.5,2.5,6.8,3.6c0.1,0.1,0.2-0.1,0.1-0.2c-2.3-1.1-4.6-2.3-6.8-3.6
	c-1.2-0.7-2.3-1.4-3.5-1.9c-0.9-0.4-1.6-1-2.4-1.4c0.1,0,0.2-0.1,0.3-0.1c0,0,0,0,0,0.1c1.9,1.4,4.3,2.2,6.4,3.4
	c2,1.1,3.9,2.3,6,3.3C-87.1,177.3-87.1,177.6-87,177.9z M-86.8,180.8c-2.2-1.6-4.7-2.8-7.2-4c-2.4-1.2-5.1-2.2-7.3-3.8
	c-1.5-1.1,0.3,0.1,0.7,0.3c0.6,0.3,1.2,0.6,1.8,0.9c1.4,0.7,2.7,1.4,4.1,2c1.4,0.6,2.9,1.3,4.3,1.9c1.2,0.5,2.3,1.3,3.5,1.8
	C-86.8,180.2-86.8,180.5-86.8,180.8z M-86.7,182.9c-2.9-1.9-6-3.5-9.2-5c0.4,0.2,0.8,0.4,1.2,0.5c2.7,1.2,5.2,2.8,7.9,4
	C-86.7,182.6-86.7,182.7-86.7,182.9z M-86.5,184.6c-4.8-3.6-10.2-5.9-15.5-8.4c3,1.4,6.1,2.5,9,3.9c1.4,0.7,2.7,1.4,4,2.2
	c0.8,0.5,1.5,0.8,2.3,1C-86.6,183.7-86.6,184.2-86.5,184.6z M-86.3,189.1c-1-0.6-2.2-1.1-3.2-1.8c-1.4-0.9-2.8-1.7-4.3-2.4
	s-3.1-1.5-4.6-2.3c-0.4-0.2-0.9-0.5-1.3-0.7c2.1,1,4.3,2,6.4,3.1c1.4,0.7,2.8,1.4,4.1,2.2c0.9,0.5,1.8,1.1,2.8,1.3
	C-86.3,188.7-86.3,188.9-86.3,189.1z M-85.9,194.6c-1.1-0.7-2.4-1.2-3.5-1.8c-1.5-0.8-3-1.4-4.5-2.1c-1.9-0.8-3.9-1.6-5.9-2.5
	c1.5,0.5,3.1,0.9,4.6,1.5c3.2,1.1,6.2,2.5,9.2,3.9C-86,193.9-85.9,194.2-85.9,194.6z M-86.4,194.5c1,0.5-0.6-0.2-0.9-0.4
	C-87,194.3-86.7,194.4-86.4,194.5z M-85.2,201.2c-0.9-0.6-1.9-0.9-2.9-1.3c-1.3-0.5-2.6-1.1-3.8-1.6c0.7,0.2,1.4,0.5,2.1,0.8
	c1.5,0.6,3,1.3,4.6,1.6C-85.3,200.8-85.2,201-85.2,201.2z M-98,197.4c0.9,0.3,1.8,0.6,2.7,0.9c1.8,0.6,3.6,1.2,5.5,1.8
	c1.5,0.5,3,1.1,4.6,1.4c0,0.3,0.1,0.6,0.1,0.9C-89.1,200.1-93.7,199-98,197.4z M-90.5,197.8c1.7,0.6,3.4,1.3,5.1,2.1
	c0,0.2,0,0.4,0.1,0.6c-1.2-0.8-2.7-1.2-3.9-2C-89.7,198.2-90.1,198-90.5,197.8z M-94,195.6c-1.8-0.7-3.7-1.3-5.5-2.2
	c-1.3-0.6-2.6-1.3-4-1.8c2.7,1,6.1,2.3,9.1,3.4c1.7,0.6,3.5,1.3,5.2,2.1c1.2,0.6,2.4,1.2,3.6,1.5c0,0.3,0.1,0.7,0.1,1
	C-88.2,198.1-91,196.7-94,195.6z M-89.8,196.6c0.2,0.1,0.4,0.2,0.6,0.2c0.8,0.3,1.6,0.6,2.4,0.9c0.3,0.1,0.9,0.5,1.2,0.6
	c-0.6-0.2-1.2-0.4-1.8-0.7C-88.2,197.4-89,197-89.8,196.6z M-94.1,194.6c-2-0.7-3.9-1.3-5.8-2.3c-0.3-0.2-0.6-0.3-0.9-0.5
	c0.2,0,0.3,0.1,0.5,0.1c1.7,0.5,3.5,1,5.2,1.6c1.7,0.6,3.4,1.1,5,1.7c1.5,0.6,2.9,1.6,4.5,2c0,0.3,0.1,0.6,0.1,0.9
	c-0.9-0.6-2-0.9-3-1.3C-90.5,196.1-92.2,195.3-94.1,194.6z M-94.8,192.9c-1.6-0.6-3.3-1.1-4.8-1.9c1.5,0.6,3.1,1.2,4.7,1.7
	c1.7,0.6,3.4,1.1,5,1.7c1.4,0.6,2.7,1.3,4.1,1.7c0,0.3,0.1,0.6,0.1,0.9C-88.8,195.6-91.6,194-94.8,192.9z M-85.8,195.7
	c-2.3-1.5-5.2-2.3-7.7-3.2c-2.8-1.1-5.6-2.3-8.4-3.5c0.1,0,0.1,0,0.2,0.1c0.8,0.3,1.6,0.6,2.5,1c1.5,0.6,3.1,1.1,4.7,1.6
	c3,0.9,5.8,2.2,8.7,3.3C-85.9,195.2-85.9,195.5-85.8,195.7z M-103.5,186.6c0-0.4,0.1-0.7,0.1-1.1c0.2,0.1,0.3,0.2,0.5,0.2
	c0,0,0.1,0.1,0.2,0.1c2.9,1.4,5.9,2.4,8.8,3.8c1.3,0.6,2.5,1.3,3.7,1.8c1.3,0.5,2.7,1,3.9,1.8c0.6,0.5-0.7-0.3-0.7-0.4
	c-0.3-0.1-0.6-0.3-0.9-0.4c-0.8-0.4-1.6-0.7-2.4-1c-1.4-0.6-2.9-1.2-4.3-1.7c-1.6-0.6-3.2-1-4.7-1.5S-102.1,187-103.5,186.6z
	 M-103.1,182.5c0.1-0.5,0.1-1,0.2-1.6l0,0c0.9,1,2,1.7,3.2,2.3c1.5,0.8,2.9,1.6,4.4,2.4s3,1.7,4.5,2.5c0.3,0.2,0.7,0.3,1,0.5
	c-1.6-0.7-3.2-1.4-4.7-2.1c-1.6-0.7-3.2-1.4-4.8-2.2C-100.5,183.7-101.8,183-103.1,182.5L-103.1,182.5z M-93.5,168.5
	c0.8-0.2,1.6-0.4,2.4-0.6c0.1,0,0.2-0.1,0.3-0.1v0.1c0,0.1,0,0.1,0,0.2c-0.7,0.1-1.3,0.2-2,0.3C-93,168.4-93.3,168.5-93.5,168.5z
	 M-89.9,167.9c0-0.1,0-0.2,0-0.3c0.4-0.1,0.9-0.2,1.3-0.2c0,0.1-0.1,0.3-0.1,0.4C-89.1,167.9-89.5,167.9-89.9,167.9
	C-89.9,168-89.9,167.9-89.9,167.9z M-87.8,167.3c0.2,0,0.4,0,0.6-0.1c0,0.2,0,0.3,0,0.5l0,0c-0.2,0-0.5,0-0.7,0c0-0.1,0-0.1,0-0.2
	C-87.8,167.5-87.8,167.4-87.8,167.3z M-86.3,167.2c0.3,0,0.5,0,0.8,0c0,0.2,0,0.4,0,0.5c-0.2,0-0.4,0-0.5,0s-0.2,0-0.3,0
	C-86.3,167.6-86.3,167.4-86.3,167.2z M-84.7,167.2c0.3,0,0.5,0,0.8,0c0,0.2,0,0.4,0,0.6c-0.2,0-0.5,0-0.7,0
	C-84.7,167.6-84.7,167.4-84.7,167.2z M-82.8,167.2c0,0.2,0.1,0.4,0.1,0.6c-0.1,0-0.3,0-0.4,0c0-0.2,0-0.4,0.1-0.6
	C-83,167.2-82.9,167.2-82.8,167.2z M-82,167.3c0.3,0,0.7,0.1,1,0.1c0,0.2,0,0.4,0.1,0.7c-0.3,0-0.6-0.1-1-0.1
	C-81.9,167.7-81.9,167.5-82,167.3z M-80.2,167.5c0.3,0,0.5,0.1,0.8,0.1c0,0,0,0,0,0.1c0.1,0.2,0.1,0.4,0.2,0.6
	c-0.3,0-0.6-0.1-0.9-0.1c0,0,0,0,0-0.1C-80.1,167.9-80.2,167.7-80.2,167.5z M-75.9,211.4c0-0.2,0-0.4-0.1-0.6
	c0.2,0.1,0.3,0.3,0.5,0.4C-74.3,212-75.4,211.5-75.9,211.4z M-74,210.3c-0.7-0.4-1.5-0.9-2.2-1.3c0-0.3-0.1-0.5-0.1-0.8
	c1.4,1.3,3.2,2.2,4.5,3.6c-0.3-0.3-0.9-0.5-1.3-0.8C-73.2,210.9-74,210.3-74,210.3z M-73.8,211.3c0.5,0.6-0.6-0.2-0.6-0.2
	c-0.2-0.2-0.5-0.3-0.7-0.5c-0.3-0.2-0.6-0.3-0.9-0.5c0-0.3-0.1-0.6-0.1-0.8C-75.4,210-74.4,210.5-73.8,211.3z M-76.5,206.8
	c1.8,1.9,4.2,3.1,6.2,4.9c0.1,0.1,0.2,0.2,0.2,0.2s0,0-0.1,0c-0.2-0.1-0.8-0.6-0.9-0.6c-0.6-0.4-1.1-0.9-1.7-1.3
	c-1.1-0.8-2.4-1.3-3.6-2.1l0,0C-76.4,207.5-76.4,207.1-76.5,206.8z M-76.7,205.6L-76.7,205.6c2.2,2.2,5,3.5,7.3,5.4
	c-0.3-0.2-0.6-0.4-0.9-0.6c-0.7-0.5-1.4-0.9-2.2-1.4c-1.4-0.9-2.8-1.7-4.1-2.6C-76.6,206.1-76.6,205.8-76.7,205.6z M-76.8,204.6
	c1,1,2.4,1.6,3.6,2.4c1.9,1.3,3.9,2.6,5.7,4.1c0.8,0.8,0,0.1-0.3-0.2c-0.3-0.2-0.6-0.5-1-0.7c-0.7-0.6-1.5-1.1-2.3-1.5
	c-1.8-1.1-3.5-2.3-5.4-3.2c-0.1,0-0.2,0-0.2,0.1C-76.7,205.2-76.8,204.9-76.8,204.6z M-75.9,205.1c0.2,0.1-0.3-0.2-0.6-0.4
	c0.3,0.2,0.7,0.4,1,0.7C-75.6,205.3-75.7,205.2-75.9,205.1z M-77,203.3c1.4,1.3,3,2.2,4.6,3.2c1.6,0.9,3,2.1,4.4,3.2
	c-0.1-0.1-0.2-0.2-0.4-0.2c-0.9-0.6-1.9-1.2-2.9-1.7c-1.9-1.1-3.8-2.2-5.7-3.5C-76.9,203.9-76.9,203.6-77,203.3z M-77.1,201.9
	c1.6,1.7,3.9,2.9,5.8,4.2c1.4,0.9,2.7,1.9,4,3c0.2,0.2,0.5,0.4,0.7,0.6c-1.4-1-2.8-2-4.3-3c-2-1.2-4.1-2.3-6.1-3.7
	C-77.1,202.6-77.1,202.2-77.1,201.9z M-77.2,200.7c2,2,4.7,3.4,7,5c1.4,1,2.7,2,4,2.9c0.2,0.2,0.5,0.3,0.7,0.5c-1.6-1-3.1-2-4.7-3
	c-2.4-1.5-4.9-2.8-7-4.6c0-0.1,0-0.3,0-0.4C-77.2,201-77.2,200.8-77.2,200.7z M-77.3,199.3c0.8,1,2,1.7,3,2.5c1.2,1,2.5,1.8,3.8,2.6
	c1.6,1,3.2,2.1,4.7,3.2c-0.9-0.5-1.8-1.1-2.7-1.6c-3-1.7-6-3.5-8.8-5.7C-77.2,200-77.2,199.6-77.3,199.3z M-77.4,197.5
	c1.5,2.2,4.4,3.6,6.5,5.1c1.5,1,3,2,4.6,3c1,0.6,1.9,1.3,2.8,2c-1.5-0.9-3.1-1.8-4.6-2.7c-3.1-1.8-6.7-3.4-9.2-6.1
	C-77.3,198.4-77.3,198-77.4,197.5z M-77.5,195.7c0.6,1.1,2.2,1.9,3,2.5c1.8,1.4,3.6,2.8,5.5,4.1c2,1.4,4.1,2.7,6.1,4.1
	c1.4,1,2.7,2.1,4.2,2.8c0,0,0,0,0.1,0.1c-0.3,0-0.5-0.2-0.8-0.3c-1.3-0.7-2.5-1.5-3.7-2.2c-2.6-1.5-5.3-2.9-7.8-4.6
	c-2.3-1.5-4.3-3.4-6.6-4.9C-77.4,196.6-77.4,196.2-77.5,195.7z M-65.3,204.4c-2.6-1.8-5.3-3.5-7.8-5.5c-1.1-0.8-2.2-1.6-3.2-2.5
	c-0.4-0.3-0.7-0.6-1-0.9c0-0.1,0-0.2,0-0.3c0.3,0.2,0.6,0.5,0.9,0.7c0.3,0.3,0.6,0.5,1,0.8c2.3,1.6,4.6,3.3,6.9,4.9
	c2.6,1.8,5.2,3.6,7.7,5.6c0.6,0.4,1.2,0.9,1.7,1.4l0.1,0.1C-61.3,207.6-63.3,205.8-65.3,204.4z M-57.6,208.8
	c-0.2-0.1-0.4-0.3-0.6-0.4c-0.4-0.3-0.8-0.5-1.2-0.8c-1-0.7-2-1.5-2.9-2.2c-1.9-1.5-3.9-3-5.8-4.5c-1.8-1.4-3.4-3-5.2-4.5
	c-1.4-1.1-3-2-4.3-3.2c0-0.4-0.1-0.9-0.1-1.3c1.1,1.4,2.5,2.5,3.9,3.7c1.8,1.5,3.6,2.9,5.4,4.4c3.6,2.8,7.4,5.4,10.7,8.7
	C-57.6,208.7-57.6,208.7-57.6,208.8C-57.5,208.8-57.5,208.8-57.6,208.8z M-56.6,199.4c-2.8-2.5-5.8-4.8-8.9-6.9
	c-2.5-1.6-5-3.2-7.5-4.9c-0.4-0.3-0.7-0.6-1.1-0.8c-1-0.8-2.1-1.4-3-2.3c-0.4-0.4-0.8-0.8-1.3-1.1c0-0.4-0.1-0.8-0.1-1.1
	c0.3,0.2,0.5,0.4,0.8,0.5l0.1,0.1c0.2,0.2,0.5,0.4,0.7,0.6c0.6,0.5,1.2,1,1.7,1.6c1,0.9,1.9,1.7,3,2.4c2.5,1.7,5,3.3,7.5,5.1
	c1.8,1.3,3.6,2.6,5.3,4.1c0.7,0.6,1.4,1.2,2,1.9C-57.1,198.8-55.2,200.7-56.6,199.4z M-66.7,190.9c-2.3-1.6-4.8-3-6.9-4.8
	c-0.7-0.6-1.4-1.2-2.1-1.9c3.1,2.3,6.1,4.6,9.3,6.8c2,1.3,4,2.7,5.9,4.1c0.9,0.6,1.8,1.3,2.7,2c0.6,0.4,1.1,1,1.8,1.3
	c0,0.4-0.1,0.9-0.1,1.3C-59.1,196.2-62.9,193.5-66.7,190.9z M-78.2,183.8C-78.3,183.7-78.3,183.7-78.2,183.8
	C-78.3,183.7-78.3,183.7-78.2,183.8z M-72.6,188.2c3.3,2.4,6.8,4.6,10,7.1c1.8,1.3,3.5,2.7,5,4.3c0.3,0.3,0.7,0.7,1,1
	c0.9,1-0.6-0.3-0.5-0.2c-0.7-0.6-1.3-1.2-2-1.8c-3.1-2.7-6.5-5-9.9-7.3c-3.2-2.2-6.1-4.7-9.3-6.9c0-0.1,0-0.3,0-0.4
	c1.2,1.2,2.7,2.1,4.1,3.1C-73.7,187.4-73.1,187.8-72.6,188.2z M-60.8,203.6c-1.8-1.7-3.7-3.4-5.6-5c-1.9-1.6-3.9-3.3-5.9-4.9
	c-1.3-1-2.4-2.1-3.6-3.1c0.9,0.7,1.8,1.5,2.8,2.2c2,1.5,4,2.9,6,4.4c2.1,1.6,4.1,3.3,6.1,5.1c0.9,0.8,1.9,1.5,2.7,2.4
	c0.5,0.5,1,1,1.7,1.3c0,0.4-0.1,0.9-0.1,1.3C-57.8,205.9-59.5,204.9-60.8,203.6z M-78.1,186.8c2.9,3.3,6.6,5.8,10,8.6
	c3.8,3.1,7.6,6.4,11,10c0.9,1-0.1,0.1-0.4-0.3c-0.4-0.4-0.7-0.8-1.1-1.1c-0.9-0.7-1.7-1.5-2.5-2.2c-1.8-1.5-3.5-3.1-5.3-4.5
	c-3.8-2.9-7.7-5.6-11.3-8.7c0-0.1-0.1-0.1-0.1-0.2C-78,187.9-78,187.3-78.1,186.8z M-78.2,185.7c3.6,3.2,7.3,6.1,11.1,9
	c2.1,1.6,4.2,3.3,6.3,5c0.9,0.7,1.7,1.5,2.6,2.3c0.5,0.5,0.9,0.9,1.4,1.4c0.9,0.9-0.4-0.1-0.6-0.3c-3.6-3.1-7-6.2-10.9-8.9
	c-2.1-1.5-4.3-3-6.3-4.6c-0.8-0.6-1.5-1.2-2.2-2c-0.4-0.5-0.8-0.9-1.4-1.3C-78.1,186.1-78.1,185.9-78.2,185.7z M-56.3,203.6
	c-2.9-3.5-7-6.3-10.6-9.1c-1.7-1.3-3.4-2.6-5-3.9c2,1.4,4.1,2.8,6.1,4.2c2.2,1.5,4.3,3.2,6.3,5c0.8,0.7,1.6,1.4,2.4,2.2
	c0.3,0.3,0.5,0.6,0.9,0.6C-56.3,203-56.3,203.3-56.3,203.6z M-77.1,186.4c0.6,0.5,1.2,1.1,1.8,1.6c-0.4-0.3-0.8-0.6-1.1-1
	c-0.5-0.4-1-0.9-1.5-1.3C-78.4,185.3-77,186.5-77.1,186.4z M-76.3,186.7c0.5,0.4,1,0.7,1.5,1c1.9,1.2,3.7,2.6,5.5,3.9
	c2.3,1.6,4.6,3,6.6,4.9c0.9,0.8,1.8,1.7,2.8,2.5c0.8,0.7,1.8,1.2,2.4,2c0.3,0.3,0.5,0.6,0.8,0.9c0.4,0.4,0.3,0.4-0.1,0.2
	c-0.4-0.4-0.8-0.7-1.2-1.1c-1-0.9-1.9-1.8-2.9-2.7c-1.8-1.5-3.7-2.9-5.6-4.3c-2.3-1.6-4.7-3.1-6.9-4.8
	C-74.4,188.5-75.4,187.5-76.3,186.7z M-78.3,184.6c0.1,0,0.1,0.1,0.2,0.2c0.6,0.5,1.2,0.9,1.8,1.4c1,0.8,1.9,1.6,2.9,2.4
	c0.1,0.1,0.2,0.2,0.3,0.2c-1.6-1.2-3.5-2.1-4.9-3.6c-0.1-0.1-0.3-0.3-0.4-0.5C-78.2,184.7-78.3,184.7-78.3,184.6z M-56.1,201.2
	c0,0.3-0.1,0.7-0.1,1c-1.3-1.7-3-2.8-4.5-4.3c-1.8-1.6-3.5-3.2-5.5-4.5c-1.7-1.1-3.3-2.3-5-3.4c1.3,0.9,2.6,1.7,3.8,2.6
	c2.4,1.6,4.8,3.3,7,5.1c1,0.8,2,1.6,2.9,2.5C-57.1,200.6-56.7,201-56.1,201.2z M-56.4,204c-0.1,0.6-0.1,1.1-0.2,1.7
	c-3.4-3.6-7.2-7.1-11-10.2c-1.9-1.6-3.9-3-5.8-4.6c-1-0.8-1.9-1.6-2.8-2.4c-0.6-0.6-1.2-1.4-1.9-2l0,0c0.8,0.6,1.5,1.5,2.3,2.2
	c0.9,0.7,1.7,1.4,2.6,2.1c2,1.5,4,2.9,6,4.4c2.2,1.6,4.3,3.3,6.3,5.1c1,0.9,2,1.8,3,2.7C-57.4,203.3-57,203.7-56.4,204z
	 M-56.7,207.8C-56.7,207.8-56.7,207.7-56.7,207.8C-56.8,207.8-56.7,207.8-56.7,207.8L-56.7,207.8z M-56.8,208.2
	c-0.7-0.3-1.2-0.7-1.7-1.2c-0.6-0.6-1.3-1-2-1.5c-2.2-1.5-4.2-3.2-6.2-5c-3.6-3.2-7.2-6.4-11.1-9.2c0-0.4-0.1-0.9-0.1-1.3
	c0.5,1.2,1.6,2,2.6,2.8c2,1.5,3.9,3.1,5.9,4.7c2,1.6,4.1,3.1,6,4.8c0.7,0.6,1.5,1.2,2.3,1.8c1.1,0.9,2.2,1.9,3.3,2.8
	C-57.4,207.4-56.9,208.2-56.8,208.2z M-66.7,199.4c-2.1-1.6-4.1-3.2-6.2-4.9c-1.5-1.2-3.6-2.4-4.5-4c-0.5-0.8,0.2,0,0.4,0.2
	c0.3,0.3,0.7,0.6,1,0.9c0.9,0.7,1.8,1.2,2.7,1.9c2.1,1.6,3.9,3.4,5.9,5.1c1,0.9,2,1.8,3,2.7C-65.1,200.6-65.9,200-66.7,199.4z
	 M-65.6,201.8c0.1,0.1,0.2,0.2,0.3,0.3c-0.9-0.7-1.7-1.3-2.6-2c-1.8-1.5-3.7-2.9-5.5-4.4c-0.8-0.6-1.6-1.3-2.4-2
	c-0.4-0.4-0.9-0.8-1.2-1.2c-0.1-0.2-1.1-1-0.1-0.3C-73.1,195.1-69.4,198.5-65.6,201.8z M-77.9,188.9c1.6,1.5,3,3,4.7,4.4
	c2,1.6,4,3.2,5.9,4.9c1.9,1.6,3.8,3.2,5.6,4.9c0.9,0.8,1.7,1.7,2.6,2.4c0.7,0.6,1.6,1.2,2.2,2c-0.5-0.7-1.5-1.4-2.2-1.9
	c-0.9-0.7-1.8-1.4-2.6-2.1c-1.9-1.7-3.8-3.3-5.6-5c-1.8-1.6-3.6-3.3-5.5-4.8c-1.7-1.3-3.5-2.4-5-3.9c0,0,0,0-0.1,0
	C-77.9,189.4-77.9,189.1-77.9,188.9z M-78.2,185c0.3,0.4,0.6,0.7,1,1c-0.3-0.2-0.6-0.4-1-0.6C-78.2,185.3-78.2,185.1-78.2,185z
	 M-78.7,180.1c4.2,4.2,9.2,7.5,13.8,11.2c2.3,1.8,4.8,3.5,7.2,5.4c0.5,0.4,1,0.7,1.4,1.1c0.4,0.4,0.4,0.4,0,0.2
	c-0.6-0.4-1.2-0.9-1.8-1.3c-1.2-0.9-2.4-1.7-3.5-2.5c-2.7-1.9-5.5-3.7-8.2-5.5c-2.7-1.9-5.3-4.1-8-6c-0.1-0.1-0.1-0.1-0.2-0.1
	c-0.2-0.1-0.4-0.3-0.5-0.4C-78.6,181.4-78.6,180.7-78.7,180.1z M-78.9,178.2c3.7,3.3,7.5,6.6,11.4,9.6c1.8,1.4,3.6,2.8,5.4,4.2
	c-1.8-1.2-3.5-2.4-5.3-3.6c-2.1-1.4-4.2-2.9-6.2-4.4c-1.7-1.3-3.3-3-5.2-4.1c0-0.2,0-0.4-0.1-0.6C-78.8,178.8-78.8,178.5-78.9,178.2
	z M-78.9,177.8c-0.1-0.5-0.1-1-0.2-1.5c0,0,0.1,0.1,0.2,0.1c0.5,0.4,1,0.8,1.5,1.1c0.5,0.4,0.9,0.8,1.4,1.1c1.5,1.1,3,2.3,4.5,3.4
	c1.9,1.4,3.8,2.8,5.6,4.2c1.5,1.2,3.2,2.3,4.6,3.6c1.5,1.4,3,2.6,4.5,3.9c0.4,0.3,0.7,0.6,1.1,0.9l0,0c-0.2-0.1-0.6-0.5-0.6-0.5
	c-0.8-0.6-1.5-1.1-2.2-1.7C-65.3,187.6-72.3,182.9-78.9,177.8z M-79.3,173.8c2.4,2.6,5.3,4.8,8.1,6.8c3.2,2.3,6.3,4.7,9.4,7.1
	c1.6,1.3,2.9,2.8,4.5,4.1c0.5,0.4,1,0.9,1.5,1.3c-0.7-0.5-1.3-1-1.9-1.5c-3.1-2.6-6.5-4.9-9.8-7.2c-3.3-2.4-6.6-5-10-7.2
	c-0.2-0.1-0.4-0.2-0.5-0.3c-0.4-0.3-0.7-0.6-1.1-0.9C-79.2,175.2-79.2,174.5-79.3,173.8z M-78.4,174.4c0.3,0.2,0.6,0.4,0.9,0.6
	c1,0.7,2,1.5,3.1,2.3c2.2,1.5,4.4,3,6.5,4.6c2.4,1.8,4.8,3.7,7.2,5.7c1.7,1.4,3.3,3,5.1,4.2c0,0.4,0,0.7,0,1.1
	c-0.5-0.5-1.2-0.9-1.7-1.4c-0.9-0.9-1.8-1.7-2.7-2.5c-2-1.7-4.2-3.4-6.3-5C-70.4,180.6-74.8,178-78.4,174.4z M-55.7,194.4
	c-6.3-5.7-13.3-10.6-20-15.8c0.5,0.3,1.1,0.7,1.6,1.1c2.2,1.6,4.4,3.2,6.6,4.8c2.2,1.6,4.4,3.1,6.6,4.8c1.1,0.9,2.4,1.7,3.5,2.7
	c0.6,0.5,1.1,1,1.8,1.4C-55.7,193.7-55.7,194.1-55.7,194.4z M-55.8,196.5c-1.5-1.6-3.5-2.7-5.2-4c-1.8-1.4-3.6-2.8-5.5-4.2
	c-3.7-2.8-7.3-5.9-10.8-9c0.2,0.2,0.5,0.4,0.7,0.5c1.1,0.8,2.2,1.6,3.2,2.3c2.1,1.5,4.1,3,6.1,4.5s4.1,2.9,6.2,4.3
	c1.8,1.2,3.4,2.8,5.3,3.8C-55.8,195.4-55.8,195.9-55.8,196.5z M-55.8,196.7c-0.6-0.6-1.7-1.4-2.4-2c-0.3-0.2-0.6-0.5-1-0.7
	C-58,194.8-56.8,195.7-55.8,196.7L-55.8,196.7z M-55.7,178.4c0,0.1,0,0.1,0,0.2c-0.8-1-1.8-1.8-2.8-2.6
	C-57.5,176.7-56.6,177.5-55.7,178.4C-55.8,178.4-55.8,178.4-55.7,178.4z M-69.2,171c0.4,0.5,0.9,1,1.4,1.4c0,0.4,0,0.7,0,1.1
	c-1.5-1.1-3.1-2.3-4.7-3.4C-71.4,170.4-70.3,170.7-69.2,171z M-72.8,170.1v0.1c1.5,1.8,3.3,3.3,5.1,4.8c0,0.1,0,0.2,0.1,0.3
	c-2.5-1.8-5-3.6-7.4-5.6C-74.2,169.8-73.5,170-72.8,170.1z M-75.3,169.6C-75.3,169.7-75.3,169.7-75.3,169.6c2.5,2.7,5.4,4.8,8.3,6.9
	c0.2,0.3,0.4,0.4,0.7,0.5c0.4,0.3,0.7,0.5,1.1,0.8c1.8,1.3,3.7,2.7,5.4,4.3c0.8,0.7,1.6,1.5,2.3,2.3c0.6,0.6,1.3,1.6,2,2.1l0,0
	c-0.7-0.5-1.4-1-2-1.6c-0.5-0.5-1-1-1.5-1.5c-1.6-1.6-3.4-3-5.2-4.3c-0.6-0.4-1.2-0.9-1.8-1.3l0,0c-3.6-2.7-7.1-5.6-10.7-8.4
	C-76.3,169.5-75.8,169.6-75.3,169.6z M-68.2,171.3c0.1,0.1,0.2,0.1,0.2,0.2l0.1,0.1c0,0.2,0,0.4,0,0.7c-0.2-0.2-0.4-0.4-0.6-0.6
	c0,0-0.3-0.3-0.5-0.5C-68.7,171.1-68.4,171.2-68.2,171.3z M-67,171.7c0.1,0.1,0.1,0.2,0.2,0.2c-0.1,0-0.1-0.1-0.2-0.1
	C-67,171.8-67,171.8-67,171.7z M-65.9,173.8c-0.4-0.3-0.7-0.6-1.1-0.9c0-0.3,0-0.6,0-0.8c0.2,0.1,0.3,0.2,0.5,0.3
	C-66.3,172.9-66.1,173.3-65.9,173.8z M-65.9,173.9c0.1,0.2,0.2,0.8,0.3,1.3c-0.5-0.3-0.9-0.7-1.4-1c0-0.4,0-0.7,0-1.1
	c0.1,0.1,0.3,0.2,0.4,0.3C-66.4,173.5-66.2,173.7-65.9,173.9z M-67,174.4c0.5,0.3,0.9,0.7,1.4,1c0,0.4,0,0.7-0.1,0.8
	c-0.4-0.3-0.7-0.5-1.1-0.8C-66.8,175.2-66.9,174.8-67,174.4z M-67.7,174.7c-1.3-1-2.6-2.1-3.8-3.3c-0.2-0.2-0.4-0.4-0.6-0.6l0,0
	c0.3,0.2,0.7,0.5,1,0.7c0.8,0.6,1.7,1.2,2.5,1.8c0.3,0.2,0.5,0.4,0.8,0.6C-67.8,174.1-67.7,174.4-67.7,174.7z M-65.5,177
	c0.1,0.1,0.2,0.2,0.3,0.3c2,1.5,4,3,5.8,4.6c1.3,1.1,2.4,2.5,3.8,3.5c0,0.3,0,0.5,0,0.8c-0.4-0.4-0.9-0.9-1.3-1.3
	c-0.8-0.7-1.4-1.6-2.2-2.3c-1.5-1.4-3-2.6-4.6-3.9c-0.7-0.6-1.5-1.1-2.2-1.6C-65.8,177.1-65.6,177.1-65.5,177L-65.5,177z
	 M-67.3,176.1c-2.3-1.6-4.6-3.3-6.6-5.3c0.2,0.2,0.4,0.3,0.6,0.5c0.8,0.6,1.6,1.2,2.5,1.8c1.1,0.8,2.2,1.6,3.3,2.4
	C-67.4,175.7-67.4,175.9-67.3,176.1z M-55.6,184.7c-0.8-1.1-2-2.1-2.9-2.9c-1.2-1.1-2.5-2.1-3.9-3.1c-0.8-0.6-1.7-1.3-2.6-1.9
	c0.2-0.2,0.3-0.4,0.3-0.6c0.3,0.2,0.6,0.5,0.9,0.7c1.7,1.2,3.5,2.5,5.1,3.9c1,0.9,1.8,1.9,3,2.5C-55.6,183.7-55.6,184.2-55.6,184.7z
	 M-65.2,177c0,0,0.1,0,0.1-0.1c0.3,0.2,0.5,0.4,0.8,0.6c1.7,1.2,3.4,2.5,4.9,3.8c0.7,0.6,1.4,1.3,2,1.9c0.6,0.5,1.3,1.1,1.8,1.8l0,0
	c-0.3-0.4-0.9-0.7-1.2-1c-0.3-0.3-0.7-0.7-1-1c-0.7-0.6-1.4-1.3-2.2-1.9c-1.5-1.3-3.1-2.5-4.7-3.7C-64.8,177.3-65,177.1-65.2,177z
	 M-66.5,175.9c0.2,0.2,0.4,0.3,0.7,0.5c-0.1,0-0.2,0-0.3-0.1C-66.3,176.1-66.4,176-66.5,175.9z M-64.7,174.8
	c0.8,0.6,1.6,1.2,2.3,1.8c1.4,1.1,2.7,2.3,4,3.5c0.7,0.6,1.2,1.3,1.9,1.9c0.1,0.1,0.7,0.7,0.9,1v0.1c0,0-0.1-0.1-0.2-0.1
	c-1.4-0.9-2.5-2.3-3.8-3.3s-2.6-2-4-3c-0.3-0.2-0.7-0.5-1-0.7C-64.6,175.6-64.6,175.2-64.7,174.8z M-55.6,188.2
	c-0.3-0.4-0.7-0.8-1.1-1.2c0.3,0.3,0.7,0.6,1.1,0.8C-55.6,188-55.6,188.1-55.6,188.2z M-55.6,187.2c-0.3-0.3-0.5-0.7-0.8-1
	c0.3,0.2,0.5,0.4,0.8,0.5C-55.6,186.9-55.6,187-55.6,187.2z M-55.7,179.5c-1.9-2-4.1-3.7-6.2-5.6c0.6,0.3,1.1,0.6,1.6,0.9
	c0.2,0.2,0.5,0.4,0.7,0.6c1.4,1.1,2.7,2.1,3.8,3.5C-55.7,179.1-55.7,179.3-55.7,179.5z M-55.7,179.8c-0.3-0.3-0.6-0.5-0.9-0.8
	c-1.5-1.6-3.3-2.9-5-4.2c-0.6-0.5-1.2-1-1.8-1.5c0.3,0.1,0.6,0.3,0.9,0.4c1.1,1,2.3,2,3.5,2.9c0.9,0.7,1.7,1.4,2.5,2.3
	C-56.3,179.2-56,179.5-55.7,179.8L-55.7,179.8z M-65.8,172.1c1.7,1.8,3.7,3.3,5.6,4.9c1,0.9,2,1.8,3,2.8c0.5,0.5,1.1,0.9,1.5,1.4
	l0.1,0.1c0,0.1,0,0.1,0,0.2c-0.3-0.3-0.6-0.6-0.7-0.7c-2.1-2-4.4-3.9-6.7-5.8c-0.8-0.6-1.5-1.3-2.3-1.9
	C-65.5,172.8-65.7,172.5-65.8,172.1z M-55.6,181.8c0,0.3,0,0.5,0,0.8c-0.7-0.8-1.6-1.6-2.3-2.3c-1.2-1.1-2.3-2.2-3.6-3.2
	c-1-0.8-2.2-1.6-3.3-2.4c-0.1-0.3-0.2-0.7-0.4-1.1c1,0.9,2.1,1.7,3.1,2.6C-59.8,177.9-57.8,180-55.6,181.8z M-55.6,189.9
	c-0.4-0.5-0.9-0.9-1.4-1.3c-0.9-0.8-1.8-1.7-2.6-2.5c-1.9-1.9-3.9-3.5-6-5.1c-1.8-1.4-3.6-2.8-5.3-4.2c1.1,0.8,2.3,1.6,3.4,2.4
	c2.4,1.7,4.8,3.3,7,5.2c1,0.9,2.2,1.7,3.2,2.7c0.6,0.6,1.1,1.2,1.8,1.6C-55.6,189.1-55.6,189.5-55.6,189.9z M-55.6,190.5
	c-1.3-1-2.5-2.4-3.7-3.5c-6.3-5.5-13.6-9.6-19.9-15c0-0.5,0.1-1,0.1-1.5c0.1,0.1,0.2,0.2,0.2,0.2c0,0.1,0.1,0.2,0.3,0.3l0.1,0.1
	c0.1,0.1,0.2,0.2,0.3,0.2c3,2.6,6.1,5.1,9.2,7.5c3.4,2.6,6.8,5.1,9.9,8.2c0.7,0.7,1.4,1.4,2.2,2.1c0.3,0.3,0.6,0.5,0.9,0.8
	c0,0,0.2,0.2,0.3,0.4C-55.6,190.3-55.6,190.4-55.6,190.5z M-78.9,169.1c0.4,0.1,0.8,0.1,1.3,0.2c0.1,0,0.3,0,0.4,0.1
	c1.7,1.6,3.6,3,5.5,4.4c0.3,0.2,0.6,0.5,1,0.7c0.3,0.2,0.6,0.4,0.9,0.7c1.3,1,2.6,2,4,3l0,0c2.1,1.5,4.2,3.1,6.1,4.8
	c0.5,0.4,1,1,1.5,1.5c0.4,0.5,0.9,1,1.3,1.4c0.4,0.4,0.7,0.8,1.1,1.2c0.1,0.1,0.3,0.3,0.4,0.5v0.1c-0.1-0.1-0.2-0.2-0.4-0.4
	c-3.6-3.2-7.1-6.4-11-9.3c-0.3-0.2-0.6-0.5-1-0.7c-1.6-1.2-3.2-2.5-4.8-3.7c-1.8-1.4-3.5-3-5.5-4.2l0,0c-0.1-0.1-0.3-0.2-0.4-0.2
	c-0.1-0.1-0.2,0.1-0.1,0.2c0.1,0.1,0.3,0.2,0.4,0.2c0,0.1,0.1,0.2,0.4,0.2c0.4,0.3,0.7,0.5,1,0.8c0.5,0.4,1,0.8,1.5,1.2
	c0.9,0.7,1.8,1.5,2.8,2.2c1.3,1,2.6,1.9,3.9,2.9c3.3,2.5,6.6,5,9.6,7.8c0.8,0.8,1.6,1.5,2.3,2.3c0.3,0.3,0.6,0.7,1,1.1
	c0,0,0.2,0.2,0.3,0.3v0.1c-0.1,0-0.1-0.1-0.2-0.2c-1.6-1.2-3.1-2.7-4.6-4c-3.2-2.7-6.7-4.9-10-7.3c-1.9-1.4-3.8-2.9-5.6-4.4
	c-0.5-0.4-1.1-0.9-1.7-1.2c-0.1-0.1-0.2-0.2-0.3-0.2c-0.4-0.3-0.7-0.6-1.1-1c0-0.3,0.1-0.6,0.2-0.9
	C-78.9,169.2-78.9,169.2-78.9,169.1z M-73.4,173.3c-0.5-0.4-0.9-0.7-1.4-1.1c0.6,0.5,1.2,1,1.8,1.5
	C-73.1,173.5-73.2,173.4-73.4,173.3z M-78.5,167.8c0.2,0,0.5,0.1,0.7,0.1h0.1c0,0.2,0,0.4,0.1,0.6c-0.2,0-0.5-0.1-0.7-0.1
	c0-0.1,0-0.1-0.1-0.2C-78.4,168-78.4,167.9-78.5,167.8z M-76.8,168.1c0.2,0,0.4,0.1,0.6,0.1c0,0.2,0,0.3,0,0.5
	c-0.2,0-0.4-0.1-0.6-0.1c0-0.1,0-0.2,0-0.3C-76.8,168.2-76.8,168.2-76.8,168.1z M-75.4,168.4c0.3,0.1,0.6,0.1,0.9,0.2
	c0,0.1,0,0.2,0,0.3c-0.3-0.1-0.6-0.1-0.9-0.1C-75.4,168.7-75.4,168.5-75.4,168.4z M-73.7,168.8c0.4,0.1,0.8,0.2,1.2,0.3
	c0,0.1,0,0.1,0,0.2c-0.4-0.1-0.8-0.2-1.2-0.2C-73.7,169-73.7,168.9-73.7,168.8z M-71.7,169.3c1,0.3,1.9,0.6,2.9,0.9
	c-0.9-0.3-1.9-0.5-2.9-0.7C-71.7,169.4-71.7,169.4-71.7,169.3z M-56.3,176.7c0.2,0.1,0.4,0.3,0.5,0.4v0.1
	C-56,177-56.2,176.8-56.3,176.7z M-55.6,181.1c-0.5-0.5-1-0.9-1.5-1.4c-0.9-0.9-1.7-1.7-2.7-2.5c-1.9-1.6-3.9-3.1-5.6-4.9
	c0.1,0,0.2,0.1,0.3,0.1c0.2,0.1,0.4,0.2,0.6,0.3c0.4,0.3,0.8,0.6,1.2,0.9c0.9,0.7,1.8,1.4,2.7,2.1c1.1,0.9,2.3,1.7,3.3,2.8
	c0.5,0.5,1,1.1,1.6,1.5C-55.7,180.4-55.7,180.8-55.6,181.1z M-55.6,190.7c0,0.3,0,0.5,0,0.8c-2.1-1.4-3.8-3.2-5.7-4.8
	c-1.8-1.5-3.7-3-5.6-4.4c-2.1-1.6-4.3-3.1-6.5-4.7c-1.2-0.8-2.4-1.7-3.5-2.6c-0.7-0.6-1.6-1-2.3-1.6c0-0.4,0-0.8,0-1.2
	c4.1,3.5,8.7,6.5,13.1,9.6c2.5,1.7,4.8,3.6,7.1,5.6c0.8,0.7,1.6,1.5,2.4,2.3C-56.4,190.1-56,190.5-55.6,190.7z M-55.9,197
	c0,0.3,0,0.6-0.1,0.9c-1.5-1.5-3.4-2.8-5.1-4c-2-1.5-4-3-5.9-4.5c-3.9-3-8-5.8-11.5-9.3c3.2,3.2,7.6,6.1,11.5,8.8
	c2.1,1.5,4.3,2.9,6.3,4.4c1.1,0.8,2.3,1.6,3.3,2.6C-56.8,196.2-56.4,196.6-55.9,197z M-56,200c0,0.3,0,0.5-0.1,0.8
	c-3.2-3.6-7.1-6.4-11.1-9.1c-0.5-0.3-1-0.7-1.4-1c0.4,0.3,0.9,0.6,1.3,0.9c2.2,1.4,4.3,3,6.5,4.6C-59.2,197.4-57.7,198.9-56,200z
	 M-56.8,208.4L-56.8,208.4c-0.2,0.1-0.3,0.2-0.5,0.3c-1.1-1-2.2-2-3.3-3c0,0,0.1,0,0.1,0.1c0.9,0.6,1.7,1.3,2.5,1.9
	C-57.7,208-57.3,208.3-56.8,208.4z M-57.7,208.9c-0.1,0.1-0.3,0.2-0.4,0.2c-0.1,0-0.2-0.1-0.3-0.1c-2.7-2.7-6.1-4.8-9.2-6.9
	c-1.8-1.3-3.6-2.5-5.3-3.8c-0.9-0.7-1.9-1.3-2.8-2c-0.6-0.5-1.1-1-1.8-1.3c0-0.5-0.1-1-0.1-1.6c1.4,1.2,3.1,2.1,4.5,3.3
	c1.7,1.5,3.4,3.1,5.3,4.5c1.9,1.5,3.8,3,5.8,4.5C-60.6,206.9-59.2,208-57.7,208.9z M-58.8,209.4c-0.3,0.2-0.7,0.3-1,0.4l0,0
	c-1.2-1-2.6-1.7-3.9-2.6c-1.7-1.2-3.4-2.2-5-3.4c-1.6-1.1-3.2-2.2-4.8-3.3c-0.8-0.5-1.6-1.1-2.3-1.7c-0.3-0.3-0.6-0.5-0.9-0.8
	c-0.9-1-0.4-0.5,0-0.2c1.6,1.1,3.1,2.4,4.7,3.6c1.6,1.2,3.3,2.2,5.1,3.2c1.7,1,3.4,2,5.2,3.1C-61,208.1-59.8,209.1-58.8,209.4z
	 M-60,209.9c-0.4,0.2-0.8,0.3-1.2,0.4c-2.8-1.8-5.5-3.9-8.3-5.6c-1.5-0.9-3-1.8-4.3-2.9c1.5,1,3.1,1.8,4.7,2.7
	C-66.1,206.4-63,208.2-60,209.9z M-61.5,210.5c-0.4,0.1-0.9,0.3-1.4,0.4c-0.2-0.1-0.3-0.2-0.5-0.3c0,0-0.1-0.1-0.2-0.1
	c-2.9-2.5-6.2-4.8-9.5-6.8c-0.8-0.5-1.6-1-2.4-1.6c1.2,0.8,2.5,1.6,3.8,2.4C-68.2,206.4-64.8,208.4-61.5,210.5z M-63.1,210.9
	c-0.4,0.1-0.9,0.2-1.3,0.3c0,0,0,0,0-0.1c-0.2-0.2-0.4-0.3-0.6-0.5c-0.1-0.1-0.2-0.3-0.4-0.4c-0.1-0.1-0.2-0.2-0.3-0.3
	c-0.6-0.5-1.2-1-1.8-1.5c-1.5-1.1-2.9-2.2-4.4-3.2c-1.1-0.7-2.4-1.4-3.5-2.3c0.6,0.4,1.2,0.8,1.9,1.2c1.9,1.1,3.7,2.2,5.5,3.4
	c0.9,0.6,1.7,1.1,2.6,1.7c0.4,0.3,0.9,0.6,1.3,0.9c0,0,0.2,0.1,0.4,0.2C-63.5,210.6-63.3,210.8-63.1,210.9z M-64.6,211.3
	c-0.3,0.1-0.6,0.1-0.9,0.2v-0.1c-1-0.8-2-1.7-3-2.5c-1.4-1.2-2.9-2.1-4.5-3c-0.7-0.4-1.5-0.9-2.2-1.4c-0.2-0.1-0.4-0.3-0.5-0.4
	c1.4,0.9,2.8,1.6,4.2,2.5c1.7,1,3.3,2.2,5,3.4c0.5,0.4,1.1,0.8,1.6,1.2l0,0C-64.8,211.1-64.7,211.2-64.6,211.3z M-65.8,211.5
	c-0.3,0.1-0.7,0.1-1,0.1c-1.6-1.5-3.3-2.7-5.1-3.9c-0.4-0.3-0.7-0.5-1.1-0.8c2.2,1.3,4.4,2.6,6.5,4.1c0.1,0.2,0.2,0.3,0.3,0.2
	C-66,211.3-65.9,211.4-65.8,211.5z M-67.1,211.7c-0.3,0-0.7,0.1-1.1,0.1c-1.3-1.2-2.7-2.2-4.1-3.1c-0.8-0.5-1.5-0.9-2.2-1.5
	c-0.5-0.3-0.9-0.7-1.4-1.1c-0.1-0.1-0.2-0.2-0.2-0.2c0.1,0,0.2,0.1,0.3,0.2c1.7,1,3.3,2,5,3C-69.5,209.9-68.4,210.9-67.1,211.7z
	 M-68.5,211.8c-0.4,0-0.9,0.1-1.3,0.1c-2.1-1.9-4.8-3.1-6.6-5.3c0.9,1,2.7,1.8,3.9,2.6C-71.2,210-69.8,210.9-68.5,211.8z
	 M-70.3,211.9c-0.3,0-0.7,0-1,0l0,0c-0.7-0.7-1.5-1.3-2.3-1.9c-0.6-0.4-1.2-0.8-1.7-1.3c-0.1-0.1-0.3-0.2-0.5-0.3
	c0.1,0,0.1,0.1,0.2,0.1c1.1,0.6,2.2,1.1,3.2,1.9C-71.8,210.9-71.1,211.5-70.3,211.9z M-71.8,211.9c-0.9,0-1.8,0-2.8,0
	c0.1,0,0.1-0.1,0.1-0.2c-0.2-0.2-0.3-0.3-0.6-0.5c-0.2-0.1-1.2-1.1-0.6-0.7c0.8,0.5,1.5,1,2.3,1.4c0.1,0,0.2,0,0.1-0.1
	c-0.4-0.7-1-1.1-1.6-1.6c-0.2-0.1-0.4-0.3-0.6-0.4c0.7,0.5,1.5,0.9,2.2,1.4C-72.8,211.5-72.3,211.7-71.8,211.9z M-75.1,211.9
	c-0.1,0-0.2,0-0.3,0c-0.2,0-0.3,0-0.5,0c0,0,0,0,0-0.1v-0.1C-75.7,211.7-75.2,211.9-75.1,211.9C-75.2,211.9-75.1,211.9-75.1,211.9z
	 M-76.7,211.8c-2.2-0.2-4.3-0.4-6.4-0.8v-0.1c-0.7-3.6-1-7.3-1.5-10.9c-0.5-3.7-0.7-7.3-0.9-11c-0.2-3.6-0.4-7.1-0.7-10.7
	c-0.3-3.2-0.8-6.4-0.7-9.6c2.4,0,4.8,0.1,7.2,0.4c0,0,0,0,0,0.1c-0.8,3.3-0.2,6.7,0.1,10.1c0.3,3.6,0.7,7.3,1,10.9
	c0.3,3.7,0.4,7.4,0.6,11.1c0.2,3.5,1,7,1.2,10.5C-76.7,211.7-76.7,211.7-76.7,211.8z M-83.9,210.8c-0.2,0-0.5-0.1-0.7-0.1
	C-84.4,210.7-84.2,210.7-83.9,210.8C-84,210.7-84,210.7-83.9,210.8z M-100.6,204.2c0.2,0.3,0.3,0.7,0.5,0.9c0.2,0.3,0.8,0.4,1.1,0.5
	c1.6,0.4,3.2,0.9,4.8,1.5c1.6,0.5,3.2,1.2,4.8,1.7c1.3,0.4,2.7,0.7,4,1.2c1,0.4,1.1,0.7,0,0.4c-0.6-0.2-1.3-0.5-1.9-0.8
	c-1.2-0.5-2.4-0.9-3.6-1.3c-2.3-0.8-4.7-1.3-7-2c-0.5-0.2-0.9-0.4-1.4-0.7c-0.2-0.1-0.4,0-0.5,0.1h-0.1
	C-100,205.1-100.3,204.6-100.6,204.2z M-90.4,208.6c1.4,0.5,2.7,1,4,1.5c0.3,0.1,0.6,0.3,0.9,0.4c-3.8-0.9-7.5-2.1-11.1-3.7
	C-94.5,207.4-92.4,207.9-90.4,208.6z M-101.3,202.7c1.5,0.8,3.2,1.4,4.9,1.8c0.6,0.2,1.1,0.4,1.7,0.6c3.1,1.1,6.1,2.1,9.1,3.3
	c0,0,1.5,0.5,0.7,0.3c-0.3-0.1-0.5-0.1-0.8-0.2c-0.7-0.2-1.3-0.5-2-0.7c-1.4-0.5-2.8-0.9-4.2-1.3c-2.8-0.8-5.7-1.7-8.5-2.6
	c-0.1-0.1-0.2-0.1-0.2-0.1c-0.1,0-0.3-0.1-0.4-0.1C-101,203.2-101.1,202.9-101.3,202.7z M-102.1,200.6c0.8,0.6,1.8,1,2.7,1.4
	c1.3,0.7,2.7,1.2,4.1,1.7c3.1,1.2,6.4,2,9.4,3.4c0.3,0.1,2.1,0.8,0.9,0.4c-0.8-0.3-1.5-0.5-2.3-0.8c-1.4-0.5-2.8-0.9-4.2-1.3
	c-1.5-0.4-3.1-0.8-4.7-1.2c-1.8-0.6-3.5-1.3-5.3-2c-0.1-0.2-0.2-0.5-0.3-0.7C-101.8,201.2-102,200.9-102.1,200.6z M-102.6,199
	c0.8,0.7,1.7,1.1,2.7,1.5c1.4,0.5,2.8,1.2,4.2,1.7c3.2,1.2,6.5,2.3,9.6,3.6c0.3,0.1,2.2,0.8,0.9,0.4c-0.8-0.3-1.6-0.6-2.4-0.9
	c-1.6-0.6-3.2-1.1-4.8-1.6c-3.3-1.1-6.7-2.2-9.9-3.6C-102.3,199.8-102.5,199.4-102.6,199z M-102.3,199.2c0.2,0.1,0.3,0.2,0.5,0.2
	C-102,199.4-102.2,199.3-102.3,199.2z M-103.5,194.9c5.1,3.2,11.2,4.1,16.5,6.7c0.3,0.1,0.6,0.3,0.8,0.4c-0.7-0.3-1.3-0.6-2-0.8
	c-0.4-0.2-0.8-0.3-1.2-0.5c-4.6-1.9-9.6-3-14-5.3c0,0,0,0-0.1,0C-103.4,195.3-103.5,195.1-103.5,194.9z M-103.8,191.7
	c2.7,1,5.2,2.4,7.9,3.4c2.7,1,5.4,2.1,8,3.4c0.3,0.1,0.5,0.3,0.8,0.4c-0.5-0.2-1-0.4-1.4-0.6c-1.9-0.7-3.8-1.4-5.7-2.1
	c-1.6-0.6-3.3-1.1-5-1.6c-1.5-0.6-3-1.3-4.5-1.8C-103.7,192.5-103.8,192.1-103.8,191.7z M-103.8,190.9c0.6,0.3,1.3,0.5,1.9,0.7
	c0.5,0.2,1,0.4,1.4,0.7c1.6,0.8,3.3,1.5,5,2.2c-1.1-0.4-2.1-0.7-3.2-1.1c-1.7-0.7-3.3-1.4-5.1-1.8
	C-103.8,191.3-103.8,191.1-103.8,190.9z M-103.7,189.3c0.6,0.2,1.2,0.5,1.8,0.7c1.4,0.7,2.8,1.5,4.3,2c2.2,0.8,4.5,1.5,6.6,2.5
	c1.1,0.5,2.2,1.1,3.3,1.7c-1-0.5-2.1-1.1-3.2-1.5c-1.8-0.7-3.6-1.3-5.5-1.8c-2-0.6-4-1.3-6-1.8c-0.4-0.2-0.9-0.4-1.3-0.5
	C-103.8,190.2-103.8,189.7-103.7,189.3z M-103.7,189.1c0-0.2,0-0.5,0-0.7c1.6,0.8,3.3,1.5,4.9,2.3c1.6,0.7,3.2,1.3,4.8,1.9
	c1.7,0.6,3.3,1.3,5,1.9c0.9,0.3,1.9,0.7,2.7,1.2c0.5,0.3,0.5,0.2-0.1,0c-0.6-0.2-1.2-0.5-1.7-0.7c-3.9-1.8-8.1-2.7-12-4.4
	c-0.7-0.3-1.4-0.7-2.2-1C-102.7,189.4-103.2,189.2-103.7,189.1z M-98.9,157.9c0.1,0,0.2-0.1,0.2-0.2c0.3-0.5,0.7-1,1-1.4
	c1.3-1.1,2.7-2.2,4.1-3.3c2.2-1.2,4.6-2.1,7-2.9c2.6-0.8,5.1-1.3,7.8-1.1c0.1,0,0.2,0,0.3,0c-1.3,0.7-2.6,1.8-3.5,2.9
	c-1,1.2-1.3,3,0.3,3.8c1.5,0.7,2.6-0.5,3.3-2.2c0,1.3,0.3,2.3,1.4,2.5c2.5,0.6,1.4-4.3,1-6.7c1.8,0.4,3.6,1.1,5.4,1.9
	c2.3,1.1,4.6,2.4,6.5,4.2c1.6,1.6,2.9,3.6,3.8,5.7c2,4.5,3.9,9.7,4.4,14.7c-3.1-2.4-6.6-4.3-10.3-5.7c0-0.4,0-0.8-0.3-1.1
	c-0.3-0.4-0.8-0.6-1.3-0.5c-0.4,0.1-0.6,0.4-0.6,0.8c-3.3-1.1-6.8-2-10.2-2.6c-4.2-0.7-8.6-0.9-12.7,0.2c-3.6,1-7.4,1.6-10.8,3.2
	C-101.6,166-100.7,161.9-98.9,157.9z M-59.7,160.8c1.2,2.2,2,4.6,2.6,7C-57.9,165.4-58.7,163-59.7,160.8z M-82.7,140.3
	c0.7-0.4,1.4-0.8,2.2-1.2l0,0c2,0.5,4,1,6.1,1.2c2.3,0.2,4.7,0.3,7,0.6c3.9,0.6,7.5,2.1,10.5,4.7c3,2.6,5.3,6,6.1,9.9
	c0.8,4.2-0.4,8.1-1,12.3c-0.3,1.9-0.5,3.9-0.3,5.8c0.1,2,0.5,4.1,0.6,6.1c0.3,4.2,0.1,8.4,0.6,12.5c0.4,3.3,0.9,6.7-0.4,9.9
	c-1,2.3-2.6,4.2-4.6,5.6c0.2-2.3,0.5-4.7,0.6-7c0.6-8.8,0.8-17.6,0-26.4c-0.6-6.9-2.4-14.1-7.5-19.2c-3.4-3.4-8.2-6.3-13.1-7.5
	c0-0.1,0-0.1,0-0.2c-0.3-0.7-1-1.1-1.8-1.1c-0.6,0-1,0.4-1.1,0.8c-1-0.1-1.9-0.1-2.9-0.1c-4.7,0.3-8.8,2.5-12.5,5.2
	c-1.1,0.7-2.2,1.4-3.1,2.3C-93.8,148.8-88.6,143.8-82.7,140.3z M-42.3,176.7v-0.1c0-0.2,0-0.5,0-0.7c0-2.6,0.2-5.1,0.5-7.7
	c0.9,4,0.7,8.2,1.4,12.3c0.4,2.5,1,5,0.9,7.6c-0.1,1.8-0.6,3.5-0.6,5.3c0.1,1.7,0.7,3.5,2,4.5c0,0,0,0,0,0.1
	c1.3,2.5-1.3,3.1-3.3,3.9c0.3-0.7,0.4-1.4,0.6-2.1v-0.1c-0.1-4-0.4-8.1-0.7-12.1C-41.7,183.9-42.2,180.3-42.3,176.7z M-35.5,198.1
	c-1.5-0.2-2.5-0.9-3-1.9l0,0c0.7,0.6,1.3,1.3,2.2,1.5c0.1,0,0.2-0.1,0.1-0.2c-0.8-0.7-1.7-1.4-2.3-2.3c-0.7-1.1,0.9,0.6,1.2,0.8
	c0.9,0.8,1.9,1.7,3.1,2C-34.6,198.1-35,198.1-35.5,198.1z M-32.2,176.6c-2-1.6-4.6-2.3-6.8-3.6c-0.3-0.2-0.6-0.4-0.9-0.6
	c0.5,0.2,0.9,0.4,1.4,0.6c0.6,0.3,1.2,0.6,1.8,0.8c1.5,0.5,3,1,4.4,1.8c0,0,0,0,0.1,0C-32.3,176-32.2,176.3-32.2,176.6z
	 M-41.6,144.2c-2.6-2-5.5-3.7-8.4-5.3c0,0,0.1,0,0.1,0.1c0.9,0.4,1.8,0.9,2.7,1.3c1.6,0.8,3.1,1.7,4.6,2.6
	C-42.3,143.3-42,143.7-41.6,144.2z M-51.9,138.1c1.9,1.3,4,2.3,6,3.5c1.1,0.7,2.3,1.4,3.3,2.2c0.1,0.1,0.2,0.1,0.3,0.2
	c-2.1-1.3-4.3-2.5-6.5-3.7c-1.2-0.7-2.5-1.3-3.7-1.9c-0.3-0.1-0.5-0.3-0.8-0.5C-52.8,137.9-52.4,138-51.9,138.1z M-40.6,145.9
	c-2-1.4-3.9-2.8-6-4c-2.3-1.3-4.7-2.5-6.9-3.9c-0.1,0-0.2-0.1-0.4-0.2h0.1c0,0,0.1,0,0.1,0.1c0.2,0.1,0.4,0.3,0.6,0.4
	c0.6,0.3,1.2,0.7,1.9,1c1.2,0.6,2.4,1.3,3.6,2c2.1,1.2,4.3,2.4,6.3,3.7c0.1,0.1,0.1,0.1,0.1,0.1C-41,145.2-40.8,145.5-40.6,145.9z
	 M-40,147c-2.8-1.2-5.4-2.6-8-4c-0.5-0.6-1-1.1-1.6-1.6c0.6,0.4,1.2,0.8,1.9,1.2c1.4,0.8,2.8,1.5,4.2,2.2c1.1,0.5,2.1,1.3,3.2,1.7
	C-40.2,146.6-40.1,146.8-40,147z M-59.1,127c-0.8-0.4-1.7-0.7-2.4-1.2s0.4,0.2,0.6,0.3c0.2,0.1,0.5,0.2,0.7,0.3
	c0.3,0.1,0.6,0.2,0.9,0.2C-59.3,126.7-59.2,126.8-59.1,127z M-62.1,125.6c0.9,0.8,2.1,1.1,3.2,1.6l0.1,0.1c-0.3,0-0.5-0.1-0.6-0.1
	c-0.4-0.1-0.8-0.3-1.2-0.5c-0.7-0.3-1.3-0.5-2-0.7l0,0C-62.4,125.9-62.3,125.7-62.1,125.6z M-58.5,128c-1-0.6-2.2-0.9-3.2-1.4
	c-0.9-0.5-0.2-0.2,0.3,0c0.4,0.2,0.8,0.3,1.2,0.5c0.5,0.2,1,0.3,1.5,0.4C-58.7,127.7-58.6,127.9-58.5,128z M-57.8,129.3
	c-0.5-0.2-1-0.3-1.5-0.5c-0.2-0.3-0.4-0.6-0.6-0.8c0.6,0.3,1.2,0.5,1.8,0.7C-58,128.9-57.9,129.1-57.8,129.3z M-63.3,126.9
	c0.4,0.2,0.8,0.4,1.2,0.6c0.1,0.1,0.2,0.1,0.2,0.2c-0.1,0-0.1,0-0.2,0h-0.1c-0.5-0.2-0.9-0.4-1.4-0.3
	C-63.5,127.2-63.4,127-63.3,126.9L-63.3,126.9z M-63.7,127.7c0.5,0.4,0.3,0.5-0.3,0.7c-0.1,0,0,0.2,0,0.2c-0.1,0.1-0.2,0.1-0.3,0.2
	C-64.1,128.4-63.9,128-63.7,127.7z M-70.4,134.4c-0.1-0.1-0.9-0.5-0.9-0.5c0.8-0.1,1.6,0.4,2.3,0.6c0,0.1,0,0.1,0,0.2
	c-0.3,0-0.6,0.1-0.9,0.1C-70,134.6-70.2,134.5-70.4,134.4z M-68.1,134.6c-0.1-2.1,1.6-3.2,3.2-4.3c0.9-0.6,3.1-2.5,4.3-1.6
	c1.8,1.4,1.3,5.1,1.3,7.1C-62.2,134.8-65.2,134.4-68.1,134.6z M-55.9,135.9c-0.3-0.2-0.6-0.3-0.9-0.5c-0.2-0.1-0.4-0.2-0.6-0.3
	c-0.1-0.2-0.2-0.4-0.2-0.6c0.6,0.2,1.1,0.6,1.8,0.8C-55.8,135.4-55.8,135.7-55.9,135.9z M-57.3,134c-0.8-0.5,0.7-0.1,0.9,0
	c0.3,0.1,0.5,0.2,0.8,0.3l0,0c0,0.2,0,0.5-0.1,0.7C-56.2,134.6-56.8,134.3-57.3,134z M-56.9,133.6c0.2,0.1,0.5,0.2,0.7,0.4
	C-55.6,134.3-56.4,133.9-56.9,133.6z M-57.6,133c-1.1-0.8,1,0.1,1.2,0.2c0.3,0.1,0.5,0.2,0.7,0.2c0,0.2,0,0.4,0,0.6
	C-56.3,133.6-57,133.4-57.6,133z M-56.4,136.9v-0.1c-0.2-0.2-0.5-0.3-0.7-0.5c-0.3-0.1-0.5-0.3-0.8-0.5c0.3,0,0.6-0.1,0.8-0.1
	c0.4,0.2,0.7,0.3,1.2,0.4c-0.1,0.3-0.1,0.6-0.2,0.9C-56.2,137-56.3,137-56.4,136.9z M-58.6,136c0-0.1,0.1-0.1,0.1-0.2
	c0-1.4,0.3-4.5-0.6-6.5c0.6,0.4,1.4,0.7,2,1.2l0,0l0.1,0.1c-0.2-0.1-0.5-0.3-0.7-0.4c-0.3-0.2-0.7-0.2-1-0.3c-0.1,0-0.2,0.1-0.1,0.2
	c0.6,0.6,1.6,0.9,2.3,1.3c0.1,0.1,0.1,0.2,0.2,0.3c-0.5-0.2-1.1-0.4-1.3-0.5c-0.3-0.1-0.5-0.1-0.8-0.2c-0.1,0-0.1,0.1-0.1,0.2
	c0.5,0.7,1.3,1,2,1.5c1.3,0.9-0.2,0.1-0.6-0.1c-0.4-0.2-0.8-0.3-1.2-0.4c-0.1,0-0.2,0.1-0.1,0.1c0.2,0.4,0.6,0.6,0.9,0.8l0,0
	c-0.3,0.1-0.5,0.1-0.8,0c-0.1,0-0.1,0.1-0.1,0.2c0.5,0.7,1.3,1,1.9,1.4c-0.4-0.3-1.1-0.5-1.6-0.5c-0.1,0-0.1,0.1-0.1,0.1
	c0.3,0.8,1.1,1.1,1.8,1.5c0.8,0.5-0.9-0.4-1.1-0.4c-0.4-0.1-0.6-0.2-1-0.1c-0.1,0-0.1,0.1-0.1,0.1c0.2,0.4,0.5,0.6,0.8,0.8h-0.1H-58
	C-58,136.2-58.3,136.1-58.6,136z M-63.3,127.7c0.2-0.1,0.5-0.1,0.7,0c0.1,0,0.1,0,0.2,0.1c-0.2,0.1-0.4,0.1-0.6,0.2
	C-63,127.9-63.1,127.9-63.3,127.7z M-68.9,134c-0.2-0.1-0.3-0.2-0.5-0.2c-0.3-0.1-0.6-0.2-0.8-0.4c-0.1-0.1-0.6-0.4-0.7-0.4
	c0.7-0.1,1.4,0.3,2.1,0.4C-68.9,133.6-68.9,133.8-68.9,134z M-68.7,133.1c-0.6-0.3-1.4-0.5-1.7-1.1c0,0.1,1.3,0.4,1.4,0.5
	c0.1,0,0.3,0.1,0.4,0.1C-68.6,132.7-68.7,132.9-68.7,133.1z M-70.3,131.8c0.3-0.1,0.6-0.2,0.9-0.3c0.1,0.1,0.3,0.2,0.4,0.3
	c0.1,0,0.4,0.3,0.6,0.5c0,0,0,0.1-0.1,0.1C-69.1,132.3-69.6,131.9-70.3,131.8z M-69.1,131.4c0.4,0.1,0.7,0.3,1.1,0.3
	c-0.1,0.1-0.2,0.2-0.3,0.4c-0.1,0-0.1-0.1-0.2-0.1C-68.6,131.8-68.9,131.5-69.1,131.4L-69.1,131.4z M-62.7,127c0.1,0,0.1,0,0.2,0.1
	c0.3,0,0.5,0.1,0.8,0.2s0.6,0.3,0.9,0.4c-0.1,0-0.2,0-0.4,0c-0.1,0-0.2,0-0.4,0C-61.9,127.4-62.2,127.2-62.7,127
	C-62.6,127-62.7,127-62.7,127z M-57.3,130.1c-0.4-0.3-0.8-0.5-1.3-0.7c-0.2-0.1-1.1-0.5,0-0.2c0.3,0.1,0.6,0.2,0.9,0.3
	C-57.5,129.8-57.4,129.9-57.3,130.1z M-56.6,131.2c-0.4-0.2-0.8-0.4-1.2-0.7c-0.8-0.5-0.4-0.3,0.3,0c0.2,0.1,0.4,0.2,0.6,0.2
	C-56.8,130.9-56.7,131.1-56.6,131.2z M-56,132.3c0.1,0.3,0.2,0.5,0.3,0.8c-0.7-0.5-1.5-0.8-2.1-1.4c0.3-0.1,0.6,0,0.9,0.2
	c0.2,0.1,0.5,0.3,0.7,0.4C-56.2,132.2-56.1,132.2-56,132.3z M-40.7,169.4c0.9,0.8,2.1,1.3,3,2c1.5,1.1,3.1,1.9,4.5,3
	c1.2,0.9-0.1,0-0.4-0.2s-0.6-0.4-0.9-0.6c-0.7-0.4-1.4-0.7-2.1-1.1c-1.3-0.7-2.5-1.3-3.8-2C-40.6,170.2-40.6,169.8-40.7,169.4z
	 M-32.4,174.8c-2.2-1.8-4.7-3.3-7-4.8c0.1,0.1,0.3,0.1,0.4,0.2c0.7,0.4,1.4,0.8,2.1,1.2c1.4,0.8,2.9,1.6,4.4,2.2
	C-32.5,174-32.4,174.4-32.4,174.8z M-41,167.9c2.5,1.7,5.1,3.2,7.5,5c0.2,0.1,1.3,0.7,0.2,0.2c-0.5-0.2-0.9-0.4-1.3-0.7
	c-0.7-0.4-1.5-0.8-2.2-1.2c-1.3-0.7-2.7-1.4-4-2.2C-40.9,168.7-40.9,168.3-41,167.9z M-41.5,166.3c0.7,0.6,1.6,1.1,2.4,1.5
	c0.7,0.5,1.4,1.1,2.1,1.6c1.1,0.7,2.4,1.3,3.4,2.1c0.1,0.1,0.1,0.1,0.2,0.2c-0.5-0.3-1-0.6-1.6-0.9c-2-1.1-4.2-2-6.2-3.2
	C-41.2,167.2-41.3,166.7-41.5,166.3z M-32.8,172c-1.2-1.2-2.7-1.8-4.1-2.8c-0.1-0.1-0.2-0.1-0.2-0.2c1.3,0.9,2.7,1.8,4.2,2.3
	C-32.9,171.6-32.8,171.8-32.8,172z M-33.4,168.9c-1-1-2.2-1.5-3.4-2.2c-1-0.6-2-1.3-3.1-2c0.9,0.4,1.8,0.7,2.6,1.2
	c1.1,0.6,2.2,1.2,3.3,1.7c0.1,0.1,0.2,0.2,0.3,0.1c0,0,0.1,0,0.1,0.1C-33.6,168.2-33.5,168.5-33.4,168.9z M-34,166.5
	c-0.1,0-0.2-0.1-0.3-0.2c-1.3-0.7-2.5-1.4-3.8-2.1c-1.1-0.6-2.1-1.4-3.3-1.9c0-0.2,0-0.5,0-0.7c1.4,0.8,2.7,1.8,4.1,2.6
	c0.6,0.3,1.2,0.7,1.8,1c0.5,0.3,0.9,0.6,1.3,1C-34.1,166.3-34.1,166.4-34,166.5C-34,166.4-34,166.4-34,166.5z M-34.6,164.3
	c-0.1,0-0.3-0.2-0.7-0.3c-0.3-0.1-0.5-0.3-0.8-0.4c-0.6-0.4-1.2-0.8-1.9-1.2c-1.1-0.7-2.4-1.2-3.6-1.8c0-0.3,0-0.5,0-0.8
	c0.8,0.8,1.7,1.3,2.6,1.8c1.2,0.6,2.4,1.3,3.5,2.1C-35.2,163.7-34.8,164-34.6,164.3C-34.6,164.2-34.6,164.2-34.6,164.3L-34.6,164.3z
	 M-38.6,158c0.4,0.3,0.8,0.6,1.3,0.9c-0.8-0.4-1.5-0.8-2.2-1.2c-0.7-0.5-1.4-1-2.2-1.3c0-0.2-0.1-0.4-0.1-0.6l0,0
	c0,0.1,0.1,0.1,0.2,0.1C-40.6,156.6-39.6,157.3-38.6,158z M-41.7,156.7c1,0.7,2.1,1.5,3.2,2.2c1.1,0.6,2,1.1,2.9,2
	c0.1,0.1,0.2,0.2,0.2,0.2s-0.2-0.2-0.4-0.3c-0.3-0.1-0.6-0.3-0.9-0.4c-0.6-0.3-1.2-0.6-1.7-1c-1-0.6-2.1-1.2-3.2-1.8
	C-41.6,157.3-41.7,157-41.7,156.7z M-41.6,158c1.8,1.7,4.4,2.5,6.2,4.2c0.8,0.8-0.6-0.2-0.8-0.4c-0.7-0.4-1.4-0.6-2-1
	c-1.1-0.7-2.2-1.4-3.3-2.1C-41.5,158.5-41.6,158.3-41.6,158z M-41,159.4c-0.2-0.1-0.3-0.1-0.5-0.1c0-0.1,0-0.1,0-0.2
	C-41.3,159.2-41.2,159.3-41,159.4z M-41.4,160.8c0.9,0.6,1.9,1,2.8,1.6c1.3,0.9,2.6,1.7,3.8,2.5c0.8,0.6-0.3-0.2-0.4-0.2
	c-0.3-0.1-0.5-0.3-0.8-0.4c-0.7-0.4-1.3-0.8-1.9-1.1c-1.1-0.7-2.3-1.3-3.5-1.8C-41.4,161.2-41.4,161-41.4,160.8z M-41.5,162.7
	c1.6,1.8,4.1,2.7,6.1,4c0,0,0.1,0,0.1,0.1c-0.2-0.1-0.4-0.2-0.6-0.3c-1.3-0.7-2.7-1.5-4.1-2c-0.4-0.2-0.9-0.4-1.3-0.6l0,0
	c-0.1-0.1-0.2-0.1-0.2-0.2C-41.5,163.3-41.5,163-41.5,162.7z M-33.8,168.7c-0.3-0.2-0.6-0.3-0.9-0.5c-0.8-0.4-1.5-0.9-2.3-1.3
	c-1.5-0.8-3-1.7-4.5-2.5c0-0.2,0-0.4,0-0.6c0.1,0,0.1,0.1,0.2,0.1l0,0c0.4,0.3,0.8,0.5,1.3,0.8c0.7,0.4,1.4,0.9,2.1,1.4
	c1.1,0.8,2.3,1.2,3.4,2C-34.9,167.9-33.2,169-33.8,168.7z M-41.6,164.7c1.6,1.5,3.7,2.3,5.5,3.5c0.6,0.4,1.2,0.8,1.8,1.2
	c0.3,0.2,1.7,1.1,0.6,0.5c-1.1-0.6-2.2-1.3-3.2-2c-0.9-0.6-1.9-1.1-2.9-1.7c-0.6-0.4-1.2-0.8-1.8-1.2
	C-41.6,165-41.6,164.9-41.6,164.7z M-36.1,169c1,0.8,2.2,1.3,3.1,2.1c-0.4-0.3-1.4-0.6-2-1c-0.5-0.3-1-0.6-1.5-1
	c-0.9-0.6-1.7-1.2-2.6-1.7c-0.8-0.6-1.6-1.1-2.5-1.6c0-0.2,0-0.4,0-0.5c0.5,0.4,1,0.7,1.6,1c0.2,0.1,0.3,0.2,0.5,0.3
	C-38.3,167.5-37.2,168.2-36.1,169z M-42.2,154.3c1.7,1.3,3.7,2.1,5.3,3.5c0.2,0.2,0.4,0.4,0.6,0.6c-0.3-0.2-0.6-0.3-0.8-0.5
	c-0.5-0.3-1-0.6-1.6-0.9c-1.1-0.6-2.2-1-3.3-1.6c0-0.1,0-0.3-0.1-0.4C-42.1,154.8-42.1,154.5-42.2,154.3z M-42.4,153.3
	c1.1,0.6,2.2,1.4,3.3,2c0.8,0.5,1.7,0.9,2.5,1.5l0,0c-0.7-0.5-1.5-0.8-2.3-1.1c-1.2-0.5-2.2-1.1-3.3-1.8
	C-42.3,153.8-42.3,153.5-42.4,153.3z M-36.7,156.6c-0.4-0.4-0.9-0.7-1.5-0.9c-1.1-0.6-2.1-1.3-3.1-1.9c0.1,0,0.1,0.1,0.2,0.1
	c0.5,0.2,1,0.4,1.5,0.7c0.9,0.5,1.7,1,2.6,1.3C-36.9,156-36.8,156.3-36.7,156.6z M-42.7,152.2c1.5,1.2,3.5,1.7,5.1,2.9
	c0.1,0,0.4,0.2,0.6,0.4v0.1c-0.1,0-0.1,0-0.2-0.1c-0.4-0.1-0.7-0.3-1.1-0.5c-0.5-0.3-1-0.6-1.5-0.8c-0.9-0.4-1.7-0.8-2.6-1.2
	C-42.6,152.7-42.6,152.5-42.7,152.2z M-43.2,150.8c1.2,1.1,2.8,1.7,4.2,2.3c0,0,2,1.1,0.8,0.6c-0.7-0.2-1.3-0.5-2-0.8
	c-0.9-0.4-1.8-0.8-2.7-1.2C-43,151.4-43.1,151.1-43.2,150.8z M-43.7,149.7c1.4,1.2,3.4,1.9,4.9,2.8c0.2,0.1,0.4,0.2,0.7,0.3
	c-0.3-0.1-0.6-0.3-0.9-0.4c-0.6-0.3-1.1-0.5-1.7-0.8c-0.9-0.5-1.8-0.9-2.8-1.3C-43.5,150.1-43.6,149.9-43.7,149.7z M-44.3,148.3
	c1.6,1.4,3.8,1.9,5.6,3.1c1.5,1-0.7-0.1-1-0.3c-0.5-0.3-1-0.6-1.6-0.8c-0.9-0.4-1.8-0.7-2.6-1.3C-44.1,148.8-44.2,148.5-44.3,148.3z
	 M-38.3,151.5c-1.5-1.3-3.7-1.7-5.3-2.9c-1.5-1.1,0.2-0.1,0.6,0.2c0.5,0.3,1.1,0.6,1.6,0.9c1,0.5,1.9,1,3,1.3
	C-38.4,151.1-38.3,151.3-38.3,151.5z M-45,147c2,1.2,4.2,2.1,6.1,3.4c0.9,0.6-0.2,0.1-0.5,0c-0.7-0.3-1.4-0.6-2-0.9
	c-1.1-0.6-2.1-1.1-3.2-1.6l0,0C-44.7,147.6-44.9,147.3-45,147z M-46,145.5c2.3,1.4,4.8,2.5,7,4l0,0c-1-0.6-2.5-1.4-3.7-1.9
	c-0.9-0.4-1.8-0.9-2.7-1.2C-45.6,146.1-45.8,145.8-46,145.5z M-47.4,143.6c2.2,1.4,4.5,2.6,6.9,3.5c0,0,0.5,0.2,0.8,0.4
	c0,0,0,0,0,0.1c-0.1,0-0.2-0.1-0.3-0.1c-0.3-0.1-0.6-0.2-0.9-0.3c-0.8-0.3-1.6-0.7-2.3-1c-1.1-0.5-2.1-0.9-3.2-1.3
	C-46.8,144.4-47.1,144-47.4,143.6z M-43,145.9c-0.5-0.3-1-0.5-1.5-0.8c0.2,0.1,0.3,0.2,0.5,0.2c0.8,0.4,1.5,0.8,2.3,1.1
	C-42.2,146.3-42.6,146.1-43,145.9z M-39.1,149.3c-2.3-1.5-4.9-2.7-7.2-4.1l0,0c1,0.6,2.6,1,3.7,1.5c1,0.4,1.9,0.8,2.9,1.2
	C-39.4,148.3-39.2,148.8-39.1,149.3z M-38.6,150.4c-2.1-1.4-4.5-2.3-6.6-3.7l0,0c0.7,0.5,2.3,1.1,3.3,1.5c1,0.5,2,1,3,1.5
	C-38.8,149.9-38.7,150.2-38.6,150.4z M-37.9,152.7c-1-0.6-2.1-1.3-3.1-1.8c-0.9-0.4-2-0.9-2.8-1.6l0,0c0.8,0.6,1.9,0.9,2.8,1.4
	c1,0.5,1.9,1,2.9,1.4C-38,152.3-38,152.5-37.9,152.7z M-37.6,153.6c-1.7-1.1-3.9-1.5-5.4-2.9c-0.7-0.6,0.8,0.3,1,0.4
	c0.6,0.3,1.1,0.5,1.7,0.8c0.8,0.4,1.7,0.8,2.6,1.2C-37.7,153.2-37.7,153.4-37.6,153.6z M-37.2,155.2c-0.7-0.5-1.4-1.1-2.2-1.5
	c-1-0.5-2.2-0.9-3.2-1.6c-0.6-0.5,0.5,0.3,0.6,0.3c0.2,0.1,0.3,0.1,0.5,0.2c0.7,0.3,1.3,0.6,1.9,0.8c0.7,0.3,1.3,0.5,2,0.7
	C-37.4,154.5-37.3,154.8-37.2,155.2z M-36.3,158c-1.2-1-2.5-1.8-3.8-2.6c0.1,0.1,0.3,0.1,0.4,0.2c1.1,0.5,2.2,0.9,3.2,1.6
	C-36.5,157.5-36.4,157.8-36.3,158z M-35.8,159.6c-0.9-0.6-1.8-1.1-2.7-1.7c-0.8-0.6-1.5-1.2-2.3-1.7c0.1,0.1,0.3,0.1,0.4,0.2
	c0.6,0.3,1.2,0.5,1.7,0.8c0.9,0.5,1.7,1,2.6,1.4C-36,158.9-35.9,159.3-35.8,159.6z M-35.5,160.7c-0.6-0.6-1-1.1-1.8-1.5
	c-1.2-0.6-2.3-1.3-3.4-2.1c0,0-1.3-0.8-0.5-0.3c0.2,0.1,0.4,0.3,0.6,0.4c0.4,0.3,0.8,0.6,1.3,0.8c1.2,0.6,2.4,1.2,3.6,1.9
	C-35.7,160.2-35.6,160.4-35.5,160.7z M-35.1,162.3c-1.7-1.6-3.9-2.5-5.7-3.9c0.2,0.2-0.5-0.3-0.8-0.6c0,0,0,0,0-0.1l0,0
	c0.3,0.2,0.6,0.3,0.9,0.5c0.6,0.3,1.2,0.7,1.7,1c1.2,0.7,2.4,1.4,3.6,1.9C-35.3,161.6-35.2,161.9-35.1,162.3z M-34.9,163
	c-0.1-0.1-0.1-0.1-0.2-0.2c0.1,0,0.1,0,0.2,0.1C-34.9,162.9-34.9,162.9-34.9,163z M-34.7,163.9c-0.9-0.8-1.9-1.5-3-2
	c-1.3-0.6-2.8-1.2-3.7-2.3c0.1,0.1,1.1,0.4,1.3,0.5c0.2,0.1,0.4,0.3,0.7,0.5c0.6,0.4,1.1,0.7,1.7,1c1.1,0.5,2,1.1,2.9,1.8
	C-34.8,163.5-34.7,163.7-34.7,163.9z M-34.4,165c-0.9-0.7-2-1.2-2.9-1.9c-0.7-0.5-1.3-1-2-1.3c-0.6-0.3-1.2-0.5-1.7-0.9
	c-0.7-0.5,0.6,0.3,0.6,0.3c0.3,0.1,0.6,0.3,0.9,0.4c0.7,0.3,1.3,0.7,2,1.1c1,0.7,2,1.4,3.1,1.8C-34.5,164.6-34.4,164.8-34.4,165z
	 M-34.1,166.1c-0.7-0.6-1.6-1.1-2.4-1.6c-1.3-0.7-2.5-1.6-3.8-2.4c0.1,0,0.2,0.1,0.3,0.1c0.7,0.3,1.3,0.7,2,1.1
	c1.2,0.7,2.4,1.5,3.8,2C-34.2,165.6-34.2,165.9-34.1,166.1z M-33.8,167.5c-1.2-0.7-2.3-1.6-3.6-2.3c-1.3-0.7-2.8-1.4-3.9-2.5
	c-0.7-0.7,0.5,0.1,0.6,0.2c0.4,0.2,0.8,0.5,1.2,0.8c0.6,0.4,1.3,0.7,1.9,1c1.2,0.6,2.3,1.4,3.5,1.9
	C-33.9,166.9-33.8,167.2-33.8,167.5z M-33.2,170c-2.1-1.7-4.5-2.8-6.8-4.3c-0.5-0.3-0.9-0.6-1.4-1c0.3,0.2,0.6,0.4,1,0.6
	c0.8,0.4,1.6,0.9,2.3,1.3c1.5,0.8,3.1,1.7,4.6,2.6h0.1C-33.3,169.4-33.3,169.7-33.2,170z M-33,170.9c-0.7-0.6-1.5-1.2-2.3-1.7
	c0.7,0.4,1.5,0.9,2.2,1.2C-33.1,170.6-33,170.7-33,170.9z M-32.6,173.3c-2.1-1.6-4.4-3-6.6-4.4c0.7,0.3,1.4,0.7,2.1,1
	c1.5,0.7,3,1.5,4.4,2.5C-32.7,172.7-32.6,173-32.6,173.3z M-32.3,175.4c-1.1-0.7-2.3-1.1-3.6-1.5c-1.5-0.5-2.9-1.3-4.4-1.9
	c0-0.4-0.1-0.8-0.2-1.2c1.5,0.8,3,1.6,4.6,2.4c1.1,0.6,2.2,1.6,3.5,1.8c0,0,0,0,0.1,0C-32.3,175.2-32.3,175.3-32.3,175.4z
	 M-38.6,187.5c0-0.3,0-0.5,0-0.8c1.1,0.9,2.3,1.7,3.6,2.5c0.8,0.4,1.5,0.9,2.3,1.4c0.5,0.3,1.3,1.1,1.8,1.3l0,0
	C-33.8,191.1-36,188.8-38.6,187.5z M-31.3,190.2c-0.2,0-1.3-0.7-1.6-0.8c-0.7-0.3-1.4-0.7-2.1-1.1c-1.1-0.7-2.3-1.4-3.6-1.8l0,0
	c0-0.3,0-0.7-0.1-1c2,1.9,4.8,2.6,7,4.3C-31.5,189.9-31.4,190.1-31.3,190.2C-31.3,190.1-31.3,190.2-31.3,190.2z M-38.9,184.1
	c2.1,1.6,4.5,2.5,6.7,4.1c1,0.7-0.5-0.3-0.7-0.4c-0.7-0.4-1.5-0.7-2.3-1.1c-1.2-0.5-2.3-1-3.5-1.5
	C-38.8,184.8-38.8,184.4-38.9,184.1z M-39.1,183c1.4,0.5,2.6,1.3,3.9,2c0.6,0.4,1.2,0.6,1.8,1c0.4,0.2,0.9,0.7,1.3,0.8
	c-2.4-0.8-4.4-2.5-6.9-3.1C-39,183.5-39,183.3-39.1,183z M-39.3,182c1.2,0.6,2.4,1.2,3.5,1.9c1,0.5,2.1,1.5,3.2,1.9
	c-1.3-0.4-2.3-1.3-3.5-1.8c-0.9-0.5-2-0.8-3-1.1C-39.2,182.5-39.2,182.2-39.3,182z M-32.1,181.4c0,0.2,0,0.5,0,0.7
	c-1.3-0.9-2.8-1.5-4.2-2.3c-0.1-0.1-0.2-0.1-0.4-0.2C-35.1,180.1-33.6,180.7-32.1,181.4z M-37.9,179c0.1,0.1,0.2,0.1,0.3,0.2
	c0.5,0.3,1.1,0.6,1.6,0.9c1.1,0.6,2.3,1.1,3.4,1.8c-1-0.6-2.4-1.1-3.5-1.5c-1.2-0.5-2.4-1.1-3.7-1.6c0-0.2,0-0.4-0.1-0.7
	c0.1,0,0.2,0.1,0.2,0.1c0,0.1,0.1,0.2,0.6,0.3C-38.7,178.7-38.3,178.9-37.9,179z M-39.6,179.2c2.5,1.1,4.9,2.3,7.5,3.2
	c0,0.1,0,0.3,0,0.4c-0.1-0.1-0.2-0.1-0.3-0.2c0-0.1-0.1-0.1-0.4-0.2C-35,181.3-37.3,180.2-39.6,179.2z M-32.1,183.6
	c-1-0.7-2.2-1.1-3.3-1.7c-1.1-0.6-2.2-1.2-3.3-1.8c0.2,0.1,0.4,0.1,0.5,0.2c0.8,0.3,1.5,0.6,2.2,0.9c1.3,0.6,2.6,1.2,3.9,1.9
	C-32.1,183.3-32.1,183.4-32.1,183.6z M-39.7,179.7c0-0.2-0.1-0.4-0.1-0.5c0.5,0.4,1,0.7,1.5,1C-38.7,179.9-39.2,179.8-39.7,179.7z
	 M-32.1,184.7c-1-0.8-2.2-1.3-3.3-1.8c1.1,0.4,2.1,0.8,3.3,1C-32.1,184.2-32.1,184.4-32.1,184.7z M-38.6,181.4
	c1.1,0.6,2.1,1.2,3.2,1.7c0.7,0.3,1.3,0.6,2,1c0.2,0.1,1.4,0.8,0.5,0.3c-2-1.1-4.3-1.9-6.5-2.7c0-0.2-0.1-0.4-0.1-0.6
	C-39.2,181.2-38.9,181.3-38.6,181.4z M-32,185.8c-1.2-0.8-2.4-1.5-3.7-2.2c-0.6-0.3-1.2-0.7-1.9-1c0.7,0.3,1.4,0.5,2.2,0.8
	c1.2,0.4,2.2,1.1,3.3,1.5C-32,185.3-32,185.5-32,185.8z M-39.6,180c1.4,0.6,2.8,1.4,4.1,2.1c0.6,0.4,1.3,0.6,2,0.9
	c0.3,0.2,0.8,0.5,1.1,0.6c-1.3-0.3-2.4-0.8-3.6-1.3c-0.7-0.3-1.4-0.6-2.1-1c0,0-0.2-0.1-0.4-0.2c-0.3-0.2-0.6-0.3-1-0.5
	C-39.6,180.5-39.6,180.2-39.6,180z M-39.9,177.3c0.3,0.1,0.6,0.2,0.9,0.3c1.2,0.5,2.2,1.2,3.3,1.9c0.4,0.2,0.8,0.4,1.2,0.6
	c-0.3-0.1-0.6-0.2-0.9-0.3c-0.8-0.3-1.5-0.6-2.3-0.9c-0.7-0.4-1.4-0.7-2.2-1c0-0.1,0-0.3,0-0.4C-39.9,177.5-39.9,177.4-39.9,177.3z
	 M-40,175.9c0.2,0.1,0.4,0.2,0.6,0.3l0,0c1.4,0.6,2.7,1.3,4,2.1c0.6,0.4,1.3,0.7,2,1.1c0.4,0.2,1.8,1,0,0.2c-1.1-0.5-2.3-1-3.5-1.4
	c-0.6-0.2-1.2-0.5-1.8-0.6c-0.1,0-0.2,0-0.3-0.1c-0.3-0.1-0.6-0.2-1-0.3C-40,176.7-40,176.3-40,175.9z M-40,175.7
	c0-0.4,0-0.7-0.1-1.1c2.5,1.5,5.1,2.8,7.7,4.1c-1.2-0.6-2.4-1.1-3.7-1.5c-0.8-0.3-1.5-0.5-2.3-0.8c-0.3-0.1-0.6-0.2-0.9-0.3
	c-0.3-0.1-0.4-0.2-0.5-0.2C-39.8,175.8-39.9,175.8-40,175.7z M-40.2,173.7c1,0.7,2.2,1.2,3.3,1.6c0.7,0.3,1.4,0.6,2.1,1
	c-0.4-0.2-0.8-0.4-1.2-0.5c-1.3-0.6-2.7-1-4.1-1.4l0,0C-40.1,174.2-40.1,173.9-40.2,173.7z M-39.6,173.8c0.8,0.5,2.2,0.8,3.2,1.1
	c1.5,0.5,2.9,1.2,4.3,1.9c0,0.1,0,0.3,0,0.4v0.1c-0.1-0.1-0.2-0.1-0.3-0.1c0-0.1-0.1-0.1-0.2-0.1c-1.1-0.6-2.2-1.2-3.3-1.7
	C-37.2,175-38.5,174.6-39.6,173.8z M-32.1,178.7c-2.1-1.6-4.8-2.6-7-3.8c-0.2-0.1-0.3-0.2-0.4-0.2c0.1,0,0.2,0.1,0.4,0.1
	c0.3,0.1,0.6,0.2,0.9,0.3c0.6,0.2,1.2,0.4,1.8,0.7c1.4,0.6,2.9,1.3,4.3,1.9C-32.1,178.1-32.1,178.4-32.1,178.7z M-32.1,180
	c-1.2-0.9-2.6-1.6-4-2.4c-0.5-0.3-0.9-0.5-1.4-0.7c1.8,0.6,3.6,1.3,5.4,2.2C-32.1,179.3-32.1,179.7-32.1,180z M-40.3,172.3
	c2.1,1.8,4.9,2.3,7.2,3.8c0.2,0.1,1.5,0.8,0.3,0.2c-0.3-0.2-0.6-0.3-0.9-0.4c-0.6-0.3-1.2-0.6-1.8-0.8c-1.5-0.6-3.2-0.9-4.6-1.6
	c0,0,0,0-0.1,0C-40.2,173.1-40.2,172.7-40.3,172.3z M-32.1,181.2c-0.1,0-0.1-0.1-0.2-0.1c0-0.1-0.1-0.1-0.3-0.2
	c-1.3-0.7-2.6-1.3-3.8-2c-0.4-0.3-0.9-0.6-1.3-0.8c0.6,0.2,1.1,0.4,1.7,0.6c1.3,0.5,2.5,1.2,3.8,1.5c0,0,0,0,0.1,0
	C-32.1,180.5-32.1,180.9-32.1,181.2z M-31.9,186.7c-0.9-0.7-1.9-1-2.8-1.6c-0.8-0.5-1.5-1-2.3-1.4c0.7,0.3,1.3,0.5,2,0.9
	c1,0.6,1.9,1.2,3.1,1.4l0,0C-32,186.3-31.9,186.5-31.9,186.7z M-31.7,188.3c-1.2-0.8-2.3-1.6-3.6-2.2c-0.7-0.3-1.3-0.7-2-1.1
	c-0.4-0.3-1-0.8-1.5-1c2.4,0.7,4.4,2.4,6.9,3.1C-31.8,187.5-31.8,187.9-31.7,188.3z M-31.4,189.8c-1.8-1.5-4.3-2.3-6.3-3.7
	c0.4,0.3-1.3-0.8-0.9-0.7c0.4,0.2,0.9,0.4,1.3,0.6c0.8,0.3,1.5,0.6,2.3,1c1.1,0.5,2.1,1.3,3.3,1.6c0.1,0.3,0.1,0.6,0.2,0.9
	C-31.4,189.6-31.4,189.7-31.4,189.8z M-31,191.5c-2-1.6-4.5-2.6-6.5-4.2c-1.7-1.3,0.4,0,0.9,0.2c0.7,0.4,1.3,0.8,2,1.1
	c1.1,0.6,2.3,1.1,3.5,1.6C-31.2,190.7-31.1,191.1-31,191.5z M-30.8,193.1c-0.9-0.9-2-1.4-3.1-2.2c-0.7-0.5-1.4-1.1-2.2-1.5
	c-0.7-0.4-1.7-0.8-2.3-1.4c-0.6-0.7,0.4,0.1,0.5,0.2c0.3,0.2,0.7,0.5,1,0.7c0.7,0.4,1.4,0.8,2,1.2c1.2,0.8,2.4,1.6,3.8,1.9
	C-30.9,192.4-30.9,192.8-30.8,193.1z M-32,192.7c-0.8-0.5-1.5-1-2.3-1.5c-1.4-1-2.8-2-4.3-2.8c0-0.1,0-0.3,0-0.4
	c0.7,0.9,1.9,1.3,2.8,1.9c1.4,1,3.1,1.9,4.4,3.1C-30.2,193.9-31.5,193-32,192.7z M-38.7,188.7c1.6,1.5,3.3,3.1,5.1,4.5
	c-1.7-1.2-3.4-2.6-5.2-3.7c0-0.1,0-0.3,0.1-0.4C-38.7,188.9-38.7,188.8-38.7,188.7z M-38.2,190c1.1,0.8,2.1,1.7,3.2,2.5
	c-0.2-0.1-0.4-0.2-0.5-0.4c-0.6-0.4-1.1-0.7-1.7-1.1c-0.4-0.3-0.8-0.6-1.2-1C-38.7,189.7-38.6,189.7-38.2,190z M-32,195.2
	c-0.1-0.1-0.2-0.1-0.3-0.2c-0.3-0.2-0.6-0.4-0.9-0.6c-0.6-0.4-1.2-0.7-1.8-1.2c-1.3-1-2.6-1.8-3.8-2.8c0-0.2,0.1-0.5,0.1-0.7
	c0.7,0.9,1.6,1.5,2.5,2.1C-34.8,192.9-33.4,194-32,195.2z M-32.8,195.6c1,0.9-0.3,0-0.8-0.2c-0.7-0.4-1.3-0.8-2-1.3
	c-1.2-0.8-2.3-1.6-3.5-2.4l0,0c0-0.3,0.1-0.7,0.1-1C-37.1,192.6-34.7,193.9-32.8,195.6z M-36.1,194.5c1,0.8,1.7,1.8,2.6,2.6
	c-0.7-0.6-1.8-1.4-2.7-2c-1-0.6-1.9-1.4-3-2.1c0-0.3,0-0.7,0-1.1C-38.1,192.9-37.1,193.7-36.1,194.5z M-39.1,193.4
	c0.8,0.8,1.6,1.6,2.5,2.3c0.5,0.4,1,0.8,1.5,1.3c0.2,0.2,0.6,0.7,0.8,0.8c-1.8-0.6-2.9-2.3-4.5-3.3c-0.1,0-0.1,0-0.1,0.1
	C-39.1,194.2-39.1,193.8-39.1,193.4z M-39,194.6c0.5,0.9,1.1,1.6,1.8,2.3c0.3,0.3,1.4,1.5-0.1,0.1c-0.3-0.3-0.7-0.6-1-0.9
	c-0.1-0.1-0.2,0-0.2,0.1C-38.7,195.7-38.9,195.2-39,194.6L-39,194.6z M-43,176.5c-1.5,2.6-4.2,4.8-7.4,3.8c-0.1,0-0.2,0-0.3,0
	c0-0.7-0.1-1.5-0.2-2.2c-0.2-2-0.6-4-0.5-6.1c0.1-3.9,1.3-7.7,1.6-11.5c0.5-7-2.8-13.4-8.6-17.2c-2.9-1.8-6-3-9.4-3.4
	c-2.2-0.3-4.4-0.4-6.6-0.6c-1.7-0.2-3.3-0.6-5-0.9c3.4-1.6,7-2.7,10.7-3c0.1,0,0.2,0,0.3,0c2.5-0.2,5,0,7.5,0.7
	c7.3,2,13.9,7.2,16.7,14.4c2.9,7.5,1.4,15.1,1.1,22.9C-43.1,174.4-43.1,175.5-43,176.5z M-71.5,135.1c0-0.2,0.3-0.2,0.7-0.1
	C-71.1,135-71.3,135-71.5,135.1z M-70.6,132c0.3,0.7,1.1,0.9,1.7,1.2c-0.7-0.1-1.5-0.6-2.2-0.3c-0.1,0-0.1,0.1,0,0.2
	c0.7,0.5,1.5,0.8,2.2,1.2c-0.9-0.2-1.7-0.8-2.6-0.5c-0.1,0-0.1,0.1,0,0.2c0.3,0.4,0.8,0.5,1.2,0.7c0.1,0.1,0.2,0.1,0.3,0.2
	c-0.1,0-0.1,0-0.2,0c-0.2,0-0.4-0.1-0.6-0.1c-0.3-0.1-1-0.2-0.9,0.3l0,0h-0.1c0.1-0.8,0.2-1.7,0.6-2.3
	C-71.1,132.5-70.8,132.2-70.6,132z M-68.6,131.4c0.3,0,0.6,0,1-0.1c-0.1,0.1-0.1,0.1-0.2,0.2C-68.1,131.5-68.3,131.5-68.6,131.4
	L-68.6,131.4z M-62.7,126.1C-62.7,126.1-62.7,126.2-62.7,126.1c1.3,1.1,3,1.3,4.4,2.2c0,0.1,0.1,0.2,0.1,0.2c-0.3,0-0.8-0.2-0.8-0.2
	c-0.6-0.3-1.2-0.6-1.8-0.8c-0.7-0.3-1.5-0.6-2.3-0.7l0.1-0.1C-63,126.4-62.9,126.3-62.7,126.1z M-59.6,126.3
	c-0.8-0.1-1.4-0.5-2.1-0.8c0.4-0.1,0.9-0.1,1.4,0.2C-60.1,125.9-59.8,126.1-59.6,126.3z M-54.3,137.6c2.1,1.5,4.6,2.6,6.8,3.9
	c1.4,0.8,2.8,1.7,4.2,2.6c0.7,0.5,1.3,0.9,2,1.4c0.1,0.1,0.6,0.4,0.9,0.6c-2.6-1.6-5.4-2.7-7.9-4.2c-0.8-0.5-1.7-1.1-2.5-1.6
	c-0.1-0.1-0.2-0.1-0.3-0.2c-1.3-1-2.7-1.9-4.2-2.6h0.1C-54.9,137.5-54.6,137.6-54.3,137.6z M-43.4,142.1c0.1,0.1,0.1,0.1,0.2,0.2
	c-2.5-1.5-5-2.8-7.6-4C-48,139-45.4,140.2-43.4,142.1z M-33.9,197.9C-33.9,197.9-33.9,197.8-33.9,197.9c-1.1-1.1-2.2-2-3.3-3
	c-0.5-0.4-1-0.8-1.4-1.3c-0.8-0.8,0-0.1,0.3,0.2c1,0.8,2.1,1.5,3.1,2.2c0.7,0.5,1.4,1,2.2,1.3c0.1,0,0.2-0.1,0.1-0.2
	c-1.1-0.8-1.9-1.9-2.9-2.8c-0.9-0.7-2-1.7-2.8-2.2c2.2,1.4,4.3,3.1,6.7,4.3c0.1,0,0.2-0.1,0.1-0.1c-0.9-1.1-2.1-1.7-3.2-2.6
	c-0.4-0.4-0.8-0.7-1.3-1c0.5,0.4,1.1,0.7,1.6,1.1c0.9,0.6,2.2,1.6,3.3,1.8c0.1,0,0.2-0.1,0.1-0.2c-1-0.8-1.9-1.6-2.9-2.3
	c1,0.7,2,1.3,3.2,1.7c0.1,0,0.2-0.1,0.1-0.2c-1.4-0.9-3.1-2-4.3-3.2c-1-0.9-2.1-2.1-3.2-2.7c2.7,1.5,5,3.5,7.7,5
	c0,0.8-0.2,1.6-0.7,2.4C-32.1,196.8-33,197.6-33.9,197.9z M-42.1,203.3c0.1-0.1,0.1-0.1,0.2-0.2l0,0c1.1-0.8,2.6-0.7,3.7-1.6
	c1-0.9,1.5-1.8,1.3-2.9c0.4,0.1,0.7,0.2,1.1,0.3s0.9,0,1.3,0c-0.8,2.3-1.8,4.7-4.7,4.5C-40.1,203.3-41.2,203.1-42.1,203.3z
	 M-49.3,210.6c-2.1,0.4-3-3.3-3.1-4.9c0.3-0.4,0.6-0.8,0.8-1.2c1.4-2.3,2.1-4.9,2-7.5c-0.1-2.1-0.5-4.1-0.7-6.1s-0.3-4-0.3-6
	c0-1.2,0-2.4-0.1-3.7c0,0,0,0,0.1,0c3.1,0.9,5.9-0.8,7.6-3.2c0.1,2.8,0.4,5.6,0.7,8.5c0.4,4.4,0.7,8.8,0.8,13.1
	c-0.2,1-0.4,2.1-1,2.9l0,0c-0.2,0.1-0.3,0.3-0.5,0.4c0,0.1-0.1,0.1-0.1,0.2c-0.2,0.2-0.4,0.4-0.6,0.6c-1.3,1.5-2,3.4-3.4,4.9
	C-47.7,209.3-48.5,210-49.3,210.6z M-99.3,206.4c9.3,4.5,19.3,6.6,29.7,6.2c5.7-0.2,12.4-1.8,16.5-6.1c0.3,1.8,1.1,4.2,2.8,4.8
	c-2.1,1.4-4.6,2.3-7.1,2.8c-4.4,0.9-8.9,0.8-13.3,0.8c-2.9,0-5.9,0-8.7,0.4c-2.7,0.3-5.6,0.7-8.3,0.1
	C-92.7,214.2-96.6,210.7-99.3,206.4z"/>
</svg>
