<svg xmlns="http://www.w3.org/2000/svg" xmlns:xlink="http://www.w3.org/1999/xlink" version="1.1" id="Layer_2" x="0px" y="0px" viewBox="0 0 100 100" enable-background="new 0 0 100 100" xml:space="preserve" height="100px" width="100px">
<path d="M33.3,73.5c5.7,0.2,11.4,0.4,17.1,0.5c11.4,0.3,22.9,0.5,34.3,0.5c0.2,0,0.4-0.1,0.5-0.2c0,0,0,0,0,0c0,0,0,0,0,0  c0.1-0.1,0.2-0.3,0.2-0.5c0-7.1-0.3-14.3-0.2-21.4c0.1-4.5,0.1-9,0.3-13.5c0.2-4,0.5-8.1-0.2-12.1c0-0.5-0.4-1-1-0.9  c-5.7,0.8-11.1,0.7-16.9,0.5c-6-0.2-12-0.2-18-0.4c-5.9-0.2-11.9-0.4-17.8-0.6c-5.5-0.2-11.1,0.7-16.6,0.1c-0.4,0-0.6,0.2-0.7,0.5  c0,0,0,0.1,0,0.1c-0.6,2.1-0.3,4.6-0.2,6.7c0.1,3.7,0.3,7.3,0.4,11c0.4,9.3,0.8,18.5,1.9,27.8c0.1,0.6,0.6,0.8,1.1,0.7  c0.1,0,0.1,0.1,0.2,0.1C22.9,73.1,28.2,73.3,33.3,73.5z M34.2,72c-4.5-0.2-9.2-0.3-13.8-0.8c2.7-2.7,6.1-5,9-7.5  c4.8-3.9,9.9-8.1,13.8-13c0.1-0.1,0.1-0.1,0.1-0.2c2.3,2,4.5,4,6.9,6c0.5,0.4,1.1,0.1,1.3-0.3c0.2,0,0.4,0,0.6-0.3  c1.5-1.8,3.4-3.2,5.1-4.7c0.9-0.7,1.7-1.5,2.6-2.2C68.6,56,76,64.7,83.3,73c-10.7,0-21.3-0.2-32-0.5C45.6,72.4,39.9,72.1,34.2,72z   M84,39.8c-0.2,4.2-0.2,8.4-0.3,12.6c-0.2,6.3,0.1,12.6,0.1,18.8c-7.1-8-14.4-16.4-22.7-23.2c2-1.7,3.9-3.3,5.9-4.9  c5.7-4.7,11.4-9.4,17.1-14C84.5,32.7,84.2,36.3,84,39.8z M30.8,27c6.3,0.3,12.5,0.4,18.8,0.7c6.3,0.2,12.6,0.2,19,0.4  c5.1,0.2,10,0.1,15.1-0.5c-5.8,4.7-11.5,9.4-17.2,14.1c-3.3,2.7-6.6,5.5-9.8,8.2c-1.8,1.6-3.9,3.1-5.5,5c0,0.1-0.1,0.1-0.1,0.2  c-6.6-5.5-12.7-11.6-19.4-16.9c-4.5-3.6-9-7.2-13.5-10.8C22.3,27.4,26.6,26.8,30.8,27z M16.3,44.4c-0.2-3.5-0.3-7-0.4-10.5  c-0.1-2-0.4-4.4,0-6.5c4.9,3.9,9.8,7.8,14.7,11.7c4.1,3.3,8,6.8,11.8,10.3c0,0-0.1,0.1-0.1,0.1c-3.8,4.8-8.7,8.8-13.4,12.6  c-3.4,2.8-7.3,5.4-10.3,8.7c-0.2,0-0.3,0-0.5-0.1C17.1,62.1,16.7,53.3,16.3,44.4z"/>
</svg>