<?xml version="1.0" encoding="utf-8"?>
<!-- Generator: Adobe Illustrator 16.0.0, SVG Export Plug-In . SVG Version: 6.00 Build 0)  -->
<!DOCTYPE svg PUBLIC "-//W3C//DTD SVG 1.1//EN" "http://www.w3.org/Graphics/SVG/1.1/DTD/svg11.dtd">
<svg version="1.1" xmlns="http://www.w3.org/2000/svg" xmlns:xlink="http://www.w3.org/1999/xlink" x="0px" y="0px"
	 width="841.89px" height="595.28px" viewBox="0 0 841.89 595.28" enable-background="new 0 0 841.89 595.28" xml:space="preserve">
<g id="Layer_7">
</g>
<g id="CMYK">
	<rect x="272.46" y="102.5" fill="#FFFEF3" width="296.249" height="400.166"/>
	<rect x="276.228" y="106.43" fill="#282969" width="288.545" height="392.26"/>
	<g>
		<path d="M569.114,503.167h-297.2V102.083h297.2V503.167z M272.914,502.165h295.2v-399.08h-295.2V502.165z"/>
	</g>
	<g>
		<defs>
			<rect id="SVGID_1_" x="276.228" y="407.873" width="288.545" height="90.973"/>
		</defs>
		<clipPath id="SVGID_2_">
			<use xlink:href="#SVGID_1_"  overflow="visible"/>
		</clipPath>
		<g clip-path="url(#SVGID_2_)">
			<defs>
				<path id="SVGID_3_" d="M648.732,570.688c0,58.922-102.106,106.686-228.06,106.686c-125.946,0-228.056-47.764-228.056-106.686
					c0-58.921,102.109-106.684,228.056-106.684C546.626,464.004,648.732,511.767,648.732,570.688z"/>
			</defs>
			<use xlink:href="#SVGID_3_"  overflow="visible" fill="#006EAD"/>
			<clipPath id="SVGID_4_">
				<use xlink:href="#SVGID_3_"  overflow="visible"/>
			</clipPath>
		</g>
	</g>
	<polygon fill="#006EAD" points="542.533,241.176 474.442,244.351 541.721,255.316 473.718,250.62 539.267,269.319 472.277,256.718 
		535.186,282.968 470.133,262.61 529.543,296.028 467.308,268.221 522.431,308.32 463.839,273.485 513.944,319.7 459.78,278.316 
		504.213,330.01 455.182,282.655 493.352,339.131 450.12,286.428 481.491,346.945 444.678,289.578 468.795,353.333 438.921,292.064 
		455.43,358.198 432.912,293.86 441.578,361.471 426.731,294.942 427.48,363.103 420.402,295.305 413.324,363.103 414.072,294.942 
		399.227,361.47 407.888,293.858 385.375,358.197 401.88,292.062 372.001,353.328 396.118,289.573 359.298,346.936 390.68,286.425 
		347.448,339.127 385.619,282.651 336.588,330.005 381.026,278.317 326.854,319.689 376.963,273.478 318.372,308.314 
		373.495,268.216 311.258,296.015 370.677,262.614 305.617,282.955 368.529,256.715 301.54,269.317 367.088,250.616 
		299.088,255.316 366.365,244.359 298.274,241.176 366.365,237.993 299.087,227.037 367.09,231.733 301.543,213.024 368.53,225.633 
		305.622,199.385 370.675,219.742 311.264,186.325 373.498,214.131 318.376,174.032 376.964,208.873 326.857,162.658 
		381.024,204.039 336.588,152.348 385.626,199.694 347.45,143.224 390.685,195.923 359.312,135.408 396.123,192.776 
		372.006,129.021 401.881,190.289 385.38,124.152 407.888,188.493 399.227,120.882 414.074,187.41 413.328,119.249 420.402,187.047 
		427.476,119.249 426.728,187.409 441.579,120.882 432.922,188.494 455.43,124.154 438.92,190.288 468.804,129.023 444.683,192.777 
		481.503,135.413 450.126,195.926 493.361,143.228 455.184,199.698 504.22,152.349 459.779,204.035 513.955,162.664 
		463.843,208.871 522.435,174.037 467.312,214.135 529.549,186.337 470.132,219.74 535.188,199.388 472.278,225.637 
		539.268,213.036 473.718,231.736 541.721,227.037 474.443,238.003 	"/>
	<path fill="#FFFFFF" d="M513.335,254.305c-1.719-7.232-5.128-13.747-9.762-19.6c-8.383-10.583-9.37-23.696-12.649-36.497
		c-1.846-7.225-5.075-9.153-11.159-14.477c-0.966-0.844-1.373-2.184-2.074-3.276c-1.874-2.931-3.479-6.046-5.702-8.737
		c-7.487-9.057-19.776-15.239-35.984-7.975c-5.853,2.623-11.605,3.177-17.605,1.616c-1.907-0.498-4.047-0.758-6.062-0.584
		c-11.225,0.964-20.817,4.812-26.976,14.158c-1.713,2.607-3.986,4.297-7.3,4.811c-1.134,0.175-2.252,0.512-3.391,0.725
		c-9.62,1.793-16.489,1.002-20.631,9.424c-2.092,4.245-5.615,6.913-10.176,8.929c-12.748,5.633-20.747,11.748-20.888,24.236
		c-0.094,8.037-2.12,18.533-0.379,26.267c2.404,10.7,9.382,21.701,12.318,32.255c4.571,16.424,22.348,20.048,35.673,10.661
		c0.437-0.31,1.154-0.612,1.618-0.523c7.302,1.433,17.418,0.932,24.858-1.562c2.461,8.305,9.146,12.065,17.843,13.724
		c1.25,0.238,2.505,0.486,3.78,0.603c10.545,0.988,21.091,1.939,31.639,2.9c9.486,0.859,18.035-1.582,25.72-7.18
		c8.431-6.142,16.962-12.173,25.328-18.39c3.138-2.332,1.677-3.541,4.383-6.271C513.154,272.083,515.555,263.631,513.335,254.305z"
		/>
	<g>
		<g>
			<circle fill="#FFFEF3" cx="282.793" cy="492.25" r="3.39"/>
		</g>
		<g>
			<circle fill="#FFFEF3" cx="558.292" cy="492.25" r="3.389"/>
		</g>
		<g>
			<circle fill="#FFFEF3" cx="282.543" cy="113" r="3.39"/>
		</g>
		<g>
			<circle fill="#FFFEF3" cx="558.179" cy="112.894" r="3.389"/>
		</g>
		<g>
			<path fill="#FFFEF3" d="M282.699,366.385l9.261,10.949l0.14,80.105l12.36-4.105l-0.166,12.333l-21.595,5.999V366.385z"/>
			<path fill="#FFFEF3" d="M322.048,462.037c-2.254,0-4.21-0.429-5.864-1.279c-1.657-0.853-3.022-2.049-4.098-3.585
				s-1.869-3.371-2.382-5.506c-0.512-2.133-0.769-29.666-0.769-32.191c0-2.662,0.264-5.06,0.795-7.194
				c0.529-2.134,1.332-3.936,2.407-5.401c1.075-1.469,2.441-2.597,4.097-3.381c1.654-0.785,3.628-1.176,5.915-1.176
				c2.286,0,4.258,0.391,5.913,1.176c1.656,0.784,3.02,1.903,4.097,3.352c1.075,1.455,1.869,3.235,2.383,5.354
				c0.511,2.117,0.766,4.506,0.766,7.168c0,2.56-0.255,30.112-0.766,32.244c-0.514,2.136-1.308,3.969-2.383,5.504
				c-1.077,1.538-2.449,2.741-4.123,3.61C326.365,461.602,324.368,462.037,322.048,462.037z M322.149,454.562
				c0.514,0,0.929-0.086,1.253-0.254c0.325-0.173,0.591-0.515,0.797-1.027c0.201-0.512,0.348-1.244,0.433-2.2
				c0.086-0.955,0.128-2.22,0.128-3.792v-31.09c0-1.195-0.042-2.159-0.128-2.895c-0.085-0.732-0.231-1.305-0.433-1.715
				c-0.206-0.408-0.487-0.683-0.848-0.818c-0.356-0.138-0.792-0.206-1.304-0.206c-0.515,0-0.941,0.068-1.282,0.206
				c-0.341,0.136-0.607,0.41-0.796,0.818c-0.187,0.41-0.323,0.999-0.408,1.768c-0.084,0.768-0.126,1.785-0.126,3.046v31.039
				c0,1.536,0.042,2.776,0.126,3.713c0.085,0.94,0.239,1.656,0.46,2.152c0.224,0.495,0.506,0.828,0.847,1.001
				C321.208,454.476,321.635,454.562,322.149,454.562z"/>
			<path fill="#FFFEF3" d="M475.641,459.467c-2.25,0-4.207-0.428-5.863-1.279c-1.653-0.855-3.021-2.05-4.096-3.587
				c-1.078-1.536-1.869-3.37-2.381-5.505c-0.513-2.135-0.768-10.267-0.768-12.795c0-2.662-0.083-6.271,0.217-8.452
				c0.711-5.181,1.908-7.65,2.983-9.118c1.077-1.471,2.439-2.595,4.097-3.382c1.656-0.781,3.627-1.175,5.914-1.175
				s4.259,0.394,5.916,1.175c1.653,0.787,3.022,1.904,4.095,3.355c1.075,1.451,1.87,3.874,2.382,5.991
				c0.513,2.116,0.768,4.506,0.768,7.168c0,2.56-0.255,15.049-0.768,17.183c-0.512,2.134-1.307,3.967-2.382,5.504
				c-1.072,1.538-2.449,2.74-4.122,3.611C479.96,459.031,477.967,459.467,475.641,459.467z M475.744,451.99
				c0.515,0,0.932-0.084,1.256-0.256c0.322-0.171,0.59-0.512,0.793-1.023c0.204-0.514,0.348-1.246,0.436-2.202
				c0.084-0.956,0.128-2.218,0.128-3.791v-16.028c0-1.194-0.044-2.799-0.128-3.533c-0.088-0.734-0.231-1.306-0.436-1.716
				c-0.203-0.409-0.487-0.683-0.846-0.818c-0.357-0.135-0.793-0.207-1.307-0.207c-0.511,0-0.938,0.072-1.278,0.207
				c-0.343,0.136-0.607,0.409-0.794,0.818c-0.186,0.41-0.325,1-0.409,1.768c-0.087,0.767-0.128,2.424-0.128,3.688v15.977
				c0,1.536,0.041,2.774,0.128,3.712c0.084,0.941,0.237,1.657,0.46,2.151c0.221,0.495,0.503,0.828,0.846,0.999
				C474.807,451.906,475.23,451.99,475.744,451.99z"/>
			<path fill="#FFFEF3" d="M357.182,414.701l10.035,2.526v40.387l-7.319,0.765l-1.744-2.185l-2.149,2.234
				c-0.238,0.068-0.727,0.182-1.46,0.333c-0.734,0.154-1.649,0.231-2.739,0.231c-1.094,0-2.178-0.18-3.253-0.54
				c-1.076-0.357-2.032-0.989-2.866-1.892c-0.838-0.906-1.518-2.127-2.049-3.662c-0.53-1.539-0.793-3.501-0.793-5.891v-37.128
				l9.934,2.951v35.764c0,0.853,0.137,1.496,0.414,1.923s0.812,0.638,1.607,0.638c0.551,0,1.009-0.032,1.371-0.1
				c0.364-0.068,0.7-0.154,1.012-0.257V414.701z"/>
			<path fill="#FFFEF3" d="M375.824,419l12.187,1.884c9.378,2.004,12.958,7.457,12.958,18.518c0,5.495-1.104,9.66-3.306,12.494
				c-2.199,2.833-5.551,3.758-9.909,4.25l-11.93,1.062V419z M387.654,448.464c0.51,0,0.936-0.06,1.277-0.178
				c0.343-0.121,0.626-0.387,0.846-0.796c0.222-0.409,0.383-1.03,0.486-1.87c0.104-0.834,0.154-1.969,0.154-3.401v-7.304
				c0-1.16-0.061-2.073-0.18-2.74c-0.121-0.665-0.289-1.168-0.512-1.512c-0.223-0.34-0.512-0.554-0.869-0.638
				c-0.359-0.086-0.778-0.13-1.258-0.13h-1.843v18.568H387.654z"/>
			<path fill="#FFFEF3" d="M416.287,455.788c-2.176,0-4.006-0.215-5.489-0.643c-1.484-0.429-2.687-0.905-3.612-1.436l1.287-6.823
				c1.054,0.36,2.093,0.685,3.116,0.965c1.022,0.276,2.109,0.417,3.266,0.417c1.219,0,2.035-0.141,2.448-0.417
				c0.41-0.28,0.618-0.852,0.618-1.711c0-0.822-0.223-1.358-0.67-1.605c-0.446-0.247-1.245-0.47-2.396-0.668
				c-1.288-0.198-2.399-0.504-3.34-0.917c-0.942-0.41-1.717-1.006-2.325-1.779c-0.609-0.773-1.063-1.799-1.359-3.068
				c-0.299-1.268-0.446-2.86-0.446-4.773c0-3.691,0.874-6.429,2.622-8.209c1.745-1.782,4.304-2.672,7.668-2.672
				c1.944,0,3.535,0.156,4.771,0.471c1.238,0.313,2.283,0.665,3.146,1.062l-0.696,7.816c-0.955-0.263-1.896-0.479-2.82-0.643
				c-0.921-0.165-1.877-0.249-2.869-0.249c-1.218,0-2.018,0.133-2.399,0.398c-0.378,0.264-0.564,0.759-0.564,1.483
				c0,0.69,0.187,1.153,0.564,1.385c0.382,0.231,1.148,0.444,2.303,0.642c1.285,0.199,2.424,0.487,3.412,0.866
				c0.991,0.381,1.812,0.941,2.475,1.683c0.658,0.74,1.16,1.707,1.506,2.894c0.35,1.188,0.521,2.703,0.521,4.55
				c0,3.793-0.849,6.571-2.549,8.335C422.776,454.907,420.046,455.788,416.287,455.788z"/>
			<path fill="#FFFEF3" d="M432.879,431.647v-8.499l22.021-4.045v11.73l-5.994,0.333v25.041l-10.035-0.726v-23.835H432.879z"/>
			<path fill="#FFFEF3" d="M523.294,465.668l-11.962-2.505l-3.707-23.619l-2.433-0.759l0.831,23.565l-9.937-1.895v-55.228
				l12.874-5.228c5.833-2,9,0.5,10.084,6.073c0.306,1.572,0.812,4.598,0.812,6.85c0,2.562-0.062,18.91-4.739,21.743L523.294,465.668
				z M506.767,430.856c1.194,0.215,1.752-0.139,2.058-0.901c1.001-2.506,0.916-21.953,0.037-23.119
				c-0.393-0.522-0.646-1.067-1.965-0.71l-2.03,0.454l0.065,23.973L506.767,430.856z"/>
			<path fill="#FFFEF3" d="M532.338,434.209l-9.178-41.895l8.634-4.98l6,38.333l5.333-51.5l14.549-8.519l-14.355,66.907
				l0.125,37.146l-10.151-2.367L532.338,434.209z"/>
		</g>
	</g>
	<g>
		<defs>
			<path id="SVGID_5_" d="M564.793,310.403c0,56.83-65.322,102.898-145.896,102.898c-80.572,0-145.895-46.068-145.895-102.898
				c0-56.828,65.322-102.896,145.895-102.896C499.471,207.508,564.793,253.576,564.793,310.403z"/>
		</defs>
		<clipPath id="SVGID_6_">
			<use xlink:href="#SVGID_5_"  overflow="visible"/>
		</clipPath>
		<g clip-path="url(#SVGID_6_)">
			<polygon fill="#550F10" points="431.293,416 425.293,416 425.293,348.016 431.293,358.506 			"/>
			<polygon fill="#550F10" points="452.293,416 441.293,416 441.293,348.016 452.293,361.636 			"/>
			<polygon fill="#550F10" points="314.293,393.034 299.293,381.873 299.293,290.999 314.293,310.736 			"/>
			<polygon fill="#550F10" points="365.293,409 349.293,409 349.293,335.008 365.293,354.856 			"/>
			<polygon fill="#550F10" points="383.293,418 378.293,418 378.293,322.984 383.293,333.412 			"/>
			<polygon fill="#550F10" points="515.293,408 501.293,408 501.293,334.969 515.293,354.856 			"/>
			<polygon fill="#550F10" points="469.293,408.538 452.293,415.948 452.293,365.984 469.293,383.967 			"/>
			<polygon fill="#550F10" points="403.293,426 400.293,426 400.293,314 403.293,325.71 			"/>
			<polygon fill="#550F10" points="541.293,387 535.293,387 535.293,307 541.293,319.236 			"/>
			<polygon fill="#550F10" points="568.293,369.101 562.293,373.467 562.293,290.61 568.293,301.114 			"/>
		</g>
		<g clip-path="url(#SVGID_6_)">
			<rect x="408.293" y="348" fill="#D92E27" width="17" height="68"/>
			<rect x="431.293" y="348" fill="#D92E27" width="10" height="68"/>
			<rect x="276.293" y="291" fill="#D92E27" width="23" height="88"/>
			<rect x="314.293" y="335" fill="#D92E27" width="35" height="91"/>
			<rect x="365.293" y="323" fill="#D92E27" width="13" height="103"/>
			<rect x="383.293" y="314" fill="#D92E27" width="17" height="112"/>
			<rect x="510.293" y="307" fill="#D92E27" width="25" height="101"/>
			<rect x="540.293" y="291" fill="#D92E27" width="22" height="88"/>
			<rect x="466.293" y="335" fill="#D92E27" width="35" height="77"/>
			<rect x="403.293" y="366" fill="#D92E27" width="49" height="54"/>
		</g>
	</g>
	<g>
		<g>
			<g>
				<path fill="none" d="M395.694,258.612c-0.158-0.186-0.317-0.373-0.477-0.559c0.08,0.3,0.16,0.6,0.24,0.899
					c0.04,0.021,0.081,0.041,0.121,0.061C395.618,258.88,395.654,258.747,395.694,258.612z"/>
				<path fill="none" d="M443.907,262.726c0.299,0.061,0.601,0.122,0.909,0.184c-0.081-0.45-0.156-0.902-0.23-1.354
					c-0.271,0.217-0.541,0.434-0.812,0.651C443.815,262.387,443.859,262.559,443.907,262.726z"/>
				<path fill="none" d="M444.146,259.944c0.053-0.009,0.107-0.019,0.16-0.027c-0.017-0.107-0.031-0.216-0.047-0.323
					c-0.049,0.034-0.098,0.069-0.146,0.103C444.125,259.78,444.135,259.862,444.146,259.944z"/>
				<path fill="none" d="M445.306,265.241c-0.066-0.214-0.127-0.438-0.182-0.671c-0.101,0.042-0.198,0.081-0.302,0.124
					C444.97,264.893,445.131,265.076,445.306,265.241z"/>
				<path fill="none" d="M355.102,237.388c0.172-0.028,0.343-0.056,0.512-0.082c0.292,1.181,0.582,2.363,0.873,3.545
					c-0.094-0.896-0.185-1.791-0.236-2.695c-0.042-0.72-0.051-1.444-0.045-2.17c-0.005-0.022-0.01-0.043-0.016-0.065
					c-0.555-2.282-0.711-4.664-1.053-6.997c-0.235,0-0.471,0.001-0.706,0.002c-0.146,3.518-0.585,7.064-0.388,10.544
					c0.027,0.467,0.084,0.927,0.122,1.391c0.438,0.714,0.898,1.463,1.483,2.42C355.444,241.051,355.273,239.219,355.102,237.388z"/>
				<path fill="none" d="M400.818,278.942c0.02,0.075,0.04,0.15,0.061,0.226c0.069-0.08,0.133-0.151,0.204-0.233
					C400.988,278.938,400.91,278.94,400.818,278.942z"/>
				<path fill="none" d="M401.164,281.698c0.002,0.055,0.003,0.111,0.005,0.166c0.005,0.125,0,0.242,0.003,0.365
					c0.061-0.098,0.123-0.198,0.185-0.295C401.291,281.855,401.228,281.777,401.164,281.698z"/>
				<path fill="none" d="M368.059,289.329c-0.325,0.472-0.896,1.391-0.049,1.395C368.07,290.303,368.087,289.842,368.059,289.329z"
					/>
				<path fill="none" d="M470.877,267.481c0.827-0.384,1.645-0.806,2.451-1.274c-3.045,0.56-6.076,1.24-9.134,1.643
					c-3.164,0.417-6.343,0.795-9.516,1.027c-1.312,0.233-2.624,0.461-3.933,0.708C457.571,269.986,464.291,269.465,470.877,267.481z
					"/>
				<path fill="none" d="M443.971,257.596c-0.01-0.074-0.021-0.147-0.031-0.222c-0.141,0.1-0.273,0.193-0.425,0.3
					C443.676,257.646,443.818,257.622,443.971,257.596z"/>
				<path fill="none" d="M392.96,247.388c-0.251-0.287-0.501-0.574-0.752-0.86c0.032,0.128,0.063,0.258,0.096,0.386
					c0.058,0.228,0.119,0.455,0.177,0.683c0.102,0.071,0.204,0.142,0.305,0.213C392.844,247.668,392.903,247.529,392.96,247.388z"/>
				<path fill="none" d="M437.248,224.245c0.203-0.382,0.404-0.76,0.604-1.135c-0.24-0.975-0.467-1.951-0.721-2.923
					c-0.145,0.737-0.259,1.495-0.318,2.289C436.958,223.065,437.108,223.654,437.248,224.245z"/>
				<path fill="none" d="M390.889,241.218c0.23,0.953,0.473,1.904,0.709,2.855c0.445,0.349,0.9,0.704,1.366,1.068
					C392.422,243.578,391.69,242.336,390.889,241.218z"/>
				<path fill="none" d="M435.942,218.999c0.063,0.05,0.127,0.101,0.19,0.151c0.158-0.301,0.316-0.603,0.476-0.905
					c-0.123-0.461-0.248-0.922-0.373-1.384c-0.139,0.566-0.276,1.128-0.413,1.69C435.861,218.701,435.903,218.85,435.942,218.999z"
					/>
				<path fill="none" d="M443.661,255.44c-0.026-0.189-0.053-0.378-0.079-0.568c-0.193,0.186-0.377,0.361-0.576,0.552
					C443.226,255.429,443.443,255.435,443.661,255.44z"/>
				<path fill="none" d="M440.069,238.673c0.076,0.085,0.151,0.171,0.228,0.256c0.206-0.277,0.414-0.558,0.626-0.843
					c-0.694-4.038-1.438-8.065-2.352-12.051c-0.062-0.27-0.136-0.538-0.198-0.808c-0.169,0.816-0.287,1.67-0.336,2.577
					C438.8,231.407,439.457,235.035,440.069,238.673z"/>
				<path fill="none" d="M394.199,254.216c0.059,0.222,0.115,0.445,0.174,0.667c0.035-0.103,0.071-0.206,0.108-0.308
					C394.388,254.455,394.294,254.335,394.199,254.216z"/>
				<path fill="none" d="M467.678,272.463l3.86,2.252c0,0-4.957-0.991-8.054-1.369c-0.812,0.143-1.627,0.274-2.443,0.387
					c0.387,0.671,2.167,1.74,2.167,1.74s-3.76-0.868-5.72-1.34c-0.326,0.028-0.653,0.051-0.98,0.076
					c0.25,0.563,1.541,1.867,2.434,2.726c6.774-0.556,13.438-1.972,19.882-4.735l-9.729-0.111
					C468.622,272.219,468.15,272.346,467.678,272.463z"/>
				<path fill="none" d="M393.939,251.382c-0.244-0.333-0.49-0.667-0.735-1c0.098,0.377,0.196,0.755,0.294,1.133
					c0.077,0.053,0.154,0.106,0.231,0.16C393.8,251.577,393.87,251.479,393.939,251.382z"/>
				<path fill="none" d="M482.676,221.308c-0.237-0.245-0.479-0.495-0.719-0.743c0.18,0.537,0.354,1.076,0.532,1.613
					c0.174,0.121,0.347,0.242,0.521,0.363C482.898,222.13,482.787,221.718,482.676,221.308z"/>
				<path fill="none" d="M489.244,210.634c-0.366-2.867-0.729-5.733-1.103-8.6c-0.027-0.213-0.136-0.415-0.206-0.62
					c-0.256-0.013-0.51-0.027-0.763-0.043c-0.374,2.4-0.749,4.809-1.173,7.509c0.232,1.821,0.467,3.642,0.699,5.463
					C487.842,213.121,488.666,211.801,489.244,210.634z"/>
				<path fill="none" d="M480.765,202.721c0.99,1.605,1.77,3.214,2.515,4.771c0.073-0.47,0.145-0.924,0.215-1.379
					c-1.225-1.79-2.441-3.566-3.662-5.351c0.398,1.47,0.792,2.921,1.189,4.384C480.831,203.916,480.664,202.776,480.765,202.721z"/>
				<path fill="none" d="M488.416,227.323c0.488,3.512,1.043,7.015,1.45,10.534c0.93-2.322,1.595-4.722,2.073-6.923
					c-0.133-0.912-0.264-1.823-0.391-2.735c-0.627-4.531-1.217-9.068-1.798-13.607c-0.601,2.624-1.454,4.863-2.166,6.455
					C487.861,223.14,488.126,225.234,488.416,227.323z"/>
				<path fill="none" d="M359.155,263.898c0.028,0.099,0.056,0.198,0.085,0.297c0.033-0.049,0.067-0.099,0.099-0.149
					C359.277,263.998,359.217,263.948,359.155,263.898z"/>
				<polygon fill="none" points="360.07,267.101 360.072,267.11 360.076,267.107 				"/>
				<path fill="none" d="M490.072,252.859c-0.068,0.52,0.657,1.237,1.234,1.594c0.891,0.551,1.809,1.071,2.732,1.583
					c-0.439-0.386-0.818-0.88-0.768-1.269c0.757-6,0.289-11.855-0.468-17.68c-0.702,3.318-1.655,6.18-2.386,8.114
					C490.482,247.733,490.396,250.282,490.072,252.859z"/>
				<path fill="none" d="M365.522,288.185c0.003,0.014,0.007,0.027,0.009,0.041c0.021-0.017,0.039-0.031,0.06-0.048
					C365.566,288.18,365.547,288.182,365.522,288.185z"/>
				<path fill="none" d="M366.291,292.251c0.009,0.098,0.02,0.197,0.026,0.292c0.106-0.167,0.216-0.32,0.317-0.504
					C366.512,292.113,366.404,292.181,366.291,292.251z"/>
				<path fill="none" d="M494.082,258.272c-2.737,0.112-5.304,0.618-6.924,3.031c-1.441,2.148-3.289,3.864-5.391,5.3l2.268,1.295
					l-4.009-0.2c-0.46,0.266-0.929,0.521-1.407,0.767l3.9,1.707h-7.691c-0.422,0.167-0.845,0.326-1.269,0.482l5.264,1.546
					c4.62-1.983,8.696-4.592,11.417-8.649c1.686-2.512,4.355-3.036,7.205-3.155c0.887-0.033,1.768,0.019,2.653,0.029
					c0.128-0.221,0.259-0.439,0.388-0.659c-1.185-0.657-2.376-1.306-3.557-1.967c-0.1,0.167-0.201,0.333-0.297,0.5
					C495.781,258.289,494.933,258.239,494.082,258.272z"/>
				<path fill="none" d="M356.708,255.046c0.237,0.924,0.478,1.848,0.729,2.769c0.601,0.304,1.197,0.606,1.819,0.922
					C358.715,257.201,357.762,256.077,356.708,255.046z"/>
				<path fill="none" d="M358.272,254.185c-0.759-0.721-1.522-1.445-2.305-2.187c0.132,0.572,0.257,1.146,0.397,1.716
					c0.535,0.274,1.069,0.549,1.604,0.823C358.071,254.419,358.173,254.303,358.272,254.185z"/>
				<path fill="none" d="M483.635,224.845c-0.133-0.136-0.266-0.271-0.4-0.407c0.132,0.403,0.26,0.807,0.389,1.21
					c0.068-0.031,0.137-0.062,0.205-0.092C483.764,225.319,483.699,225.082,483.635,224.845z"/>
				<path fill="none" d="M435.444,214.688c0.045-0.086,0.09-0.173,0.135-0.258c-0.096-0.346-0.194-0.695-0.29-1.041
					c-0.029,0.365-0.057,0.729-0.086,1.093C435.283,214.55,435.366,214.621,435.444,214.688z"/>
				<path fill="none" d="M357.355,251.061c-0.73-1.093-1.461-2.188-2.293-3.431c0.175,0.957,0.356,1.913,0.561,2.863
					c0.527,0.272,1.041,0.539,1.55,0.801C357.232,251.218,357.294,251.139,357.355,251.061z"/>
				<path fill="none" d="M357.991,259.814c0.184,0.653,0.368,1.305,0.555,1.957c0.329,0.167,0.658,0.334,0.999,0.507
					C359.162,261.305,358.613,260.518,357.991,259.814z"/>
				<path fill="none" d="M480.967,215.009c-0.045-0.165-0.089-0.33-0.134-0.495c-0.467-0.495-0.933-0.989-1.399-1.483
					c0.179,0.536,0.357,1.071,0.537,1.606c0.29,0.178,0.578,0.354,0.864,0.53C480.879,215.114,480.923,215.062,480.967,215.009z"/>
				<path fill="none" d="M354.36,243.073c0.179,1.517,0.423,3.019,0.694,4.515c0.494,0.112,0.775,0.174,0.803,0.181
					C355.364,246.222,354.863,244.65,354.36,243.073z"/>
				<path fill="none" d="M481.665,217.582c-0.349-0.34-0.7-0.684-1.054-1.029c0.174,0.52,0.348,1.041,0.523,1.561
					c0.27,0.159,0.537,0.316,0.803,0.473C481.847,218.251,481.756,217.917,481.665,217.582z"/>
				<path fill="none" d="M440.857,243.376l1.919,9.35c0.023,0.128,0.047,0.257,0.071,0.386c0.155-0.06,0.311-0.119,0.465-0.178
					c-0.258-1.854-0.522-3.708-0.831-5.553c-0.411-2.449-0.815-4.9-1.229-7.35c-0.204,0.708-0.406,1.401-0.604,2.084
					C440.718,242.536,440.788,242.956,440.857,243.376z"/>
				<path fill="none" d="M433.636,207.473c-0.084-0.301-0.167-0.606-0.251-0.908c0.079,0.364,0.158,0.708,0.235,1.01
					C433.622,207.537,433.633,207.509,433.636,207.473z"/>
				<path fill="none" d="M482.755,194.267c0.2-0.555,0.336-1.013,0.428-1.405c-0.405-0.655-0.821-1.327-1.259-2.042
					c-0.243-0.397-0.528-0.772-0.824-1.142c0.295,0.758,0.582,1.599,0.854,2.584C482.144,192.945,482.326,193.629,482.755,194.267z"
					/>
				<path fill="none" d="M387.441,199.739c0.05,0.804,0.035,1.617-0.047,2.431c0.031,0.073,0.064,0.144,0.096,0.218
					C387.557,201.484,387.531,200.602,387.441,199.739z"/>
				<path fill="none" d="M439.029,304.741c-0.012-0.098-0.022-0.194-0.034-0.292C438.957,304.599,438.971,304.693,439.029,304.741z"
					/>
				<path fill="none" d="M431.68,173.719c-0.123,0.193-0.248,0.379-0.366,0.579c0.008,0.017,0.019,0.031,0.026,0.048
					C431.448,174.129,431.566,173.929,431.68,173.719z"/>
				<path fill="none" d="M453.229,302.926c-0.174-0.016-0.349-0.033-0.523-0.051c0.289,0.688,0.627,1.313,1.017,1.867
					c-0.01-0.039-0.022-0.074-0.032-0.113C453.553,304.054,453.385,303.494,453.229,302.926z"/>
				<path fill="none" d="M327.43,241.46c-0.206,0.024-0.419,0.051-0.627,0.077c-0.023,2.749,0.185,5.383,0.761,7.743
					c0.457,1.871,0.999,3.722,1.504,5.579c0.04-0.006,0.08-0.013,0.12-0.02c0.009-1.654-0.002-3.307-0.062-4.954
					C329.022,247.036,328.027,244.266,327.43,241.46z"/>
				<path fill="none" d="M406.56,294.48c0.586-1.579,1.582-2.718,2.981-3.472c0.963-1.476,2.986-1.998,6.802-2.128
					c3.079-0.35,4.969-0.711,6.721-0.923c4.973-1.187,10-2.749,13.679-4.85c1.805-1.029,3.771-1.976,5.222-3.333
					c2.384-2.237,4.983-2.605,8.131-2.561c2.771,0.041,5.532-0.031,8.275-0.236l-4.836-2.599c-1.649,0.063-3.305,0.082-4.964,0.059
					c-3.027-0.047-5.522,0.31-7.815,2.459c-1.395,1.308-3.284,2.215-5.021,3.206c-6.068,3.467-12.313,5.731-19.203,6.932
					c-5.183,0.461-8.576,0.675-9.81,3.997c-0.877,2.368-1.29,5.073-0.612,7.18C405.974,296.974,406.107,295.696,406.56,294.48z"/>
				<path fill="none" d="M500.922,249.961c-0.341-6.56-0.684-13.131-1.028-19.741c-0.764-1.544-1.636-3.057-2.71-4.509
					c-0.045-0.061-0.256-0.024-0.878-0.05c0.955,6.708,1.912,13.415,2.896,20.119C499.415,247.225,499.947,248.614,500.922,249.961z
					"/>
				<path fill="none" d="M391.226,237.987c-0.516-0.94-1.102-1.78-1.711-2.587c0.278,1.213,0.569,2.423,0.857,3.634
					c0.446,0.348,0.897,0.701,1.354,1.058C391.557,239.391,391.393,238.688,391.226,237.987z"/>
				<path fill="none" d="M387.105,224.206c0.113,0.562,0.234,1.122,0.35,1.684c0.421,0.177,0.666,0.277,0.69,0.287
					C387.853,225.193,387.492,224.624,387.105,224.206z"/>
				<path fill="none" d="M390.199,233.606c-0.503-0.66-1.012-1.327-1.529-2.003c0.162,0.736,0.324,1.472,0.49,2.208
					c0.442,0.348,0.885,0.696,1.326,1.043C390.391,234.438,390.295,234.022,390.199,233.606z"/>
				<path fill="none" d="M389.286,229.491c-0.569-1.085-1.155-2.2-1.793-3.415c0.247,1.2,0.491,2.4,0.749,3.598
					c0.446,0.354,0.885,0.702,1.316,1.044C389.469,230.309,389.375,229.9,389.286,229.491z"/>
				<path fill="none" d="M388.036,216.399c-0.022-0.104-0.045-0.208-0.067-0.312c-0.092,0.004-0.184,0.009-0.275,0.013
					c0.094,0.375,0.188,0.751,0.28,1.126C387.998,216.95,388.019,216.674,388.036,216.399z"/>
				<path fill="none" d="M387.793,219.31c-0.218-0.971-0.444-1.957-0.654-2.887c-0.092,1.928-0.42,3.907-0.317,5.794
					c0.348,0.18,0.725,0.349,1.075,0.612C387.683,221.695,387.704,220.51,387.793,219.31z"/>
				<path d="M407.142,301.91"/>
				<path d="M483.945,301.483c-0.234,0.183-0.468,0.366-0.702,0.549c-0.075,0.228-0.155,0.327-0.155,0.327
					C483.416,302.157,483.698,301.852,483.945,301.483z"/>
				<path d="M486.454,299.521c-0.268,0.209-0.534,0.418-0.801,0.627c-0.062,0.084-0.104,0.129-0.104,0.129
					C485.881,300.056,486.176,299.796,486.454,299.521z"/>
				<path d="M439.527,255.625c0.023,0.144,0.047,0.288,0.07,0.432c-0.006-0.136-0.006-0.272-0.011-0.409
					C439.567,255.64,439.547,255.632,439.527,255.625z"/>
				<path fill="#FFFDF3" d="M374.418,293.42c0.096,0.045,0.181,0.103,0.279,0.146c0.756-0.187,1.511-0.373,2.266-0.56
					c-0.311-0.099-0.613-0.207-0.897-0.331C375.517,292.924,374.967,293.172,374.418,293.42z"/>
				<path fill="#FFFEF3" d="M434.634,295.379c-0.435-0.266-2.222-0.893-2.683-0.938c-4.631-0.472-9.273-1.237-13.94-1.1
					c-4.022,0.119-4.384,0.89-4.704,4.485c-0.15,1.706-0.271,3.427-0.157,5.113c0.261,3.986,0.312,4.011,4.654,4.616
					c2.672,0.37,5.351,0.776,8.062,0.906c3.186,0.153,6.404,0.026,10.409,0.022C437.077,304.252,438.595,297.818,434.634,295.379z"
					/>
				<path fill="#FFFFFF" d="M376.963,293.007c0.424-0.104,0.847-0.209,1.27-0.314c-0.69,0.008-1.39-0.002-2.104-0.046
					c-0.021,0.01-0.042,0.02-0.063,0.029C376.35,292.8,376.652,292.908,376.963,293.007z"/>
				<path fill="#FFFEF3" d="M516.051,259.939c-0.633-3.69-1.968-7.186-4.097-10.301c-5.047-7.383-5.948-15.901-11.282-23.119
					c-0.049-0.065-0.273-0.021-0.974-0.052c0.065,1.256,0.13,2.5,0.195,3.752c0.345,6.61,0.688,13.181,1.028,19.741
					c-0.975-1.347-1.507-2.736-1.721-4.182c-0.983-6.704-1.94-13.411-2.896-20.119c-0.629-4.416-1.257-8.831-1.894-13.245
					c-1.398-9.708-4.368-13.875-9.588-22.407c-0.68-1.114-1.636-2.083-2.469-3.12c-0.073,3.814,1.434,3.37,0.827,5.974
					c-0.092,0.392-0.228,0.85-0.428,1.405c-0.429-0.638-0.611-1.322-0.801-2.004c-0.272-0.986-0.56-1.826-0.854-2.584
					c-1.54-3.945-3.354-5.402-5.03-10.452c-2.315-6.995-6.468-11.581-12.511-13.979c-0.274,0.668-0.838,1.332-1.866,1.92
					c-4.226,2.417-4.386,6.218-4.386,6.218c-0.38-4.368,1.589-7.809,2.607-9.268c-0.184-0.042-0.36-0.091-0.546-0.131
					c-2.708,1.697-3.792,3.819-3.792,3.819c-0.031-1.525,0.363-2.819,0.926-3.886c-3.055,1.351-6.8,3.599-8.82,7.034
					c0,0,2.186-4.938,5.539-7.679c-0.138-0.005-0.268-0.018-0.406-0.021c-10.575-0.266-17.09,2.904-21.135,10.465
					c-0.113,0.21-0.231,0.41-0.34,0.627c-0.008-0.017-0.019-0.031-0.026-0.048c-1.55-3.231-4.284-5.093-7.8-6.131
					c-5.461-1.612-11.371-1.392-16.752,0.304l0.4,0.211c0,0,1.234,5.021-2.49,8.396c0,0,1.023-2.858-0.141-6.629
					c0,0-0.509,5.559-5.102,9.204c0,0,1.98-2.044,1.775-5.659c-0.349,0.901-0.902,1.815-1.792,2.621c0,0,0.704-1.979,0.132-4.729
					c-0.172,0.112-0.343,0.228-0.513,0.343c-0.419,1.654-1.489,4.501-4.149,6.611c0,0,1.61-1.667,1.542-4.622
					c-2.366,2.075-4.329,4.551-5.704,7.363c-2.033,4.164-2.019,2.011-3.252,5.846c-1.798-0.423-4.17,0.543-6.023,1.099
					c3.475,2.545,5.719,6.738,5.996,11.213c0.09,0.862,0.115,1.745,0.049,2.648c-0.031-0.074-0.064-0.145-0.096-0.218
					c-0.008,0.083-0.011,0.167-0.021,0.25c-2.709-6.175-7.04-10.938-14.493-13.285c-0.191,0.022-0.384,0.044-0.611,0.067
					c-9.479,0.971-14.4,0.053-16.806,8.399c-0.303,1.053-0.524,2.121-0.722,3.192c-0.066,0.438-0.139,0.902-0.217,1.403
					c-0.949,6.059-0.975,5.691-0.191,16.473c0,0-3.674-7.129-4.189-12.075c-0.291,1.243-0.873,2.55-1.953,3.748
					c0,0,0.645-2.62-0.493-6.021c-0.134-0.062-0.269-0.12-0.406-0.17c-0.155,1.756-0.888,6.089-4.367,9.47
					c0,0,2.513-3.164,0.8-8.043c-0.162-0.461-0.243-0.872-0.289-1.258c-10.503,3.276-16.107,10.099-17.704,19.743
					c-1.376,8.315-3.267,19.073-1.338,26.991c0.478,1.947,1.046,3.87,1.569,5.802c0.29-0.046,0.584-0.093,0.872-0.14
					c-0.016-5.06-0.033-10.118-0.048-15.177c0.005,0,0.011-0.001,0.016-0.002c0.208-0.026,0.421-0.053,0.627-0.077
					c0.598,2.806,1.593,5.576,1.696,8.426c0.06,1.647,0.07,3.299,0.062,4.954c-0.007,1.217-0.027,2.434-0.064,3.653
					c0.984,5.133,2.089,10.321,6.252,14.113c0.347,0.314,0.652,0.668,0.98,1.006c-0.087,0.092-0.171,0.184-0.253,0.275
					c-0.921-0.533-1.842-1.065-2.766-1.597c-0.213,0.19-0.423,0.378-0.635,0.568c1.121,1.887,2.246,3.775,3.315,5.572
					c-0.046,0.001-0.574,0.037-1.286,0.083c1.119,2.981,3.996,3.327,6.046,4.947c-1.557-0.224-3.118-0.451-5.01-0.725
					c2.445,3.23,5.78,4.063,9.117,5.19c-2.32-0.282-4.643-0.56-6.964-0.84c-0.073,0.105-0.145,0.207-0.218,0.312
					c2.807,1.598,5.558,4.746,8.868,6.633l-6.799-2.474c0.387,0.647,0.766,1.292,1.124,1.93c2.656,4.733,7.2,6.867,13.339,6.257
					c1.826-0.179,3.68-0.439,5.453-0.908c2.427-0.642,4.089-1.261,5.149-2.119c-1.152,0.188-2.527,0.162-4.254-0.397
					c2.251-0.679,4.223-1.4,5.733-3.775c-0.007-0.095-0.018-0.194-0.026-0.292c-0.738,0.456-1.315,0.842-1.925,1.132
					c-0.705,0.337-1.466,0.549-2.177,0.807c1.198-1.28,2.317-2.479,3.439-3.673c-0.088-0.083-0.179-0.157-0.265-0.235
					c-1.187,0.39-2.371,0.779-4.007,1.321c1.523-1.234,2.68-2.167,4.174-3.377c-0.002-0.014-0.006-0.027-0.009-0.041
					c-1.781,0.173-2.991,0.288-4.659,0.449c1.596-0.844,2.756-1.46,3.916-2.074c-0.045-0.111-0.09-0.216-0.138-0.324
					c-1.279-0.141-2.556-0.28-3.835-0.417c-0.009-0.101-0.016-0.196-0.021-0.294c0.882-0.22,1.77-0.439,2.656-0.659
					c-0.015-0.056-0.031-0.117-0.05-0.176c-1.342-0.082-2.681-0.164-4.02-0.246c-0.015-0.115-0.028-0.23-0.042-0.347
					c1.194-0.295,2.391-0.591,4.004-0.989c-1.492-0.092-2.499-0.155-3.983-0.25c1.537-0.593,2.609-1.008,3.752-1.451
					c-1.696-0.301-3.245-0.579-4.795-0.855c0.015-0.094,0.029-0.184,0.045-0.279c1.375-0.155,2.754-0.312,4.127-0.469
					c-0.018-0.095-0.039-0.188-0.057-0.285c-0.915-0.303-1.833-0.604-2.748-0.907c0.021-0.091,0.045-0.182,0.067-0.273
					c0.626-0.061,1.256-0.12,2.325-0.223c-1.734-0.752-3.044-1.321-4.353-1.888c0.014-0.066,0.025-0.132,0.036-0.197
					c1.093,0.096,2.19,0.192,3.704,0.324c-0.787-0.716-1.224-1.108-1.691-1.535c0.328-0.148,0.575-0.259,0.991-0.446
					c-1.106-0.774-2.119-1.481-3.132-2.188c0.021-0.076,0.04-0.156,0.06-0.235c1.18,0.338,2.362,0.682,3.544,1.021
					c0.053-0.109,0.108-0.216,0.163-0.325c-1.43-1.184-2.854-2.37-4.564-3.793c1.317,0.43,2.335,0.765,3.349,1.099
					c0.077-0.126,0.152-0.254,0.225-0.378c-1.21-1.108-2.413-2.217-3.624-3.324c0.033-0.06,0.067-0.119,0.101-0.18
					c0.983,0.43,1.96,0.857,2.941,1.285c0.086-0.081,0.173-0.163,0.255-0.244c0-0.003-0.001-0.006-0.002-0.009
					c-1.312-1.308-2.628-2.614-4.135-4.11c1.203,0.529,2.187,0.966,3.174,1.401c0.043-0.065,0.087-0.131,0.131-0.197
					c-0.029-0.099-0.057-0.198-0.085-0.297c-1.702-1.37-3.405-2.741-5.105-4.114c0.046-0.075,0.09-0.15,0.133-0.227
					c1.418,0.72,2.842,1.442,4.363,2.214c-0.187-0.652-0.371-1.304-0.555-1.957c-1.221-1.381-2.745-2.417-4-3.744
					c1.134,0.574,2.28,1.155,3.446,1.745c-0.252-0.921-0.492-1.845-0.729-2.769c-0.858-0.84-1.782-1.618-2.612-2.496
					c0.756,0.388,1.513,0.776,2.27,1.164c-0.141-0.57-0.266-1.144-0.397-1.716c-0.978-0.927-1.987-1.884-3.078-2.919
					c1.01,0.521,1.892,0.978,2.733,1.414c-0.204-0.95-0.386-1.906-0.561-2.863c-0.01-0.016-0.021-0.031-0.031-0.047
					c0.009,0.002,0.015,0.003,0.023,0.005c-0.271-1.496-0.516-2.998-0.694-4.515c-0.272-0.857-0.546-1.714-0.82-2.574
					c0.113-0.032,0.229-0.064,0.343-0.097c0.094,0.152,0.188,0.306,0.282,0.459c-0.038-0.464-0.095-0.924-0.122-1.391
					c-0.197-3.48,0.241-7.026,0.388-10.544c0.235-0.001,0.471-0.003,0.706-0.002c0.342,2.333,0.498,4.715,1.053,6.997
					c0.006,0.021,0.011,0.043,0.016,0.065c0.454,1.877,0.919,3.751,1.375,5.627c0.238-1.778,0.477-3.557,0.718-5.335
					c0.095-0.006,0.194-0.012,0.294-0.017c0.074,2.301,0.15,4.604,0.225,6.839l-0.327,1.015c0.048,0.062,0.344,1.268,0.393,1.326
					c-0.484,1.128,0.107,0.499-0.073,1.198c3.177,12.997,6.384,25.985,9.515,38.992c0.403,1.679,1.071,3.121,1.953,4.358
					c0.113-0.051,0.21-0.091,0.333-0.149c1.162-0.229,0.854,1.865,2.015,1.635c0.032,0.065,5.167-1.224,5.196-1.157
					c-1.437,0.651-2.874,1.301-4.308,1.948c0.017,0.06,0.031,0.114,0.048,0.169c1.626-0.399,3.259-0.802,4.887-1.204
					c0.036,0.104,0.072,0.207,0.109,0.317c-0.809,0.366-1.618,0.731-2.428,1.097c0.714,0.044,1.413,0.055,2.104,0.046
					c0.307-0.076,0.613-0.152,0.92-0.227c0.023,0.069,0.047,0.138,0.07,0.208c0.013,0.038,0.024,0.076,0.038,0.113
					c-0.388,0.169-0.775,0.338-1.163,0.508c-0.623,0.272-1.246,0.544-1.869,0.815c0.729,0.217,1.49,0.401,2.313,0.518
					c2.753,0.39,5.678,0.56,8.535,0.36c0.315-0.278,0.619-0.578,0.9-0.921c0.159-0.195,0.338-0.366,0.506-0.549
					c0.055,0.042,0.104,0.086,0.155,0.126c-0.213,0.419-0.429,0.839-0.642,1.261c0.428-0.042,0.853-0.094,1.276-0.155
					c0.602-0.401,1.198-0.8,1.775-1.185c0.002,0.021,0.036,0.303,0.08,0.677c1.552-0.675,1.654-2.21,2.455-3.341
					c-0.075,0.831-0.15,1.665-0.243,2.675c1.492-1.257,1.919-2.851,2.362-4.48c0.045-0.165,0.09-0.33,0.136-0.495
					c-0.01,0.139-0.019,0.278-0.028,0.417c0.618-0.481,1.145-0.992,1.586-1.522c-0.055,0.006-0.114,0.008-0.162,0.021
					c0.064-0.021,0.129-0.037,0.192-0.056c1.161-0.336,2.34-0.296,3.297-0.824c0.124-0.476,0.216-0.979,0.289-1.497
					c-0.169,0.128-0.337,0.249-0.51,0.352c-0.601,0.362-1.272,0.562-1.889,0.824c0.891-1.421,1.725-2.755,2.558-4.084
					c-0.003-0.124,0.002-0.24-0.003-0.365c-0.002-0.055-0.003-0.11-0.005-0.166c-0.023-0.029-0.049-0.058-0.071-0.087
					c-1.036,0.385-2.067,0.771-3.497,1.305c1.203-1.37,2.127-2.43,3.283-3.748c-0.021-0.075-0.041-0.15-0.061-0.226
					c-1.48,0.045-2.549,0.078-3.975,0.119c1.362-0.928,2.348-1.603,3.338-2.279c-0.051-0.146-0.104-0.287-0.154-0.43
					c-1.176-0.303-2.348-0.606-3.521-0.909c-0.017-0.126-0.03-0.253-0.05-0.379c0.779-0.196,1.561-0.39,2.342-0.584
					c-0.021-0.077-0.041-0.154-0.064-0.232c-1.222-0.234-2.445-0.469-3.666-0.705c-0.022-0.152-0.051-0.299-0.074-0.451
					c1.053-0.264,2.106-0.525,3.526-0.879c-1.361-0.264-2.277-0.442-3.631-0.707c1.329-0.612,2.258-1.039,3.249-1.495
					c-1.567-0.55-3-1.059-4.432-1.563c0.006-0.118,0.01-0.235,0.013-0.354c1.23-0.064,2.462-0.133,3.692-0.198
					c-0.029-0.125-0.056-0.248-0.083-0.372c-0.857-0.478-1.722-0.953-2.581-1.432c0.013-0.115,0.021-0.228,0.033-0.344
					c0.562-0.015,1.126-0.03,2.086-0.057c-1.646-1.134-2.895-1.99-4.137-2.845c0.007-0.082,0.01-0.165,0.012-0.249
					c1.003,0.231,2.005,0.459,3.389,0.775c-0.787-0.993-1.221-1.54-1.689-2.132c0.284-0.159,0.498-0.277,0.853-0.478
					c-1.079-1.097-2.069-2.102-3.06-3.106c0.01-0.098,0.02-0.199,0.027-0.296c1.066,0.529,2.133,1.061,3.196,1.592
					c-0.08-0.3-0.16-0.6-0.24-0.899c-1.258-1.475-2.538-2.98-4.044-4.747c1.234,0.68,2.19,1.205,3.145,1.731
					c0.019-0.051,0.037-0.103,0.055-0.155c-0.059-0.222-0.115-0.445-0.174-0.667c-1.113-1.418-2.224-2.836-3.338-4.254
					c0.021-0.074,0.049-0.145,0.071-0.219c0.855,0.591,1.712,1.182,2.565,1.772c-0.098-0.377-0.196-0.755-0.294-1.133
					c-1.088-1.48-2.196-2.992-3.435-4.678c1.021,0.71,1.875,1.307,2.711,1.894c-0.058-0.228-0.119-0.455-0.177-0.683
					c-0.032-0.128-0.063-0.258-0.096-0.386c-1.492-1.706-2.982-3.412-4.476-5.119c0.033-0.091,0.065-0.185,0.1-0.278
					c1.229,0.961,2.46,1.923,3.766,2.942c-0.236-0.952-0.479-1.902-0.709-2.855c-1.152-1.607-2.455-2.954-3.588-4.578
					c1.013,0.789,2.035,1.585,3.071,2.394c-0.288-1.211-0.579-2.421-0.857-3.634c-0.821-1.089-1.684-2.123-2.479-3.262
					c0.708,0.558,1.416,1.115,2.125,1.672c-0.166-0.735-0.328-1.471-0.49-2.208c-0.979-1.282-1.988-2.604-3.078-4.032
					c0.979,0.776,1.834,1.456,2.65,2.104c-0.258-1.198-0.502-2.398-0.749-3.598c-0.038-0.074-0.075-0.144-0.114-0.218
					c0.028,0.012,0.049,0.021,0.076,0.032c-0.115-0.562-0.236-1.122-0.35-1.684c-0.844-0.914-1.812-1.102-2.466-3.302
					c0.098-0.031,1.111,0.464,1.211,0.434c0.217,0.441,0.572,0.673,0.971,0.88c-0.103-1.887,0.226-3.866,0.317-5.794
					c-0.327-1.456-0.609-2.767-0.734-3.628c0.151-0.019,0.3-0.039,0.451-0.057c0.278,1.12,0.559,2.241,0.838,3.362
					c0.092-0.004,0.184-0.009,0.275-0.013c0.022,0.104,0.045,0.208,0.067,0.312c0.198,0.916,0.396,1.832,0.594,2.748
					c0.146,0.016,0.292,0.031,0.435,0.047c0.043-2.504,0.079-5.007,0.117-7.512c0.089,0.002,0.179,0.005,0.267,0.008
					c0.3,2.958,0.605,5.917,0.903,8.791c0.664-1.62,1.322-3.225,2.19-5.346c-0.408,2.538-0.726,4.51-1.043,6.482
					c0.074,0.054,0.149,0.106,0.224,0.16c0.462-0.801,0.924-1.602,1.386-2.402c0.052,0.083,0.101,0.166,0.15,0.247
					c-0.397,1.721-0.794,3.443-1.323,5.708c1.004-1.1,1.651-1.81,2.299-2.521c0.033,0.072,0.07,0.142,0.104,0.211
					c-0.58,1.445-1.161,2.889-1.74,4.333c0.057,0.386,0.112,0.773,0.168,1.16c0.543-0.521,1.083-1.041,1.625-1.562
					c0.08,0.104,0.162,0.208,0.243,0.314c-0.509,1.233-1.014,2.464-1.52,3.695c0.046,0.325,0.093,0.65,0.14,0.975
					c0.572-0.615,1.144-1.23,1.717-1.845c0.042,0.083,0.083,0.166,0.125,0.252c-0.499,1.291-1.002,2.582-1.504,3.873
					c0.146,0.954,0.297,1.906,0.464,2.855l1.246,5.908c2.187,9.376,4.636,18.688,6.999,28.02c0.727,2.861,1.455,5.727,2.331,8.546
					c2.159,1.317,5.112,2.872,4.45,3.348c0.037,0.085,0.075,0.17,0.113,0.254c1.025-0.18,2.055-0.362,3.084-0.542
					c0.034,0.087,0.065,0.175,0.103,0.265c-1.239,0.693-2.475,1.387-3.708,2.081c0.01,0.035,0.021,0.071,0.031,0.107
					c0.058,0.026,0.108,0.057,0.168,0.082c1.386-0.346,2.776-0.693,4.164-1.039c0.045,0.137,0.089,0.275,0.134,0.415
					c-0.702,0.394-1.405,0.791-2.108,1.186c3.477,0.58,6.962,0.096,10.441-0.933c-1.856,0.045-3.713,0.084-5.57,0.129
					c0.568-0.19,1.137-0.37,1.706-0.543c-1.403-0.163-2.333-0.417-2.333-0.417c2.762-0.679,5.569-1.386,7.512-3.757
					c0.157-0.192,0.336-0.365,0.506-0.547c0.052,0.043,0.103,0.084,0.154,0.125c-0.257,0.503-0.516,1.007-0.771,1.511
					c0.104,0.109,0.211,0.215,0.317,0.321c0.973-0.646,1.939-1.293,2.863-1.911c0.003,0.022,0.033,0.304,0.08,0.678
					c1.551-0.676,1.654-2.208,2.456-3.342c-0.076,0.832-0.153,1.666-0.247,2.676c1.646-1.386,1.996-3.175,2.501-4.976
					c-0.087,1.238-0.17,2.477-0.253,3.713c0.056,0.037,0.113,0.073,0.171,0.108c0.77-1.532,2.362-3.078,3.271-4.885l-1.834,6
					l0.779-0.29c2.762-1.466,4.791-3.268,6.132-5.439c-1.248-0.183-1.964-0.668-3.286-0.811c-0.003-0.099-1.346-0.42-1.347-0.519
					c0.772-0.191,3.448,0.317,5.124,0.459c0.322-0.628,0.601-1.28,0.818-1.966c-1.707,0.017-3.867,0.154-4.75-0.049
					c-0.012-0.15-1.426-0.061-1.438-0.212c1.114-0.19,4.236-0.504,6.468-0.765c0.078-0.328,0.138-0.667,0.193-1.008
					c-2.135-0.054-5.834,0.193-7.34,0.018c2.471-0.6,5.068-0.286,7.552-2.297c0.003-0.089,0.004-0.179,0.005-0.269
					c-2.28,0.132-4.247,0.249-6.206,0.361c0.002-0.051,0.003-0.1,0.003-0.156c1.956-0.784,3.907-1.573,5.865-2.358
					c-0.047-0.154-0.094-0.308-0.139-0.46c-1.787-0.08-3.569-0.159-5.355-0.239c-0.017-0.15-0.031-0.301-0.051-0.449
					c1.836-0.45,3.678-0.896,5.516-1.345c-0.031-0.21-0.064-0.42-0.098-0.629c-1.5-0.122-3.001-0.247-4.498-0.367
					c-0.02-0.123-0.04-0.243-0.06-0.367c0.917-0.266,1.838-0.536,2.752-0.801c-0.01-0.142-0.021-0.284-0.031-0.425
					c-0.792-0.163-1.586-0.324-2.38-0.484c-0.01-0.113-0.021-0.224-0.034-0.336c1.001-0.17,1.998-0.341,2.995-0.512
					c-0.01-0.156-0.02-0.311-0.028-0.467c-0.618-0.252-1.237-0.506-2.257-0.923c1.122-0.192,1.893-0.324,2.661-0.455
					c-0.001-0.011-0.001-0.022-0.001-0.033c-0.023-0.144-0.047-0.288-0.07-0.432c-0.803-0.303-1.611-0.611-2.861-1.083
					c1.139-0.196,1.877-0.322,2.609-0.446c-0.025-0.155-0.051-0.31-0.076-0.465c-0.863-0.39-1.734-0.784-2.745-1.24
					c0.837-0.143,1.57-0.27,2.302-0.394c0.004-0.156,0.007-0.314,0.015-0.47c-0.863-0.429-1.728-0.859-3.003-1.497
					c1.143-0.072,1.893-0.117,2.65-0.165c0.005-0.141,0.008-0.287,0.008-0.429c-1.602-0.415-3.202-0.832-4.806-1.245
					c-0.013-0.071-0.026-0.141-0.04-0.21c1.424-0.136,2.869-0.274,4.618-0.44c-0.021-0.127-0.042-0.255-0.062-0.382
					c-1.028-0.612-1.9-1.129-3.068-1.824c1.141,0.093,1.993,0.164,2.806,0.229c-0.039-0.238-0.078-0.475-0.117-0.713
					c-0.883-0.58-1.789-1.177-2.834-1.864c0.958,0.026,1.754,0.047,2.539,0.069c-0.035-0.214-0.07-0.428-0.106-0.642
					c-0.759-0.531-1.55-1.082-2.578-1.799c0.909,0.016,1.606,0.028,2.288,0.038c-0.036-0.221-0.072-0.443-0.109-0.665
					c-0.799-0.553-1.598-1.106-2.397-1.659c-0.005-0.091-0.01-0.181-0.016-0.27c0.685,0.124,1.38,0.247,2.159,0.386
					c-0.143-0.867-0.285-1.733-0.428-2.6c-1.005-1.158-2.12-1.972-3.213-2.933c0.942,0.352,1.9,0.708,2.909,1.083
					c-0.104-0.633-0.204-1.266-0.308-1.899c-0.873-1.475-2.003-2.416-3.104-3.528c0.907,0.384,1.812,0.768,2.718,1.153
					c-0.048-0.295-0.096-0.591-0.144-0.886c-0.896-0.817-1.812-1.652-2.844-2.594c0.904,0.154,1.703,0.291,2.492,0.426
					c-0.043-0.264-0.086-0.528-0.129-0.792c-1.139-1.037-2.302-2.098-3.686-3.359c1.245,0.396,2.229,0.711,3.217,1.025
					c0.02-0.065,0.039-0.131,0.059-0.197c-0.02-0.125-0.039-0.25-0.059-0.374c-1.679-1.346-3.362-2.7-5.344-4.291
					c1.747,0.652,3.208,1.196,4.666,1.738c0.043-0.142,0.09-0.287,0.138-0.43c-1.112-1.181-2.229-2.357-3.341-3.541
					c0.006-0.097,0.012-0.193,0.018-0.291c0.79,0.362,1.58,0.721,2.37,1.083c0.055-0.172,0.112-0.343,0.167-0.517
					c-1.111-1.128-2.219-2.259-3.332-3.392c0.033-0.133,0.065-0.266,0.102-0.399c0.722,0.283,1.445,0.564,2.171,0.846
					c0.075-0.192,0.152-0.387,0.229-0.579c-1.295-1.342-2.592-2.683-3.889-4.026c0.006-0.08,0.01-0.162,0.014-0.244
					c0.873,0.408,1.741,0.819,3.09,1.453c-1.366-1.938-2.402-3.412-3.441-4.885c0.016-0.099,0.028-0.198,0.043-0.297
					c0.734,0.571,1.472,1.143,2.208,1.715c0.049-0.082,0.096-0.163,0.145-0.245c-1.062-1.743-2.124-3.49-3.491-5.735
					c1.627,1.661,2.855,2.916,4.098,4.184c-0.848-2.855-1.727-5.794-2.605-8.731c0.08-0.039,0.161-0.078,0.242-0.117
					c1.014,2.367,2.024,4.733,3.04,7.097c0.179-0.105,0.361-0.213,0.54-0.318c-0.345-2.243-0.689-4.486-1.033-6.729
					c0.143-0.044,0.289-0.087,0.436-0.131c0.546,2.14,1.279,7.241,1.963,10.374c0.084,0.302,0.167,0.607,0.251,0.908
					c0.146-1.705,1.565-2.089,1.63-3.386c0.104-0.013,0.84-0.899,0.943-0.911c0.377,3.44-1.526,3.092-1.158,6.457
					c0.02-0.022,0.222-0.237,0.58-0.62c-0.125,1.573-0.233,2.99-0.342,4.376c0.096,0.346,0.194,0.695,0.29,1.041
					c0.727-1.39,1.46-2.799,2.357-4.522c-0.611,2.501-1.164,4.756-1.701,6.954c0.125,0.461,0.25,0.923,0.373,1.384
					c0.597-1.133,1.193-2.267,1.788-3.402c-0.369,1.824-0.906,3.526-1.266,5.343c0.254,0.972,0.48,1.949,0.721,2.923
					c0.697-1.312,1.382-2.602,2.061-3.876c-0.416,2.065-1.113,3.924-1.539,5.993c0.062,0.27,0.137,0.538,0.198,0.808
					c0.914,3.986,1.657,8.013,2.352,12.051c0.441-0.595,0.908-1.223,1.463-1.97c-0.409,1.417-0.778,2.691-1.133,3.914
					c0.413,2.45,0.817,4.901,1.229,7.35c0.309,1.845,0.573,3.698,0.831,5.553c1-0.383,2-0.766,2.996-1.148
					c0.051,0.112,0.102,0.22,0.15,0.331c-0.934,0.895-1.881,1.803-2.877,2.756c0.026,0.189,0.053,0.379,0.079,0.568
					c0.862,0.021,1.745,0.042,2.908,0.071c-0.987,0.702-1.712,1.214-2.63,1.863c0.01,0.074,0.021,0.148,0.031,0.222
					c1.209-0.206,2.174-0.372,3.122-0.533c0.037,0.153,0.072,0.304,0.108,0.459c-0.98,0.691-1.961,1.381-2.941,2.072
					c0.016,0.107,0.03,0.216,0.047,0.323c0.737-0.128,1.476-0.255,2.214-0.381c0.032,0.13,0.068,0.255,0.104,0.383
					c-0.68,0.545-1.359,1.091-2.039,1.637c0.074,0.452,0.149,0.903,0.23,1.354c0.854,0.173,1.769,0.359,2.909,0.588
					c-0.951,0.392-1.731,0.713-2.602,1.072c0.055,0.234,0.115,0.458,0.182,0.671c0.083,0.27,0.175,0.527,0.278,0.765
					c0.952,0.472,1.873,0.928,2.958,1.466c-0.722,0.037-1.345,0.069-1.921,0.099c1.164,1.164,2.943,1.582,5.605,1.46
					c0.816-0.037,1.635-0.094,2.452-0.153c3.173-0.232,6.352-0.61,9.516-1.027c3.058-0.403,6.089-1.083,9.134-1.643
					c-0.807,0.468-1.624,0.89-2.451,1.274c-5.882,2.73-12.247,3.501-18.518,4.686c8.271,0.484,16.171-1.637,24.102-4.647
					c4.383-1.664,7.459-3.615,9.312-6.541l-0.223-0.37c-1.927-2.309-3.76-3.632-5.69-5.94c0.052-0.08,0.104-0.16,0.156-0.238
					c1.822,1.419,3.644,2.839,5.461,4.253c-1.313-3.685-3.986-6.289-7.279-8.378c0.137-0.176,0.275-0.35,0.414-0.526
					c2.453,1.717,4.907,3.432,7.379,5.162c-1.275-3.564-3.96-5.995-6.978-8.157c0.157-0.182,0.314-0.366,0.473-0.547
					c2.494,1.841,4.985,3.685,7.407,5.476c-0.907-3.242-3.219-5.643-5.955-7.745c0.134-0.134,0.268-0.268,0.402-0.403
					c2.007,1.585,4.018,3.17,6.082,4.8c-1.184-3.348-3.561-5.693-6.404-7.673c0.143-0.155,0.283-0.313,0.422-0.468
					c2.03,1.579,4.061,3.159,6.188,4.813c-1.502-3.917-4.456-6.41-7.852-8.521c0.147-0.183,0.295-0.368,0.444-0.551
					c2.303,1.602,4.604,3.203,6.908,4.802c0.111-0.092,0.223-0.185,0.336-0.279c-2.135-2.297-4.274-4.591-6.68-7.179
					c1.947,1.182,3.576,2.172,5.205,3.162c0.139-0.18,0.277-0.36,0.415-0.542c-2.88-2.404-5.759-4.807-8.64-7.212
					c0.034-0.056,0.07-0.114,0.104-0.17c2.689,1.665,5.379,3.331,8.066,4.995c0.014-0.014,0.025-0.028,0.039-0.042
					c-0.094-0.359-0.188-0.717-0.287-1.076c-2.045-1.989-4.094-3.979-6.137-5.967c0.058-0.099,0.118-0.197,0.177-0.296
					c1.747,1.256,3.493,2.511,5.239,3.766c-0.089-0.294-0.175-0.588-0.266-0.881c-0.076-0.249-0.158-0.496-0.236-0.745
					c-1.638-1.621-3.32-3.287-5.184-5.133c1.668,0.994,3.044,1.811,4.383,2.608c-0.014-0.042-0.027-0.085-0.041-0.128
					c-0.129-0.403-0.257-0.807-0.389-1.21c-1.369-1.39-2.738-2.78-4.104-4.171c0.068-0.096,0.139-0.191,0.207-0.286
					c1.05,0.732,2.102,1.464,3.152,2.196c-0.179-0.537-0.353-1.076-0.532-1.613c-1.385-1.43-2.818-2.913-4.432-4.58
					c1.41,0.831,2.538,1.497,3.609,2.128c-0.176-0.52-0.35-1.041-0.523-1.561c-1.312-1.28-2.669-2.605-4.194-4.095
					c1.369,0.839,2.487,1.525,3.554,2.179c-0.18-0.535-0.358-1.07-0.537-1.606c-1.018-1.08-2.037-2.16-3.055-3.24
					c0.095-0.122,0.192-0.244,0.286-0.367c0.841,0.72,1.679,1.441,2.517,2.16c0.161-0.182,0.321-0.363,0.478-0.545
					c-1.892-1.884-3.782-3.768-5.675-5.652c0.074-0.11,0.146-0.217,0.223-0.326c1.332,0.951,2.66,1.902,3.991,2.854
					c0.14-0.164,0.28-0.329,0.419-0.493c-2.476-2.259-4.953-4.519-7.408-6.759c5.537,2.654,9.272,6.918,11.899,12.182
					c-0.315-1.165-0.636-2.342-0.952-3.51c-0.243-0.315-0.498-0.663-0.772-1.078c0.119-0.065-0.138-1.651-0.362-3.109
					c-0.397-1.463-0.791-2.914-1.189-4.384c1.221,1.785,2.438,3.561,3.662,5.351c0.79,1.154,1.58,2.307,2.392,3.493
					c0.039-0.25,0.075-0.482,0.114-0.726c0.424-2.7,0.799-5.109,1.173-7.509c0.253,0.016,0.507,0.031,0.763,0.043
					c0.07,0.206,0.179,0.407,0.206,0.62c0.373,2.866,0.736,5.733,1.103,8.6c0.922-1.862,1.229-3.325,1.229-3.325
					c0.112,2.586-0.214,5.066-0.722,7.283c0.581,4.539,1.171,9.077,1.798,13.607c0.127,0.912,0.258,1.823,0.391,2.735
					c1.021-4.705,1.184-8.478,1.184-8.478c1.113,4.927,0.623,10.184-0.319,14.63c0.757,5.824,1.225,11.68,0.468,17.68
					c-0.051,0.389,0.328,0.883,0.768,1.269c0.171,0.149,0.35,0.284,0.518,0.388c0.773,0.479,1.573,0.928,2.373,1.375
					c1.181,0.662,2.372,1.311,3.557,1.967c-0.129,0.22-0.26,0.438-0.388,0.659c-0.886-0.011-1.767-0.062-2.653-0.029
					c-2.85,0.119-5.52,0.643-7.205,3.155c-2.721,4.057-6.797,6.666-11.417,8.649c-6.443,2.763-13.107,4.179-19.882,4.735
					c0.488,0.471,0.857,0.81,0.857,0.81l-1.429-0.768c-2.743,0.206-5.504,0.277-8.275,0.236c-3.147-0.044-5.747,0.324-8.131,2.561
					c-1.45,1.357-3.417,2.304-5.222,3.333c-3.679,2.102-8.706,3.664-13.679,4.85c-3.565,0.851-7.104,1.51-10.097,2.03l-0.039,0.032
					c-1.33,0.147-2.448,0.483-3.387,0.989c-1.399,0.754-2.396,1.893-2.981,3.472c-0.452,1.216-0.586,2.493-0.45,3.73
					c0.034,0.316,0.086,0.63,0.155,0.939c0.497-0.952,0.942-2.076,1.087-3.228c0.287-2.309,0.463,2.524-0.139,5.628
					c0.022,0.038,0.043,0.075,0.066,0.112c0.719-1.295,1.502-2.845,1.585-3.848c0.133-1.594,0.079,2.774,0.036,5.787
					c0.576,0.498,1.23,0.915,1.952,1.227c-0.183-2.238-0.463-4.429-0.518-6.637c-0.09-4.018,1.265-5.869,4.599-7.44
					c4.09,0.209,9.782,0.221,12.856,0.37c7.827,0.364,9.587,1.651,10.617,8.545c0.235,1.588,0.403,3.188,0.588,4.783
					c0.012,0.098,0.022,0.194,0.034,0.292c0.095,0.806,0.193,1.61,0.312,2.411c0.09,0.597,0.416,1.54,0.855,1.632
					c3.775,0.78,7.603,1.405,11.21,2.037c0.418-2.903,0.783-5.433,1.149-7.961c0.049,0.005,0.099,0.01,0.148,0.015
					c0.175,0.018,0.35,0.035,0.523,0.051c0.156,0.568,0.324,1.128,0.461,1.703c0.01,0.039,0.022,0.074,0.032,0.113
					c1.602,6.455,6.325,8.786,13.746,6.861c4.009-1.041,7.4-3.001,10.55-5.482c0.342-0.269,0.686-0.535,1.027-0.804
					c0.842-2.089,1.203-5.041,1.203-5.041c0.311,2.074,0.131,3.25,0.092,3.88c0.35-0.274,1.275-0.569,1.625-0.844
					c1.162-2.376,0.555-5.877,0.555-5.877c1.076,2.691,0.991,4.444,0.805,5.002c0.234-0.183,0.812-0.708,1.047-0.891
					c1.602-2.391,1.179-7.709,1.179-7.709c1.444,4.012,0.13,6.289-0.21,6.756c0.267-0.209,0.847-0.864,1.114-1.073
					c3.063-3.023,3.073-8.899,3.073-8.899c1.385,3.149,0.425,5.537-0.374,6.788c0.492-0.383,0.983-0.766,1.475-1.149
					c1.612-2.888,1.927-7.535,1.927-7.535c1.237,2.612,0.282,5.116-0.336,6.297c-0.234,0.446-0.421,0.709-0.421,0.709
					c1.187-0.444,1.992-1.319,2.544-2.363c1.563-2.955,1.053-7.293,1.053-7.293c1.391,2.665,1.079,4.758,0.628,5.985
					c0.228-0.177,0.455-0.354,0.683-0.531c1.836-3.996,2.1-12.648,2.1-12.648c1.608,1.876,1.792,6.875,1.763,9.64
					c4.631-3.625,4.917-5.637,9.218-9.565c0.768-0.702,1.463-1.433,2.1-2.188c0.662-2.181,1.041-4.416,0.307-6.766
					c-0.079-0.257-0.129-0.522-0.193-0.785c0.069-0.022,0.139-0.042,0.205-0.064c0.304,0.532,0.605,1.066,0.911,1.598
					c0.161-0.031,0.321-0.063,0.481-0.099c-0.008-1.264-0.018-2.528-0.025-3.732c0.021,0.012,0.297,0.149,0.661,0.332
					c0.312-1.808-1.017-2.817-1.562-4.22c0.707,0.567,1.418,1.133,2.277,1.82c-0.274-2.318-1.69-3.703-3.02-5.233
					c1.071,0.815,2.143,1.629,3.216,2.443c0.064-0.031,0.134-0.06,0.199-0.09c-0.929-1.61-1.38-3.978-2.477-5.878L516.051,259.939z
					 M430.624,191.407c-1.499,0-1.259-3.728-1.854-5.602c-0.426-1.334-0.8-2.688-1.189-4.032
					c-1.729-6.019-5.626-9.826-13.016-10.196c-1.437-0.073-2.822-0.505-4.58-0.837c5.752-2.739,11.1-1.722,14.889,2.629
					c4.494,5.153,5.798,11.378,6.354,17.843C431.023,191.276,430.824,191.342,430.624,191.407z"/>
				<path d="M478.064,306.953l-0.467,0.329C477.763,307.216,477.916,307.096,478.064,306.953z"/>
				<g>
					<path d="M409.984,170.74c1.758,0.333,3.144,0.765,4.58,0.837c7.39,0.37,11.287,4.177,13.016,10.196
						c0.39,1.344,0.764,2.698,1.189,4.032c0.596,1.874,0.355,5.602,1.854,5.602c0.2-0.065,0.399-0.131,0.603-0.195
						c-0.556-6.464-1.859-12.69-6.354-17.843C421.084,169.018,415.736,168,409.984,170.74z"/>
				</g>
			</g>
			<path d="M517.652,255.378c-1.784-7.5-5.319-14.255-10.123-20.324c-8.692-10.974-9.716-24.571-13.115-37.844
				c-1.915-7.492-5.264-9.491-11.574-15.012c-1-0.874-1.422-2.265-2.147-3.397c-1.944-3.039-3.608-6.27-5.917-9.06
				c-7.762-9.392-20.504-15.802-37.312-8.269c-6.069,2.719-12.032,3.293-18.255,1.674c-1.978-0.516-4.195-0.786-6.285-0.605
				c-11.641,1-21.588,4.99-27.972,14.682c-1.777,2.704-4.135,4.456-7.569,4.988c-1.176,0.182-2.334,0.531-3.517,0.751
				c-9.975,1.86-17.097,1.04-21.394,9.772c-2.168,4.401-5.821,7.168-10.551,9.258c-13.217,5.84-21.513,12.181-21.658,25.131
				c-0.099,8.335-2.198,19.218-0.394,27.236c2.493,11.096,9.728,22.503,12.774,33.447c4.738,17.033,23.17,20.788,36.988,11.053
				c0.453-0.32,1.198-0.633,1.679-0.541c7.571,1.482,18.062,0.965,25.776-1.621c2.551,8.613,9.483,12.511,18.501,14.229
				c1.296,0.249,2.599,0.505,3.921,0.626c10.934,1.024,21.869,2.012,32.807,3.006c9.837,0.895,18.7-1.64,26.67-7.441
				c8.74-6.369,17.588-12.622,26.261-19.069c3.257-2.419,1.739-3.673,4.544-6.503C517.462,273.812,519.952,265.048,517.652,255.378z
				 M436.274,308.484c-4.005,0.004-7.224,0.131-10.409-0.022c-2.711-0.13-5.39-0.536-8.062-0.906
				c-4.343-0.605-4.394-0.63-4.654-4.616c-0.114-1.687,0.007-3.407,0.157-5.113c0.32-3.596,0.682-4.366,4.704-4.485
				c4.667-0.138,9.31,0.628,13.94,1.1c0.461,0.046,2.248,0.673,2.683,0.938C438.595,297.818,437.077,304.252,436.274,308.484z
				 M515.342,261.971c-0.065,0.03-0.135,0.06-0.199,0.09c-1.073-0.814-2.145-1.628-3.216-2.443c1.329,1.53,2.745,2.916,3.02,5.233
				c-0.859-0.687-1.57-1.253-2.277-1.82c0.546,1.403,1.875,2.413,1.562,4.22c-0.364-0.183-0.641-0.32-0.661-0.332
				c0.008,1.205,0.018,2.468,0.025,3.732c-0.16,0.036-0.32,0.067-0.481,0.099c-0.306-0.532-0.607-1.066-0.911-1.598
				c-0.066,0.021-0.136,0.042-0.205,0.064c0.064,0.263,0.114,0.528,0.193,0.785c0.734,2.35,0.355,4.584-0.307,6.766
				c-0.637,0.754-1.332,1.486-2.1,2.188c-4.301,3.929-4.587,5.941-9.218,9.565c0.029-2.765-0.154-7.763-1.763-9.64
				c0,0-0.264,8.652-2.1,12.648c-0.228,0.177-0.455,0.354-0.683,0.531c0.451-1.227,0.763-3.32-0.628-5.985
				c0,0,0.511,4.339-1.053,7.293c-0.552,1.044-1.357,1.919-2.544,2.363c0,0,0.187-0.263,0.421-0.709
				c0.618-1.181,1.573-3.685,0.336-6.297c0,0-0.314,4.646-1.927,7.535c-0.491,0.383-0.982,0.766-1.475,1.149
				c0.799-1.25,1.759-3.639,0.374-6.788c0,0-0.01,5.876-3.073,8.899c-0.278,0.275-0.573,0.535-0.904,0.756
				c0,0,0.042-0.045,0.104-0.129c0.34-0.467,1.341-2.297-0.104-6.31c0,0-0.003,5.255-1.604,7.646
				c-0.195,0.292-0.268,0.388-0.45,0.515c0.077-0.785-0.083-2.331-0.976-4.562c0,0,0.213,3.165-0.762,5.519
				c-0.381,0.27-0.827,0.581-1.199,0.845c0.009-0.525-0.011-1.521-0.311-3.522c0,0-0.361,2.952-1.203,5.041
				c-0.342,0.269-0.686,0.535-1.027,0.804c-3.149,2.481-6.541,4.441-10.55,5.482c-7.421,1.925-12.145-0.406-13.746-6.861
				c-0.39-0.554-0.728-1.179-1.017-1.867c-0.05-0.005-0.1-0.01-0.148-0.015c-0.366,2.528-0.731,5.058-1.149,7.961
				c-3.607-0.632-7.435-1.257-11.21-2.037c-0.439-0.092-0.766-1.035-0.855-1.632c-0.119-0.801-0.218-1.605-0.312-2.411
				c-0.059-0.048-0.072-0.143-0.034-0.292c-0.185-1.596-0.353-3.195-0.588-4.783c-1.03-6.895-2.79-8.182-10.617-8.545
				c-3.074-0.148-8.767-0.161-12.856-0.37c-3.334,1.571-4.688,3.423-4.599,7.44c0.055,2.208,0.335,4.398,0.518,6.637
				c-0.722-0.312-1.376-0.729-1.952-1.227c0.043-3.013,0.097-7.381-0.036-5.787c-0.083,1.003-0.866,2.553-1.585,3.848l-0.066-0.112
				c0.602-3.104,0.426-7.937,0.139-5.628c-0.145,1.151-0.59,2.275-1.087,3.228c-0.069-0.309-0.121-0.623-0.155-0.939
				c-0.678-2.106-0.265-4.812,0.612-7.18c1.233-3.322,4.627-3.536,9.81-3.997c6.89-1.2,13.135-3.465,19.203-6.932
				c1.736-0.991,3.626-1.897,5.021-3.206c2.293-2.149,4.788-2.506,7.815-2.459c1.659,0.023,3.314,0.005,4.964-0.059l4.836,2.599
				l1.429,0.768c0,0-0.369-0.339-0.857-0.81c-0.893-0.859-2.184-2.163-2.434-2.726c-0.096-0.217-0.041-0.327,0.261-0.252
				c0.191,0.048,0.437,0.108,0.72,0.176c1.96,0.472,5.72,1.34,5.72,1.34s-1.78-1.069-2.167-1.74
				c-0.178-0.307-0.062-0.532,0.651-0.532c0.434,0,1.062,0.056,1.792,0.145c3.097,0.378,8.054,1.369,8.054,1.369l-3.86-2.252
				l-0.684-0.398l2.1,0.024l9.729,0.111l-5.264-1.546l-1.642-0.482h2.91h7.691l-3.9-1.707l-0.857-0.375l2.265-0.391l4.009,0.2
				l-2.268-1.295c2.102-1.436,3.949-3.152,5.391-5.3c1.62-2.414,4.187-2.919,6.924-3.031c0.851-0.034,1.699,0.017,2.551,0.027
				c0.096-0.167,0.197-0.333,0.297-0.5c-0.8-0.448-1.6-0.896-2.373-1.375c-0.168-0.104-0.347-0.238-0.518-0.388
				c-0.924-0.512-1.842-1.032-2.732-1.583c-0.577-0.356-1.303-1.074-1.234-1.594c0.324-2.577,0.41-5.126,0.346-7.658
				c0.73-1.934,1.684-4.795,2.386-8.114c0.942-4.446,1.433-9.704,0.319-14.63c0,0-0.162,3.772-1.184,8.478
				c-0.479,2.201-1.144,4.601-2.073,6.923c-0.407-3.519-0.962-7.022-1.45-10.534c-0.29-2.089-0.555-4.184-0.831-6.276
				c0.712-1.592,1.565-3.831,2.166-6.455c0.508-2.217,0.834-4.697,0.722-7.283c0,0-0.307,1.462-1.229,3.325
				c-0.578,1.167-1.402,2.487-2.545,3.709c-0.232-1.821-0.467-3.642-0.699-5.463c-0.039,0.244-0.075,0.477-0.114,0.726
				c-0.812-1.186-1.602-2.339-2.392-3.493c-0.07,0.455-0.142,0.909-0.215,1.379c-0.745-1.557-1.524-3.166-2.515-4.771
				c-0.101,0.055,0.066,1.195,0.257,2.425c0.225,1.458,0.481,3.043,0.362,3.109c0.274,0.415,0.529,0.763,0.772,1.078
				c0.316,1.168,0.637,2.346,0.952,3.51c-2.627-5.263-6.362-9.527-11.899-12.182c2.455,2.241,4.933,4.5,7.408,6.759
				c-0.139,0.164-0.279,0.329-0.419,0.493c-1.331-0.952-2.659-1.902-3.991-2.854c-0.076,0.109-0.148,0.216-0.223,0.326
				c1.893,1.884,3.783,3.769,5.675,5.652c-0.156,0.182-0.316,0.363-0.478,0.545c-0.838-0.719-1.676-1.44-2.517-2.16
				c-0.094,0.123-0.191,0.245-0.286,0.367c1.018,1.08,2.037,2.16,3.055,3.24c0.467,0.494,0.933,0.989,1.399,1.483
				c0.097,0.103,0.194,0.206,0.291,0.309c-0.052,0.062-0.104,0.125-0.157,0.187c-0.044,0.053-0.088,0.105-0.132,0.158
				c-0.286-0.176-0.574-0.352-0.864-0.53c-1.066-0.654-2.185-1.339-3.554-2.179c1.525,1.49,2.883,2.815,4.194,4.095
				c0.354,0.345,0.705,0.689,1.054,1.029c0.228,0.223,0.457,0.446,0.685,0.668c-0.12,0.124-0.235,0.248-0.353,0.372
				c-0.02-0.012-0.04-0.023-0.06-0.035c-0.266-0.156-0.533-0.314-0.803-0.473c-1.071-0.631-2.199-1.297-3.609-2.128
				c1.613,1.667,3.047,3.149,4.432,4.58c0.24,0.248,0.481,0.498,0.719,0.743c0.417,0.43,0.832,0.859,1.245,1.286
				c-0.112,0.118-0.221,0.235-0.331,0.351c-0.193-0.135-0.387-0.269-0.58-0.404c-0.174-0.121-0.347-0.242-0.521-0.363
				c-1.051-0.732-2.103-1.464-3.152-2.196c-0.068,0.095-0.139,0.19-0.207,0.286c1.366,1.391,2.735,2.781,4.104,4.171
				c0.135,0.136,0.268,0.271,0.4,0.407c0.301,0.304,0.6,0.609,0.899,0.913c-0.099,0.12-0.198,0.241-0.294,0.361
				c-0.191-0.114-0.385-0.229-0.576-0.343c-1.339-0.797-2.715-1.615-4.383-2.608c1.863,1.847,3.546,3.512,5.184,5.133
				c0.525,0.521,1.047,1.037,1.567,1.552c-0.157,0.169-0.309,0.337-0.464,0.507c-0.2-0.144-0.401-0.289-0.602-0.433
				c-1.746-1.255-3.492-2.51-5.239-3.766c-0.059,0.099-0.119,0.198-0.177,0.296c2.043,1.989,4.092,3.979,6.137,5.967
				c0.225,0.218,0.448,0.436,0.672,0.653c-0.129,0.142-0.256,0.283-0.385,0.422c-0.014,0.014-0.025,0.028-0.039,0.042
				c-2.688-1.664-5.377-3.33-8.066-4.995c-0.033,0.056-0.069,0.115-0.104,0.17c2.881,2.405,5.76,4.808,8.64,7.212
				c-0.138,0.181-0.276,0.362-0.415,0.542c-1.629-0.99-3.258-1.98-5.205-3.162c2.405,2.587,4.545,4.881,6.68,7.179
				c-0.113,0.094-0.225,0.187-0.336,0.279c-2.304-1.6-4.605-3.201-6.908-4.802c-0.149,0.184-0.297,0.368-0.444,0.551
				c3.396,2.11,6.35,4.604,7.852,8.521c-2.128-1.654-4.158-3.234-6.188-4.813c-0.139,0.155-0.279,0.313-0.422,0.468
				c2.844,1.98,5.221,4.325,6.404,7.673c-2.064-1.63-4.075-3.215-6.082-4.8c-0.135,0.135-0.269,0.269-0.402,0.403
				c2.736,2.102,5.048,4.503,5.955,7.745c-2.422-1.792-4.913-3.635-7.407-5.476c-0.158,0.182-0.315,0.366-0.473,0.547
				c3.018,2.162,5.702,4.593,6.978,8.157c-2.472-1.73-4.926-3.444-7.379-5.162c-0.139,0.176-0.277,0.35-0.414,0.526
				c3.293,2.089,5.966,4.694,7.279,8.378c-1.817-1.414-3.639-2.834-5.461-4.253c-0.052,0.078-0.104,0.158-0.156,0.238
				c1.931,2.308,3.764,3.631,5.69,5.94l0.223,0.37c-1.662,2.625-5.48,4.93-9.413,6.579c-7.896,2.99-15.764,5.092-24,4.609
				c6.271-1.185,12.636-1.956,18.518-4.686c-6.586,1.984-13.306,2.504-20.131,2.105c1.309-0.247,2.621-0.476,3.933-0.708
				c-0.817,0.06-1.636,0.116-2.452,0.153c-2.662,0.122-4.441-0.296-5.605-1.46c0.576-0.03,1.199-0.062,1.921-0.099
				c-1.085-0.538-2.006-0.994-2.958-1.466c-0.104-0.238-0.195-0.495-0.278-0.765c-0.175-0.166-0.336-0.348-0.483-0.547
				c0.104-0.043,0.201-0.083,0.302-0.124c0.87-0.358,1.65-0.68,2.602-1.072c-1.141-0.229-2.055-0.415-2.909-0.588
				c-0.309-0.062-0.61-0.124-0.909-0.184c-0.043-0.009-0.087-0.018-0.13-0.026c-0.011-0.158-0.018-0.315-0.027-0.472
				c0.008-0.006,0.016-0.013,0.024-0.02c0.271-0.217,0.541-0.434,0.812-0.651c0.68-0.546,1.359-1.092,2.039-1.637
				c-0.036-0.128-0.072-0.253-0.104-0.383c-0.738,0.126-1.477,0.253-2.214,0.381c-0.053,0.009-0.107,0.018-0.16,0.027
				c-0.012-0.082-0.021-0.164-0.033-0.248c0.049-0.034,0.098-0.069,0.146-0.103c0.98-0.691,1.961-1.381,2.941-2.072
				c-0.036-0.155-0.071-0.306-0.108-0.459c-0.948,0.161-1.913,0.327-3.122,0.533c-0.152,0.026-0.295,0.051-0.456,0.078
				c0.151-0.107,0.284-0.2,0.425-0.3c0.918-0.649,1.643-1.161,2.63-1.863c-1.163-0.028-2.046-0.05-2.908-0.071
				c-0.218-0.005-0.436-0.011-0.655-0.016c0.199-0.19,0.383-0.366,0.576-0.552c0.996-0.953,1.943-1.861,2.877-2.756
				c-0.049-0.111-0.1-0.219-0.15-0.331c-0.996,0.382-1.996,0.766-2.996,1.148c-0.154,0.06-0.31,0.119-0.465,0.178
				c-0.024-0.129-0.048-0.257-0.071-0.386l-1.919-9.35l-0.238-1.161c0.01-0.033,0.02-0.067,0.029-0.1
				c0.198-0.684,0.4-1.377,0.604-2.084c0.354-1.223,0.724-2.498,1.133-3.914c-0.555,0.747-1.021,1.375-1.463,1.97
				c-0.212,0.285-0.42,0.566-0.626,0.843c-0.076-0.085-0.151-0.171-0.228-0.256c-0.031-0.035-0.062-0.071-0.094-0.106l0.423,2.572
				l-2.359-11.493c-0.043-0.646-0.033-1.252-0.002-1.841c0.049-0.907,0.167-1.761,0.336-2.577c0.426-2.069,1.123-3.928,1.539-5.993
				c-0.679,1.274-1.363,2.563-2.061,3.876c-0.199,0.375-0.4,0.752-0.604,1.135c-0.144,0.27-0.28,0.527-0.426,0.802
				c-0.082-0.909-0.07-1.756-0.01-2.571c0.06-0.793,0.174-1.551,0.318-2.289c0.359-1.817,0.896-3.519,1.266-5.343
				c-0.595,1.135-1.191,2.269-1.788,3.402c-0.159,0.302-0.317,0.604-0.476,0.905c-0.063-0.051-0.127-0.102-0.19-0.151
				c-0.064-0.051-0.129-0.101-0.192-0.153c0.023-0.098,0.048-0.196,0.072-0.294c0.137-0.562,0.274-1.124,0.413-1.69
				c0.537-2.198,1.09-4.453,1.701-6.954c-0.897,1.724-1.631,3.133-2.357,4.522c-0.045,0.085-0.09,0.172-0.135,0.258
				c-0.078-0.068-0.161-0.138-0.241-0.207c0.029-0.363,0.057-0.728,0.086-1.093c0.108-1.387,0.217-2.804,0.342-4.376
				c-0.358,0.383-0.561,0.598-0.58,0.62c-0.368-3.365,1.535-3.017,1.158-6.457c-0.104,0.012-0.84,0.898-0.943,0.911
				c-0.064,1.297-1.484,1.681-1.63,3.386c-0.003,0.036-0.014,0.064-0.016,0.102c-0.077-0.303-0.156-0.646-0.235-1.01
				c-0.684-3.133-1.417-8.234-1.963-10.374c-0.146,0.044-0.293,0.087-0.436,0.131c0.344,2.243,0.688,4.486,1.033,6.729
				c-0.179,0.105-0.361,0.213-0.54,0.318c-1.016-2.364-2.026-4.73-3.04-7.097c-0.081,0.04-0.162,0.079-0.242,0.117
				c0.879,2.937,1.758,5.876,2.605,8.731c-1.242-1.268-2.471-2.522-4.098-4.184c1.367,2.245,2.429,3.992,3.491,5.735
				c-0.049,0.083-0.096,0.163-0.145,0.245c-0.736-0.572-1.474-1.144-2.208-1.715c-0.015,0.1-0.027,0.199-0.043,0.297
				c1.039,1.473,2.075,2.947,3.441,4.885c-1.349-0.634-2.217-1.045-3.09-1.453c-0.004,0.082-0.008,0.164-0.014,0.244
				c1.297,1.343,2.594,2.684,3.889,4.026c-0.077,0.192-0.154,0.387-0.229,0.579c-0.726-0.282-1.449-0.563-2.171-0.846
				c-0.036,0.133-0.068,0.267-0.102,0.399c1.113,1.132,2.221,2.263,3.332,3.392c-0.055,0.174-0.112,0.344-0.167,0.517
				c-0.79-0.362-1.58-0.721-2.37-1.083c-0.006,0.098-0.012,0.194-0.018,0.291c1.111,1.183,2.229,2.36,3.341,3.541
				c-0.048,0.144-0.095,0.289-0.138,0.43c-1.458-0.542-2.919-1.085-4.666-1.738c1.981,1.59,3.665,2.944,5.344,4.291
				c0.046,0.037,0.092,0.074,0.138,0.11c-0.027,0.087-0.053,0.175-0.079,0.264c-0.02,0.066-0.039,0.132-0.059,0.197
				c-0.988-0.314-1.972-0.629-3.217-1.025c1.384,1.262,2.547,2.322,3.686,3.359c0.169,0.154,0.339,0.309,0.507,0.462
				c-0.036,0.126-0.073,0.25-0.11,0.375c-0.088-0.015-0.18-0.031-0.268-0.046c-0.789-0.135-1.588-0.271-2.492-0.426
				c1.032,0.942,1.948,1.777,2.844,2.594c0.208,0.19,0.416,0.38,0.623,0.569c-0.05,0.152-0.098,0.306-0.146,0.458
				c-0.111-0.047-0.223-0.094-0.333-0.141c-0.905-0.385-1.811-0.77-2.718-1.153c1.101,1.113,2.23,2.053,3.104,3.528
				c0.357,0.604,0.677,1.29,0.926,2.128c-0.215-0.08-0.41-0.152-0.618-0.229c-1.009-0.375-1.967-0.732-2.909-1.083
				c1.093,0.961,2.208,1.774,3.213,2.933c0.654,0.754,1.262,1.652,1.783,2.843c-0.492-0.088-0.933-0.167-1.355-0.243
				c-0.779-0.139-1.475-0.263-2.159-0.386c0.006,0.089,0.011,0.179,0.016,0.27c0.8,0.553,1.599,1.106,2.397,1.659
				c0.132,0.091,0.263,0.182,0.395,0.273c-0.023,0.133-0.049,0.264-0.073,0.395c-0.07-0.001-0.142-0.002-0.212-0.003
				c-0.682-0.01-1.379-0.022-2.288-0.038c1.028,0.717,1.819,1.268,2.578,1.799c0.106,0.074,0.214,0.149,0.319,0.223
				c-0.026,0.14-0.053,0.282-0.08,0.422c-0.044-0.001-0.089-0.002-0.133-0.003c-0.785-0.022-1.581-0.043-2.539-0.069
				c1.045,0.687,1.951,1.284,2.834,1.864c0.22,0.145,0.439,0.289,0.657,0.432c-0.031,0.105-0.065,0.211-0.1,0.316
				c-0.146-0.012-0.293-0.023-0.44-0.035c-0.812-0.065-1.665-0.136-2.806-0.229c1.168,0.694,2.04,1.211,3.068,1.824
				c0.185,0.11,0.363,0.216,0.562,0.334c-0.175,0.017-0.33,0.031-0.499,0.048c-1.749,0.167-3.194,0.304-4.618,0.44
				c0.014,0.069,0.027,0.14,0.04,0.21c1.604,0.414,3.204,0.83,4.806,1.245c0,0.142-0.003,0.288-0.008,0.429
				c-0.758,0.048-1.508,0.093-2.65,0.165c1.275,0.638,2.14,1.068,3.003,1.497c-0.008,0.156-0.011,0.314-0.015,0.47
				c-0.731,0.124-1.465,0.25-2.302,0.394c1.011,0.456,1.882,0.85,2.745,1.24c0.057,0.026,0.115,0.052,0.172,0.078
				c-0.016,0.125-0.029,0.252-0.043,0.379c-0.018,0.003-0.035,0.006-0.053,0.009c-0.732,0.124-1.471,0.25-2.609,0.446
				c1.25,0.472,2.059,0.78,2.861,1.083c0.02,0.008,0.04,0.016,0.06,0.023c0.005,0.136,0.005,0.273,0.011,0.409
				c0,0.011,0,0.022,0.001,0.033c-0.769,0.13-1.539,0.262-2.661,0.455c1.02,0.417,1.639,0.671,2.257,0.923
				c0.009,0.156,0.019,0.311,0.028,0.467c-0.997,0.171-1.994,0.342-2.995,0.512c0.014,0.112,0.024,0.223,0.034,0.336
				c0.794,0.16,1.588,0.321,2.38,0.484c0.01,0.141,0.021,0.284,0.031,0.425c-0.914,0.265-1.835,0.536-2.752,0.801
				c0.02,0.124,0.04,0.244,0.06,0.367c1.497,0.12,2.998,0.245,4.498,0.367c0.004,0,0.008,0,0.012,0.001
				c0.035,0.208,0.068,0.417,0.103,0.624c-0.006,0.001-0.011,0.003-0.017,0.004c-1.838,0.448-3.68,0.895-5.516,1.345
				c0.02,0.148,0.034,0.299,0.051,0.449c1.786,0.081,3.568,0.16,5.355,0.239c0.045,0.152,0.092,0.306,0.139,0.46
				c-1.958,0.786-3.909,1.574-5.865,2.358c0,0.056-0.001,0.105-0.003,0.156c1.959-0.113,3.926-0.229,6.206-0.361
				c0.116-0.007,0.223-0.013,0.341-0.02c-0.114,0.104-0.23,0.196-0.346,0.289c-2.483,2.011-5.081,1.697-7.552,2.297
				c1.506,0.176,5.205-0.072,7.34-0.018c-0.056,0.341-0.115,0.68-0.193,1.008c-2.231,0.26-5.354,0.574-6.468,0.765
				c0.013,0.151,1.427,0.062,1.438,0.212c0.883,0.203,3.043,0.065,4.75,0.049c-0.218,0.686-0.496,1.338-0.818,1.966
				c-1.676-0.142-4.352-0.65-5.124-0.459c0.001,0.098,1.344,0.42,1.347,0.519c1.322,0.143,2.038,0.628,3.286,0.811
				c-1.341,2.171-3.37,3.973-6.132,5.439l-0.779,0.29l1.834-6c-0.908,1.807-2.501,3.353-3.271,4.885
				c-0.058-0.035-0.115-0.071-0.171-0.108c0.083-1.236,0.166-2.475,0.253-3.713c-0.505,1.801-0.855,3.59-2.501,4.976
				c0.094-1.01,0.171-1.844,0.247-2.676c-0.802,1.134-0.905,2.666-2.456,3.342c-0.047-0.375-0.077-0.656-0.08-0.678
				c-0.924,0.618-1.891,1.265-2.863,1.911c-0.106-0.106-0.213-0.212-0.317-0.321c0.255-0.503,0.514-1.007,0.771-1.511
				c-0.052-0.042-0.103-0.083-0.154-0.125c-0.17,0.182-0.349,0.355-0.506,0.547c-1.942,2.371-4.75,3.078-7.512,3.757
				c0,0,0.93,0.254,2.333,0.417c-0.569,0.173-1.138,0.354-1.706,0.543c1.857-0.044,3.714-0.083,5.57-0.129
				c-3.479,1.029-6.965,1.513-10.441,0.933c0.703-0.396,1.406-0.792,2.108-1.186c-0.045-0.14-0.089-0.278-0.134-0.415
				c-1.388,0.346-2.778,0.693-4.164,1.039c-0.045,0.011-0.09,0.022-0.135,0.034c-0.013-0.039-0.022-0.077-0.033-0.115
				c-0.01-0.036-0.021-0.072-0.031-0.107c1.233-0.694,2.469-1.388,3.708-2.081c-0.037-0.09-0.068-0.178-0.103-0.265
				c-1.029,0.181-2.059,0.363-3.084,0.542c-0.038-0.083-0.076-0.168-0.113-0.254c0.662-0.476-2.291-2.031-4.45-3.348
				c-0.876-2.819-1.604-5.685-2.331-8.546c-2.363-9.331-4.812-18.644-6.999-28.02l-1.246-5.908l-0.407-1.929
				c-0.093-0.108-0.191-0.218-0.289-0.327c0.078-0.2,0.155-0.4,0.232-0.6c0.502-1.291,1.005-2.582,1.504-3.873
				c-0.042-0.086-0.083-0.169-0.125-0.252c-0.573,0.615-1.145,1.229-1.717,1.845c-0.019,0.02-0.037,0.04-0.056,0.06
				c-0.116-0.131-0.232-0.261-0.349-0.392c0.088-0.214,0.177-0.429,0.265-0.643c0.506-1.231,1.011-2.462,1.52-3.695
				c-0.081-0.106-0.163-0.21-0.243-0.314c-0.542,0.521-1.082,1.041-1.625,1.562c-0.019,0.018-0.037,0.036-0.056,0.053
				c-0.143-0.142-0.287-0.282-0.43-0.423c0.105-0.263,0.212-0.527,0.317-0.79c0.579-1.444,1.16-2.888,1.74-4.333
				c-0.033-0.069-0.07-0.139-0.104-0.211c-0.647,0.711-1.295,1.421-2.299,2.521c0.529-2.265,0.926-3.987,1.323-5.708
				c-0.05-0.082-0.099-0.164-0.15-0.247c-0.462,0.8-0.924,1.601-1.386,2.402c-0.074-0.053-0.149-0.105-0.224-0.16
				c0.317-1.972,0.635-3.944,1.043-6.482c-0.868,2.121-1.526,3.726-2.19,5.346c-0.298-2.874-0.604-5.833-0.903-8.791
				c-0.088-0.003-0.178-0.006-0.267-0.008c-0.038,2.505-0.074,5.008-0.117,7.512c-0.143-0.016-0.289-0.031-0.435-0.047
				c-0.062-0.006-0.122-0.013-0.183-0.02c-0.157-0.633-0.315-1.267-0.474-1.9c-0.093-0.375-0.187-0.751-0.28-1.126
				c-0.279-1.121-0.56-2.242-0.838-3.362c-0.151,0.018-0.3,0.038-0.451,0.057c0.125,0.861,0.407,2.172,0.734,3.628
				c0.21,0.93,0.437,1.916,0.654,2.887c0.377,1.682,0.725,3.308,0.891,4.47c-0.215-0.44-0.492-0.728-0.787-0.95
				c-0.351-0.263-0.728-0.432-1.075-0.612c-0.398-0.207-0.754-0.439-0.971-0.88c-0.1,0.031-1.113-0.464-1.211-0.434
				c0.653,2.2,1.622,2.389,2.466,3.302c0.387,0.418,0.747,0.987,1.04,1.971c-0.024-0.01-0.27-0.11-0.69-0.287
				c-0.027-0.011-0.048-0.02-0.076-0.032c0.039,0.075,0.076,0.144,0.114,0.218c0.638,1.214,1.224,2.33,1.793,3.415
				c0.186,0.353,0.37,0.704,0.554,1.055c-0.05,0.092-0.097,0.188-0.146,0.28c-0.045-0.036-0.091-0.072-0.136-0.108
				c-0.432-0.342-0.87-0.689-1.316-1.044c-0.816-0.648-1.672-1.327-2.65-2.104c1.09,1.429,2.1,2.75,3.078,4.032
				c0.518,0.677,1.026,1.343,1.529,2.003c0.264,0.345,0.527,0.69,0.789,1.033c-0.081,0.142-0.161,0.281-0.238,0.421
				c-0.088-0.069-0.176-0.138-0.264-0.207c-0.441-0.348-0.884-0.696-1.326-1.043c-0.709-0.557-1.417-1.114-2.125-1.672
				c0.796,1.139,1.658,2.173,2.479,3.262c0.609,0.807,1.195,1.646,1.711,2.587c0.429,0.781,0.812,1.627,1.117,2.586
				c-0.21-0.165-0.408-0.319-0.616-0.481c-0.457-0.357-0.908-0.71-1.354-1.058c-1.036-0.809-2.059-1.605-3.071-2.394
				c1.133,1.624,2.436,2.971,3.588,4.578c0.802,1.119,1.533,2.36,2.075,3.923c-0.466-0.364-0.921-0.719-1.366-1.068
				c-1.306-1.02-2.537-1.981-3.766-2.942c-0.034,0.093-0.066,0.187-0.1,0.278c1.493,1.707,2.983,3.413,4.476,5.119
				c0.251,0.287,0.501,0.574,0.752,0.86c-0.057,0.141-0.116,0.28-0.175,0.422c-0.101-0.071-0.203-0.142-0.305-0.213
				c-0.836-0.586-1.689-1.184-2.711-1.894c1.238,1.687,2.347,3.198,3.435,4.678c0.245,0.334,0.491,0.668,0.735,1
				c-0.069,0.096-0.14,0.195-0.21,0.292c-0.077-0.053-0.154-0.106-0.231-0.16c-0.854-0.59-1.71-1.182-2.565-1.772
				c-0.022,0.074-0.051,0.146-0.071,0.219c1.114,1.418,2.225,2.836,3.338,4.254c0.095,0.12,0.188,0.239,0.282,0.359
				c-0.037,0.103-0.073,0.205-0.108,0.308c-0.018,0.052-0.036,0.104-0.055,0.155c-0.954-0.526-1.91-1.051-3.145-1.731
				c1.506,1.767,2.786,3.272,4.044,4.747c0.159,0.186,0.318,0.373,0.477,0.559c-0.04,0.134-0.076,0.268-0.115,0.401
				c-0.04-0.02-0.081-0.04-0.121-0.061c-1.063-0.531-2.13-1.063-3.196-1.592c-0.008,0.097-0.018,0.198-0.027,0.296
				c0.99,1.005,1.98,2.009,3.06,3.106c-0.354,0.201-0.568,0.319-0.853,0.478c0.469,0.592,0.902,1.139,1.689,2.132
				c-1.384-0.316-2.386-0.544-3.389-0.775c-0.002,0.084-0.005,0.167-0.012,0.249c1.242,0.855,2.49,1.711,4.137,2.845
				c-0.96,0.027-1.524,0.042-2.086,0.057c-0.012,0.117-0.021,0.229-0.033,0.344c0.859,0.479,1.724,0.954,2.581,1.432
				c0.027,0.125,0.054,0.247,0.083,0.372c-1.23,0.065-2.462,0.133-3.692,0.198c-0.003,0.119-0.007,0.236-0.013,0.354
				c1.432,0.504,2.864,1.013,4.432,1.563c-0.991,0.456-1.92,0.883-3.249,1.495c1.354,0.265,2.27,0.443,3.631,0.707
				c-1.42,0.354-2.474,0.616-3.526,0.879c0.023,0.152,0.052,0.299,0.074,0.451c1.221,0.235,2.444,0.47,3.666,0.705
				c0.023,0.078,0.044,0.156,0.064,0.232c-0.781,0.194-1.562,0.388-2.342,0.584c0.02,0.125,0.033,0.252,0.05,0.379
				c1.173,0.302,2.345,0.606,3.521,0.909c0.05,0.143,0.104,0.284,0.154,0.43c-0.99,0.676-1.976,1.352-3.338,2.279
				c1.426-0.041,2.494-0.074,3.975-0.119c0.092-0.002,0.17-0.005,0.265-0.008c-0.071,0.082-0.135,0.153-0.204,0.233
				c-1.156,1.318-2.08,2.378-3.283,3.748c1.43-0.533,2.461-0.92,3.497-1.305c0.022,0.029,0.048,0.058,0.071,0.087
				c0.063,0.079,0.127,0.157,0.192,0.235c-0.062,0.098-0.124,0.197-0.185,0.295c-0.833,1.33-1.667,2.664-2.558,4.084
				c0.616-0.262,1.288-0.462,1.889-0.824c0.173-0.104,0.341-0.224,0.51-0.352c0.422-0.32,0.854-0.71,1.408-1.151
				c-0.362,1.508-0.966,2.244-1.697,2.648c-0.957,0.528-2.136,0.488-3.297,0.824c-0.063,0.019-0.128,0.035-0.192,0.056
				c0.048-0.012,0.107-0.015,0.162-0.021c0.628-0.068,1.696,0.23,2.84,0.568c-0.555,1.324-1.367,2.449-2.456,3.388l-0.212-3.481
				c-0.757,2.526-1.041,2.917-1.812,4.451c-0.058-0.036-0.112-0.071-0.169-0.107c0.074-1.1,0.147-2.197,0.223-3.296
				c0.01-0.139,0.019-0.278,0.028-0.417c-0.046,0.166-0.091,0.331-0.136,0.495c-0.443,1.63-0.87,3.223-2.362,4.48
				c0.093-1.01,0.168-1.844,0.243-2.675c-0.801,1.131-0.903,2.666-2.455,3.341c-0.044-0.374-0.078-0.656-0.08-0.677
				c-0.577,0.385-1.174,0.783-1.775,1.185c-0.361,0.241-0.723,0.482-1.086,0.725c-0.105-0.106-0.213-0.211-0.318-0.318
				c0.042-0.084,0.085-0.167,0.128-0.251c0.213-0.421,0.429-0.841,0.642-1.261c-0.051-0.04-0.101-0.084-0.155-0.126
				c-0.168,0.183-0.347,0.354-0.506,0.549c-0.281,0.343-0.585,0.643-0.9,0.921c-2.857,0.2-5.782,0.03-8.535-0.36
				c-0.823-0.117-1.585-0.3-2.313-0.518c0.623-0.271,1.246-0.543,1.869-0.815c0.388-0.169,0.775-0.338,1.163-0.508
				c-0.014-0.037-0.025-0.075-0.038-0.113c-0.023-0.069-0.047-0.139-0.07-0.208c-0.307,0.075-0.613,0.151-0.92,0.227
				c-0.423,0.104-0.846,0.209-1.27,0.314c-0.755,0.187-1.51,0.373-2.266,0.56c-0.075,0.019-0.15,0.037-0.226,0.056
				c-0.021-0.067-0.036-0.135-0.055-0.201l0.001,0c0.549-0.249,1.099-0.497,1.647-0.745c0.021-0.01,0.043-0.02,0.063-0.029
				c0.81-0.366,1.619-0.731,2.428-1.097c-0.037-0.11-0.073-0.213-0.109-0.317c-1.628,0.402-3.261,0.805-4.887,1.204
				c-0.017-0.055-0.031-0.109-0.048-0.169c1.434-0.647,2.871-1.297,4.308-1.948c-0.029-0.067-5.164,1.222-5.196,1.157
				c-1.161,0.23-0.853-1.863-2.015-1.635c-0.123,0.058-0.22,0.098-0.333,0.149l-0.215-0.251c-0.298-0.417-0.347-0.617-0.593-1.083
				c-0.015-0.032-0.031-0.065-0.052-0.101c-0.46-0.887-0.836-1.853-1.094-2.924c-3.131-13.007-6.338-25.996-9.515-38.992
				c0.181-0.699-0.411-0.07,0.073-1.198c-0.049-0.059-0.345-1.265-0.393-1.326l0.327-1.015c-0.074-2.234-0.15-4.538-0.225-6.839
				c-0.1,0.004-0.199,0.011-0.294,0.017c-0.241,1.778-0.479,3.557-0.718,5.335c-0.025,0.194-0.052,0.389-0.078,0.583
				c-0.228,0-0.455,0-0.685,0c-0.11-0.449-0.221-0.896-0.331-1.345c-0.291-1.182-0.581-2.364-0.873-3.545
				c-0.169,0.026-0.34,0.054-0.512,0.082c0.172,1.831,0.343,3.663,0.547,5.895c-0.585-0.958-1.045-1.707-1.483-2.42
				c-0.095-0.154-0.188-0.308-0.282-0.459c-0.113,0.033-0.229,0.065-0.343,0.097c0.274,0.859,0.548,1.716,0.82,2.574
				c0.503,1.577,1.004,3.148,1.497,4.695c-0.027-0.007-0.309-0.069-0.803-0.181c-0.009-0.002-0.015-0.003-0.023-0.005
				c0.011,0.016,0.021,0.031,0.031,0.047c0.832,1.243,1.562,2.337,2.293,3.431c-0.062,0.079-0.123,0.157-0.183,0.233
				c-0.509-0.263-1.022-0.529-1.55-0.801c-0.842-0.436-1.724-0.892-2.733-1.414c1.091,1.035,2.101,1.992,3.078,2.919
				c0.782,0.742,1.546,1.465,2.305,2.187c-0.1,0.119-0.201,0.235-0.303,0.353c-0.535-0.274-1.069-0.549-1.604-0.823
				c-0.757-0.388-1.514-0.776-2.27-1.164c0.83,0.878,1.754,1.656,2.612,2.496c1.054,1.03,2.007,2.155,2.549,3.691
				c-0.622-0.315-1.219-0.618-1.819-0.922c-1.166-0.59-2.312-1.171-3.446-1.745c1.255,1.327,2.779,2.363,4,3.744
				c0.622,0.704,1.171,1.491,1.554,2.464c-0.341-0.173-0.67-0.34-0.999-0.507c-1.521-0.772-2.945-1.494-4.363-2.214
				c-0.043,0.076-0.087,0.152-0.133,0.227c1.7,1.373,3.403,2.744,5.105,4.114c0.062,0.05,0.122,0.099,0.184,0.148
				c-0.031,0.05-0.065,0.1-0.099,0.149c-0.044,0.065-0.088,0.131-0.131,0.197c-0.987-0.436-1.971-0.872-3.174-1.401
				c1.507,1.496,2.822,2.802,4.135,4.11c0.002,0.002,0.004,0.004,0.006,0.006c-0.001,0.001-0.002,0.002-0.004,0.003
				c-0.082,0.081-0.169,0.163-0.255,0.244c-0.981-0.427-1.958-0.854-2.941-1.285c-0.033,0.061-0.067,0.12-0.101,0.18
				c1.211,1.107,2.414,2.215,3.624,3.324c-0.072,0.125-0.147,0.252-0.225,0.378c-1.014-0.334-2.031-0.668-3.349-1.099
				c1.711,1.423,3.135,2.61,4.564,3.793c-0.055,0.109-0.11,0.216-0.163,0.325c-1.182-0.339-2.364-0.683-3.544-1.021
				c-0.02,0.079-0.039,0.159-0.06,0.235c1.013,0.708,2.025,1.415,3.132,2.188c-0.416,0.188-0.663,0.298-0.991,0.446
				c0.468,0.427,0.904,0.819,1.691,1.535c-1.514-0.132-2.611-0.228-3.704-0.324c-0.011,0.065-0.022,0.131-0.036,0.197
				c1.309,0.567,2.618,1.136,4.353,1.888c-1.069,0.104-1.699,0.162-2.325,0.223c-0.022,0.091-0.046,0.182-0.067,0.273
				c0.915,0.302,1.833,0.604,2.748,0.907c0.018,0.097,0.039,0.19,0.057,0.285c-1.373,0.157-2.752,0.314-4.127,0.469
				c-0.016,0.095-0.03,0.186-0.045,0.279c1.55,0.276,3.099,0.554,4.795,0.855c-1.143,0.443-2.215,0.858-3.752,1.451
				c1.484,0.094,2.491,0.157,3.983,0.25c-1.613,0.398-2.81,0.694-4.004,0.989c0.014,0.117,0.027,0.232,0.042,0.347
				c1.339,0.083,2.678,0.164,4.02,0.246c0.019,0.059,0.035,0.12,0.05,0.176c-0.887,0.22-1.774,0.439-2.656,0.659
				c0.005,0.099,0.012,0.194,0.021,0.294c1.279,0.137,2.556,0.276,3.835,0.417c0.048,0.108,0.093,0.213,0.138,0.324
				c-1.16,0.614-2.32,1.23-3.916,2.074c1.668-0.161,2.878-0.276,4.659-0.449c0.024-0.002,0.044-0.004,0.068-0.007
				c-0.021,0.017-0.038,0.031-0.06,0.048c-1.494,1.209-2.65,2.143-4.174,3.377c1.636-0.542,2.82-0.932,4.007-1.321
				c0.086,0.079,0.177,0.153,0.265,0.235c-1.122,1.194-2.241,2.393-3.439,3.673c0.711-0.258,1.472-0.47,2.177-0.807
				c0.609-0.29,1.187-0.676,1.925-1.132c0.113-0.07,0.221-0.138,0.344-0.212c-0.102,0.184-0.211,0.337-0.317,0.504
				c-1.511,2.375-3.482,3.097-5.733,3.775c1.727,0.559,3.102,0.585,4.254,0.397c-1.061,0.858-2.723,1.477-5.149,2.119
				c-1.773,0.469-3.627,0.729-5.453,0.908c-6.139,0.61-10.683-1.523-13.339-6.257c-0.358-0.639-0.737-1.283-1.124-1.93l6.799,2.474
				c-3.311-1.887-6.062-5.035-8.868-6.633c0.073-0.104,0.145-0.207,0.218-0.312c2.321,0.281,4.644,0.559,6.964,0.84
				c-3.337-1.127-6.672-1.96-9.117-5.19c1.892,0.274,3.453,0.501,5.01,0.725c-2.05-1.62-4.927-1.966-6.046-4.947
				c0.712-0.046,1.24-0.082,1.286-0.083c-1.069-1.797-2.194-3.685-3.315-5.572c0.212-0.19,0.422-0.378,0.635-0.568
				c0.924,0.532,1.845,1.064,2.766,1.597c0.082-0.091,0.166-0.183,0.253-0.275c-0.328-0.338-0.634-0.692-0.98-1.006
				c-4.163-3.792-5.268-8.98-6.252-14.113c0.037-1.219,0.058-2.436,0.064-3.653c-0.04,0.006-0.08,0.013-0.12,0.02
				c-0.505-1.857-1.032-5.559-1.269-7.47c-0.404-3.264-0.468-3.327-0.861-3.273c-0.005,0.001-0.012,0.293-0.017,0.293
				c0.015,5.059-0.102,7.248-0.086,12.307c-0.288,0.047-0.582,0.094-0.872,0.14c-0.523-1.932-1.092-3.855-1.569-5.802
				c-1.929-7.918-0.038-18.676,1.338-26.991c1.597-9.644,7.201-16.467,17.704-19.743c0.046,0.387,0.127,0.797,0.289,1.258
				c1.713,4.879-0.8,8.043-0.8,8.043c3.479-3.381,4.212-7.714,4.367-9.47c0.138,0.05,0.272,0.109,0.406,0.17
				c1.138,3.401,0.493,6.021,0.493,6.021c1.08-1.198,1.662-2.505,1.953-3.748c0.516,4.945,4.189,12.075,4.189,12.075
				c-0.783-10.782-0.758-10.414,0.191-16.473c0.078-0.501,0.15-0.965,0.217-1.403c0.197-1.072,0.419-2.139,0.722-3.192
				c2.405-8.346,7.326-7.428,16.806-8.399c0.228-0.023,0.42-0.045,0.611-0.067c7.453,2.348,11.784,7.11,14.493,13.285
				c0.01-0.083,0.013-0.167,0.021-0.25c0.082-0.814,0.097-1.626,0.047-2.431c-0.277-4.475-2.521-8.668-5.996-11.213
				c1.854-0.556,4.226-1.522,6.023-1.099c1.233-3.834,1.219-1.682,3.252-5.846c1.375-2.812,3.338-5.288,5.704-7.363
				c0.068,2.955-1.542,4.622-1.542,4.622c2.66-2.11,3.73-4.957,4.149-6.611c0.17-0.116,0.341-0.231,0.513-0.343
				c0.572,2.75-0.132,4.729-0.132,4.729c0.89-0.806,1.443-1.72,1.792-2.621c0.205,3.614-1.775,5.659-1.775,5.659
				c4.593-3.645,5.102-9.204,5.102-9.204c1.164,3.771,0.141,6.629,0.141,6.629c3.725-3.375,2.49-8.396,2.49-8.396l-0.4-0.211
				c5.381-1.696,11.291-1.916,16.752-0.304c3.516,1.038,6.25,2.899,7.8,6.131c0.118-0.2,0.243-0.386,0.366-0.579
				c4.045-7.561,10.56-10.731,21.135-10.465c0.139,0.003,0.269,0.016,0.406,0.021c-3.354,2.741-5.539,7.679-5.539,7.679
				c2.021-3.435,5.766-5.683,8.82-7.034c-0.562,1.067-0.957,2.361-0.926,3.886c0,0,1.084-2.123,3.792-3.819
				c0.186,0.04,0.362,0.088,0.546,0.131c-1.019,1.459-2.987,4.899-2.607,9.268c0,0,0.16-3.801,4.386-6.218
				c1.028-0.588,1.592-1.252,1.866-1.92c6.043,2.399,10.195,6.984,12.511,13.979c1.676,5.05,3.49,6.506,5.03,10.452
				c0.296,0.37,0.581,0.745,0.824,1.142c0.438,0.715,0.854,1.387,1.259,2.042c0.606-2.604-0.9-2.16-0.827-5.974
				c0.833,1.038,1.789,2.006,2.469,3.12c5.22,8.532,8.189,12.698,9.588,22.407c0.637,4.414,1.265,8.83,1.894,13.245
				c0.622,0.026,0.833-0.011,0.878,0.05c1.074,1.453,1.946,2.965,2.71,4.509c-0.065-1.252-0.13-2.496-0.195-3.752
				c0.603,0.276,0.896,0.805,0.944,0.871c5.334,7.217,6.265,14.917,11.312,22.3c2.129,3.116,3.464,6.611,4.097,10.301l-3.186-3.846
				C513.962,257.993,514.413,260.361,515.342,261.971z"/>
		</g>
		<path d="M464.157,288.652c4.061,9.687,4.061,9.687,2.518,21.483C472.222,306.565,469.784,292.213,464.157,288.652z"/>
	</g>
</g>
</svg>
