<?xml version="1.0" encoding="utf-8"?>
<!-- Generator: Adobe Illustrator 18.1.1, SVG Export Plug-In . SVG Version: 6.00 Build 0)  -->
<svg version="1.1" id="Layer_2" xmlns="http://www.w3.org/2000/svg" xmlns:xlink="http://www.w3.org/1999/xlink" x="0px" y="0px"
	 viewBox="-120 121.2 100 100" enable-background="new -120 121.2 100 100" xml:space="preserve">
<g>
	<path fill="#0F0F5B" d="M-78.3,181.3c-0.5-0.6-0.9-1.5-1.6-1.9c-0.9-0.4-1.9-0.1-2.7-0.8c-0.2-0.2-0.5-0.1-0.7,0
		c-0.2,0-0.5,0.2-0.4,0.5c0.1,1.3,1.3,2.6,2.1,3.5c0.7,0.8,2.2,2.3,3.4,2C-76.5,184.1-77.7,182.2-78.3,181.3z M-82.3,180.3
		c0.8,0.5,1.7,0.5,2.6,0.8l0.1,0.1c-0.6,0-1.2-0.2-1.8-0.1c-0.1,0-0.2,0.1-0.1,0.2c0.6,0.7,1.6,0.7,2.4,1.1
		c-0.4,0.1-0.9,0.1-1.3,0.1c-0.3-0.3-0.6-0.7-0.8-0.9C-81.6,181.3-82,180.8-82.3,180.3z M-82.6,179.9c0.1,0,0.2,0.1,0.3,0.1
		c-0.1,0-0.1,0-0.2,0l0,0C-82.6,179.9-82.6,179.9-82.6,179.9z M-80,180.8c-0.7-0.2-1.4-0.3-2-0.6c0.6,0.1,1.2,0.2,1.8,0.3
		C-80.1,180.6-80,180.7-80,180.8z M-78.9,182.3c-0.7-0.3-1.6-0.4-2.2-0.9c0.6,0,1.1,0.1,1.7,0.1C-79.3,181.7-79.1,182-78.9,182.3z
		 M-78.6,183.7L-78.6,183.7c-0.4-0.2-0.7-0.3-1-0.4c-0.2-0.1-0.4-0.3-0.6-0.5c0.5,0,1,0,1.5-0.2l0,0
		C-78.4,183.1-78.1,183.7-78.6,183.7z"/>
	<path fill="#0F0F5B" d="M-106.3,155.2c-2.3,12.8,2.9,27.1,13.6,34.8c4.5,3.3,9.7,5.5,15.1,6.6c2.3,0.5,4.6,0.7,6.9,0.9
		c-0.8,2.3-1.6,4.8-1.2,7.2c-6.1,1-13.1,2.2-18.2,6c-1,0.8-2.3,2.3-0.9,3.4c1.2,1,3.1,1.3,4.6,1.6c5.9,1,12,1.2,18,1.1
		c5.8-0.1,11.8-0.4,17.6-1.2c1.4-0.2,4.4-0.3,5.3-1.7c1-1.5-2.1-3.5-3.1-4.1c-2.6-1.8-5.7-2.8-8.8-3.6c-2.1-0.5-4.3-0.8-6.4-1.4l0,0
		c0.8-2.4-0.9-4.9-1.4-7.3c3.6-0.2,7.3-0.6,10.6-2.1c0.9,1.8,2.2,3.2,3.8,2.1c2.1-1.5-1.6-4.9-2.2-6.5c6-2.7,11.3-7,15-12.8
		c7.5-11.9,6.4-27.6-2.8-38.3c-9.5-10.8-25.2-14.9-38.7-10.3v-0.1c-0.9-1.7-1.2-5.7-4.2-4.1c-0.9,0.5-1.1,1.1-1,1.9h-0.1
		c-5.5,2.7-10.4,6-14,11C-102.5,143.2-105.2,149.2-106.3,155.2z M-80.4,129.9c-0.5,0.2-0.9,0.4-1.4,0.6c-0.7-1-3.3-4-1.1-4.4
		C-81.2,125.7-80.9,128.8-80.4,129.9z M-89.4,152.5c-0.6-0.3-1.2-0.4-1.8-0.7c-1-0.4,1.5,0.1,2,0.1
		C-89.2,152.1-89.3,152.3-89.4,152.5z M-89.8,157.5c-1.1-0.6-2.6-0.3-3.8-0.8c-1.4-0.5,0.3-0.2,0.6-0.1c0.5,0.1,0.9,0.2,1.4,0.3
		c0.6,0.1,1.2,0.1,1.8,0.1C-89.8,157.2-89.8,157.4-89.8,157.5z M-89.8,156.4c0,0.1,0,0.2,0,0.3c-1.2-0.3-2.4-0.6-3.4-1.2
		c0.5,0.3,1.6,0.3,2.2,0.4c0.4,0.1,0.9,0.2,1.3,0.3C-89.8,156.2-89.8,156.3-89.8,156.4z M-89.8,155.8c-0.9-0.5-1.9-1-2.9-1.3
		c0.9,0.2,2,0.3,3,0.3C-89.8,155.2-89.8,155.5-89.8,155.8z M-91.6,153.8c-0.6-0.3,1,0,1,0c0.3,0,0.6,0,1,0c0,0.2-0.1,0.4-0.1,0.6
		C-90.3,154.2-91,154.1-91.6,153.8z M-92.3,153.3c0.1-0.2,0.1-0.4,0.2-0.6c0.6,0.3,1.8,0.9,2.5,0.9
		C-90.5,153.6-91.4,153.4-92.3,153.3z M-92.1,151.6L-92.1,151.6c0.5,0.3,0.9,0.5,1.4,0.6c0.4,0.1,2.2,0.9,0.6,0.5
		c-0.7-0.2-1.3-0.3-1.9-0.2c0-0.1,0-0.2,0-0.3C-92,151.9-92.1,151.8-92.1,151.6z M-89.5,153c0,0.1-0.1,0.2-0.1,0.4
		c-0.2-0.1-0.5-0.2-0.8-0.3c0,0-1.3-0.5-0.6-0.4C-90.5,152.8-90,153-89.5,153z M-90.1,159.3c-0.7-0.2-1.4-0.3-2.1-0.5
		c-0.6-0.2-1.2-0.3-1.7-0.6c-0.5-0.2-1.4-0.6,0.2-0.3c1.3,0.2,2.6,0.7,3.9,0.5C-89.8,158.7-89.9,159-90.1,159.3z M-93.4,159.4
		c0.3,0,0.6,0.1,0.9,0.1c0.7,0.1,1.3,0.3,2,0.3c-0.3,0.2-0.7,0.4-1.4,0.3c-0.3,0-0.7-0.1-1.1-0.1c-0.5-0.1-1-0.3-1.4-0.6
		C-95,159-93.4,159.4-93.4,159.4z M-95.2,157.9c0-0.1,0.1-0.2,0.1-0.3l0,0c1.2,1,2.7,1.3,4.2,1.7c0,0,0.4,0.1,0.7,0.1
		c0,0,0,0.1-0.1,0.1c0,0,0,0-0.1,0c-0.6,0-1.1-0.1-1.7-0.2c-1-0.2-2-0.3-3-0.5h-0.1C-95.3,158.7-95.3,158.3-95.2,157.9z M-95,157.5
		c0.1-0.3,0.3-0.6,0.5-0.9c1.1,0.8,2.5,0.6,3.8,0.9c0.2,0.1,0.7,0.2,0.9,0.4c0,0.1,0,0.2,0,0.3c-0.1,0-0.3,0-0.6,0
		c-0.6,0-1.2-0.1-1.8-0.2C-93.1,157.7-94,157.5-95,157.5L-95,157.5z M-94.2,156.2c0.1-0.2,0.3-0.4,0.4-0.5c0-0.1,0.1-0.1,0.1-0.2
		c0.6,0.3,1.2,0.6,1.8,0.8c0.5,0.2,1,0.3,1.5,0.4c0.6,0.1,0.7,0.2,0.2,0.1C-91.5,156.8-92.8,156.4-94.2,156.2z M-93.5,155.2
		c0.1-0.2,0.2-0.3,0.4-0.5c0.8,0.2,1.5,0.5,2.2,0.8c0.3,0.1,1.7,0.7,0.4,0.3C-91.5,155.5-92.4,155.3-93.5,155.2z M-92.9,154.4
		c0.2-0.3,0.3-0.5,0.5-0.8c0.6,0.4,1.3,0.5,2,0.8c1.1,0.4-0.2,0.2-0.6,0.2C-91.6,154.5-92.3,154.4-92.9,154.4z M-93.7,150.7
		c-0.2,0-0.3,0.1-0.5,0.2c-1.4-0.5-2.8-0.8-4.1-1.3c-1.3-0.5,0.2,0.1,0.7,0.1c0.4,0.1,0.8,0.1,1.2,0.2c2.5,0.3,5,1.2,7.5,1.4
		c-0.1,0.1-0.1,0.2-0.2,0.3c0,0,0,0.1-0.1,0.1c0,0,0,0-0.1,0c-1-0.1-1.9-0.3-2.9-0.3c-0.1,0-0.1,0-0.1,0.1
		C-92.4,150.9-92.9,150.5-93.7,150.7z M-80.1,155.4c3,1.1,6,2.3,9.2,3.1c0.7,0.2,1.5,0.3,2.1,0.7v0.1c-0.2,0-1.1-0.2-1.1-0.2
		c-0.9-0.3-1.7-0.6-2.5-0.9c-2-0.8-4.3-1-6.4-1.5c-1.9-0.5-3.7-1.2-5.6-1.8c-0.6-0.3-1.3-0.5-2-0.6c0.1-0.1,0.1-0.3,0.2-0.4
		c0-0.1,0.1-0.3,0.1-0.4l0,0C-84.2,154.2-82.2,154.8-80.1,155.4z M-78.6,155.8c0.6,0.2,1.2,0.3,1.8,0.5c2.5,0.7,5.2,1.6,7.8,1.7
		c0,0.3,0,0.6,0,1c-0.9-0.4-1.8-0.5-2.7-0.9c-1.7-0.6-3.4-1.1-5-1.6C-77.4,156.2-78,156-78.6,155.8z M-68.9,157.6
		c-0.8-0.3-1.7-0.4-2.6-0.6c-1.6-0.4-3.1-0.9-4.6-1.5c-2.9-1.1-6.6-1.8-9.2-3.6c2.1,1.4,5.7,2,8.3,2.6c2.8,0.6,5.8,1.1,8.4,2.3
		C-68.7,157-68.9,157.3-68.9,157.6z M-68.7,160.1c-1.3-0.5-2.6-0.7-3.9-1.2c-1.7-0.6-3.3-1.1-5-1.6c-1.9-0.6-3.9-0.9-5.6-1.8
		c2.4,0.7,4.7,1.5,7.2,2c1.5,0.3,2.9,0.6,4.3,1.2c1,0.4,1.9,0.8,2.9,0.7C-68.8,159.7-68.7,159.9-68.7,160.1z M-68.2,161.4
		c-1.3-0.5-2.7-0.7-4-1.2c-1.3-0.5-2.5-1-3.7-1.5c1.3,0.3,2.6,0.7,3.9,1.2c1.2,0.4,2.3,0.8,3.6,0.8
		C-68.4,160.9-68.3,161.2-68.2,161.4z M-67.7,162.7c-2.9-1.4-6.1-2.1-9.2-2.9c-3.5-0.9-7.1-1.8-10.6-2.9c0,0,0,0-0.1,0
		c0-0.2,0.1-0.3,0.1-0.5c3.6,1.2,7.2,2.3,10.8,3.4c1.6,0.5,3.3,0.8,5,1.3c1.2,0.4,2.4,0.7,3.6,0.9
		C-67.9,162.2-67.8,162.4-67.7,162.7z M-67.4,164c-2.8-1.5-5.7-2.5-8.7-3.5c-2.4-0.8-4.8-1.5-7.1-2.3c0.3,0.1,0.6,0.1,0.8,0.2
		c1.7,0.4,3.3,1,4.9,1.4c3.3,0.9,6.7,1.6,9.9,3.1C-67.5,163.3-67.5,163.7-67.4,164z M-85,160.6c2.1,0.6,4.3,1.1,6.4,1.7
		c2.1,0.6,4.1,1.2,6.2,1.8c1.1,0.3,2.1,0.6,3.1,1c0.6,0.2,1.1,0.5,1.7,0.7c-0.1,0.4-0.1,0.7-0.1,1.1c-3.2-1.4-6.4-2.5-9.7-3.5
		c-1.9-0.6-3.8-1.2-5.8-1.8c-1.6-0.5-3.2-0.8-4.7-1.5c0-0.1,0.1-0.2,0.1-0.4C-86.9,160.3-85.9,160.4-85,160.6z M-67.5,165.5
		c-1.3-0.7-2.7-1.2-4.2-1.7c-1.7-0.6-3.3-1.3-5-1.8c-1.8-0.6-3.6-1.1-5.4-1.7c-0.3-0.1-0.6-0.2-0.8-0.3c0.1,0,0.1,0,0.2,0.1
		c1.7,0.5,3.5,0.9,5.3,1.4c3.3,0.9,6.6,2.4,10,3.1C-67.4,164.8-67.4,165.1-67.5,165.5z M-67.5,168.3c-0.9-0.6-1.8-1.1-2.8-1.5
		c0.9,0.3,1.7,0.5,2.7,0.6c0,0.1,0,0.1,0,0.2C-67.6,167.8-67.6,168-67.5,168.3z M-66.8,169.9c-2.6-1.5-5.5-2.6-8.4-3.7
		c1.3,0.4,2.7,0.8,4,1.3s2.6,1.2,4,1.6C-67.1,169.3-67,169.6-66.8,169.9C-66.9,169.8-66.8,169.9-66.8,169.9z M-66.4,170.8
		c-1.3-0.6-2.8-0.8-4.2-1.4c-1.9-0.9-3.8-1.6-5.7-2.3c-1-0.3-2.1-0.7-3.1-1.1c0.6,0.2,1.2,0.4,1.9,0.5c2.4,0.7,4.9,1.3,7.2,2.4
		c1.3,0.6,2.5,1.3,3.9,1.5C-66.5,170.6-66.4,170.7-66.4,170.8z M-65.6,172.7c-1.4-0.7-2.9-1.2-4.4-1.8c-2.2-0.9-4.4-1.8-6.6-2.6
		c-0.2-0.1-0.3-0.1-0.5-0.2c2,0.6,4.1,1.2,6.1,1.9c1.6,0.5,3.2,1.1,4.9,1.4C-65.9,171.9-65.8,172.3-65.6,172.7z M-81.8,166.8
		c1.3,0.5,2.7,1,4,1.5c2.2,0.7,4.4,1.6,6.6,2.5c1.9,0.7,3.9,1.2,5.6,2.3l0,0c-1.8-1.1-3.9-1.6-5.8-2.2c-2.1-0.7-4.2-1.4-6.3-2.1
		c-2.3-0.8-4.5-1.4-6.8-2.2c-1.9-0.7-3.7-1.4-5.7-1.9c0-0.2,0-0.4,0.1-0.6c0.6,0.2,1.3,0.4,1.9,0.6c0.1,0,0.3,0.1,0.4,0.1
		c1.1,0.4,2.2,0.8,3.2,1.2C-83.5,166.2-82.7,166.5-81.8,166.8z M-83.9,166.9c0.2,0.1,0.4,0.1,0.6,0.2c-0.1,0-0.2-0.1-0.2-0.1
		c-1.1-0.3-2.2-0.8-3.3-1.2C-85.9,166.1-84.9,166.5-83.9,166.9z M-65.1,174.6c-3.7-2.1-7.9-3.4-11.8-5c-1.5-0.6-2.9-1.2-4.4-1.8
		c1.4,0.5,2.8,0.9,4.2,1.4c2.2,0.8,4.5,1.5,6.8,2.2c1.2,0.4,2.4,0.7,3.5,1.3c0.5,0.2,0.9,0.4,1.4,0.6
		C-65.3,173.7-65.2,174.1-65.1,174.6z M-87.7,166.8c1.1,0.4,2.2,0.7,3.4,1.1c2.3,0.7,4.5,1.7,6.7,2.6c2.2,0.9,4.5,1.8,6.7,2.7
		c2,0.8,4,1.4,6,2.3c0.1,0.4,0.1,0.7,0.2,1.1c-3.7-2.1-7.8-3.6-11.7-5.2c-2.2-0.9-4.4-1.9-6.6-2.7c-2.1-0.8-4.4-1.3-6.3-2.5
		C-90.6,165.2-88.1,166.6-87.7,166.8z M-64.6,178.3c-1.6-1-3.6-1.4-5.4-2.2c-2.2-0.9-4.4-1.9-6.5-2.9c-0.7-0.4-1.5-0.7-2.2-1.1
		c0.6,0.2,1.2,0.4,1.8,0.6c2.3,0.8,4.7,1.5,7,2.4c1.7,0.7,3.4,1.5,5.1,1.9C-64.6,177.3-64.6,177.8-64.6,178.3z M-65.7,177.9h-0.1
		C-65.7,177.9-65.7,177.9-65.7,177.9z M-65.1,178.2c-0.1,0-0.1-0.1-0.2-0.1C-65.2,178.1-65.2,178.2-65.1,178.2z M-64.6,178.6
		c0,0.3,0,0.6,0,0.9c-0.5-0.6-1.3-0.9-2-1.2c-1.9-0.8-3.8-1.6-5.7-2.4c-1.3-0.6-2.6-1.1-4-1.6c0.8,0.3,1.6,0.5,2.4,0.8
		C-70.7,176.2-67.6,177.5-64.6,178.6z M-64.7,180.1c-0.1,0.3-0.1,0.6-0.3,0.9c-0.7-0.6-1.6-0.8-2.4-1.2c-1.6-0.7-3.2-1.5-4.8-2.2
		c-1.5-0.6-3.1-1.2-4.6-1.8c-0.3-0.1-0.6-0.2-0.9-0.3c1.4,0.4,2.8,0.9,4.3,1.4c1.7,0.5,3.5,0.9,5.1,1.6
		C-67.1,179-65.9,179.6-64.7,180.1z M-78.6,176.8c0.9,0.3,1.9,0.4,2.7,0.7c1.4,0.5,2.8,0.9,4.1,1.5c2.2,1,4.3,2,6.7,2.3
		c-0.3,0.6-0.9,1-1.7,1.1c-1.9,0.3-3.8-0.7-5.3-1.9c0.2,0.1,0.5,0.2,0.7,0.3c0.4,0.1,0.8,0.3,1.2,0.4l1.3,0.7c-0.2,0-0.2,0.2,0,0.2
		c0.1,0,0.1,0,0.2,0c0.1,0,0.2-0.1,0.1-0.2c-0.5-0.6-1.2-0.8-1.9-1.1c-0.6-0.2-1.3-0.4-1.9-0.7c-0.6-0.4,1,0.3,0.9,0.2
		c1.2,0.5,2.3,0.9,3.5,1.4c0.6,0.2,1.2,0.5,1.8,0.3c0.1,0,0.1-0.1,0.1-0.2c-0.7-0.6-1.6-0.8-2.5-1.2c-1-0.5-2-1-3.1-1.4
		c-1.4-0.6-2.8-1.1-4.3-1.6c-0.6-0.2-1.4-0.4-2.1-0.6C-78.3,177-78.5,176.9-78.6,176.8z M-76.7,177.8c0.4,0.1,0.8,0.2,1.2,0.4
		c2,0.7,3.9,1.5,5.7,2.3c0.7,0.3,1.5,0.7,2.2,1c1.4,0.5,0.4,0.5,0,0.3c-0.4-0.1-0.7-0.3-1.1-0.5c-1.4-0.6-2.8-1.2-4.3-1.5
		c-0.1,0-0.1,0-0.2,0.1C-74.3,179.1-75.5,178.4-76.7,177.8z M-82.2,174c2.5,1.4,5.5,2.1,8.1,3.2c2.6,1,5.1,2.4,7.7,3.4
		c0.3,0.1,0.7,0.3,1,0.4c-0.4,0.1-0.7,0.1-1.1,0c-0.7-0.2-1.5-0.4-2.2-0.7c-1.2-0.5-2.4-1.1-3.6-1.6c-2.5-1.1-5.1-1.8-7.8-2.5
		C-81,175.6-81.8,175-82.2,174z M-82.5,172.4c0-0.2,0-0.3,0-0.4c0.5,0.3,1.1,0.5,1.6,0.8c0.2,0.1,0.5,0.2,0.8,0.3
		c1.5,0.6,2.9,1.2,4.4,1.8c3.3,1.3,6.7,2.6,9.9,4.2c0.3,0.1,0.7,0.7,0.9,0.7c-0.5-0.2-1-0.4-1.4-0.6c-0.5-0.2-1-0.5-1.5-0.7
		c-1.6-0.7-3.4-1.1-5.1-1.7c-3.1-0.9-6.4-1.7-9.3-3.1c-0.1,0-0.1,0-0.2,0.1C-82.4,173.4-82.5,172.9-82.5,172.4z M-82.8,170.7h0.1
		c0.9,0.3,1.7,0.5,2.6,0.8c0.5,0.2,0.9,0.5,1.4,0.7c2.9,1.5,6,2.9,9,4.2c-3.2-1.2-6.5-2.1-9.7-3.3c-0.8-0.3-1.5-0.7-2.3-1
		c-0.2-0.2-0.3-0.3-0.4-0.2c-0.1-0.1-0.3-0.1-0.4-0.2C-82.6,171.3-82.6,171-82.8,170.7z M-83.2,170c0.7,0.4,1.5,0.7,2.2,1.1
		c-0.7-0.2-1.3-0.4-1.9-0.7C-83,170.3-83.1,170.2-83.2,170z M-89.5,166.2c1.3,0.8,2.8,1.3,4.2,1.8c2.2,0.8,4.4,1.7,6.5,2.6
		c4.5,1.9,9.1,3.4,13.4,5.8c0.2,0.1,0.5,0.2,0.6,0.2c-0.1,0-0.2-0.1-0.5-0.1c-0.5-0.2-1-0.3-1.5-0.5c-1-0.4-2-0.9-3-1.2
		c-2.3-0.8-4.6-1.6-7-2.4c-0.9-0.3-1.8-0.6-2.8-0.8c-1.1-0.6-2.2-1.2-3.3-1.7c-0.3-0.1-0.6-0.3-0.8-0.4c-0.1,0-0.1-0.1-0.2-0.1
		C-85.2,168.2-88.2,167.7-89.5,166.2z M-90.1,164.9c0.1,0,0.1,0,0.2,0.1c0,0.1,0.1,0.1,0.3,0.1c1.8,0.7,3.5,1.5,5.4,2.1
		c2.3,0.7,4.5,1.5,6.7,2.4c4.2,1.7,8.6,3.1,12.5,5.3c0,0.1,0,0.1,0,0.2c-1.7-0.8-3.5-1.4-5.3-2c-2.2-0.8-4.5-1.7-6.7-2.6
		c-2.2-0.9-4.4-1.9-6.7-2.6c-2.1-0.6-4.1-1.5-6.2-2.2C-90,165.3-90,165.1-90.1,164.9z M-89.9,163.7c0.1-0.2,0.2-0.4,0.3-0.6
		c1.8,0.8,3.6,1.2,5.5,1.6c0.2,0,0.3,0.1,0.5,0.1c0.2,0.1,0.3,0.1,0.5,0.2c2.4,0.9,4.9,1.7,7.3,2.5c2.1,0.7,4,1.8,6.1,2.5
		c1.1,0.3,2.4,0.4,3.4,1c-0.3,0.2-0.5,0.2-0.8,0c-0.2,0-0.3-0.1-0.5-0.1c-0.5-0.2-1-0.3-1.5-0.5c-2.3-0.8-4.7-1.6-7.1-2.3
		c-1.3-0.4-2.7-0.8-4-1.2c-2.9-1.1-5.8-2.3-8.8-3.1c-0.1,0-0.1,0-0.2,0C-89.5,163.8-89.7,163.8-89.9,163.7z M-88.6,163.3
		c-1.2-0.5,0.4,0.1,0.6,0.1c0.5,0.1,1.1,0.3,1.6,0.5c0.3,0.1,0.6,0.2,0.9,0.3C-86.6,164-87.6,163.7-88.6,163.3z M-89.5,162.9
		c0.1-0.2,0.3-0.4,0.4-0.6c2.6,1.2,5.4,1.7,8.2,2.4c0.9,0.2,1.7,0.5,2.5,0.8c2.4,0.8,4.8,1.8,7.1,2.7c1.2,0.5,2.4,1,3.6,1.6
		c0,0,0.6,0.3,0.9,0.5c0,0,0,0.1,0.1,0.1c-0.1,0-0.2,0-0.3-0.1c-0.7-0.2-1.3-0.4-1.9-0.7c-4.2-2.1-8.7-3.3-13.2-4.5
		c-0.1,0-0.2-0.1-0.3-0.1C-84.7,164.1-87.1,163.3-89.5,162.9z M-88.5,162.4c0.6,0.1,1.2,0.3,1.8,0.5
		C-87.3,162.7-87.9,162.5-88.5,162.4z M-88.9,162c0.2-0.3,0.4-0.5,0.6-0.8c4.1,1.9,8.7,2.7,13,4.1c2.3,0.7,4.6,1.5,6.7,2.6
		c0.4,0.2,0.8,0.5,1.2,0.7c0,0.1,0.1,0.2,0.1,0.3c-0.2-0.1-0.4-0.2-0.5-0.2c-1-0.4-1.9-0.8-2.9-1.2c-4-1.5-8.2-2.7-12.4-3.7
		c-0.1,0-0.3-0.1-0.4-0.1C-85.3,163.1-87,162.4-88.9,162z M-84.3,162.5c0.3,0.1,0.6,0.2,0.9,0.3c1.2,0.3,2.4,0.7,3.6,1
		C-81.3,163.4-82.8,163-84.3,162.5z M-88.2,161c0.1-0.2,0.2-0.4,0.3-0.5c1.4,0.7,2.8,1,4.3,1.4c1.7,0.5,3.4,1.1,5.1,1.6
		c3.6,1.1,7.2,2.2,10.7,3.7c-0.7-0.3-1.6-0.4-2.4-0.7c-0.8-0.3-1.7-0.6-2.5-0.9c-1.7-0.6-3.5-1.1-5.2-1.6
		C-81.4,163.1-84.9,162.2-88.2,161z M-87.7,159.4c0-0.4,0-0.9,0-1.3l0,0c1.7,0.6,3.3,1.5,5,2.1c1.8,0.6,3.6,1.1,5.4,1.7
		c1.9,0.6,3.7,1.3,5.6,2c1,0.4,2.1,0.7,3.2,1.2c0.2,0.1,0.8,0.4,1.1,0.5l0,0c-0.1-0.1-0.3-0.2-0.8-0.4c-3.2-1.5-6.9-2.3-10.3-3.2
		c-1.9-0.5-3.9-1.1-5.8-1.6c-0.7-0.2-1.4-0.3-2.1-0.5c-0.1,0-0.6-0.2-1-0.3c0.1,0,0.1-0.2,0-0.2C-87.5,159.5-87.6,159.5-87.7,159.4z
		 M-87.7,158c0-0.3,0-0.6,0.1-0.9l0,0c0.2,0.1,0.4,0.1,0.6,0.2c0,0.1,0.2,0.2,0.5,0.2c3.2,1.1,6.5,2.1,9.7,3.1
		c1.7,0.6,3.4,1.1,5.1,1.7c1.1,0.4,2.1,0.9,3.2,1.4c0.3,0.1,1.8,0.7,0.5,0.4c-3.4-0.8-6.6-2.2-9.9-3.1c-1.7-0.5-3.6-0.8-5.3-1.4
		C-84.7,159.1-86.1,158.5-87.7,158C-87.6,157.9-87.7,157.9-87.7,158z M-87.3,156.2c0.1-0.2,0.2-0.5,0.3-0.7c2.6,0.9,5.3,1.7,7.9,2.4
		c1.2,0.4,2.4,0.8,3.5,1.3c2.1,0.9,4.2,1.5,6.3,2.1c0.7,0.2,1,0.3,1.2,0.4c0,0,0,0,0,0.1c-0.2,0-1.2-0.2-1.9-0.4c-1-0.3-2-0.6-3-0.8
		C-77.8,159.3-82.7,157.8-87.3,156.2z M-86.4,155.4c0.3,0.1,0.7,0.2,1.1,0.3c0.2,0.1,0.4,0.2,0.6,0.2
		C-85.3,155.8-85.9,155.6-86.4,155.4z M-86.9,155.3c0.1-0.2,0.2-0.5,0.3-0.7c0.7,0.2,1.5,0.4,2.2,0.6c0.4,0.2,0.8,0.5,1.2,0.6
		c0.8,0.4,1.8,0.7,2.7,0.9c2.5,0.7,4.9,1.4,7.3,2.2c1.1,0.4,2.1,0.7,3.2,1c0.4,0.1,1,0.4,1.4,0.5l0,0c-0.6,0-1.3-0.1-1.9-0.3
		c-2.4-0.7-4.7-1.5-7.1-2.1c-0.2,0-0.3-0.1-0.5-0.1c-1.7-0.5-3.4-0.8-5.1-1.5C-84.4,155.9-85.6,155.3-86.9,155.3z M-86.6,150.5
		c0.9,0.2,1.8,0.5,2.7,0.7c5.3,1.5,10.6,3.4,15.9,4.8c-0.2,0.2-0.4,0.4-0.5,0.6c-2.4-1.1-5.3-1.6-7.9-2.2c-3.2-0.7-6.3-1.6-9.4-2.8
		c-0.1-0.1-0.2,0.1-0.1,0.2c2.5,1.7,5.7,2.4,8.5,3.4c2.6,1,5.5,2.3,8.3,2.5c-3.1-0.2-6.4-1.3-9.3-2.2c-1.1-0.3-2.1-0.6-3.2-0.9
		c-1.5-0.6-3-1.1-4.5-1.4l0,0C-85.9,152.3-85.8,151-86.6,150.5z M-91.9,148.8c-1.2-0.3-2.4-0.7-3.6-1c-0.3-0.1-3.4-0.8-1.7-0.7
		c5.5,0.4,11.1,2.7,16.3,4.5c2.6,0.9,5.3,1.8,8,2.5c1.6,0.4,3.5,0.6,4.8,1.6c-5.3-1.4-10.5-3.3-15.7-4.7
		C-86.5,150.2-89.2,149.6-91.9,148.8z M-93.6,149.8c-0.9-0.3-1.8-0.5-2.6-0.9c-0.5-0.2-1-0.4-1.5-0.6c-0.6-0.3-0.6-0.3,0-0.1
		c1.6,0.4,3.2,1,4.9,1.3c1.5,0.3,3.1,0.6,4.6,1c-0.2,0.1-0.3,0.3-0.4,0.5C-90.3,150.6-92,150.2-93.6,149.8z M-95.1,151.7
		c-0.6-0.3-1.2-0.5-1.9-0.8c-0.3-0.1-3-1-1.4-0.6c1.3,0.3,2.5,0.7,3.8,0.8C-94.7,151.3-94.9,151.5-95.1,151.7z M-95.8,152.8
		c-0.7-0.3-1.3-0.7-2-1c-0.2-0.1-2.1-1.1-1-0.8c1.2,0.3,2.4,0.8,3.6,0.9C-95.5,152.2-95.7,152.5-95.8,152.8z M-96.5,153.9
		c-0.8-0.4-1.5-0.8-2.3-1.2c-0.3-0.2-2-0.7-0.6-0.3c1.1,0.3,2.2,0.6,3.3,0.8c-0.1,0.1-0.1,0.2-0.2,0.3
		C-96.3,153.6-96.4,153.8-96.5,153.9z M-97.2,155.3c-1-0.7-2.1-1.1-3.1-1.7c0.4,0.2,2,0.4,2.5,0.6c0.4,0.1,0.7,0.1,1.1,0.2
		C-96.9,154.6-97.1,155-97.2,155.3z M-97.9,156.4c-0.5-0.3-1.1-0.6-1.5-0.9c-0.3-0.2-1.9-1.1-0.7-0.6c0.9,0.3,1.8,0.8,2.8,0.7
		C-97.6,155.9-97.7,156.1-97.9,156.4z M-98.5,157.1c-0.4-0.2-0.7-0.4-1.1-0.6c-0.1-0.1-1.4-0.5-0.3-0.2c0.6,0.2,1.2,0.3,1.9,0.4l0,0
		C-98.2,156.8-98.4,157-98.5,157.1L-98.5,157.1z M-100.1,157.4c-0.4-0.1-0.4-0.2,0-0.4c0.5,0.1,0.9,0.2,1.4,0.3
		c-0.2,0.2-0.4,0.4-0.6,0.5C-99.5,157.7-99.8,157.6-100.1,157.4z M-99.5,158.1c-0.2,0.2-0.4,0.4-0.6,0.5c-0.2-0.2-0.5-0.5-0.7-0.6
		C-100.7,158-100,158.1-99.5,158.1z M-100.8,159.6c-0.4-0.7-0.1-0.7,0.5-0.6l-0.1,0.1C-100.6,159.2-100.7,159.4-100.8,159.6z
		 M-101,159.9c-0.1,0.2-0.3,0.4-0.4,0.6c-0.1-0.3-0.2-0.8-0.2-0.7C-101.3,159.8-101.2,159.9-101,159.9z M-101.6,160.8
		c-0.1,0.2-0.1,0.3-0.2,0.5c0-0.1,0-0.3,0-0.4c0-0.2,0-0.4,0-0.6C-101.7,160.5-101.6,160.7-101.6,160.8z M-101.7,159.5
		c0.1-1.7,0.3-3.3,0.7-4.9l0,0c0.7,0.7,1.5,1.2,2.3,1.6c1.1,0.6-0.4,0.1-0.8,0c-0.4-0.1-0.8-0.2-1.2-0.3c-0.1,0-0.2,0.1-0.1,0.2
		c0.6,0.4,1.3,0.6,1.8,1c-0.5-0.3-1.4-0.3-2-0.3c-0.1,0-0.2,0.1-0.1,0.2c0.3,0.4,0.6,0.6,1,0.8h-0.1c-0.6-0.1-0.4-0.1-1.1-0.2
		c-0.1,0-0.1,0.1-0.1,0.2c0.1,0.4,0.3,0.6,0.7,0.9c0.6,0.5-0.6,0-0.7,0s-0.2,0.1-0.1,0.1C-101.4,159.2-101,159.6-101.7,159.5z
		 M-101,154.4c0.1-0.3,0.1-0.6,0.2-0.9l0,0c0.5,0.3,1.1,0.6,1.6,0.9c0.4,0.2,1.3,0.9,1.6,1C-98.8,155.3-99.8,154.7-101,154.4
		C-101,154.4-101,154.4-101,154.4z M-100.8,153.3c0.1-0.4,0.2-0.8,0.3-1.2c0.7,0.4,1.4,0.7,2.1,1.1c0.4,0.2,1.2,0.8,1.6,0.8
		C-98.1,153.9-99.4,153.3-100.8,153.3L-100.8,153.3z M-100.4,151.9c0.3-0.9,0.6-1.8,0.9-2.6c0,0,0,0,0.1,0.1
		c1.6,0.7,3.2,1.1,4.8,1.6c-1.5-0.5-3.2-0.9-4.8-1.1c-0.1,0-0.2,0.1-0.1,0.2c0.6,0.4,1.2,0.6,1.9,0.9c0.2,0.1,2.8,0.9,1.5,0.6
		c-1.3-0.3-2.5-0.9-3.8-1c-0.1,0-0.2,0.2-0.1,0.2c1.2,0.8,2.5,1.4,3.8,2.1c-0.5-0.2-1.6-0.3-2.2-0.5
		C-98.9,152.3-99.6,152.1-100.4,151.9z M-99.4,149.1c0.5-1.2,1.1-2.4,1.7-3.5c2.4,1.1,5,1.7,7.6,2.4c2.8,0.8,5.5,1.8,8.2,2.7
		c2.8,0.9,5.7,1.9,8.6,2.7c1.5,0.4,3,0.7,4.5,1.2c0.7,0.2,1.4,0.4,2.1,0.5c-0.4,0.2-0.7,0.4-1,0.6c-1.3-1.2-3.2-1.4-4.9-1.8
		c-3-0.7-6-1.8-8.9-2.8c-3.1-1.1-6.2-2.1-9.3-2.9c-2.4-0.7-4.9-1.4-7.5-1.3c-0.1,0-0.2,0.2-0.1,0.2c1.9,1,4.3,1.4,6.4,2
		c1.5,0.4,2.9,0.8,4.4,1.1c-0.1,0-0.3,0.1-0.4,0.1c-2-0.5-4-0.7-5.9-1.3c-1.6-0.5-3.2-1-4.9-1.2c-0.1,0-0.2,0.2-0.1,0.2
		c2.7,1.4,5.7,2.2,8.6,2.8c-0.3-0.1-0.6-0.1-1-0.2c-1-0.2-1.9-0.5-2.9-0.7C-95.8,149.6-97.6,149.5-99.4,149.1
		C-99.3,149.1-99.4,149.1-99.4,149.1z M-59.3,145.7c-0.1,0-0.2,0-0.3-0.1c-1.3-0.3-2.5-0.9-3.7-1.1c-1.6-0.3-3.2-0.6-4.7-1
		c-2.8-0.6-5.6-1.5-8.4-1.9c0.6-0.6,1.2-1.2,1.8-1.7c2.3,1,4.9,1.3,7.4,2c1.3,0.4,2.6,0.7,3.9,1.2c0.7,0.3,1.5,0.5,2.2,0.8
		c0,0,0.2,0,0.4,0.1c0.1,0.1,0.1,0.1,0.2,0.2c-1.1-0.2-2.1-0.7-3.2-0.9c-1.4-0.3-2.8-0.7-4.1-1c-2.5-0.6-5-1.3-7.5-1.7
		c-0.1,0-0.2,0.2-0.1,0.2c2.6,1.3,5.4,1.9,8.2,2.4c1.6,0.3,3.2,0.6,4.7,1.1c0.7,0.2,1.4,0.4,2,0.7c0.1,0,0.5,0.2,0.9,0.4
		C-59.5,145.5-59.4,145.6-59.3,145.7z M-74.4,139.8c0.4-0.3,0.8-0.5,1.3-0.7c0,0.1,0,0.2,0.1,0.2c2,0.8,4.1,1,6.1,1.6
		c0.9,0.3,1.8,0.6,2.7,1c0,0,3.3,1.1,1.6,0.8c-2.1-0.4-4.1-1.2-6.1-1.7C-70.6,140.4-72.5,140.2-74.4,139.8z M-73,139
		c0.7-0.3,1.5-0.4,2.4-0.3c1.7,0.2,3.4,0.7,5,1.5C-68.1,139.8-70.6,139.2-73,139L-73,139z M-62.6,142.3c-1-0.5-2.1-0.9-3.2-1.3
		c-1.7-0.5-3.4-0.8-5-1.2c-0.6-0.1-1.1-0.3-1.6-0.5c0.3,0.1,0.7,0.2,1,0.2c0.7,0.2,1.5,0.3,2.2,0.4c1.5,0.3,2.9,0.5,4.4,0.8
		C-64.1,141.2-63.3,141.7-62.6,142.3z M-61.1,143.6c-1.8-0.6-3.7-1.3-5.6-1.8c-2-0.5-4-0.9-5.9-1.4c0.3,0.1,0.6,0.1,0.8,0.2
		c1.2,0.2,2.3,0.4,3.5,0.7c2.2,0.6,4.3,1.4,6.5,1.7C-61.5,143.2-61.3,143.4-61.1,143.6z M-59.8,145.1c-4.8-2.1-10.3-1.9-15.1-4.2
		c1.1,0.5,2.8,0.6,4,0.9c1.5,0.4,3.1,0.8,4.7,1.1c1.4,0.3,2.8,0.7,4.2,1.1c0.6,0.2,1.1,0.4,1.7,0.4c0.1,0.1,0.2,0.2,0.3,0.3
		C-59.9,144.9-59.9,145-59.8,145.1z M-58.7,146.8c-3.1-0.5-6.1-1.4-9.1-2.2c-3.1-0.8-6.3-1.5-9.4-2.1l0,0c0.2-0.2,0.4-0.4,0.6-0.6
		c3.7,0.5,7.3,1.7,10.9,2.4c1.5,0.3,2.9,0.6,4.3,1.1c0.7,0.2,1.5,0.5,2.2,0.5C-59,146.2-58.8,146.5-58.7,146.8z M-81.6,137.5
		c-0.8-0.6-1.6-1.2-2.4-1.8c-0.1-0.1-0.3-0.2-0.4-0.3c1,0.6,2,1.2,3,1.8l0,0C-81.4,137.3-81.5,137.4-81.6,137.5L-81.6,137.5z
		 M-81.7,137.8c-0.1,0.2-0.2,0.3-0.2,0.5c-0.7-0.7-1.7-1.3-2.6-1.9C-83.6,136.8-82.7,137.3-81.7,137.8L-81.7,137.8z M-82,138.5
		c-0.1,0.3-0.3,0.6-0.4,0.9c-0.8-0.8-1.7-1.4-2.6-2c-0.8-0.6-1.8-1-2.5-1.6c-0.6-0.7,1.1,0.3,1.3,0.4c0.5,0.2,1,0.5,1.5,0.8
		C-83.8,137.4-82.9,137.9-82,138.5z M-82.5,139.6c-0.1,0.2-0.2,0.3-0.3,0.5c0,0.1-0.1,0.2-0.1,0.2c-0.5-0.3-1-0.6-1.6-0.9
		c-0.9-0.5-1.7-1.1-2.5-1.7c-0.6-0.4-1.3-1.1-1.8-1.3c0.7,0.3,1.4,0.6,2.1,1C-85.3,138.1-83.9,138.8-82.5,139.6L-82.5,139.6z
		 M-83.1,140.5c-0.7,0.8-1.2,0-2-0.4c-0.2-0.1-0.4-0.1-0.6-0.1c-0.2-0.2-0.5-0.3-0.8-0.5c-0.4-0.3-0.8-0.6-1.2-0.9s-0.9-0.7-1.3-1
		c-0.6-0.4-0.6-0.5,0-0.2c0.7,0.3,1.3,0.6,2,0.9c0.8,0.4,1.6,0.8,2.4,1.2c0.3,0.2,0.7,0.4,1,0.6c0.2,0.2,0.3,0.3,0.4,0.2
		C-83.2,140.4-83.1,140.4-83.1,140.5z M-86.1,139.9c-0.4,0.1-0.9,0.2-1.5,0.5c-1-0.7-2-1.3-2.8-2.1c-1.2-1.3,1.2,0.1,1.5,0.2
		c0.6,0.3,1.2,0.5,1.8,0.8c0.3,0.1,0.6,0.3,0.9,0.4c0,0,0.1,0,0.1,0.1C-86.2,139.9-86.2,139.9-86.1,139.9z M-88.1,140.6
		c-0.3,0.1-0.5,0.3-0.7,0.4c-0.6-0.4-1.2-0.7-1.7-1.1c-0.6-0.4-1.6-1.3-0.3-0.6C-89.9,139.7-89,140.2-88.1,140.6z M-89.9,141.8
		c-0.9-0.7-1.9-1.2-2.6-1.9c0.6,0.7,2.3,1.1,3.3,1.4C-89.4,141.4-89.6,141.6-89.9,141.8z M-92.5,142.2c0.7,0.2,1.3,0.4,2,0.6
		c0,0.1,0,0.2-0.1,0.3C-91.2,142.8-91.9,142.5-92.5,142.2z M-88.1,144.8c-0.2,0-0.4,0-0.6,0c0.1,0,0.3-0.1,0.4-0.2
		C-88.3,144.7-88.2,144.7-88.1,144.8z M-87.8,144.3c0.1-0.1,0.1-0.1,0.2-0.2C-87.5,144.4-87.6,144.4-87.8,144.3z M-86.9,143.6
		c0.6,0.6,0,0.3-0.4,0.2c0.1-0.1,0.3-0.3,0.4-0.4C-86.9,143.5-86.9,143.6-86.9,143.6z M-86.8,143.4L-86.8,143.4
		c0.3-0.2,0.5-0.3,0.7-0.4c0,0.2,0.1,0.4,0.1,0.6C-86.2,143.6-86.5,143.5-86.8,143.4L-86.8,143.4z M-85.9,143.9c0,0-0.1,0.1-0.2,0.1
		l0,0C-86.6,143.6-86.3,143.7-85.9,143.9L-85.9,143.9z M-86.4,144.2c-0.2,0.1-0.4,0.2-0.5,0.3H-87l0,0
		C-87.3,144.1-86.7,144.1-86.4,144.2z M-87.3,144.6c-0.2,0.1-0.3,0.2-0.5,0.2C-88.2,144.3-87.8,144.5-87.3,144.6z M-88.2,145.1
		c-0.3,0.2-0.5,0.5-0.7,0.9c-1-0.6-2.1-1.1-3.2-1.6c-1-0.4-2.2-1.3-3.2-1.6C-92.9,143.4-90.6,144.8-88.2,145.1z M-89.1,146.8
		L-89.1,146.8c-0.2,0-0.3,0-0.5-0.1c-1.4-0.5-2.8-1.2-4.1-1.8c-0.6-0.3-1.2-0.9-1.8-1c0.7,0.2,1.4,0.5,2.1,0.7
		c1.4,0.6,2.8,1.2,4.3,1.7C-89,146.4-89,146.6-89.1,146.8z M-86,148c0.5,0.1,1,0.3,1.5,0.5c0.8,0.3,1.6,0.7,2.4,0.9
		c1.2,0.4,2.4,0.8,3.7,1.2c-2.7-0.8-5.3-1.5-7.9-2.6c0.1,0,0.1-0.1,0.2-0.1C-86.1,148-86,148-86,148z M-85.9,147.8
		c0.3-0.1,0.5-0.3,0.8-0.4l0,0c3.8,1.5,7.6,2.7,11.5,3.7c1.7,0.6,3.4,1.3,5.1,1.9c1.1,0.4,2.4,0.7,3.4,1.2c-0.6-0.4-2.1-0.6-2.9-0.8
		c-2.4-0.7-4.7-1.4-7.1-2.1c-2.3-0.7-4.7-1.4-6.9-2.3C-83.4,148.7-84.6,148.1-85.9,147.8z M-81.2,148.7c-1.1-0.4-2.2-0.8-3.3-1.2
		c1,0.4,2.1,0.6,3.1,1c1.3,0.5,2.7,1,4,1.4C-78.6,149.5-79.9,149.1-81.2,148.7z M-84.7,147.2c0.3-0.1,0.7-0.3,1-0.4
		c0.3,0,0.6,0.1,1,0.1c0.1,0,0.1,0,0.2,0c0.1,0,0.2,0,0.3,0c0.1,0,0.2,0.1,0.3,0.1c0.9,0.3,1.9,0.7,2.8,1c4.5,1.7,9.1,3.5,13.6,5.1
		c0.5,0.2,0.9,0.3,1.4,0.4c0,0,1.4,0.5,0.8,0.3c-1.1-0.3-2.3-0.7-3.4-1c-2.1-0.7-4.3-1.3-6.5-1.9c-0.2-0.1-0.4-0.1-0.6-0.2
		c-2-0.7-4-1.2-6-2C-81.4,148.2-83,147.5-84.7,147.2z M-83.2,146.6c0.5-0.2,0.9-0.4,1.4-0.6c3.1,1.6,6.5,2.8,9.8,3.9
		c0.9,0.3,1.8,0.6,2.6,0.9c-1.9-0.6-3.8-1.2-5.7-1.8c-2.2-0.8-4.5-1.7-6.8-2.1c-0.3-0.1-0.6-0.1-0.9-0.2
		C-83,146.6-83.1,146.6-83.2,146.6z M-81.5,145.8c0.5-0.3,1-0.5,1.5-0.8c3.8,1.4,7.5,3,11.3,4.4c1.8,0.7,3.7,1.3,5.6,1.9
		c0.9,0.3,1.8,0.6,2.7,1c1.9,0.8,0.8,0.3,0.1,0.1c-1.7-0.6-3.4-1.3-5.1-1.8c-1.9-0.5-3.9-1.1-5.8-1.7
		C-74.7,147.8-78.3,147.1-81.5,145.8z M-79.8,144.8c0.1,0,0.2-0.1,0.2-0.1c0.2-0.1,0.4-0.3,0.6-0.4c0,0,0,0.1,0.1,0.1
		c3.3,1.6,6.8,2.6,10.3,3.7c1.8,0.6,3.5,1.3,5.3,1.9c0.9,0.3,1.8,0.5,2.6,0.7c0.4,0.1,3.3,1,1.3,0.6c-3.4-0.8-6.8-2.3-10.2-3.3
		C-72.9,146.9-76.3,145.9-79.8,144.8z M-78.8,144.1c0.5-0.4,1-1,1.5-1.5c0,0,0,0.1,0.1,0.1c1.5,0.6,3,0.9,4.6,1.3
		c1.8,0.5,3.5,1.1,5.2,1.7c3,1.1,6.7,1.5,9.5,3.1l0,0c-1.4-0.7-3.4-1-4.9-1.4c-1.8-0.5-3.7-1-5.5-1.6c-3.2-1-6.3-2.1-9.6-2.6
		c-0.1,0-0.2,0.2-0.1,0.2c3.2,1.4,6.6,2.4,9.9,3.5c0.4,0.1,0.8,0.3,1.2,0.4c-0.5-0.2-1.1-0.3-1.6-0.5
		C-71.9,146-75.3,144.7-78.8,144.1L-78.8,144.1z M-57.9,150L-57.9,150c-0.1-0.1-0.2-0.2-0.5-0.1c-3.1-0.9-6-2-9.1-2.9
		c-3.3-1-6.7-2-9.9-3.4c1.1,0.5,3,0.7,4.4,1.1c1.7,0.5,3.5,1.1,5.2,1.6c3.3,1,6.6,1.8,9.8,2.7C-57.9,149.3-57.9,149.7-57.9,150z
		 M-58,148.5c-2.4-1.2-5-1.6-7.6-2.4c-1.8-0.6-3.6-1.3-5.4-1.8c-1.3-0.4-2.6-0.7-3.9-1c0.6,0.1,1.2,0.3,1.8,0.4
		c1.8,0.4,3.5,0.8,5.2,1.2c3.1,0.8,6.1,1.7,9.3,2.2C-58.3,147.5-58.1,148-58,148.5z M-57.9,150.3c0,0.2-0.1,0.5-0.2,0.7
		c0,0.1-0.1,0.2-0.1,0.2c-1.4-0.6-3-1-4.5-1.4c-1.6-0.5-3.2-1.1-4.8-1.7c-3.6-1.2-7.4-2.2-10.8-3.8c1.4,0.7,3.5,1,5.1,1.5
		c1.7,0.5,3.4,1,5.2,1.5C-64.6,148.3-61.3,149.5-57.9,150.3z M-58.3,151.5c-0.2,0.4-0.5,0.8-0.8,1.1c-3.5-1.5-7.2-2.5-10.7-3.9
		c-1.9-0.8-3.8-1.5-5.8-2.3c-0.2-0.1-0.4-0.2-0.6-0.2c3,0.9,6,1.7,9,2.7c1.7,0.6,3.5,1.1,5.2,1.7C-60.8,151-59.6,151.5-58.3,151.5z
		 M-59.5,152.8c-0.4,0.3-0.9,0.5-1.4,0.7c-0.2-0.1-0.3-0.1-0.5-0.2c0-0.1-0.2-0.2-0.5-0.2c-0.1,0-0.2-0.1-0.3-0.1
		c-0.3-0.1-0.5-0.2-0.8-0.3c-0.6-0.2-1.1-0.4-1.7-0.6c-2.6-1-5.2-1.8-7.8-2.7c-2.4-0.8-4.9-1.7-7.2-2.7c0.4,0.1,0.7,0.2,1.1,0.3
		c1.3,0.3,2.6,0.6,3.9,1.1c2.8,0.9,5.7,1.8,8.6,2.6C-64,151.2-61.8,152.3-59.5,152.8z M-61.2,153.6c-0.4,0.1-0.9,0.2-1.3,0.3
		c-1.5-0.7-3.1-1-4.5-1.6c-2-0.8-4-1.4-6.1-2.1c-2-0.7-4-1.5-6-2.3c-0.3-0.1-0.6-0.2-0.9-0.3c1.8,0.5,3.6,1.2,5.4,1.8
		c2.9,1,5.8,1.8,8.7,2.7c0.8,0.3,1.6,0.5,2.4,0.8C-62.8,153.1-62,153.4-61.2,153.6z M-63.6,154.2c-0.3,0.1-0.7,0.1-1,0.2
		c-0.9-0.7-2.3-1-3.3-1.3c-0.9-0.3-1.9-0.7-2.8-1.1c1.1,0.3,2.2,0.7,3.3,1C-66.2,153.4-64.9,153.9-63.6,154.2z M-65.2,154.6
		c-0.2,0.1-0.4,0.1-0.7,0.2c-0.8-0.6-1.8-0.7-2.7-1c-1.5-0.5-3-0.9-4.5-1.4C-70.5,153.1-67.8,153.9-65.2,154.6z M-97.6,145.4
		c0.2-0.3,0.3-0.5,0.5-0.8c2.8,1,5.7,2.7,8.7,3.3c0.3,0.2,0.6,0.2,0.9,0.3c0.1,0.1,0.3,0.2,0.6,0.1c0.1,0,0.1-0.1,0.2-0.1
		c1.8,0.8,3.7,1.6,5.6,2.1c2.2,0.6,4.4,1.2,6.6,1.9c2.1,0.7,4.2,1.4,6.4,2c0.4,0.1,1.7,0.6,1.8,0.8h-0.1c-0.1,0-0.4-0.1-0.8-0.2
		c-1-0.3-2-0.7-3-0.9c-4.7-1-9.3-2.6-13.8-4.1C-88.5,148.2-93.2,147.3-97.6,145.4z M-96.9,144.4c0.4-0.6,0.8-1.2,1.2-1.7l0,0
		c2,1.4,4.3,2,6.4,3.3c-1.9-1.1-4.4-1.9-6.5-2.5c-0.1,0-0.2,0.1-0.1,0.2c2,1.8,4.6,2.4,7,3.4c0,0.2,0.1,0.3,0.2,0.5
		c-0.3-0.1-0.5-0.1-0.6-0.2c-0.9-0.3-1.7-0.7-2.5-1C-93.6,145.7-95.3,145-96.9,144.4z M-95.7,142.5c0.2-0.2,0.3-0.4,0.5-0.7
		c0,0.1,0,0.1,0.1,0.1c1.5,0.5,3,1.4,4.6,1.7c0,0.1,0,0.1,0.1,0.2c0.1,0.2,0.2,0.3,0.3,0.5c-0.3-0.1-0.7-0.3-1-0.4
		C-92.6,143.4-94.1,142.9-95.7,142.5z M-95.1,141.7c0.1-0.1,0.2-0.3,0.3-0.4c1.4,0.7,2.8,1.4,4.2,2.1l0,0
		C-92.1,143.1-93.5,142.2-95.1,141.7L-95.1,141.7z M-94.6,141.1c0.2-0.2,0.4-0.5,0.6-0.7l0,0c1.3,0.5,2.5,1.2,3.9,1.7
		c-0.1,0.2-0.2,0.3-0.3,0.5C-91.8,142.2-93.2,141.7-94.6,141.1z M-93.9,140.2c0.5-0.6,1-1.1,1.5-1.6c0.8,1,1.8,1.5,2.9,2.2
		c0.7,0.5,0.1,0.1-0.2,0c-0.5-0.2-1-0.4-1.5-0.6s-1.1-0.5-1.6-0.7c-0.1,0-0.2,0.1-0.1,0.2c0.7,0.8,2.1,1.9,3,2.2
		C-91.3,141.4-92.6,140.8-93.9,140.2z M-92.2,138.4c0.3-0.3,0.6-0.6,0.9-0.8c0.7,1.2,1.9,1.9,3,2.6c-0.5-0.2-0.9-0.5-1.4-0.7
		C-90.5,139.1-91.3,138.7-92.2,138.4z M-91.1,137.4c0.4-0.3,0.8-0.7,1.1-1c0.2-0.2,0.4-0.3,0.6-0.5v0.1c0.9,0.8,1.8,1.5,2.8,2.1
		c-1.1-0.5-2.2-1-3.3-1.5c-0.1,0-0.2,0.1-0.1,0.2c0.7,0.6,1.3,1.2,2.1,1.7C-89,138.2-90.1,137.8-91.1,137.4z M-89.3,135.9
		c0.4-0.3,0.7-0.5,1.1-0.8v0.1c1.1,1.6,3.3,2.4,4.8,3.6c1,0.9-0.3-0.1-0.6-0.3c-0.5-0.3-1-0.6-1.5-0.8
		C-86.7,137.1-87.9,136.5-89.3,135.9C-89.2,135.9-89.2,135.9-89.3,135.9z M-88.1,135.1c0.2-0.2,0.4-0.3,0.7-0.5c0,0,0,0.1,0.1,0.1
		c0.8,0.5,1.5,1.1,2.2,1.6C-86.1,135.9-87,135.4-88.1,135.1L-88.1,135.1z M-87.3,134.5c1.4-0.9,2.9-1.8,4.4-2.5l0,0
		c-0.1,0-0.1,0.2,0,0.2c0.3,0.1,0.6,0.2,0.9,0.4c-0.4-0.1-0.7-0.3-1.1-0.3c-0.1,0-0.2,0.1-0.1,0.2c0.1,0.1,0.2,0.2,0.3,0.3
		c0,0-0.1,0-0.1,0.1c-0.5-0.1-0.9-0.2-1.4-0.2c-0.1,0-0.2,0.1-0.1,0.2c0.2,0.2,0.5,0.4,0.8,0.5c-0.4-0.1-0.8-0.2-1.2-0.3
		c-0.2,0-0.2,0.2-0.1,0.2c0.4,0.2,0.9,0.3,1.3,0.5c-0.1,0.7,0.3,1.2,1.1,1.2c0.1,0,0.2,0,0.4,0c0.4,0.4,0.8,0.8,1.2,1.1
		c0.1,0.1,0.2,0.1,0.3,0.2l0,0c-0.1,0-0.1-0.1-0.3-0.1c-0.4-0.1-0.8-0.3-1.1-0.5c-1.2-0.7-2.4-1.7-3.7-2.2c-0.1-0.1-0.2,0.2-0.1,0.2
		c1.8,0.7,3.2,2.2,5,2.8c-0.1,0.1-0.2,0.3-0.3,0.4l0,0c-0.9-0.6-1.9-1.1-2.9-1.7c-0.5-0.3-0.9-0.6-1.4-0.9c-0.1-0.1-0.1-0.1-0.2-0.1
		c-0.2-0.1-0.4-0.2-0.6-0.3c-0.1-0.1-0.3,0.1-0.1,0.2c1.4,1,2.9,2.5,4.3,3.1C-83.9,136.5-85.5,135.5-87.3,134.5L-87.3,134.5z
		 M-77.5,135.9c-0.4-0.2-0.7-0.4-1-0.6c-1.4-1.1,0.2-0.4,0.6-0.1c0.1,0,0.1,0.1,0.2,0.1c0.4,0.5,1,0.9,1.6,1.3l0,0
		c0,0-0.1,0-0.1-0.1C-76.7,136.2-77.1,136-77.5,135.9z M-77.5,135.1L-77.5,135.1L-77.5,135.1z M-78.9,134.3c0.4-0.2,0.7-0.4,1-0.6
		v0.1c0.2,0.4,0.5,0.6,0.8,1c0,0.1-0.1,0.1-0.1,0.1c-0.2-0.1-0.5-0.3-0.7-0.4c-0.1-0.1-0.2,0.1-0.2,0.2l0,0
		c-0.1-0.1-0.2-0.1-0.3-0.2C-78.6,134.4-78.8,134.4-78.9,134.3z M-77.9,133.7C-77.9,133.7-77.9,133.6-77.9,133.7
		c0.2-0.2,0.4-0.3,0.6-0.5v0.1C-76.8,133.9-76,134.5-77.9,133.7C-77.8,133.7-77.9,133.7-77.9,133.7z M-77.2,133.1
		c0.1-0.1,0.3-0.2,0.4-0.3c0.4-0.2,0.5,0.1,0.5,0.4C-76.6,133.1-76.9,133.1-77.2,133.1L-77.2,133.1z M-76.3,133.5
		c0,0.1,0,0.3-0.1,0.4C-76.6,133.6-76.7,133.4-76.3,133.5z M-74.7,135.8c0.1,0.2,0.1,0.3,0.3,0.4c0.1,0.1,0.7,0.5,0.8,0.6h-0.1
		c0,0,0,0-0.1,0c-0.9-0.3-1.8-0.8-2.6-1.3c0,0,0.1-0.1,0-0.1c-0.3-0.4-0.6-0.6-0.9-1c-0.4-0.4,0.4-0.1,0.8,0c0,0.2,0,0.4,0.1,0.6
		C-76.1,135.6-75.4,135.8-74.7,135.8z M-73.4,135.7c0.2,0.2,0.4,0.6,0.6,0.7c-0.5-0.2-0.9-0.4-1.4-0.6c0.2,0,0.4-0.1,0.8-0.2
		C-73.4,135.6-73.4,135.6-73.4,135.7z M-73.2,135.5c0.3-0.1,0.6-0.1,0.9-0.1v0.1c0.2,0.4,0.9,0.9,0,0.5
		C-72.7,135.7-72.7,135.7-73.2,135.5z M-72,135.3c0.6,0,1,0,0.9,0.3c0,0.1,0,0.1-0.1,0.1C-71.5,135.6-71.7,135.5-72,135.3z
		 M-71.4,136L-71.4,136C-71.9,135.7-71.9,135.6-71.4,136z M-71.9,136.3c-0.1,0.1-0.2,0.1-0.4,0.1C-72.8,136-72.3,136.1-71.9,136.3z
		 M-72.7,136.6c-0.3,0.1-0.5,0.1-0.7,0.2c-0.3-0.3-0.7-0.8-0.8-0.8C-73.7,136.2-73.2,136.4-72.7,136.6z M-74.2,136.9
		c-0.3,0.1-0.6,0.1-0.9,0c-0.4-0.3-0.8-0.5-1.3-0.8c-0.1-0.1-0.5-0.3-0.8-0.6c0.1,0,0.2,0,0.3,0C-75.9,136.1-75.1,136.6-74.2,136.9z
		 M-78.3,135.7c-0.1,0-0.2,0-0.3,0c0,0,0-0.1-0.1-0.1c-0.5-0.3-1-0.5-1.5-0.8c0.2-0.1,0.4-0.1,0.6-0.2
		C-79.2,135-78.8,135.4-78.3,135.7z M-81.5,132.7c-0.3-0.2-0.6-0.4-1-0.5c0.5,0.1,1.2,0.2,1.6,0.4
		C-80.7,132.7-81.1,132.7-81.5,132.7z M-83.4,133.4c-0.2-0.1-0.4-0.2-0.6-0.4c0.3,0,0.5,0.1,0.8,0.1
		C-83.2,133.2-83.3,133.3-83.4,133.4z M-82.7,132.7c0.1,0,0.2,0.1,0.3,0.1C-82.5,132.8-82.5,132.8-82.7,132.7
		C-82.6,132.8-82.6,132.7-82.7,132.7z M-80.8,135.4c-0.2-0.1-0.3-0.2-0.5-0.3c0.2,0,0.5-0.1,0.7-0.2c0.2,0.3,0.5,0.5,0.7,0.7
		c0.1,0.1,0.1,0.2,0.2,0.2h-0.1C-80,135.8-80.6,135.4-80.8,135.4z M-79,135.7c-0.1,0-0.3,0-0.4,0.1c-0.2-0.3-0.5-0.5-0.7-0.8
		C-79.9,135.3-79.4,135.5-79,135.7z M-80,136c-0.2,0.1-0.4,0.2-0.5,0.3c-0.4-0.3-0.9-0.7-1.3-1.1l-0.1-0.1c0.1,0,0.2,0,0.2,0
		c0.1,0.1,0.3,0.2,0.3,0.2C-80.8,135.6-80.4,135.8-80,136z M-34.9,168.4c-0.2-0.4-0.5-0.6-0.8-0.9c-0.7-0.8,0.6-0.2,1-0.1h0.1
		C-34.8,167.6-34.8,168-34.9,168.4z M-34.5,166c-0.4-0.5-0.9-0.8-1.4-1.2c-0.2-0.1-0.3-0.2-0.5-0.4c0-0.1,0-0.1,0-0.2
		c0.2,0,0.3,0.1,0.5,0.1c0.5,0.2,1,0.3,1.5,0.6C-34.4,165.4-34.4,165.7-34.5,166z M-34.5,166.3c0,0.3-0.1,0.6-0.2,0.8c0,0,0,0,0-0.1
		c-0.4-0.5-0.9-0.8-1.3-1.2c0.3-0.1,0.6-0.1,0.8,0.2C-35,166.1-34.8,166.2-34.5,166.3L-34.5,166.3z M-36.3,167
		c0.1,0.3,0.4,0.5,0.6,0.8c0.5,0.5-0.3,0.2-0.6,0.1l0,0C-36.3,167.6-36.3,167.3-36.3,167z M-35,168.6c-0.1,0.4-0.2,0.8-0.3,1.2
		c0-0.2,0-0.4-0.2-0.6s-0.4-0.4-0.5-0.6C-36.4,167.9-35.3,168.5-35,168.6L-35,168.6z M-35.4,170.2c0,0.1-0.1,0.2-0.1,0.3
		c0,0,0,0,0-0.1l0,0C-35.5,170.3-35.5,170.2-35.4,170.2z M-36,169.2c-0.1-0.2-0.1-0.3-0.1-0.5c0.3,0.4,0.6,0.8,0.4,1.3
		C-35.8,169.8-35.9,169.5-36,169.2z M-36.2,165.9c0.2,0.2,0.4,0.4,0.6,0.6s1,0.8,0,0.4c-0.2-0.1-0.5-0.2-0.7-0.3l0,0
		c0-0.2,0-0.4,0-0.6C-36.2,166-36.2,165.9-36.2,165.9z M-36.3,164.8c0.4,0.3,0.9,0.6,1.3,1c0.3,0.2,0.3,0.2-0.1,0
		c-0.2-0.1-0.4-0.3-0.7-0.4c-0.2-0.1-0.3-0.1-0.5-0.2C-36.2,165.1-36.2,165-36.3,164.8z M-37.3,163c-0.3-0.2-0.5-0.1-0.8,0
		c-0.5-0.3-1-0.7-1.5-1c-0.6-0.4-0.5-0.4,0.1-0.1c0.5,0.2,1,0.4,1.4,0.6c1.2,0.6,2.4,1.3,3.7,1.7c0,0.2-0.1,0.4-0.1,0.7
		c-0.7-0.4-1.4-0.6-2.1-0.8C-36.6,163.6-36.9,163.2-37.3,163z M-36.3,149.7c-0.6-0.3-1.3-0.6-1.9-1.1c-1.2-0.9,0.3,0.1,0.6,0.2
		c0.4,0.2,0.7,0.3,1.1,0.4C-36.4,149.5-36.4,149.6-36.3,149.7z M-39.2,144.1c-0.8-0.4-0.7-0.3-0.1-0.2
		C-39.2,144-39.2,144-39.2,144.1z M-38.5,145.1c-0.2-0.1-0.3-0.2-0.5-0.3c-0.3-0.2-0.7-0.5-1-0.6c0.4,0.1,0.8,0.2,1.2,0.4
		C-38.7,144.8-38.6,145-38.5,145.1z M-37.5,147.1c-0.7-0.4-1.4-0.7-2-1.2c-1.4-1,0.4-0.2,0.9,0c0.2,0.1,0.4,0.2,0.7,0.3
		C-37.8,146.5-37.6,146.8-37.5,147.1z M-36.9,148.3c-0.6-0.5-1.4-0.8-2.1-1.2c-0.3-0.2-0.6-0.3-1-0.5c0.6,0.2,1.2,0.5,1.8,0.7
		c0.4,0.2,0.7,0.2,1.1,0.3C-37.1,147.9-37,148.1-36.9,148.3z M-35.6,151.6c-0.8-0.6-1.8-0.9-2.6-1.5c-1.5-1,0.6-0.1,1,0.1
		s0.9,0.3,1.3,0.4C-35.9,150.9-35.7,151.2-35.6,151.6z M-39.2,149.7c0.9,1,2.3,1.3,3.4,2.1c0.9,0.7-1.6-0.6-1.2-0.4
		c-0.3-0.1-0.6-0.3-0.9-0.4c-0.5-0.2-1-0.4-1.5-0.5C-39.3,150.2-39.2,149.9-39.2,149.7z M-35.2,153.1c-1.2-0.9-2.5-1.4-3.8-2.2
		c-0.4-0.3-0.7-0.4,0.1-0.1c0.6,0.2,1.2,0.5,1.8,0.8c0.5,0.2,1.1,0.5,1.6,0.6C-35.4,152.5-35.3,152.8-35.2,153.1z M-34.8,154.7
		c-1.5-1.2-3.3-1.6-4.9-2.6c-1-0.6,0.4-0.3,0.7-0.1c0.6,0.2,1.2,0.5,1.8,0.8c0.7,0.3,1.4,0.6,2.2,0.9C-35,154-34.9,154.3-34.8,154.7
		z M-34.5,156.2c-1.6-1.4-3.7-1.9-5.5-3c-0.3-0.1-1.9-1-0.5-0.4c0.9,0.3,1.8,0.7,2.7,1.1c1,0.5,2.1,0.9,3.2,1.3
		C-34.6,155.5-34.6,155.8-34.5,156.2z M-34.3,157.8c-0.8-0.7-1.8-1-2.7-1.5c-1-0.6-2-1.1-3-1.7c-0.2-0.2-0.5-0.3-0.8-0.4
		c0.4,0.1,0.7,0.3,1.1,0.4c0.9,0.3,1.7,0.5,2.5,0.9c0.9,0.5,1.8,0.9,2.8,1.2C-34.4,157-34.3,157.4-34.3,157.8z M-34.2,159.2
		c-2-1.6-4.5-2.6-6.8-3.9c-1.4-0.8,0.5,0.2,0.8,0.3c0.7,0.3,1.3,0.6,2,0.9c1.3,0.5,2.6,1,3.9,1.6l0,0
		C-34.2,158.4-34.2,158.8-34.2,159.2z M-41,158.2c2.1,1.4,4.3,2.5,6.8,3.1h0.1c0,0.3,0,0.7,0,1c-0.8-0.8-1.8-1.3-2.8-1.8
		C-38.3,159.8-39.7,159-41,158.2z M-37.6,158.6c-1.3-0.8-2.7-1.2-4-2c-0.1,0-0.1-0.1-0.2-0.1c0.1,0,0.2,0.1,0.3,0.1
		c0.5,0.2,0.9,0.4,1.4,0.6s1,0.4,1.5,0.6c1.5,0.6,3,1.4,4.6,1.8c0,0.5,0,1,0,1.5C-35.2,160.1-36.4,159.3-37.6,158.6z M-34.2,163.8
		c-2-1.3-3.9-2.7-6.1-3.7l0,0c1.2,0.6,2.4,1,3.6,1.6c0.8,0.4,1.6,0.7,2.5,0.9c0,0,0,0,0.1,0C-34.1,163-34.2,163.4-34.2,163.8z
		 M-39.1,163.4c-0.3-0.2,0.2-0.2,0.6-0.2c-0.2,0.1-0.4,0.3-0.5,0.4c-0.4,0.3-0.6,0.2-0.8-0.1c0.2,0.1,0.4,0.1,0.6,0.1
		C-39.1,163.7-39,163.5-39.1,163.4z M-40.2,161.7c0.4,0.4,0.9,0.7,1.4,1c0.9,0.6-0.4,0-1,0c-0.1,0-0.2,0.1-0.1,0.2
		c0.3,0.4,0.4,0.4-0.1,0.3C-40.1,162.7-40.1,162.1-40.2,161.7z M-40.3,160.4c1.6,1.2,3.6,2.2,5.3,3.3c1.3,0.8-1-0.4-1-0.4
		c-0.5-0.2-0.9-0.5-1.4-0.7c-0.9-0.5-1.8-0.9-2.8-1.2C-40.2,161-40.2,160.7-40.3,160.4z M-40.8,158.5c0.9,0.6,1.8,1.2,2.8,1.7
		c1.1,0.6,2.7,1.1,3.5,2c0.2,0.2-1.6-0.5-1.6-0.5c-0.4-0.2-0.8-0.4-1.2-0.6c-1-0.5-2-0.8-3-1.2c0-0.2-0.1-0.4-0.1-0.6
		C-40.5,159-40.7,158.7-40.8,158.5z M-42.5,156.3c2.2,1.5,4.8,2.4,7,4c1.6,1.2,0.6,0.6-0.2,0.3c-0.9-0.3-1.7-0.7-2.6-1
		c-1.1-0.5-2.1-1.3-3.3-1.7c-0.1,0-0.1,0-0.1,0C-42,157.5-42.5,156.9-42.5,156.3z M-42.4,156c0-0.1,0.1-0.3,0.2-0.4
		c0.1-0.1,0.3-0.3,0.4-0.5c1.2,0.7,2.4,1.4,3.7,2.1c0.6,0.3,1.3,0.6,1.9,1c0.5,0.3,1.2,0.9,1.7,1.1C-37.2,158.4-39.7,156.9-42.4,156
		z M-41.6,154.8c0.1-0.3,0.2-0.6,0.1-0.9c-0.2-0.5-0.2-1-0.1-1.4c1.9,1.4,4.3,1.9,6.2,3.3c1.7,1.2-0.2,0.2-0.7-0.1
		c-0.6-0.3-1.3-0.6-1.9-0.9c-1-0.5-2.2-0.7-3.2-1.1c-0.1,0-0.2,0.1-0.1,0.2c1.9,1.6,4.4,2.3,6.4,3.7c0.8,0.5-0.7-0.3-0.8-0.4
		c-0.9-0.4-1.8-0.7-2.7-1.1C-39.6,155.6-40.6,155.1-41.6,154.8z M-41.5,152.2c0.1-0.3,0.3-0.5,0.6-0.7c1.6,1.3,3.6,1.7,5.2,2.8
		c1.6,1.1,0,0.2-0.5,0c-0.7-0.3-1.4-0.6-2.1-0.9C-39.3,153-40.4,152.5-41.5,152.2z M-40.6,151.3c0.1,0,0.2-0.1,0.3-0.1
		c0.3-0.1,0.5-0.2,0.7-0.5c0.7,0.5,1.4,0.9,2.2,1.3c0.4,0.2,0.9,0.5,1.3,0.7c0.2,0.1,1.5,0.9,0.3,0.4
		C-37.3,152.5-38.8,151.6-40.6,151.3z M-39.9,146.9c0.7,0.4,1.5,0.7,2.2,1.1c0.3,0.2,0.6,0.4,0.9,0.7c0,0.1,0.1,0.2,0.1,0.4
		c-0.4-0.2-0.8-0.3-1.2-0.6c-0.4-0.2-0.8-0.4-1.3-0.5c-0.1,0-0.2,0.1-0.1,0.2c0.9,0.7,2.1,1.7,3.2,2.1l0,0c-1-0.3-2-0.7-3.1-1
		c0-0.4-0.1-0.8-0.2-1.1C-39.5,147.8-39.7,147.4-39.9,146.9z M-40.4,145.3c0.5,0.8,1.4,1.1,2.2,1.6c1.4,0.8,0,0.2-0.8-0.1
		c-0.4-0.2-0.7-0.3-1.1-0.4C-40.3,146-40.4,145.7-40.4,145.3z M-40.5,144.2c0.7,0.5,1.4,0.8,2.2,1.3c0.1,0.1,0.1,0.2,0.2,0.3
		c-0.5-0.2-0.9-0.4-1.4-0.6c-0.3-0.2-0.6-0.2-1-0.3l0,0c0-0.1,0-0.3,0-0.4C-40.5,144.4-40.5,144.3-40.5,144.2z M-40.3,142.5
		c0.3,0.4,0.5,0.8,0.8,1.1c-0.3-0.1-0.5-0.1-0.8-0.2c-0.1,0-0.2,0.1-0.1,0.2c0.3,0.2,0.5,0.4,0.8,0.5c-0.3-0.1-0.6-0.2-0.9-0.2
		C-40.4,143.4-40.3,143-40.3,142.5z M-75.5,192.4c-13.7-3.1-24.5-14.3-26.1-28.2c0-0.1,0.1-0.1,0.1-0.2c0.4-2,0.9-3.6,2.4-5
		c1.1-0.9,2-1.9,2.6-3.2c0.7-1.3,1.4-3.4,2.8-4.1c1.2-0.6,0.1,1.7,0.2,1.5c-0.1,0.2-0.3,0.5-0.4,0.7c-0.3,0.4-0.6,0.8-0.9,1.2
		c-0.8,1.2-1.9,2.5-1.4,4c0.3,1.1,2,1.7,3,1.8c1.1,0.2,2.7,0.4,3.5-0.5c0.7-0.9,0.8-1.9,0.8-3c0-1.7-0.2-4.2,0.8-5.7
		c1,0,1.3,0.4,1,1.1c0,0.1-0.1,0.3-0.1,0.4c-0.2,0.5-0.4,1-0.6,1.5c-0.3,0.7-0.7,1.4-0.8,2.2c-0.2,1.1,0.1,2.4-0.3,3.4
		s-1.2,1.6-1.7,2.5c-0.5,1-0.7,2.2-0.2,3.2c1.2,2.3,4.1,2.5,6.1,3.9c1.8,1.3,0.6,3.3,1.7,5c0.9,1.4,2.3,2.1,3.7,2.8
		c2.2,1,4.2,2,6.1,3.4c1.4,1,2.9,2,4.6,2.3c1.8,0.3,3.6-0.1,4.4-2c0.8-2,0.5-4.3,0.1-6.4c-0.3-1.2-0.6-2.3-1-3.4
		c-0.5-1.4-1.8-3-1.7-4.5c0.1-1.1,0.4-2.1,0.2-3.2c-0.1-0.8-0.4-1.5-0.7-2.2c-0.7-1.8-1.7-4.3,0.5-5.5c2.7-1.5,7.6-0.8,9.1-4
		c3.1-6.4-6-12.9-11.3-14.1c-1.6-0.4-3.3-0.5-4.8,0.1c-1.4,0.5-2.4,1.6-3.3,2.7c-1.4,1.6-2.8,3-4.8,4c-1.7,0.8-3.5,1.5-5.2,2.4l0,0
		c-1-0.7-1.1-1.3-0.3-1.6c0.1,0,0.2-0.1,0.3-0.1c0.9-0.4,2.3-0.9,2.3-2.1c0-0.8-0.3-1.5-1.3-1.4c-1.2,0.1-1.8,1.3-2.8,1.8
		c-1.3,0.6-0.5-1.1-0.3-1.3c0.3-0.3,0.6-0.6,0.9-0.8c0.6-0.4,1.3-0.7,2-0.9c1.1-0.2,2,1.7,3.2,0.8c1.4-1.1,1.3-3.1,2.6-4.2
		c1.3-1.2,2.6-0.9,4,0c0.4,0.3,1,0.6,1.5,0.5c1.1,0,2.6-0.4,3.6-0.9c1.6-0.8,1.7-3-0.4-2.8c-1,0.1-2.1,0.6-3.1,0.6
		c-1.1-0.1-0.3-1.1-0.4-1.7c-0.1-0.5-0.2-0.9-0.6-1.2c-0.9-0.9-2.3,0.8-3,1.2c-0.9,0.5-2.2,1.1-3.3,1c-0.1-0.5,0.1-0.7,0.5-0.5
		c0.1,0,0.2,0,0.3,0c0.2,0,0.5,0.1,0.8,0c0.6-0.2,1.4-1,0.7-1.6c-0.4-0.4-0.9-0.6-1.5-0.7c11-4.5,24.1-3.3,33.9,3.8
		c2.4,1.7,4.5,3.8,6.3,6c0,1.3-0.3,2.5-0.3,3.8c0,0.8,0.5,1.7,0.8,2.4c0.4,0.9,0.9,2.5-0.4,2.9c-0.3,0.1-0.4,0.2-0.7,0.3
		c-0.5,0.3-0.8,0.8-0.9,1.4c-0.2,0.5,0,1.3,0.2,1.8c0.2,0.7-0.5,1-0.8,1.5c-0.6,1,0.2,2.4,0.9,3.2c1,1.1,1.2,2,1.3,3.4
		c0,0.7,0.1,1.3,0.3,1.9c0.2,0.8,1,1.2,1.8,1c0.3-0.1,0.7-0.4,0.9-0.6c1-0.9,1,1.2,0.9,1.9c-0.1,0.8-0.2,1.7,0,2.5
		c0.3,1.1,0.9,2.1,1,3.2c0,0.1,0.1,0.2,0.1,0.3c-0.4,0.9-0.8,1.8-1.2,2.7C-44.3,188.6-60.5,195.8-75.5,192.4z M-55.2,191.8
		c0.4-0.2,0.8-0.3,1.2-0.5c0.3,0.8,0.9,1.4,1.3,2.1c0.4,0.6,1.8,2.4,1.3,3.1C-52.5,198.2-54.6,193.4-55.2,191.8z M-66.2,197.5
		c0,0.2,0.1,0.5,0.2,0.7c-1.1-0.2-2.1-0.4-3.2-0.7c0.9,0,1.7,0,2.6,0C-66.5,197.5-66.4,197.5-66.2,197.5z M-70.3,199.5
		c1.2,0.5,2.4,1,3.5,1.5c0.5,0.2,1,0.5,1.5,0.7c0.1,0.1,0.2,0.1,0.3,0.1c-0.1,0-0.1,0-0.2-0.1c-1.8-0.5-3.6-1.1-5.3-1.7
		C-70.5,199.9-70.4,199.6-70.3,199.5C-70.3,199.4-70.3,199.5-70.3,199.5z M-70.6,200.3c1,0.5,2.1,1,3.2,1.4c0.8,0.3,1.9,1,2.8,1.1
		l0,0c-2.1-0.1-4.2-0.9-6.2-1.4l0,0C-70.8,201.1-70.7,200.7-70.6,200.3z M-72.3,205.8c3.3,2.1,7.2,2.9,10.8,4.2
		c2.1,0.7,4.1,1.6,6.2,2.3c1.9,0.6,4.2,1.6,5.8,2c-4.6-1-9-2.6-13.5-4.1c-2.2-0.7-4.3-1.4-6.5-1.9c-0.8-0.2-1.6-0.3-2.5-0.5
		c-1.2-0.4-2.4-0.9-3.6-1.4C-74.5,206.2-73.4,206-72.3,205.8z M-76.1,206.5c1.2,0.7,2.5,1.1,3.8,1.4c0.7,0.3,1.5,0.5,2.2,0.8
		c2.1,0.7,4.1,1.4,6.2,2.2c2.2,0.8,4.4,1.5,6.6,2.2c1.1,0.4,2.2,0.7,3.3,1.1c0.5,0.2,1.1,0.4,1.6,0.6c-0.4-0.1-0.7-0.2-1.1-0.3
		c-4.4-0.8-8.6-2.5-12.9-3.9c-4-1.3-8.1-2.6-12.2-3.5C-77.8,206.9-77,206.7-76.1,206.5z M-79.2,207.2
		C-79.2,207.2-79.1,207.2-79.2,207.2c4.1,1.2,7.9,2.9,11.8,4.4c1.9,0.7,3.9,1.4,5.9,1.9c0.9,0.2,1.8,0.5,2.7,0.8
		c0.3,0.1,2.5,0.9,0.9,0.5c-2-0.5-3.9-1.3-5.9-1.8c-1.9-0.5-3.8-1.1-5.6-1.7c-3.8-1.4-7.6-2.6-11.5-3.6
		C-80.3,207.5-79.8,207.3-79.2,207.2z M-84.7,209c1,0.5,2,0.8,3.1,1.1c1.5,0.5,2.9,1.5,4.4,2.1c1.5,0.6,3,1.2,4.6,1.8
		c-1.4-0.4-2.7-0.9-4.1-1.3c-3.2-0.9-6.3-2.4-9.5-3.3C-85.8,209.3-85.2,209.2-84.7,209z M-87.8,210.3c2.9,2.1,6.5,2.7,9.6,4.6
		c0.3,0.2,0.8,0.6,1.1,0.7c-0.6-0.2-1.1-0.3-1.7-0.5c-0.9-0.3-1.8-0.7-2.7-1.1c-1.6-0.7-3.3-1.1-4.9-1.6c-0.1,0-0.2-0.1-0.2-0.1
		c-0.8-0.4-1.5-0.8-2.3-1.2l0,0C-88.7,210.7-88.3,210.5-87.8,210.3z M-90.4,212.4c1.1,1,2.5,1.6,3.9,2.2l0,0c-0.5-0.1-1-0.3-1.5-0.5
		c-0.8-0.3-1.7-0.7-2.5-1h-0.1c-0.1-0.2-0.1-0.3,0.1-0.5C-90.5,212.5-90.5,212.4-90.4,212.4z M-89.8,212.5c0.4,0.2,0.9,0.3,1.3,0.4
		c2.3,0.7,4.7,1.4,6.9,2.4c-1.3-0.1-2.6-0.3-3.9-0.5c0-0.1,0-0.1,0-0.2c-1.1-0.5-2.2-0.9-3.3-1.5c-0.3-0.1-0.5-0.3-0.8-0.5
		C-89.6,212.6-89.7,212.5-89.8,212.5z M-85.6,212.7c0.6,0.2,1.2,0.4,1.8,0.6c2,0.7,3.9,1.6,5.8,2.2c-0.9,0-1.9-0.1-2.8-0.2
		c0,0,0,0-0.1,0c0-0.1-0.1-0.1-0.2-0.1C-82.5,214.3-84.1,213.5-85.6,212.7z M-72.7,215.6c-5.2-1.2-9.9-3.5-14.8-5.5
		c0.4-0.2,0.7-0.3,1.1-0.5c0,0,0,0.1,0.1,0.1c2.6,1.2,5.2,2.3,7.8,3.3c1.2,0.5,2.3,0.9,3.5,1.4C-74.3,214.8-73.5,215.2-72.7,215.6
		c0.3,0,0.4,0.1,0.5,0.1l0,0C-72.3,215.7-72.5,215.7-72.7,215.6z M-80.9,210.2c3.1,1.1,6.2,2.1,9.4,3c1.8,0.5,3.5,1.1,5.3,1.8
		c0.6,0.2,1.3,0.5,1.9,0.6c-1.1,0-2.1,0.1-3.2,0.1c-3.6-1.3-7.2-2.6-10.6-4.2C-79.1,211.1-80,210.6-80.9,210.2z M-62.3,215.6
		c-2.6-1.7-5.8-2.3-8.8-3.3c-1.8-0.6-3.7-1.2-5.5-1.8c-1.1-0.4-2.1-0.8-3.2-1.3c-0.7-0.3-1.4-0.8-2.1-0.9c3.6,0.7,7,2.5,10.5,3.7
		c3.6,1.3,7.2,2.4,10.9,3.5C-61.1,215.5-61.7,215.5-62.3,215.6z M-59.7,215.4c-3.2-1.7-6.9-2.4-10.3-3.6c-2-0.7-4-1.5-6-2.2
		c-1.1-0.4-2.1-0.7-3.2-1.1c-0.3-0.1-1.6-0.5-1.5-0.5c0.4,0.1,0.8,0.2,1.1,0.3c4.2,1.1,8.2,2.7,12.3,4c2,0.6,4.1,1.1,6.1,1.8
		c1.4,0.5,2.8,1,4.3,1.2C-57.8,215.3-58.8,215.4-59.7,215.4z M-60.2,215.5L-60.2,215.5c-1.7-0.9-3.9-1.3-5.8-1.9
		c-2-0.6-3.9-1.3-5.9-2c-0.9-0.3-1.8-0.7-2.7-1.1c1.3,0.5,2.7,0.9,4,1.4C-67.2,213.1-63.4,213.8-60.2,215.5z M-82,208
		c0.2-0.1,0.4-0.1,0.7-0.2l0,0c0.4,0.2,0.9,0.4,1.3,0.6C-80.6,208.3-81.3,208.1-82,208z M-49.1,214.3c-1.8-0.9-3.7-1.5-5.7-2.1
		c-1.9-0.6-3.8-1.5-5.7-2.1c-3.4-1.2-7-2-10.3-3.6c0.3,0.1,0.6,0.2,0.9,0.4c0.9,0.3,1.8,0.6,2.7,0.9c2,0.6,4,1.2,6,1.8
		c2,0.5,3.9,1.1,5.9,1.6c2.6,0.8,5.2,1.7,7.7,2.8C-48,214.1-48.6,214.2-49.1,214.3z M-71.9,205.7c0.1,0,0.2,0,0.2,0
		c0.1,0,0.1,0.1,0.2,0.1c0.6,0.1,1.3,0.1,1.9,0.2c0,0.1,0.2,0.1,0.3,0.1c2.8,1.3,5.7,2.4,8.6,3.4C-64.4,208.3-68.2,207.2-71.9,205.7
		z M-64.6,202.7c-0.9-0.4-1.8-0.7-2.7-1.1c-0.5-0.2-1.1-0.4-1.6-0.7c1.4,0.5,2.8,1,4.3,1.3C-64.7,202.3-64.7,202.5-64.6,202.7z
		 M-66.4,205.8c2,1,4.1,1.7,6.2,2.4c-2.8-0.8-5.7-1.3-8.5-2.3C-67.9,205.9-67.1,205.8-66.4,205.8z M-71,203.9
		c0.5,0.3,1.1,0.5,1.7,0.8c-0.1-0.1-1.1,0-1.2,0c-0.1,0-0.1,0.1-0.1,0.2c-0.1,0-0.1,0-0.2,0C-71,204.5-71,204.2-71,203.9z
		 M-70.6,203.8c0.8,0.1,1.6,0.2,2.5,0.4c0.8,0.2,1.5,0.4,2.3,0.5c-1,0.1-1.9,0.2-2.9,0.2c0.1,0,0.1-0.2,0-0.2
		C-69.2,204.5-70.1,203.9-70.6,203.8z M-67.4,203.9c-0.6-0.1-1.1-0.3-1.7-0.5c0.1,0-2-0.6-0.7-0.4c1.7,0.4,3.3,1.1,5,1.2
		c0,0.1-0.1,0.2-0.1,0.3s0,0.1,0,0.2C-65.6,204.3-66.5,204.1-67.4,203.9z M-64.6,203.7c-0.9-0.3-1.7-0.6-2.6-0.9l0,0
		c0.9,0.2,1.7,0.4,2.6,0.4C-64.6,203.4-64.6,203.5-64.6,203.7z M-68.8,199.7c0.5,0.1,1,0.3,1.4,0.4c0.7,0.2,1.5,0.4,2.2,0.6
		c0.1,0.3,0.2,0.6,0.3,1c-1.4-0.7-2.9-1.4-4.3-2C-70.4,199.1-69,199.7-68.8,199.7z M-65.3,200.3c-1.2-0.7-2.6-1-3.8-1.6
		c0.9,0.5,2.4,0.7,3.6,0.9C-65.5,199.8-65.4,200-65.3,200.3z M-65.8,199c-0.8-0.4-1.7-0.6-2.5-1c-0.1,0-0.1-0.1-0.2-0.1
		c0.2,0.1,0.4,0.1,0.6,0.2c0.7,0.1,1.3,0.3,2,0.4C-65.9,198.6-65.9,198.8-65.8,199z M-49.6,210.2c-2.9-1.1-5.9-1.9-8.9-2.7
		c-2.1-0.5-4.1-1.3-6.2-1.9c0.1,0,0.2,0,0.3,0c2.2,0.7,4.5,0.9,6.7,1.4C-54.9,207.8-52,208.7-49.6,210.2z M-46.6,212.8
		c-5.8-2.8-12.3-3.9-18.2-6.6c-0.3-0.1-0.7-0.3-1-0.5c0.2,0,0.3,0,0.5,0c0.3,0.1,0.5,0.1,0.8,0.2c1.6,0.5,3.2,1.2,4.9,1.6
		c3.5,0.9,7,1.8,10.4,3.1c0.1,0,0.1,0,0.1-0.1c0.1,0.1,0.2,0.2,0.4,0.3C-48.5,211-47.1,212.1-46.6,212.8z M-51.2,211.1
		c1,0.4,2.1,0.8,3.1,1.2c0.3,0.1,0.6,0.3,0.9,0.4c-2.8-0.9-5.5-2-8.3-3.1C-54.1,210.1-52.6,210.6-51.2,211.1z M-46.5,213.5
		c-0.2,0.1-0.4,0.2-0.7,0.3c-2.2-1-4.4-1.8-6.6-2.5c-1.1-0.4-2.3-0.7-3.4-1.1c-3.5-1.1-7-2.2-10.4-3.7c0.3,0.1,0.5,0.2,0.8,0.2
		c0.9,0.3,1.9,0.5,2.8,0.8c2.1,0.5,4.2,1,6.2,1.6c3.8,1.3,7.5,3,11.4,4.1C-46.4,213.3-46.4,213.4-46.5,213.5z M-51.8,214.7
		L-51.8,214.7c-4-1.6-8.1-2.7-12.1-4.1c-2.1-0.8-4.3-1.5-6.4-2.2c2.2,0.5,4.4,1.2,6.6,1.9c4.6,1.5,9.2,3.1,13.9,4.2
		C-50.4,214.6-51.1,214.7-51.8,214.7z M-55.6,215.1c-0.2,0-0.4,0-0.5,0c0,0,0-0.1-0.1-0.1c-3.7-1.7-7.9-2.4-11.7-3.9
		c-2.2-0.9-4.5-1.8-6.7-2.7c-0.6-0.2-1.1-0.4-1.7-0.6c4.2,1.1,8.4,2.4,12.5,3.9c3.6,1.3,7.2,2.5,11,3.1
		C-53.7,214.9-54.6,215-55.6,215.1z M-71.8,215.8c-2.1-1.2-4.5-2-6.7-2.9c-1.7-0.7-3.4-1.3-5-2.1c-0.3-0.1-0.6-0.3-1-0.4
		c2.7,1,5.4,2,8.2,2.9c2.7,0.8,5.3,1.7,8,2.5C-69.4,215.8-70.6,215.8-71.8,215.8z M-76.1,215.7c-0.2,0-0.4,0-0.6,0
		c-1.6-1.3-3.5-2.1-5.5-2.8c-1.2-0.5-2.4-0.9-3.6-1.5c-0.6-0.3-1.1-0.6-1.6-1c0.5,0.3,1,0.6,1.5,0.8c2.2,1,4.3,1.8,6.6,2.6
		c2,0.7,4,1.5,6,2C-74.2,215.7-75.1,215.7-76.1,215.7z M-90.4,213.4c1,0.4,2,0.8,3.1,1.2C-88.5,214.3-89.9,213.9-90.4,213.4z
		 M-89.2,211.1C-89.2,211.2-89.2,211.2-89.2,211.1c0.6,0.5,1.2,0.8,1.8,1c0.5,0.2,1,0.5,1.5,0.7c1.3,0.6,2.6,1.2,3.9,2
		c-0.2-0.1-0.5-0.2-0.7-0.3c-0.8-0.3-1.7-0.6-2.6-0.9c-1.6-0.5-3.3-1-4.9-1.6C-89.9,211.7-89.6,211.4-89.2,211.1z M-83.3,208.5
		c0.3-0.1,0.6-0.2,0.9-0.3l0,0c3.4,1.8,7,3,10.7,4.2c1.6,0.5,3.1,0.9,4.7,1.4c0.9,0.3,1.9,0.6,2.7,1c0.3,0.1,1,0.6,1.4,0.8
		c-0.1,0-0.2,0-0.4,0c-1.7-0.2-3.3-1-4.9-1.6c-1.9-0.7-3.8-1.2-5.7-1.7c-3.5-1-6.9-2.3-10.4-3.6C-83.9,208.7-83.6,208.6-83.3,208.5z
		 M-70.9,201.7c1,0.4,2.1,0.8,3.2,1.1c0.9,0.3,2.1,0.9,3.1,1l0,0c-2-0.1-3.9-1.1-5.9-1.3c-0.1,0-0.2,0.2-0.1,0.2
		c1.6,1,3.5,1.2,5.2,1.8c0.1,0,0.1,0,0.2,0.1h-0.1c-0.4-0.1-1.1-0.3-1.2-0.3c-0.5-0.1-1-0.2-1.5-0.4c-1-0.2-2-0.4-3-0.4
		C-71.1,203-71,202.3-70.9,201.7z M-69.7,197.5L-69.7,197.5c0,0.1,0,0.1,0.1,0.2c1.3,0.6,2.8,0.9,4,1.6l0,0
		c-0.5-0.2-1.4-0.3-1.9-0.4c-0.7-0.2-1.3-0.3-2-0.4c-0.1,0-0.2,0.2-0.1,0.2c0.7,0.4,1.4,0.6,2.1,0.9c0.7,0.2,1.5,0.8,2.1,0.9
		c-1.6-0.4-3.2-1-4.9-1.2c0,0,0,0-0.1,0C-70.1,198.7-69.9,198.1-69.7,197.5z M-103.2,148.3c1.8-4.5,4.1-8.9,7.5-12.4
		c3.2-3.4,7.1-5.7,11.3-7.8c0.4,1,1.2,2.1,1.8,2.8c-11.8,5.4-19.9,16.9-20,30.1c0.1,16,12.3,29.7,27.9,32.6
		c6.3,1.2,12.8,0.7,18.7-1.4c0.2,0.6,0.6,1.5,1,2.4c-3.8,1.7-8.4,2-12.5,2.1c-3.4,0-6.8-0.2-10.1-1c-10.8-2.5-20.2-9-24.8-19.2
		C-106.5,167.5-107,157.6-103.2,148.3z"/>
</g>
</svg>
