<?xml version="1.0" encoding="utf-8"?>
<!-- Generator: Adobe Illustrator 18.1.1, SVG Export Plug-In . SVG Version: 6.00 Build 0)  -->
<svg version="1.1" id="Layer_3" xmlns="http://www.w3.org/2000/svg" xmlns:xlink="http://www.w3.org/1999/xlink" x="0px" y="0px"
	 viewBox="0 0 340.2 340.2" enable-background="new 0 0 340.2 340.2" xml:space="preserve">
<path fill="#0F0F5B" d="M191.3,269.6c0,0.3,0,0.3,0.3,0.7c0,0.3,0,0.7,0.3,1c5.8,9.2,14.6,15.6,21.4,24.2
	c7.5,9.5,13.6,20.1,22.1,28.9c1.4,1.4,3.4,0.3,3.7-1.4c0.3-0.3,0.7-0.7,0.7-1.4c4.8-22.5-1.4-45.6,1-68.4c0-0.7,0-1-0.3-1.4
	c0-0.3,0-0.7-0.3-1c0-0.3,0-0.3,0-0.7c-6.5-20.1-11.9-40.8-19-60.9c-7.5-20.7-15.6-41.5-23.1-62.2c-7.1-20.1-14.3-40.1-21.1-60.5
	c-5.1-15-7.1-31.6-17-43.9c0.3-1.7-1-3.4-3.1-2.7h-0.3c-0.3,0-0.3,0-0.7,0.3c-13.6,4.1-29.3,5.1-40.5,14.3c-1,0.7-1,1.7-0.7,2.7
	c-0.7,0.7-0.7,1.4-0.7,2.4c12.6,38.4,24.8,77.2,37.4,116c6.5,19.7,12.9,39.1,19.4,58.8C177.4,232.9,185.2,250.9,191.3,269.6z
	 M185.6,144.8c6.5,19.7,12.6,39.8,18.4,59.5c4.8,16.3,12.6,31,18.4,46.6c-2.4-1.7-5.1-2.4-8.5-1.4c-2.7,1-4.4,3.1-5.1,5.4
	c-4.8-16-8.5-32.3-13.6-48.3c0.3,0,0.3,0,0.7-0.3c1.4-2,2.4-4.1,3.7-6.5c1.7,1.4,2,3.1,1.7,5.1c0,2-0.3,4.1-0.7,6.1
	c-0.7,3.4-1,6.5,0,10.2c0,0.3,0.7,0.7,1,0.3c1-1.4,1.7-2.4,2.7-3.7c3.1-4.4,1.4,1.7,1,3.1c-0.7,4.1-1.7,7.8-1.7,11.9
	c0,0.7,0.7,0.7,1,0.3c1-1,1.7-1.4,2.4-3.1c0.7-1.4,2.7-8.5,3.1-4.1c0.3,5.4-3.1,10.9-3.4,16.3c0,0.7,0.7,0.7,1,0.3
	c1.4-1.4,2.4-2.7,3.4-4.1c1-1.4,2.4-4.4,1.4-0.3c-0.7,3.7-2.7,7.1-3.4,10.9c0,0.3,0.3,1,1,0.7c1.4-1,2-1.4,3.1-3.1
	c2.4-3.7,2.4-4.4,0.3,0c-0.3,0.3,0.3,1,0.7,0.7c2.4-1,1.7-0.3,3.7-2c0.7-0.3,0-1.4-0.7-1c-3.7,2.7-0.3-2.4,0.3-4.1
	c0-0.7-0.7-1-1-0.7c-1.7,2.4-7.8,12.9-4.1,3.1c1.4-3.1,2-6.1,2-9.2c0-0.7-0.7-0.7-1-0.3c-0.3,0.7-5.8,9.9-4.8,5.4
	c0.3-2,1.4-4.1,1.7-6.1c1-3.4,1.4-6.8,0.3-10.2c0-0.3-1-0.7-1,0c-0.7,1.7-1.7,3.7-2.4,5.4c-3.4,7.8-2,0-1.7-2
	c0.7-3.7,1.7-7.5,1.7-11.2c0-0.7-0.7-0.7-1-0.3c-1,1-4.4,7.1-4.8,3.4c-0.3-3.4,0.7-6.8,1.4-10.2c0.3-3.7,0-6.5-1.7-9.5
	c-0.3-0.3-0.7-0.3-1,0c-3.1,4.8-5.1,9.9-3.4,0.3c0.7-4.1,1.7-7.8,1.4-12.2c0-0.3-0.7-0.7-1-0.3c-1,1.4-1.7,2.4-2.7,3.7
	c-3.7,5.1-1.4-3.1-1-3.7c1-4.4,1.7-8.2,1.4-12.6c0-0.7-1-0.7-1-0.3c-1.4,2.7-4.8,9.2-3.4,1.7c0.7-3.7,1.4-7.1,1.4-10.5
	c0-0.3-0.7-0.7-1-0.3c-1.4,1.7-2.4,3.7-3.7,5.4c0,0,0.3-5.8,0.7-6.5c0.7-3.1,1-5.8,0-9.2c0-0.7-1-0.3-1,0c-2,6.8-2.7,3.1-2.4-0.3
	C184.5,150.2,185.2,147.5,185.6,144.8c0-0.7-0.7-1-1-0.7c-1,1-2,2-2.7,3.1c-3.1,3.7-1.4-0.7-1-2.4c0.7-3.1,1.4-5.8,1-8.8
	c0-0.3-0.7-0.7-1-0.3c-1,1.4-2,2.7-3.1,4.1c-0.3-2-0.3-3.7,0.3-5.8c0-2.7,0-5.1,0-7.8c0-0.7-0.7-0.7-1-0.3c-1.4,1.4-5.4,7.5-4.1,1.7
	c1-3.7,2.4-7.1,2-11.2c0-0.7-0.7-0.7-1-0.3c-1.4,1.4-2.4,2.7-3.4,4.1c-2.7,3.7-0.3-3.7-0.3-4.1c1-3.7,1.7-7.5,1-11.2
	c0-0.7-1-0.3-1,0c-0.7,1.4-4.8,6.5-4.8,6.8c-0.3-2.4,1-5.4,1.4-7.5c1-3.4,1.4-6.5,0.7-9.9c0-0.3-0.7-0.7-1-0.3
	c-1,1.4-5.1,5.4-5.1,6.5c0.7-4.1,2.7-7.5,3.4-11.6c0-0.7-0.7-1-1-0.7c-2,2-5.1,7.8-3.1,1.7c1-3.4,1.7-6.8,2-10.5
	c0-0.7-0.7-0.7-1-0.3c0,0.3-6.1,7.8-5.4,3.4c0.3-3.7,2-7.1,2.4-10.9c0-0.3-0.3-1-1-0.7c-2,1.7-8.5,10.9-5.4,3.1
	c1.4-3.7,3.4-6.5,2.7-10.5c0-0.7-0.7-0.7-1-0.3c-1.4,1.4-6.1,8.5-4.8,2.7c1-4.1,2.4-7.8,2.7-12.2c0-0.7-0.7-0.7-1-0.3
	c-5.4,8.8-1.7-3.1-1.4-4.8c0-0.7-0.7-1-1-0.7c-5.8,6.8-1.4-3.1-1-5.4c0-0.7-0.7-1-1-0.7c-5.4,7.8-0.3-4.1,0.3-6.8
	c0-0.3-0.3-0.7-0.7-0.7c-2.7,0.7-3.7,2.7-5.4,4.8c1.7-2.4,3.1-4.8,3.4-8.5c0-0.7-0.7-0.7-1-0.3c-1.4,1-5.4,7.8-5.1,4.1
	c0-0.3-0.3-0.7-0.7-0.7c-1.7,0-1.4,0-2.7,0.7c-0.7,0.3,0,1.4,0.7,1c0.3,0,0.7,0,1,0.3c-0.3,0.7,0.3,1,1,0.7c2.4-1.4,1.4-0.7,3.4-2.7
	c4.8-4.1-0.3,4.8-1,6.5c-0.3,0.7,0.7,1.4,1,0.7c0.3-0.3,5.1-5.1,4.8-4.4c-0.7,3.1-2,6.1-3.4,8.8c-0.3,0.7,0.3,1,1,0.7
	c1.4-0.7,2.4-1,3.4-2.4c-1.4,2-2,5.4-3.1,7.8c-0.3,0.3,0.3,1,0.7,0.7c1.7-0.7,2.7-1,3.7-2.4c-1,1.4-1.7,5.8-2,7.5c0,0.7,0.3,1,1,0.7
	c2.4-1.4,4.4-5.4,3.7-0.7c-0.7,4.1-2.4,8.2-3.1,12.2c0,0.7,0.3,1,1,0.7c2-1.4,1.4-0.7,3.1-2.7c-0.3,0.3,3.4-6.1,3.1-2
	c-0.3,4.4-3.7,7.8-4.1,12.2c0,0.7,0.3,1,1,0.7c1.7-1,6.5-4.1,6.5-5.8c-0.3,4.4-2.7,8.5-2.4,12.9c0,0.3,0.7,0.7,1,0.3
	c2.4-1.4,3.7-3.4,5.4-5.8c0,2-0.3,3.7-1,5.8c-0.7,2.4-1.4,5.1-2,7.5c0,0.7,0.7,1,1,0.7c1-0.7,4.1-4.1,4.1-4.4
	c-0.7,4.1-2.7,7.5-3.4,11.6c0,0.7,0.3,1,1,0.7c2-1.4,1.4-0.7,3.1-2.7c2-2.4,3.1-1.7,2.4,1.4c-1,4.1-2.4,7.5-2,11.6
	c0,0.3,0.7,0.7,1,0.3c1.4-1.7,5.4-10.2,4.4-2.7c-0.7,3.7-2,7.5-2.7,11.6c0,0.7,0.3,1,1,0.7c2.4-1.4,5.8-7.8,5.1-2.7
	c-0.7,4.8-2.7,8.5-2.4,13.3c0,0.7,0.7,0.7,1,0.3c0,0,5.1-6.5,4.8-3.1c-0.3,3.7-1.4,7.1-1.7,10.5c0,0.7,0.7,0.7,1,0.3
	c2.7-2.4,4.4-5.1,3.4,0.3c-0.7,3.1-1.4,5.8-1,8.8c0,0.3,0.7,0.7,1,0.3c1.7-2.4,4.8-8.8,3.4-2c-0.7,3.4-1.4,7.1-1.4,10.5
	c0,0.3,0.7,0.7,1,0.3c2-1.7,3.1-3.1,4.1-5.4c-1.4,4.1-2,10.5-1.7,15c0,0.7,0.7,0.7,1,0.3c1-1,2-2,2.7-3.1c3.4-4.4,1,2,0.7,3.7
	c-0.7,3.7-1.4,7.1-1.4,10.5c0,0.7,0.7,0.7,1,0.3c1.4-1.7,4.8-5.8,4.4-7.1c0.7,5.4-2.4,11.9-2.7,17.3c-5.4-15.3-10.9-30.3-16.3-45.6
	c-6.8-19-13.3-38.1-21.1-56.8c-9.9-16.7-18-36.1-20.7-56.8l0,0c4.1-1.4,8.5-2.4,12.9-3.4C159,66.9,173,105.6,185.6,144.8z
	 M190.3,193.1c0.3,0.3,0.3,0.3,0.7,0c4.1-3.4,6.5-9.2,4.8,0.3c-0.7,4.1-1.7,7.5-1.4,11.6C193,200.9,191.7,197.2,190.3,193.1z
	 M145.8,85.9c8.2,18.7,15,37.4,21.4,56.5c7.1,20.1,14.6,39.8,21.4,59.5c6.1,17.7,10.2,35.4,15.3,53.4c-1-0.3-2-0.7-3.4-1
	c-4.1-0.7-6.5,1.7-7.5,4.8c-5.4-14.3-11.2-28.6-16.3-43.2c-6.5-19.4-12.9-39.1-19.4-58.8c-12.9-39.5-25.2-79.3-38.1-118.7l0,0
	c3.1-2.4,6.1-4.1,9.9-5.4C131.1,51.2,138.3,68.6,145.8,85.9z M196.4,268.9c0.3-0.3,0.7-1,0.3-1.7c-0.3-1.7-0.3-3.4,0-5.4
	c1-8.5,8.8,1,9.5,2c0,0,0,0.3,0.3,0.3c0,0.3,0.3,0.7,0.3,1c0,0.7,0.3,1,0.7,1c1,2,1.7,4.4,2.7,6.5l0,0l0,0c0,0.3,0.3,0.3,0.3,0.7
	c1.4,2.4,5.1,0.3,4.1-2c-1.7-5.1-3.4-11.2-1-16.3c3.1-6.8,9.2,3.7,10.2,5.4c1.4,2.7,2.7,5.4,4.1,8.2c1.4,2.4,5.1,0.3,4.1-2
	c-0.7-2.4-1.4-4.8-2-7.5c-0.3-2.7,2-12.2,5.8-6.5c-1.4,14.6,0.3,29.3,0.7,43.5c-0.3,0-0.7,0-0.7,0c-4.4,1.4-8.5,3.1-12.6,4.8
	c-2-3.1-4.4-6.1-6.5-9.2C210.7,284.2,202.2,278.1,196.4,268.9z M235.9,317.9c-3.4-3.7-6.1-7.8-9.2-12.2c3.4-1.7,6.8-3.1,10.5-4.1
	C237.3,307,236.9,312.5,235.9,317.9z M234.2,246.5c-1.4,0-3.1,0.7-4.4,2.4c-1,1-1.7,2-2.4,3.4c-5.4-16.7-14.3-32-19-49
	c-5.8-20.1-11.9-39.8-18.4-59.5c-12.6-39.5-26.5-78.2-39.1-117.4c1.7-0.3,3.7-1,5.4-1.4c11.6,13.6,13.6,34.7,19.4,51
	c6.8,19.4,13.3,38.8,20.4,58.2c7.1,19.7,15,39.5,22.1,59.5C224,211.1,228.8,228.8,234.2,246.5z"/>
</svg>
