<svg xmlns="http://www.w3.org/2000/svg" xmlns:xlink="http://www.w3.org/1999/xlink" version="1.1" id="Layer_3" x="0px" y="0px" viewBox="0 0 100 100" enable-background="new 0 0 100 100" xml:space="preserve" height="100px" width="100px">
<g>
	<path d="M76.3,6.2c-5.5,0-11,0-16.5,0c-11.3,0-22.7,0-34,0c-0.7,0-1.5,0-2.2,0c-2.4,0-4.3,1.8-4.6,4c-0.5,0.2-1,0.4-1.4,0.9   c-0.4,0.5-0.7,1.1-0.5,1.8c0.3,0.8,1.1,1.2,1.8,1.4c0,0.2,0,0.5,0,0.7c-0.6,0.1-1.2,0.3-1.6,0.7c-0.6,0.6-0.7,1.7-0.3,2.4   c0.4,0.8,1.1,1.3,2,1.6c0,0.1,0,0.3,0,0.4c-0.8,0.1-1.5,0.4-2,1.2c-0.9,1.5,0.7,2.5,2,2.8c0,0.6,0,1.2,0,1.8   c-0.7,0.1-1.3,0.4-1.8,1c-0.4,0.6-0.6,1.2-0.3,1.9c0.3,0.7,1.3,1.1,2,1.2c0,0.1,0,0.1,0,0.2c-0.4,0-0.7,0.2-1,0.4   c-1.3,1.1-0.4,2.6,1,3.1c0,0.1,0,0.2,0,0.3c-0.7,0-1.4,0.2-1.8,0.8c-1.1,1.4,0.4,2.8,1.8,3.1c0,0.1,0,0.3,0,0.4   c-0.8-0.1-1.6,0.1-2.1,0.8c-1,1.3,1,2.4,2.1,2.6c0,0.4,0,0.7,0,1.1c-0.3,0-0.5,0-0.8,0.1c-0.6,0.2-1.2,0.6-1.3,1.2   c-0.2,1.2,1,1.8,2.1,2c0,0.3,0,0.5,0,0.8c-0.7,0-1.4,0.3-1.8,0.9c-0.9,1.3,0.8,2.1,1.8,2.4c0,0.3,0,0.7,0,1c-0.2,0-0.3,0-0.5,0.1   c-0.6,0.1-1.2,0.5-1.4,1.1c-0.2,1.1,0.9,1.9,1.9,2.1c0,0.1,0,0.2,0,0.3c-0.6-0.1-1.2,0.1-1.6,0.7c-0.9,1.2,0.5,2.4,1.6,2.8   c0,0.2,0,0.4,0,0.6c-0.6,0-1.3,0.1-1.7,0.4c-1.5,1.2,0.5,2.7,1.7,3c0,0.2,0,0.5,0,0.7c-0.7,0-1.4,0.2-1.8,0.7   C16,65,17.8,66.1,19,66.4c0,0.4,0,0.7,0,1.1c-0.4,0.1-0.7,0.2-1.1,0.4c-0.6,0.4-0.9,1-0.8,1.7c0.2,0.8,1.1,1.2,1.9,1.4   c0,0.3,0,0.5,0,0.8c-0.8,0-1.5,0.2-2,1.1c-0.9,1.5,0.8,2.3,2,2.7c0,0.5,0,0.9,0,1.4c-0.7,0-1.5,0.3-1.9,1c-0.8,1.3,0.8,2.1,1.9,2.4   c0,0.4,0,0.9,0,1.4c-0.6,0-1.1,0.2-1.4,0.8c-0.7,1.1,0.5,2.1,1.4,2.5c0,0.4,0,0.7,0,1.1c-0.5,0.1-0.9,0.3-1.3,0.6   c-1.2,1.1,0.2,2.4,1.3,2.8c0.1,2,0.6,3.9,2.8,5c1,0.5,2.2,0.4,3.3,0.4c1.7,0,3.5,0,5.2,0c12.3,0,24.7,0,37,0c3.9,0,7.8,0,11.7,0   c3.2,0,6.5-0.6,6.8-4.5c0,0,0-0.1,0-0.2c0-20.1,0-40.2,0-60.3c0-4.8,0-9.6,0-14.4c0-2.3,0.4-5.1-0.6-7.2   C83.7,5.4,79.1,6.2,76.3,6.2z M18.4,12.4c-0.1-0.2,0.1-0.4,0.3-0.6c0.1-0.1,0.2-0.2,0.4-0.3c0,0.5,0,0.9,0,1.4   C18.7,12.9,18.4,12.7,18.4,12.4z M18.6,16.3c0.1,0,0.2-0.1,0.4-0.1c0,0.7,0,1.5,0,2.2C18.2,17.9,17.4,16.8,18.6,16.3z M18.3,22.6   c-0.5-0.3-0.4-0.5-0.1-0.8c0.2-0.2,0.5-0.3,0.8-0.4c0,0.5,0,1,0,1.5C18.8,22.8,18.5,22.7,18.3,22.6z M18.1,28.3   c0-0.1-0.1-0.2,0-0.2c0-0.2,0.1-0.3,0.2-0.4c0.2-0.2,0.5-0.4,0.8-0.5c0,0.5,0,1.1,0,1.6C18.6,28.7,18.2,28.5,18.1,28.3z M19,31.5   c0,0.3,0,0.6,0,0.9C18.6,32.1,18.4,31.6,19,31.5z M18.4,35.4c0.2-0.1,0.4-0.2,0.6-0.2c0,0.5,0,1,0,1.4   C18.4,36.4,17.6,35.9,18.4,35.4z M18.3,40.1c-0.1-0.1-0.3-0.2-0.4-0.3c-0.1-0.1-0.1-0.1,0-0.1c0.3-0.2,0.7-0.3,1.1-0.2   c0,0.3,0,0.6,0,0.9C18.8,40.4,18.5,40.3,18.3,40.1z M18.5,44.6c-0.1-0.1-0.2-0.1-0.3-0.2c0,0-0.1-0.2-0.1-0.1   c0-0.2,0.6-0.3,0.8-0.3c0,0,0.1,0,0.1,0c0,0.3,0,0.6,0,0.8C18.8,44.8,18.7,44.7,18.5,44.6z M18.5,48.6c-0.5-0.2-0.4-0.2,0.1-0.5   C18.7,48,18.9,48,19,48c0,0.3,0,0.6,0,0.9C18.8,48.8,18.7,48.7,18.5,48.6z M18.3,52.6c0-0.2,0.4-0.2,0.7-0.2c0,0.3,0,0.5,0,0.8   C18.7,53,18.3,52.8,18.3,52.6z M18.6,56c0.1-0.1,0.3-0.1,0.5-0.1c0,0.3,0,0.6,0,1C18.6,56.7,18.1,56.3,18.6,56z M18.3,60.1   c0.2,0,0.4,0,0.7,0c0,0.3,0,0.6,0,0.9C18.4,60.7,17.7,60.2,18.3,60.1z M18.5,64.2c0.2,0,0.3-0.1,0.5,0c0,0.3,0,0.6,0,0.9   C18.4,64.9,17.6,64.5,18.5,64.2z M18.6,69.5c-0.1-0.1-0.2-0.1-0.2-0.2c0,0-0.1-0.1-0.1-0.1c0,0,0,0,0-0.1c0,0,0,0,0,0   c0,0,0,0,0-0.1c0-0.1,0.2-0.2,0.3-0.3c0.1-0.1,0.2-0.1,0.3-0.2c0,0.3,0,0.7,0,1C18.9,69.6,18.8,69.6,18.6,69.5z M18.1,73.3   c0.2-0.3,0.5-0.5,0.9-0.4c0,0.5,0,1,0,1.5C18.4,74.2,17.8,73.9,18.1,73.3z M18.6,78.9c-0.2-0.1-0.3-0.2-0.4-0.3c0,0,0,0,0,0   c0.1-0.1,0.3-0.2,0.3-0.2c0.2-0.1,0.4-0.2,0.6-0.2c0,0.3,0,0.6,0,0.9C18.9,79,18.7,79,18.6,78.9z M18.7,83.4   c-0.1-0.1-0.1-0.2-0.1-0.2c0-0.1,0-0.1,0.1-0.1c0.1-0.1,0.2-0.1,0.3-0.1c0,0.2,0,0.5,0,0.7C18.9,83.6,18.8,83.5,18.7,83.4z    M18.8,87.3c0.1,0,0.1,0,0.2-0.1c0,0.3,0,0.6,0,0.9c-0.1-0.1-0.2-0.1-0.3-0.2C18.4,87.7,18.5,87.5,18.8,87.3z M74.8,93.7   c-5.8,0-11.6,0-17.4,0c-10.8,0-21.7,0-32.5,0c-2.3,0-4.5-0.6-4.7-3.4c0-0.5,0-1.1,0-1.6c0-0.4,0-0.8,0-1.2c0.3,0.1,0.5,0.3,0.7,0.4   c0.6,0.5,1.2-0.6,0.6-1.1c-0.4-0.3-0.8-0.5-1.3-0.6c0-1,0-2,0-3c0.4,0.1,0.7,0.2,1.1,0.3c0.8,0.2,1.1-1,0.3-1.2   c-0.4-0.1-0.9-0.3-1.4-0.4c0-1.1,0-2.3,0-3.4c0.3,0.1,0.6,0.3,0.9,0.4c0.7,0.3,1.1-0.9,0.3-1.2c-0.4-0.1-0.8-0.3-1.2-0.5   c0-1.3,0-2.7,0-4c0.4,0.2,0.8,0.4,1.1,0.5c0.7,0.3,1-0.9,0.3-1.2c-0.5-0.2-1-0.4-1.4-0.5c0-1.1,0-2.2,0-3.3   c0.3,0.1,0.6,0.3,0.8,0.6c0.4,0.6,1.5,0,1-0.6c-0.4-0.6-1.1-1-1.8-1.2c0-1,0-2,0-2.9c0.3,0.1,0.6,0.3,0.8,0.5   c0.6,0.5,1.2-0.6,0.6-1.1c-0.4-0.3-0.9-0.6-1.5-0.7c0-0.9,0-1.8,0-2.8c0.3,0.1,0.5,0.2,0.7,0.4c0.6,0.4,1.3-0.6,0.6-1   c-0.4-0.2-0.8-0.5-1.3-0.6c0-0.9,0-1.8,0-2.7c0.3,0.1,0.7,0.3,1,0.4c0.7,0.3,1.1-0.9,0.3-1.2c-0.4-0.1-0.8-0.4-1.3-0.5   c0-0.8,0-1.7,0-2.5c0.2,0.1,0.5,0.2,0.7,0.3c0.7,0.3,1.1-0.9,0.3-1.2c-0.3-0.1-0.7-0.3-1-0.4c0-1.1,0-2.1,0-3.2   c0.3,0.1,0.6,0.2,0.9,0.3c0.7,0.3,1-0.9,0.3-1.2c-0.4-0.1-0.8-0.3-1.2-0.3c0-0.9,0-1.8,0-2.7c0.2,0.1,0.4,0.1,0.6,0.2   c0.7,0.2,1.1-0.9,0.3-1.2c-0.3-0.1-0.6-0.2-0.9-0.3c0-1,0-1.9,0-2.9c0.1,0.1,0.2,0.2,0.3,0.3c0.6,0.5,1.4-0.3,0.9-0.9   c-0.3-0.3-0.7-0.6-1.2-0.8c0-1.1,0-2.2,0-3.3c0.3,0.1,0.5,0.2,0.7,0.3c0.7,0.3,1.3-0.7,0.6-1c-0.4-0.2-0.8-0.4-1.3-0.5   c0-0.8,0-1.7,0-2.5c0.2,0.1,0.4,0.2,0.6,0.3c0.6,0.4,1.3-0.6,0.6-1c-0.3-0.2-0.7-0.4-1.2-0.5c0-1,0-2.1,0-3.1   c0.3,0.1,0.5,0.2,0.7,0.4c0.6,0.5,1.2-0.6,0.6-1.1c-0.4-0.3-0.8-0.5-1.3-0.6c0-1.5,0-3,0-4.5c0.3,0.1,0.6,0.3,0.9,0.4   c0.7,0.4,1.3-0.7,0.6-1c-0.5-0.3-1-0.5-1.5-0.6c0-1.4,0-2.8,0-4.1c0.4,0,0.7,0.1,1.1,0.2c0.8,0.2,1.1-1,0.3-1.2   c-0.4-0.1-0.9-0.2-1.4-0.2c0-1,0-2.1,0-3.1c0-0.2,0-0.3,0-0.5c0.4,0,0.8,0.1,1.1,0.3c0.7,0.4,1.3-0.7,0.6-1c-0.5-0.2-1-0.4-1.5-0.4   c0.4-1.4,1.3-2.6,3.2-2.7c0.7,0,1.5,0,2.2,0c4.7,0,9.5,0,14.2,0c12.1,0,24.2,0,36.3,0c2.9,0,8.3-0.9,8.3,3.5c0,2.5,0,5,0,7.4   c0,22.7,0,45.5,0,68.2c0,1.2,0,2.4,0,3.6C84.3,94.8,78,93.7,74.8,93.7z"/>
	<path d="M68.6,28.7c-0.7-0.4-1.8-0.7-2.3-1.3c0.4-0.5,0.8-1.1,1-1.7c0.7-1.8-3.1-0.5-2.4,1.4c0,0.1,0.1,0.2,0.1,0.3   c-0.1,0.1-0.2,0.2-0.3,0.3c-0.7,0.7-1.5,1.3-2.3,1.9c-0.8,0.6-1.9,1.2-2.3,0.7c0.7-0.7,1.2-1.5,1.7-2.5c0.4-0.8,0.1-1.6-0.8-1.6   c-1.2,0-1.8,1.9-1.9,2.8C59,29.4,59,29.8,59,30.1c-1.4,1-3.8,2.1-4.4,0.7c-0.5-1.2-0.1-3.1,0.4-4.7c0.2-0.2,0.4-0.3,0.6-0.5   c1.4-0.1,2.7-0.2,4.1-0.6c0.6-0.1,0.3-1-0.2-0.9c-1,0.2-1.9,0.4-2.9,0.5c0.3-0.5,0.4-1.3-0.2-1.7c-0.7-0.4-1.6,1.1-1.7,1.6   c0,0.1,0,0.2-0.1,0.3c-0.7,0.1-1.5,0.1-2.2,0.2c-0.6,0.1-0.3,1,0.2,0.9c0.5-0.1,0.9-0.1,1.4-0.2c-0.4,0.2-0.7,0.4-1,0.6   c-0.3,0.2-0.6,0.4-0.9,0.6c-0.3-1.1-1.8-1.2-2.4-0.7c-0.2-0.1-0.4-0.1-0.6,0c-0.5,0.4-1.4,1.6-1.9,2.8c-0.4,0.4-0.8,0.8-1.1,1.1   c-0.6,0.6-1.3,1.1-2,1.6c-1.2,0.6-0.6-1.7-0.5-2.1c0.4-1.7,2.5-5.7,0.8-7.3c-1-1-2.9,1.6-4.1,3.6c0.1-1.1,0-2.3-0.7-3   c-1.6-1.6-4.4,3-4.8,4c-0.2,0.5,0.6,1,0.8,0.5c0.3-0.7,3.2-4.9,3.7-3.3c0.4,1.2,0.1,2.7-0.2,4.1c-0.8,1.3-3.1,4.9-1.6,5.7   c0.2,0.1,0.4,0.1,0.6-0.1c1.4-1.3,1.6-3.5,1.9-5.3c0.3-0.5,0.6-1,0.9-1.4c0.5-0.8,1.1-1.7,1.6-2.4c0.2-0.3,1.6-2.1,1.6-0.6   c0,0.7-0.1,1.3-0.2,1.9c-0.3,1.3-2.9,6.6-0.2,6.9c1.1,0.1,2.5-1.3,3.3-2.1c0,0.6,0.3,1.1,0.9,1.3c2.1,0.9,3.9-2.2,4.3-4.1   c0.6-0.3,1.3-0.7,1.9-1.1c-0.5,2-0.8,4.3,0.8,5.3c1.1,0.7,2.9-0.4,3.9-0.9c0.3-0.2,0.5-0.3,0.8-0.5c0.5,0.7,1.7,0.6,2.9-0.1   c1.1-0.6,2.4-1.6,3.4-2.6c0.6,0.5,1.4,0.8,2.2,1.1c1,0.5,1.4,2.3,0,2.7c-0.5,0.2-1.1,0-1.6-0.1c-0.8-0.2-1.5-0.5-2.2-0.8   c-0.6-0.2-0.8,0.7-0.2,0.9c1.6,0.5,3.4,1.5,5,0.6C70.1,31.8,69.8,29.5,68.6,28.7z M37.9,32.7c0.1-0.5,0.3-0.9,0.5-1.4   C38.2,31.8,37.7,33.4,37.9,32.7z M50.5,29.5c-0.5,0.8-3.1,3.2-2.6,0.6c0-0.2,0.1-0.4,0.1-0.6c0.6-0.6,1.1-1.3,1.5-2c0,0,0,0,0,0   c0.3,0.6,0.8,0.8,1.4,0.7C50.7,28.8,50.6,29.3,50.5,29.5z M60.2,28.2c0-0.7,0.3-0.8,0.7-0.5c-0.3,0.5-0.5,1-0.8,1.5   c0,0,0,0.1-0.1,0.1c0-0.1,0-0.2,0-0.3C60.1,28.7,60.1,28.4,60.2,28.2z"/>
</g>
</svg>