<?xml version="1.0" encoding="utf-8"?>
<!-- Generator: Adobe Illustrator 18.1.1, SVG Export Plug-In . SVG Version: 6.00 Build 0)  -->
<svg version="1.1" id="Layer_3" xmlns="http://www.w3.org/2000/svg" xmlns:xlink="http://www.w3.org/1999/xlink" x="0px" y="0px"
	 viewBox="-120 121.2 100 100" enable-background="new -120 121.2 100 100" xml:space="preserve">
<g>
	<path fill="#0F0F5B" d="M-43.7,127.4c-5.5,0-11,0-16.5,0c-11.3,0-22.7,0-34,0c-0.7,0-1.5,0-2.2,0c-2.4,0-4.3,1.8-4.6,4
		c-0.5,0.2-1,0.4-1.4,0.9c-0.4,0.5-0.7,1.1-0.5,1.8c0.3,0.8,1.1,1.2,1.8,1.4c0,0.2,0,0.5,0,0.7c-0.6,0.1-1.2,0.3-1.6,0.7
		c-0.6,0.6-0.7,1.7-0.3,2.4c0.4,0.8,1.1,1.3,2,1.6c0,0.1,0,0.3,0,0.4c-0.8,0.1-1.5,0.4-2,1.2c-0.9,1.5,0.7,2.5,2,2.8
		c0,0.6,0,1.2,0,1.8c-0.7,0.1-1.3,0.4-1.8,1c-0.4,0.6-0.6,1.2-0.3,1.9c0.3,0.7,1.3,1.1,2,1.2c0,0.1,0,0.1,0,0.2
		c-0.4,0-0.7,0.2-1,0.4c-1.3,1.1-0.4,2.6,1,3.1c0,0.1,0,0.2,0,0.3c-0.7,0-1.4,0.2-1.8,0.8c-1.1,1.4,0.4,2.8,1.8,3.1
		c0,0.1,0,0.3,0,0.4c-0.8-0.1-1.6,0.1-2.1,0.8c-1,1.3,1,2.4,2.1,2.6c0,0.4,0,0.7,0,1.1c-0.3,0-0.5,0-0.8,0.1
		c-0.6,0.2-1.2,0.6-1.3,1.2c-0.2,1.2,1,1.8,2.1,2c0,0.3,0,0.5,0,0.8c-0.7,0-1.4,0.3-1.8,0.9c-0.9,1.3,0.8,2.1,1.8,2.4
		c0,0.3,0,0.7,0,1c-0.2,0-0.3,0-0.5,0.1c-0.6,0.1-1.2,0.5-1.4,1.1c-0.2,1.1,0.9,1.9,1.9,2.1c0,0.1,0,0.2,0,0.3
		c-0.6-0.1-1.2,0.1-1.6,0.7c-0.9,1.2,0.5,2.4,1.6,2.8c0,0.2,0,0.4,0,0.6c-0.6,0-1.3,0.1-1.7,0.4c-1.5,1.2,0.5,2.7,1.7,3
		c0,0.2,0,0.5,0,0.7c-0.7,0-1.4,0.2-1.8,0.7c-1.1,1.3,0.7,2.4,1.9,2.7c0,0.4,0,0.7,0,1.1c-0.4,0.1-0.7,0.2-1.1,0.4
		c-0.6,0.4-0.9,1-0.8,1.7c0.2,0.8,1.1,1.2,1.9,1.4c0,0.3,0,0.5,0,0.8c-0.8,0-1.5,0.2-2,1.1c-0.9,1.5,0.8,2.3,2,2.7
		c0,0.5,0,0.9,0,1.4c-0.7,0-1.5,0.3-1.9,1c-0.8,1.3,0.8,2.1,1.9,2.4c0,0.4,0,0.9,0,1.4c-0.6,0-1.1,0.2-1.4,0.8
		c-0.7,1.1,0.5,2.1,1.4,2.5c0,0.4,0,0.7,0,1.1c-0.5,0.1-0.9,0.3-1.3,0.6c-1.2,1.1,0.2,2.4,1.3,2.8c0.1,2,0.6,3.9,2.8,5
		c1,0.5,2.2,0.4,3.3,0.4c1.7,0,3.5,0,5.2,0c12.3,0,24.7,0,37,0c3.9,0,7.8,0,11.7,0c3.2,0,6.5-0.6,6.8-4.5c0,0,0-0.1,0-0.2
		c0-20.1,0-40.2,0-60.3c0-4.8,0-9.6,0-14.4c0-2.3,0.4-5.1-0.6-7.2C-36.3,126.6-40.9,127.4-43.7,127.4z M-101.6,133.6
		c-0.1-0.2,0.1-0.4,0.3-0.6c0.1-0.1,0.2-0.2,0.4-0.3c0,0.5,0,0.9,0,1.4C-101.3,134.1-101.6,133.9-101.6,133.6z M-101.4,137.5
		c0.1,0,0.2-0.1,0.4-0.1c0,0.7,0,1.5,0,2.2C-101.8,139.1-102.6,138-101.4,137.5z M-101.7,143.8c-0.5-0.3-0.4-0.5-0.1-0.8
		c0.2-0.2,0.5-0.3,0.8-0.4c0,0.5,0,1,0,1.5C-101.2,144-101.5,143.9-101.7,143.8z M-101.9,149.5c0-0.1-0.1-0.2,0-0.2
		c0-0.2,0.1-0.3,0.2-0.4c0.2-0.2,0.5-0.4,0.8-0.5c0,0.5,0,1.1,0,1.6C-101.4,149.9-101.8,149.7-101.9,149.5z M-101,152.7
		c0,0.3,0,0.6,0,0.9C-101.4,153.3-101.6,152.8-101,152.7z M-101.6,156.6c0.2-0.1,0.4-0.2,0.6-0.2c0,0.5,0,1,0,1.4
		C-101.6,157.6-102.4,157.1-101.6,156.6z M-101.7,161.3c-0.1-0.1-0.3-0.2-0.4-0.3c-0.1-0.1-0.1-0.1,0-0.1c0.3-0.2,0.7-0.3,1.1-0.2
		c0,0.3,0,0.6,0,0.9C-101.2,161.6-101.5,161.5-101.7,161.3z M-101.5,165.8c-0.1-0.1-0.2-0.1-0.3-0.2c0,0-0.1-0.2-0.1-0.1
		c0-0.2,0.6-0.3,0.8-0.3h0.1c0,0.3,0,0.6,0,0.8C-101.2,166-101.3,165.9-101.5,165.8z M-101.5,169.8c-0.5-0.2-0.4-0.2,0.1-0.5
		c0.1-0.1,0.3-0.1,0.4-0.1c0,0.3,0,0.6,0,0.9C-101.2,170-101.3,169.9-101.5,169.8z M-101.7,173.8c0-0.2,0.4-0.2,0.7-0.2
		c0,0.3,0,0.5,0,0.8C-101.3,174.2-101.7,174-101.7,173.8z M-101.4,177.2c0.1-0.1,0.3-0.1,0.5-0.1c0,0.3,0,0.6,0,1
		C-101.4,177.9-101.9,177.5-101.4,177.2z M-101.7,181.3c0.2,0,0.4,0,0.7,0c0,0.3,0,0.6,0,0.9C-101.6,181.9-102.3,181.4-101.7,181.3z
		 M-101.5,185.4c0.2,0,0.3-0.1,0.5,0c0,0.3,0,0.6,0,0.9C-101.6,186.1-102.4,185.7-101.5,185.4z M-101.4,190.7
		c-0.1-0.1-0.2-0.1-0.2-0.2l-0.1-0.1c0,0,0,0,0-0.1l0,0c0,0,0,0,0-0.1c0-0.1,0.2-0.2,0.3-0.3c0.1-0.1,0.2-0.1,0.3-0.2
		c0,0.3,0,0.7,0,1C-101.1,190.8-101.2,190.8-101.4,190.7z M-101.9,194.5c0.2-0.3,0.5-0.5,0.9-0.4c0,0.5,0,1,0,1.5
		C-101.6,195.4-102.2,195.1-101.9,194.5z M-101.4,200.1c-0.2-0.1-0.3-0.2-0.4-0.3l0,0c0.1-0.1,0.3-0.2,0.3-0.2
		c0.2-0.1,0.4-0.2,0.6-0.2c0,0.3,0,0.6,0,0.9C-101.1,200.2-101.3,200.2-101.4,200.1z M-101.3,204.6c-0.1-0.1-0.1-0.2-0.1-0.2
		c0-0.1,0-0.1,0.1-0.1c0.1-0.1,0.2-0.1,0.3-0.1c0,0.2,0,0.5,0,0.7C-101.1,204.8-101.2,204.7-101.3,204.6z M-101.2,208.5
		c0.1,0,0.1,0,0.2-0.1c0,0.3,0,0.6,0,0.9c-0.1-0.1-0.2-0.1-0.3-0.2C-101.6,208.9-101.5,208.7-101.2,208.5z M-45.2,214.9
		c-5.8,0-11.6,0-17.4,0c-10.8,0-21.7,0-32.5,0c-2.3,0-4.5-0.6-4.7-3.4c0-0.5,0-1.1,0-1.6c0-0.4,0-0.8,0-1.2c0.3,0.1,0.5,0.3,0.7,0.4
		c0.6,0.5,1.2-0.6,0.6-1.1c-0.4-0.3-0.8-0.5-1.3-0.6c0-1,0-2,0-3c0.4,0.1,0.7,0.2,1.1,0.3c0.8,0.2,1.1-1,0.3-1.2
		c-0.4-0.1-0.9-0.3-1.4-0.4c0-1.1,0-2.3,0-3.4c0.3,0.1,0.6,0.3,0.9,0.4c0.7,0.3,1.1-0.9,0.3-1.2c-0.4-0.1-0.8-0.3-1.2-0.5
		c0-1.3,0-2.7,0-4c0.4,0.2,0.8,0.4,1.1,0.5c0.7,0.3,1-0.9,0.3-1.2c-0.5-0.2-1-0.4-1.4-0.5c0-1.1,0-2.2,0-3.3
		c0.3,0.1,0.6,0.3,0.8,0.6c0.4,0.6,1.5,0,1-0.6c-0.4-0.6-1.1-1-1.8-1.2c0-1,0-2,0-2.9c0.3,0.1,0.6,0.3,0.8,0.5
		c0.6,0.5,1.2-0.6,0.6-1.1c-0.4-0.3-0.9-0.6-1.5-0.7c0-0.9,0-1.8,0-2.8c0.3,0.1,0.5,0.2,0.7,0.4c0.6,0.4,1.3-0.6,0.6-1
		c-0.4-0.2-0.8-0.5-1.3-0.6c0-0.9,0-1.8,0-2.7c0.3,0.1,0.7,0.3,1,0.4c0.7,0.3,1.1-0.9,0.3-1.2c-0.4-0.1-0.8-0.4-1.3-0.5
		c0-0.8,0-1.7,0-2.5c0.2,0.1,0.5,0.2,0.7,0.3c0.7,0.3,1.1-0.9,0.3-1.2c-0.3-0.1-0.7-0.3-1-0.4c0-1.1,0-2.1,0-3.2
		c0.3,0.1,0.6,0.2,0.9,0.3c0.7,0.3,1-0.9,0.3-1.2c-0.4-0.1-0.8-0.3-1.2-0.3c0-0.9,0-1.8,0-2.7c0.2,0.1,0.4,0.1,0.6,0.2
		c0.7,0.2,1.1-0.9,0.3-1.2c-0.3-0.1-0.6-0.2-0.9-0.3c0-1,0-1.9,0-2.9c0.1,0.1,0.2,0.2,0.3,0.3c0.6,0.5,1.4-0.3,0.9-0.9
		c-0.3-0.3-0.7-0.6-1.2-0.8c0-1.1,0-2.2,0-3.3c0.3,0.1,0.5,0.2,0.7,0.3c0.7,0.3,1.3-0.7,0.6-1c-0.4-0.2-0.8-0.4-1.3-0.5
		c0-0.8,0-1.7,0-2.5c0.2,0.1,0.4,0.2,0.6,0.3c0.6,0.4,1.3-0.6,0.6-1c-0.3-0.2-0.7-0.4-1.2-0.5c0-1,0-2.1,0-3.1
		c0.3,0.1,0.5,0.2,0.7,0.4c0.6,0.5,1.2-0.6,0.6-1.1c-0.4-0.3-0.8-0.5-1.3-0.6c0-1.5,0-3,0-4.5c0.3,0.1,0.6,0.3,0.9,0.4
		c0.7,0.4,1.3-0.7,0.6-1c-0.5-0.3-1-0.5-1.5-0.6c0-1.4,0-2.8,0-4.1c0.4,0,0.7,0.1,1.1,0.2c0.8,0.2,1.1-1,0.3-1.2
		c-0.4-0.1-0.9-0.2-1.4-0.2c0-1,0-2.1,0-3.1c0-0.2,0-0.3,0-0.5c0.4,0,0.8,0.1,1.1,0.3c0.7,0.4,1.3-0.7,0.6-1c-0.5-0.2-1-0.4-1.5-0.4
		c0.4-1.4,1.3-2.6,3.2-2.7c0.7,0,1.5,0,2.2,0c4.7,0,9.5,0,14.2,0c12.1,0,24.2,0,36.3,0c2.9,0,8.3-0.9,8.3,3.5c0,2.5,0,5,0,7.4
		c0,22.7,0,45.5,0,68.2c0,1.2,0,2.4,0,3.6C-35.7,216-42,214.9-45.2,214.9z"/>
	<path fill="#0F0F5B" d="M-51.4,149.9c-0.7-0.4-1.8-0.7-2.3-1.3c0.4-0.5,0.8-1.1,1-1.7c0.7-1.8-3.1-0.5-2.4,1.4
		c0,0.1,0.1,0.2,0.1,0.3c-0.1,0.1-0.2,0.2-0.3,0.3c-0.7,0.7-1.5,1.3-2.3,1.9c-0.8,0.6-1.9,1.2-2.3,0.7c0.7-0.7,1.2-1.5,1.7-2.5
		c0.4-0.8,0.1-1.6-0.8-1.6c-1.2,0-1.8,1.9-1.9,2.8c-0.1,0.4-0.1,0.8-0.1,1.1c-1.4,1-3.8,2.1-4.4,0.7c-0.5-1.2-0.1-3.1,0.4-4.7
		c0.2-0.2,0.4-0.3,0.6-0.5c1.4-0.1,2.7-0.2,4.1-0.6c0.6-0.1,0.3-1-0.2-0.9c-1,0.2-1.9,0.4-2.9,0.5c0.3-0.5,0.4-1.3-0.2-1.7
		c-0.7-0.4-1.6,1.1-1.7,1.6c0,0.1,0,0.2-0.1,0.3c-0.7,0.1-1.5,0.1-2.2,0.2c-0.6,0.1-0.3,1,0.2,0.9c0.5-0.1,0.9-0.1,1.4-0.2
		c-0.4,0.2-0.7,0.4-1,0.6c-0.3,0.2-0.6,0.4-0.9,0.6c-0.3-1.1-1.8-1.2-2.4-0.7c-0.2-0.1-0.4-0.1-0.6,0c-0.5,0.4-1.4,1.6-1.9,2.8
		c-0.4,0.4-0.8,0.8-1.1,1.1c-0.6,0.6-1.3,1.1-2,1.6c-1.2,0.6-0.6-1.7-0.5-2.1c0.4-1.7,2.5-5.7,0.8-7.3c-1-1-2.9,1.6-4.1,3.6
		c0.1-1.1,0-2.3-0.7-3c-1.6-1.6-4.4,3-4.8,4c-0.2,0.5,0.6,1,0.8,0.5c0.3-0.7,3.2-4.9,3.7-3.3c0.4,1.2,0.1,2.7-0.2,4.1
		c-0.8,1.3-3.1,4.9-1.6,5.7c0.2,0.1,0.4,0.1,0.6-0.1c1.4-1.3,1.6-3.5,1.9-5.3c0.3-0.5,0.6-1,0.9-1.4c0.5-0.8,1.1-1.7,1.6-2.4
		c0.2-0.3,1.6-2.1,1.6-0.6c0,0.7-0.1,1.3-0.2,1.9c-0.3,1.3-2.9,6.6-0.2,6.9c1.1,0.1,2.5-1.3,3.3-2.1c0,0.6,0.3,1.1,0.9,1.3
		c2.1,0.9,3.9-2.2,4.3-4.1c0.6-0.3,1.3-0.7,1.9-1.1c-0.5,2-0.8,4.3,0.8,5.3c1.1,0.7,2.9-0.4,3.9-0.9c0.3-0.2,0.5-0.3,0.8-0.5
		c0.5,0.7,1.7,0.6,2.9-0.1c1.1-0.6,2.4-1.6,3.4-2.6c0.6,0.5,1.4,0.8,2.2,1.1c1,0.5,1.4,2.3,0,2.7c-0.5,0.2-1.1,0-1.6-0.1
		c-0.8-0.2-1.5-0.5-2.2-0.8c-0.6-0.2-0.8,0.7-0.2,0.9c1.6,0.5,3.4,1.5,5,0.6C-49.9,153-50.2,150.7-51.4,149.9z M-82.1,153.9
		c0.1-0.5,0.3-0.9,0.5-1.4C-81.8,153-82.3,154.6-82.1,153.9z M-69.5,150.7c-0.5,0.8-3.1,3.2-2.6,0.6c0-0.2,0.1-0.4,0.1-0.6
		c0.6-0.6,1.1-1.3,1.5-2l0,0c0.3,0.6,0.8,0.8,1.4,0.7C-69.3,150-69.4,150.5-69.5,150.7z M-59.8,149.4c0-0.7,0.3-0.8,0.7-0.5
		c-0.3,0.5-0.5,1-0.8,1.5c0,0,0,0.1-0.1,0.1c0-0.1,0-0.2,0-0.3C-59.9,149.9-59.9,149.6-59.8,149.4z"/>
</g>
</svg>
