<svg xmlns="http://www.w3.org/2000/svg" xmlns:xlink="http://www.w3.org/1999/xlink" version="1.1" id="Layer_3" x="0px" y="0px" viewBox="0 0 100 100" enable-background="new 0 0 100 100" xml:space="preserve" height="100px" width="100px">
<path d="M53.9,79.2c0,0.1,0,0.1,0.1,0.2c0,0.1,0,0.2,0.1,0.3c1.7,2.7,4.3,4.6,6.3,7.1c2.2,2.8,4,5.9,6.5,8.5c0.4,0.4,1,0.1,1.1-0.4  c0.1-0.1,0.2-0.2,0.2-0.4c1.4-6.6-0.4-13.4,0.3-20.1c0-0.2,0-0.3-0.1-0.4c0-0.1,0-0.2-0.1-0.3c0-0.1,0-0.1,0-0.2  c-1.9-5.9-3.5-12-5.6-17.9c-2.2-6.1-4.6-12.2-6.8-18.3c-2.1-5.9-4.2-11.8-6.2-17.8c-1.5-4.4-2.1-9.3-5-12.9c0.1-0.5-0.3-1-0.9-0.8  c0,0-0.1,0-0.1,0c-0.1,0-0.1,0-0.2,0.1c-4,1.2-8.6,1.5-11.9,4.2c-0.3,0.2-0.3,0.5-0.2,0.8c-0.2,0.2-0.2,0.4-0.2,0.7  c3.7,11.3,7.3,22.7,11,34.1c1.9,5.8,3.8,11.5,5.7,17.3C49.8,68.4,52.1,73.7,53.9,79.2z M52.2,42.5c1.9,5.8,3.7,11.7,5.4,17.5  c1.4,4.8,3.7,9.1,5.4,13.7c-0.7-0.5-1.5-0.7-2.5-0.4c-0.8,0.3-1.3,0.9-1.5,1.6c-1.4-4.7-2.5-9.5-4-14.2c0.1,0,0.1,0,0.2-0.1  c0.4-0.6,0.7-1.2,1.1-1.9c0.5,0.4,0.6,0.9,0.5,1.5c0,0.6-0.1,1.2-0.2,1.8c-0.2,1-0.3,1.9,0,3c0,0.1,0.2,0.2,0.3,0.1  c0.3-0.4,0.5-0.7,0.8-1.1c0.9-1.3,0.4,0.5,0.3,0.9c-0.2,1.2-0.5,2.3-0.5,3.5c0,0.2,0.2,0.2,0.3,0.1c0.3-0.3,0.5-0.4,0.7-0.9  c0.2-0.4,0.8-2.5,0.9-1.2c0.1,1.6-0.9,3.2-1,4.8c0,0.2,0.2,0.2,0.3,0.1c0.4-0.4,0.7-0.8,1-1.2c0.3-0.4,0.7-1.3,0.4-0.1  c-0.2,1.1-0.8,2.1-1,3.2c0,0.1,0.1,0.3,0.3,0.2c0.4-0.3,0.6-0.4,0.9-0.9c0.7-1.1,0.7-1.3,0.1,0c-0.1,0.1,0.1,0.3,0.2,0.2  c0.7-0.3,0.5-0.1,1.1-0.6c0.2-0.1,0-0.4-0.2-0.3c-1.1,0.8-0.1-0.7,0.1-1.2c0-0.2-0.2-0.3-0.3-0.2c-0.5,0.7-2.3,3.8-1.2,0.9  c0.4-0.9,0.6-1.8,0.6-2.7c0-0.2-0.2-0.2-0.3-0.1c-0.1,0.2-1.7,2.9-1.4,1.6c0.1-0.6,0.4-1.2,0.5-1.8c0.3-1,0.4-2,0.1-3  c0-0.1-0.3-0.2-0.3,0c-0.2,0.5-0.5,1.1-0.7,1.6c-1,2.3-0.6,0-0.5-0.6c0.2-1.1,0.5-2.2,0.5-3.3c0-0.2-0.2-0.2-0.3-0.1  c-0.3,0.3-1.3,2.1-1.4,1c-0.1-1,0.2-2,0.4-3c0.1-1.1,0-1.9-0.5-2.8c-0.1-0.1-0.2-0.1-0.3,0c-0.9,1.4-1.5,2.9-1,0.1  c0.2-1.2,0.5-2.3,0.4-3.6c0-0.1-0.2-0.2-0.3-0.1c-0.3,0.4-0.5,0.7-0.8,1.1c-1.1,1.5-0.4-0.9-0.3-1.1c0.3-1.3,0.5-2.4,0.4-3.7  c0-0.2-0.3-0.2-0.3-0.1c-0.4,0.8-1.4,2.7-1,0.5c0.2-1.1,0.4-2.1,0.4-3.1c0-0.1-0.2-0.2-0.3-0.1c-0.4,0.5-0.7,1.1-1.1,1.6  c0,0,0.1-1.7,0.2-1.9c0.2-0.9,0.3-1.7,0-2.7c0-0.2-0.3-0.1-0.3,0c-0.6,2-0.8,0.9-0.7-0.1c0.1-0.8,0.3-1.6,0.4-2.4  c0-0.2-0.2-0.3-0.3-0.2c-0.3,0.3-0.6,0.6-0.8,0.9c-0.9,1.1-0.4-0.2-0.3-0.7c0.2-0.9,0.4-1.7,0.3-2.6c0-0.1-0.2-0.2-0.3-0.1  c-0.3,0.4-0.6,0.8-0.9,1.2c-0.1-0.6-0.1-1.1,0.1-1.7C50,38.5,50,37.8,50,37c0-0.2-0.2-0.2-0.3-0.1c-0.4,0.4-1.6,2.2-1.2,0.5  c0.3-1.1,0.7-2.1,0.6-3.3c0-0.2-0.2-0.2-0.3-0.1c-0.4,0.4-0.7,0.8-1,1.2c-0.8,1.1-0.1-1.1-0.1-1.2c0.3-1.1,0.5-2.2,0.3-3.3  c0-0.2-0.3-0.1-0.3,0c-0.2,0.4-1.4,1.9-1.4,2c-0.1-0.7,0.3-1.6,0.4-2.2c0.3-1,0.4-1.9,0.2-2.9c0-0.1-0.2-0.2-0.3-0.1  c-0.3,0.4-1.5,1.6-1.5,1.9c0.2-1.2,0.8-2.2,1-3.4c0-0.2-0.2-0.3-0.3-0.2c-0.6,0.6-1.5,2.3-0.9,0.5c0.3-1,0.5-2,0.6-3.1  c0-0.2-0.2-0.2-0.3-0.1c0,0.1-1.8,2.3-1.6,1c0.1-1.1,0.6-2.1,0.7-3.2c0-0.1-0.1-0.3-0.3-0.2c-0.6,0.5-2.5,3.2-1.6,0.9  c0.4-1.1,1-1.9,0.8-3.1c0-0.2-0.2-0.2-0.3-0.1c-0.4,0.4-1.8,2.5-1.4,0.8c0.3-1.2,0.7-2.3,0.8-3.6c0-0.2-0.2-0.2-0.3-0.1  c-1.6,2.6-0.5-0.9-0.4-1.4c0-0.2-0.2-0.3-0.3-0.2c-1.7,2-0.4-0.9-0.3-1.6c0-0.2-0.2-0.3-0.3-0.2c-1.6,2.3-0.1-1.2,0.1-2  c0-0.1-0.1-0.2-0.2-0.2c-0.8,0.2-1.1,0.8-1.6,1.4c0.5-0.7,0.9-1.4,1-2.5c0-0.2-0.2-0.2-0.3-0.1c-0.4,0.3-1.6,2.3-1.5,1.2  c0-0.1-0.1-0.2-0.2-0.2c-0.5,0-0.4,0-0.8,0.2c-0.2,0.1,0,0.4,0.2,0.3c0.1,0,0.2,0,0.3,0.1c-0.1,0.2,0.1,0.3,0.3,0.2  c0.7-0.4,0.4-0.2,1-0.8c1.4-1.2-0.1,1.4-0.3,1.9c-0.1,0.2,0.2,0.4,0.3,0.2c0.1-0.1,1.5-1.5,1.4-1.3c-0.2,0.9-0.6,1.8-1,2.6  c-0.1,0.2,0.1,0.3,0.3,0.2c0.4-0.2,0.7-0.3,1-0.7c-0.4,0.6-0.6,1.6-0.9,2.3c-0.1,0.1,0.1,0.3,0.2,0.2c0.5-0.2,0.8-0.3,1.1-0.7  c-0.3,0.4-0.5,1.7-0.6,2.2c0,0.2,0.1,0.3,0.3,0.2c0.7-0.4,1.3-1.6,1.1-0.2c-0.2,1.2-0.7,2.4-0.9,3.6c0,0.2,0.1,0.3,0.3,0.2  c0.6-0.4,0.4-0.2,0.9-0.8c-0.1,0.1,1-1.8,0.9-0.6c-0.1,1.3-1.1,2.3-1.2,3.6c0,0.2,0.1,0.3,0.3,0.2c0.5-0.3,1.9-1.2,1.9-1.7  c-0.1,1.3-0.8,2.5-0.7,3.8c0,0.1,0.2,0.2,0.3,0.1c0.7-0.4,1.1-1,1.6-1.7c0,0.6-0.1,1.1-0.3,1.7c-0.2,0.7-0.4,1.5-0.6,2.2  c0,0.2,0.2,0.3,0.3,0.2c0.3-0.2,1.2-1.2,1.2-1.3c-0.2,1.2-0.8,2.2-1,3.4c0,0.2,0.1,0.3,0.3,0.2c0.6-0.4,0.4-0.2,0.9-0.8  c0.6-0.7,0.9-0.5,0.7,0.4c-0.3,1.2-0.7,2.2-0.6,3.4c0,0.1,0.2,0.2,0.3,0.1c0.4-0.5,1.6-3,1.3-0.8c-0.2,1.1-0.6,2.2-0.8,3.4  c0,0.2,0.1,0.3,0.3,0.2c0.7-0.4,1.7-2.3,1.5-0.8c-0.2,1.4-0.8,2.5-0.7,3.9c0,0.2,0.2,0.2,0.3,0.1c0,0,1.5-1.9,1.4-0.9  c-0.1,1.1-0.4,2.1-0.5,3.1c0,0.2,0.2,0.2,0.3,0.1c0.8-0.7,1.3-1.5,1,0.1c-0.2,0.9-0.4,1.7-0.3,2.6c0,0.1,0.2,0.2,0.3,0.1  c0.5-0.7,1.4-2.6,1-0.6c-0.2,1-0.4,2.1-0.4,3.1c0,0.1,0.2,0.2,0.3,0.1c0.6-0.5,0.9-0.9,1.2-1.6c-0.4,1.2-0.6,3.1-0.5,4.4  c0,0.2,0.2,0.2,0.3,0.1c0.3-0.3,0.6-0.6,0.8-0.9c1-1.3,0.3,0.6,0.2,1.1c-0.2,1.1-0.4,2.1-0.4,3.1c0,0.2,0.2,0.2,0.3,0.1  c0.4-0.5,1.4-1.7,1.3-2.1c0.2,1.6-0.7,3.5-0.8,5.1c-1.6-4.5-3.2-8.9-4.8-13.4c-2-5.6-3.9-11.2-6.2-16.7C40,20.8,37.6,15.1,36.8,9  l0,0c1.2-0.4,2.5-0.7,3.8-1C44.4,19.6,48.5,31,52.2,42.5z M53.6,56.7c0.1,0.1,0.1,0.1,0.2,0c1.2-1,1.9-2.7,1.4,0.1  C55,58,54.7,59,54.8,60.2C54.4,59,54,57.9,53.6,56.7z M40.5,25.2c2.4,5.5,4.4,11,6.3,16.6c2.1,5.9,4.3,11.7,6.3,17.5  c1.8,5.2,3,10.4,4.5,15.7c-0.3-0.1-0.6-0.2-1-0.3c-1.2-0.2-1.9,0.5-2.2,1.4c-1.6-4.2-3.3-8.4-4.8-12.7c-1.9-5.7-3.8-11.5-5.7-17.3  c-3.8-11.6-7.4-23.3-11.2-34.9c0,0,0,0,0,0c0.9-0.7,1.8-1.2,2.9-1.6C36.2,15,38.3,20.1,40.5,25.2z M55.4,79c0.1-0.1,0.2-0.3,0.1-0.5  c-0.1-0.5-0.1-1,0-1.6c0.3-2.5,2.6,0.3,2.8,0.6c0,0,0,0.1,0.1,0.1c0,0.1,0.1,0.2,0.1,0.3c0,0.2,0.1,0.3,0.2,0.3  c0.3,0.6,0.5,1.3,0.8,1.9c0,0,0,0,0,0h0c0,0.1,0.1,0.1,0.1,0.2c0.4,0.7,1.5,0.1,1.2-0.6c-0.5-1.5-1-3.3-0.3-4.8c0.9-2,2.7,1.1,3,1.6  c0.4,0.8,0.8,1.6,1.2,2.4c0.4,0.7,1.5,0.1,1.2-0.6c-0.2-0.7-0.4-1.4-0.6-2.2c-0.1-0.8,0.6-3.6,1.7-1.9c-0.4,4.3,0.1,8.6,0.2,12.8  c-0.1,0-0.2,0-0.2,0c-1.3,0.4-2.5,0.9-3.7,1.4c-0.6-0.9-1.3-1.8-1.9-2.7C59.6,83.5,57.1,81.7,55.4,79z M67,93.4  c-1-1.1-1.8-2.3-2.7-3.6c1-0.5,2-0.9,3.1-1.2C67.4,90.2,67.3,91.8,67,93.4z M66.5,72.4c-0.4,0-0.9,0.2-1.3,0.7  c-0.3,0.3-0.5,0.6-0.7,1c-1.6-4.9-4.2-9.4-5.6-14.4c-1.7-5.9-3.5-11.7-5.4-17.5C49.8,30.6,45.7,19.2,42,7.7c0.5-0.1,1.1-0.3,1.6-0.4  c3.4,4,4,10.2,5.7,15c2,5.7,3.9,11.4,6,17.1c2.1,5.8,4.4,11.6,6.5,17.5C63.5,62,64.9,67.2,66.5,72.4z"/>
</svg>